/* XPM */
static char * 01_xpm[] = {
"19 19 33 1",
" 	c None",
".	c #910091",
"+	c #660066",
"@	c #4D004D",
"#	c #A501A5",
"$	c #A401A4",
"%	c #9E019E",
"&	c #9D019D",
"*	c #960196",
"=	c #B2006C",
"-	c #E40026",
";	c #FB0004",
">	c #950195",
",	c #940194",
"'	c #8F018F",
")	c #CD003E",
"!	c #FF0000",
"~	c #870187",
"{	c #A70061",
"]	c #80017F",
"^	c #DE0020",
"/	c #780178",
"(	c #FA0003",
"_	c #7A017A",
":	c #E30025",
"<	c #9B019B",
"[	c #9B019A",
"}	c #9C019C",
"|	c #A301A3",
"1	c #A201A2",
"2	c #A101A1",
"3	c #4E004E",
"4	c #4F004F",
"...................",
"+++++++++++++++++++",
"@@@@@@@@@@@@@@@@@@@",
"##################$",
"%%%%%%%%%%%%&&&&&&&",
"*******=-;-=>>>>>>,",
"'''''')!!!!!)''''''",
"~~~~~{!!!!!!!{~~~~~",
"]]]]]^!!!!!!!^]]]]]",
"/////(!!!!!!!(_//__",
"]]]]]^!!!!!!!^]]]]]",
"~~~~~{!!!!!!!{~~~~~",
"'''''')!!!!!)''''''",
">>>>>>>=:;:=>>>>>>>",
"<<<<<<<<<<&&[&&&&&}",
"||||||#####|1|||||2",
"@@@@@@33444@@@@@@@@",
"+++++++++++++++++++",
"..................."};
