/* XPM */
static char * act_close_xpm[] = {
"19 19 62 1",
" 	c None",
".	c #910091",
"+	c #9C009C",
"@	c #A200A2",
"#	c #A700A7",
"$	c #660066",
"%	c #6E006E",
"&	c #6F006F",
"*	c #770077",
"=	c #8E008E",
"-	c #4D004D",
";	c #BA0000",
">	c #570057",
",	c #520052",
"'	c #5C005C",
")	c #6A006A",
"!	c #800080",
"~	c #A501A5",
"{	c #80017F",
"]	c #B20000",
"^	c #990199",
"/	c #9C019C",
"(	c #A101A1",
"_	c #BD0000",
":	c #A301A3",
"<	c #9E019E",
"[	c #8F018F",
"}	c #A60000",
"|	c #960196",
"1	c #9D019D",
"2	c #B50000",
"3	c #C90000",
"4	c #A201A2",
"5	c #690000",
"6	c #850185",
"7	c #950195",
"8	c #B00000",
"9	c #6B0000",
"0	c #7A0000",
"a	c #940194",
"b	c #9B019B",
"c	c #870187",
"d	c #8C018C",
"e	c #780000",
"f	c #E60000",
"g	c #940000",
"h	c #930193",
"i	c #9A019A",
"j	c #A001A0",
"k	c #FF0000",
"l	c #7D017D",
"m	c #9F019F",
"n	c #780178",
"o	c #820182",
"p	c #8A018A",
"q	c #910191",
"r	c #4E004E",
"s	c #610061",
"t	c #680068",
"u	c #760076",
"v	c #790079",
"w	c #A600A6",
"................+@#",
"$$$$$$$$$$$$$$$%&*=",
"--;>>,-------,>';)!",
"~~{]]^//(~(//^]_/~:",
"<<[]}}{|111|{23]114",
"|||{}3}5{[{523}67/(",
"[[[[{}3890983}{[ab(",
"cccd{e8f2g2f85{[hij",
"{{{{[[02k2k20l[[[im",
"nnlocccg2k2glcpp[^<",
"{{{{[[02k2k20l[[[im",
"ccc[{e8f2g2f856[hij",
"[[[[{}3890983}l[ab(",
"777{}3}5{[{5}3}67/(",
"bb[]}}{|^1^q{}}]114",
"::{]]^/(:::|q{]]/:4",
"--;>>,rrrrrr-,>>;st",
"$$$$$$$$$$$$$$$$$uv",
".................+w"};
