/* XPM */
static char * actshaderbeast_xpm[] = {
"19 19 64 1",
" 	c None",
".	c #910091",
"+	c #660066",
"@	c #4D004D",
"#	c #A401A4",
"$	c #A501A5",
"%	c #9D019D",
"&	c #9E019E",
"*	c #910191",
"=	c #9A019A",
"-	c #940194",
";	c #950195",
">	c #960196",
",	c #8A018A",
"'	c #770177",
")	c #930193",
"!	c #8F018F",
"~	c #840184",
"{	c #6D016D",
"]	c #6F016F",
"^	c #8C018C",
"/	c #870187",
"(	c #810181",
"_	c #790179",
":	c #630163",
"<	c #680168",
"[	c #730173",
"}	c #800180",
"|	c #80017F",
"1	c #7B017A",
"2	c #6D016C",
"3	c #5E015D",
"4	c #650165",
"5	c #780178",
"6	c #710171",
"7	c #911C35",
"8	c #C62011",
"9	c #731353",
"0	c #610161",
"a	c #6F1456",
"b	c #780177",
"c	c #6B016A",
"d	c #94005E",
"e	c #70016F",
"f	c #650164",
"g	c #7E017E",
"h	c #6B016B",
"i	c #660166",
"j	c #5A015A",
"k	c #690169",
"l	c #8B018B",
"m	c #670167",
"n	c #600160",
"o	c #640164",
"p	c #740174",
"q	c #9C019C",
"r	c #9B019A",
"s	c #9B019B",
"t	c #880188",
"u	c #A101A1",
"v	c #A301A3",
"w	c #A201A2",
"x	c #4F004F",
"y	c #4E004E",
"...................",
"+++++++++++++++++++",
"@@@@@@@@@@@@@@@@@@@",
"#$$$$$$$$$$$$$$$$$$",
"%%&**=&&&&&&&=**&&&",
"-;>,',)>>>>>),',>>>",
"!!!~{]~^!!!^~]{~!!!",
"///(_:<[}/}[<:_(///",
"||||12:3:4:3:21||||",
"5555567890a87]55555",
"|||||bcdefedcb|||||",
"//////ghijikg//////",
"!!!!!!l~mno~l!!!!!!",
";;;;;;;,p_[,;;;;;;;",
"q%q%q%rst!ls%ssssss",
"uvvvvvwuvvvvvvvvvvv",
"@@@@@@@@xxxyy@@@@@@",
"+++++++++++++++++++",
"..................."};
