/* XPM */
static char * backmin_xpm[] = {
"19 19 71 1",
" 	c None",
".	c #630063",
"+	c #6E006E",
"@	c #750075",
"#	c #730073",
"$	c #700070",
"%	c #6F006F",
"&	c #710071",
"*	c #740074",
"=	c #860086",
"-	c #850085",
";	c #820082",
">	c #7D007D",
",	c #780078",
"'	c #770077",
")	c #7A007A",
"!	c #7E007E",
"~	c #840084",
"{	c #930093",
"]	c #920092",
"^	c #8E008E",
"/	c #880088",
"(	c #810081",
"_	c #800080",
":	c #8B008B",
"<	c #8F008F",
"[	c #900090",
"}	c #7C007C",
"|	c #790079",
"1	c #7F007F",
"2	c #870087",
"3	c #8D008D",
"4	c #8C008C",
"5	c #8A008A",
"6	c #7D007C",
"7	c #6D006D",
"8	c #6A0069",
"9	c #6C006C",
"0	c #7E007D",
"a	c #760076",
"b	c #640064",
"c	c #5E005E",
"d	c #5F005F",
"e	c #660066",
"f	c #720072",
"g	c #680068",
"h	c #5D005D",
"i	c #540054",
"j	c #5A005A",
"k	c #670067",
"l	c #7F007E",
"m	c #7B007B",
"n	c #780077",
"o	c #70006F",
"p	c #550055",
"q	c #4C004C",
"r	c #4F004F",
"s	c #810181",
"t	c #810080",
"u	c #770076",
"v	c #6B006B",
"w	c #5C005C",
"x	c #520052",
"y	c #630062",
"z	c #870187",
"A	c #710070",
"B	c #910091",
"C	c #830083",
"D	c #830082",
"E	c #820081",
"F	c #840083",
"...................",
"+++++++++++++++++++",
"@@@@#$%%&#*@@@@@@@@",
"===-;>,')!;~-======",
"{{{]^/(>>_=:<]]{{{{",
"{{{{[:~}'@|123[]{{{",
"^^^345~6*789*>~/:33",
"=22==-;0a7bcde$|_~=",
"_(((__1>|fghiijk*}_",
"!llll006mno.pqrh+|>",
"_(s((t__16uvwxpyf}_",
"=2zzz2==-;}Abde#!~=",
"^^^^^^33:/('%&)~533",
"{{{{{{]]B32t!C5[]{{",
"]]]]]]]]B<://:<]]]]",
"--======-~DE;F-----",
"@@@@@@@@@@@@@@@@@@@",
"+++++++++++++++++++",
"..................."};
