/* XPM */
static char * backclose01_xpm[] = {
"19 19 94 2",
"  	c None",
". 	c #820082",
"+ 	c #830083",
"@ 	c #870087",
"# 	c #8D008D",
"$ 	c #940094",
"% 	c #9A009A",
"& 	c #750075",
"* 	c #740074",
"= 	c #760076",
"- 	c #7A007A",
"; 	c #810081",
"> 	c #880088",
", 	c #900090",
"' 	c #780078",
") 	c #7B007B",
"! 	c #8E008E",
"~ 	c #880188",
"{ 	c #870187",
"] 	c #8A018A",
"^ 	c #8E018E",
"/ 	c #920192",
"( 	c #960196",
"_ 	c #950195",
": 	c #940194",
"< 	c #930193",
"[ 	c #910191",
"} 	c #980198",
"| 	c #9A019A",
"1 	c #9D019D",
"2 	c #8F018F",
"3 	c #8D018D",
"4 	c #900190",
"5 	c #9C019C",
"6 	c #9F019F",
"7 	c #8C018C",
"8 	c #820081",
"9 	c #800080",
"0 	c #820182",
"a 	c #830183",
"b 	c #800180",
"c 	c #860086",
"d 	c #9B019B",
"e 	c #9E019E",
"f 	c #880187",
"g 	c #860185",
"h 	c #810180",
"i 	c #790079",
"j 	c #730073",
"k 	c #700070",
"l 	c #6F006F",
"m 	c #6E006E",
"n 	c #710071",
"o 	c #810181",
"p 	c #990199",
"q 	c #7D017D",
"r 	c #760176",
"s 	c #6B006B",
"t 	c #610061",
"u 	c #5D005D",
"v 	c #600060",
"w 	c #690069",
"x 	c #750175",
"y 	c #7F017E",
"z 	c #850185",
"A 	c #7F017F",
"B 	c #7E017E",
"C 	c #7C017C",
"D 	c #690068",
"E 	c #5C005C",
"F 	c #570057",
"G 	c #760175",
"H 	c #850184",
"I 	c #8B018B",
"J 	c #6A006A",
"K 	c #5E005E",
"L 	c #620062",
"M 	c #6C006B",
"N 	c #770177",
"O 	c #80017F",
"P 	c #860186",
"Q 	c #7B017B",
"R 	c #7A017A",
"S 	c #830182",
"T 	c #890189",
"U 	c #820181",
"V 	c #7F007F",
"W 	c #930192",
"X 	c #90018F",
"Y 	c #870186",
"Z 	c #770077",
"` 	c #850085",
" .	c #840084",
"..	c #920092",
". . . . . . . . . . . . . . + @ # $ % ",
"& & & & & & & & & & & & * & = - ; > , ",
"= = = = = = = = = = = = = = ' ) ; @ ! ",
"~ ~ ~ ~ { { { { ~ ~ ~ { { { ~ ] ^ / ( ",
"_ _ _ _ : < / < : : : / [ [ < _ } | 1 ",
"_ _ _ : < 2 3 ^ 4 [ [ 2 3 ^ [ _ } 5 6 ",
"2 2 2 ^ 7 { 8 9 0 a 0 b . c 7 [ ( d e ",
"f f f f g h i j k l m n i o ~ ^ : p 1 ",
"o o o o b q r s t u v w x y z 7 / } 5 ",
"A A A A B C x D E F E D G B H I / } 5 ",
"o o o o b B r J v K L M N O g 7 / } 5 ",
"{ { { { P 0 Q j l l k j R S T ^ : p 1 ",
"^ ^ ^ 3 I { + 9 U a o V ; { 7 [ ( d e ",
": : : < 4 ^ 7 3 2 4 2 7 I 3 [ _ } d e ",
"< < < / [ 4 4 [ W < W [ X 4 / : ( } | ",
"P P P z z z P Y { { { P z P { ~ I 3 4 ",
"& & & & & & = = = = = = & & = Z ) 9 + ",
"* * * * * * & & & & & * * * * = - 9 ` ",
". . . . . . . . . . . . . . .  .@ # .."};
