/* XPM */
static char * backdock_xpm[] = {
"19 19 73 1",
" 	c None",
".	c #820082",
"+	c #7A007A",
"@	c #730073",
"#	c #6B006B",
"$	c #660066",
"%	c #630063",
"&	c #7D007D",
"*	c #780078",
"=	c #700070",
"-	c #6E006E",
";	c #7E007E",
">	c #7F007F",
",	c #7C007C",
"'	c #760076",
")	c #750075",
"!	c #8B008B",
"~	c #8C008C",
"{	c #880088",
"]	c #870087",
"^	c #860086",
"/	c #850085",
"(	c #840084",
"_	c #970097",
":	c #960096",
"<	c #940094",
"[	c #930093",
"}	c #910091",
"|	c #8D008D",
"1	c #920092",
"2	c #990099",
"3	c #980098",
"4	c #900090",
"5	c #830083",
"6	c #720072",
"7	c #770077",
"8	c #800080",
"9	c #8A008A",
"0	c #8F008F",
"a	c #8E008E",
"b	c #950095",
"c	c #890089",
"d	c #810081",
"e	c #680068",
"f	c #600060",
"g	c #650065",
"h	c #6F006F",
"i	c #7B007B",
"j	c #870187",
"k	c #670067",
"l	c #590059",
"m	c #510051",
"n	c #540054",
"o	c #5C005C",
"p	c #6A006A",
"q	c #6C006C",
"r	c #790079",
"s	c #810181",
"t	c #910090",
"u	c #520052",
"v	c #4A004A",
"w	c #4C004C",
"x	c #530053",
"y	c #580058",
"z	c #5F005F",
"A	c #620062",
"B	c #6C006B",
"C	c #740073",
"D	c #7D007C",
"E	c #7F017E",
"F	c #640064",
"G	c #710071",
"H	c #740074",
"...++@#$%%%%%%%%%%%",
"..&*@@=------------",
";>,*'))))))))))))))",
"!~!{]^/(/^^^//^^^^^",
"__:<[}|!|}1[[1111[[",
"22_<1|^.^|}11[[[[<[",
"_3<4!5*678]9!!~~|0a",
"<b}cd)efgh7i,&>85]j",
"}[|.)klmno%kpqh@r8s",
"t[!;hfuvwxyozA$BCDE",
"}[|.)klmnoAgkp-6*8s",
"<:}9d'efF-'r+,;85]j",
"_3<4!5*G'8]c99!~|0a",
"22_b1|^.^|}1[[[[<[[",
"33:<[4|!|}[[<<<<<b[",
"aa!{^/((/^^]]]/////",
"55;+')HH)))))))))))",
"]5;*)@@@@----------",
"...++@@##$%%%%%%%%%"};
