/* XPM */
static char * backmax02_xpm[] = {
"19 19 58 1",
" 	c None",
".	c #700970",
"+	c #510951",
"@	c #400940",
"#	c #7E0A7E",
"$	c #7D0A7D",
"%	c #790A79",
"&	c #780A78",
"*	c #730A73",
"=	c #640964",
"-	c #720A72",
";	c #6F0A6F",
">	c #670967",
",	c #4B094B",
"'	c #660966",
")	c #690A69",
"!	c #620962",
"~	c #430943",
"{	c #3E093E",
"]	c #5A095A",
"^	c #640A63",
"/	c #5E095D",
"(	c #460946",
"_	c #580957",
":	c #4E094E",
"<	c #5E0A5E",
"[	c #590959",
"}	c #420942",
"|	c #540954",
"1	c #530953",
"2	c #600A60",
"3	c #6B0A6B",
"4	c #4A094A",
"5	c #440944",
"6	c #510950",
"7	c #3D093D",
"8	c #530952",
"9	c #500950",
"0	c #5E095E",
"a	c #390939",
"b	c #450945",
"c	c #4F094F",
"d	c #5B095B",
"e	c #5C095C",
"f	c #600960",
"g	c #6B096B",
"h	c #550955",
"i	c #470947",
"j	c #630963",
"k	c #770A77",
"l	c #6F096F",
"m	c #710971",
"n	c #770A76",
"o	c #730973",
"p	c #780978",
"q	c #7C0A7C",
"r	c #7B0A7B",
"s	c #410941",
"...................",
"+++++++++++++++++++",
"@@@@@@@@@@@@@@@@@@@",
"##################$",
"%%%%%%%%%%%%&&&&&&&",
"*********=********-",
";;;;;;;;>,';;;;;;;;",
")))))))!~{]=))!))))",
"^^^^^^/@({/^^_:/^^^",
"<<<<<[}|1}[2|{34[22",
"^^^^/5_/6789{~4/^^^",
")))!@|0)|a{bcd!))))",
";;>~4e;;e7,f>;;;;;;",
"*gh*i'**'|jg*******",
"kkl]lkkkm>.&n&&&&&&",
"$$$o$$###p#$q$$$$$r",
"@@@@@@@@sss@@@@@@@@",
"+++++++++++++++++++",
"..................."};
