/* XPM */
static char * backdock_act02_xpm[] = {
"19 19 66 1",
" 	c None",
".	c #7D097D",
"+	c #770977",
"@	c #6F096F",
"#	c #700970",
"$	c #710971",
"%	c #5D095D",
"&	c #5B095B",
"*	c #500950",
"=	c #4F094F",
"-	c #510951",
";	c #520952",
">	c #530953",
",	c #540954",
"'	c #550955",
")	c #560956",
"!	c #4C094C",
"~	c #430943",
"{	c #420942",
"]	c #410941",
"^	c #400940",
"/	c #3F093F",
"(	c #3E093E",
"_	c #7E0A7E",
":	c #7F0A7F",
"<	c #7D0A7D",
"[	c #600960",
"}	c #7B0A7B",
"|	c #7A0A7A",
"1	c #790A79",
"2	c #780A78",
"3	c #7C0A7C",
"4	c #620962",
"5	c #760A76",
"6	c #730A73",
"7	c #5E095E",
"8	c #3B093B",
"9	c #770A77",
"0	c #720A72",
"a	c #6F0A6F",
"b	c #590959",
"c	c #710A71",
"d	c #6C0A6C",
"e	c #690A69",
"f	c #670A67",
"g	c #2D092D",
"h	c #700A70",
"i	c #690A68",
"j	c #650A65",
"k	c #640A63",
"l	c #620A61",
"m	c #620A62",
"n	c #600A60",
"o	c #5E0A5E",
"p	c #470947",
"q	c #2A092A",
"r	c #380938",
"s	c #310931",
"t	c #280928",
"u	c #800A80",
"v	c #810A81",
"w	c #440944",
"x	c #5F095F",
"y	c #800980",
"z	c #780978",
"A	c #6E096E",
".+@@@@@@###$$$$$$$$",
"%&*=**-----;;>>,,,'",
")-!~{]^^!!!^^/(((((",
"_:_:__<<_[_<<}}|112",
"322222224/422222222",
"}256666678766666666",
"}90aaaaa'8baaaaaaaa",
"}5cdeeef!g,feeeeeee",
"|5hijkkl!g!lkkkkkkk",
"15afmno&!gp&ooooooo",
"}5hijkb'pq]'bkkkkkk",
"}5cde!!rstsr!!eeeee",
"}90aaabb!g]bbaaaaaa",
"}2566666bgb66666666",
"31112222bpb22222222",
"}}}33<<<<[:::uuuuvv",
"4;!p(///^^^^^]{{~~w",
"@xb>>>;;-----**====",
"y.z$$$$$###@@@@@@@A"};
