/* XPM */
static char * backclose_xpm[] = {
"19 19 72 1",
" 	c None",
".	c #630063",
"+	c #6E006E",
"@	c #7D007D",
"#	c #850085",
"$	c #730073",
"%	c #740074",
"&	c #780078",
"*	c #7E007E",
"=	c #820082",
"-	c #750075",
";	c #770077",
">	c #7B007B",
",	c #800080",
"'	c #840084",
")	c #870087",
"!	c #860086",
"~	c #8A008A",
"{	c #8D008D",
"]	c #8F008F",
"^	c #910091",
"/	c #960096",
"(	c #940094",
"_	c #930093",
":	c #920092",
"<	c #900090",
"[	c #980098",
"}	c #970097",
"|	c #950095",
"1	c #8E008E",
"2	c #8C008C",
"3	c #990099",
"4	c #8B008B",
"5	c #810081",
"6	c #7F007F",
"7	c #830083",
"8	c #870187",
"9	c #720072",
"0	c #6F006F",
"a	c #6F006E",
"b	c #710071",
"c	c #810080",
"d	c #940194",
"e	c #810181",
"f	c #80007F",
"g	c #7C007C",
"h	c #6A006A",
"i	c #610061",
"j	c #5D005D",
"k	c #5F005F",
"l	c #680068",
"m	c #750074",
"n	c #7E007D",
"o	c #850084",
"p	c #920192",
"q	c #7F017E",
"r	c #7F007E",
"s	c #680067",
"t	c #5B005B",
"u	c #560056",
"v	c #840083",
"w	c #910190",
"x	c #760075",
"y	c #600060",
"z	c #760076",
"A	c #7A007A",
"B	c #730072",
"C	c #790079",
"D	c #880088",
"E	c #8C008B",
"F	c #9C009C",
"G	c #890089",
"..............+++@#",
"++++++++++++$$%&*@=",
"--------------;>,')",
"!!!!!!!!!!!!!!)~{]^",
"/((_:^^^___:<<:(/[[",
"}|(_^12{]^<{2{<(}3[",
"111{4!56575,5!4<|[[",
"88)!#,&90a+b&c){_/d",
"ee5,fg-hijklmno4^|p",
"qqr*n>%stutsm@v~^(w",
"ee5,,@xhyjihz6#4^|[",
"88)!#5AB0009C5D{_/[",
"111{4)=6,=,*,!2^|[[",
"/(:^<{E21]14~2<(}3F",
"(:^^]]]<^:^]1]^_|}}",
"!!!!!!!!!!!#''#)G4^",
"------------%%-;A@)",
"+++++++++++++$$-C@=",
"...............++@#"};
