/* XPM */
static char * backdormantshaderbeast_xpm[] = {
"19 19 53 1",
" 	c None",
".	c #700970",
"+	c #510951",
"@	c #400940",
"#	c #7D0A7D",
"$	c #7E0A7E",
"%	c #780A78",
"&	c #790A79",
"*	c #720A72",
"=	c #730A73",
"-	c #700A70",
";	c #6B0A6B",
">	c #710A71",
",	c #6F0A6F",
"'	c #690A69",
")	c #560A56",
"!	c #580A58",
"~	c #670A67",
"{	c #6C0A6C",
"]	c #5F0A5F",
"^	c #4F0A4F",
"/	c #530A53",
"(	c #5B0A5B",
"_	c #640A64",
":	c #640A63",
"<	c #600A60",
"[	c #4C0A4B",
"}	c #5E0A5E",
"|	c #590A59",
"1	c #410A3F",
"2	c #3D0A3B",
"3	c #430B3F",
"4	c #4C0A4C",
"5	c #420B40",
"6	c #3C0A3C",
"7	c #550A54",
"8	c #450945",
"9	c #4A0A4A",
"0	c #510A50",
"a	c #620A62",
"b	c #550A55",
"c	c #510A51",
"d	c #490A49",
"e	c #540A54",
"f	c #520A52",
"g	c #4D0A4D",
"h	c #500A50",
"i	c #770A76",
"j	c #770A77",
"k	c #6A0A6A",
"l	c #7B0A7B",
"m	c #7C0A7C",
"n	c #410941",
"...................",
"+++++++++++++++++++",
"@@@@@@@@@@@@@@@@@@@",
"#$$$$$$$$$$$$$$$$$$",
"%%&&&&&&&&&&&&&&&&&",
"**==-;;>===>;;-====",
",,,,')!~{,{~!)',,,,",
"''''']^/(_(/^]'''''",
":::::<)^[^[^)<:::::",
"}}}}}|1234561!}}}}}",
":::::}7890987}:::::",
"''''''abcdcea''''''",
",,,,,,{~fgh~{,,,,,,",
"=======;(](;=======",
"%%%%%%ijk,{j%jjjjjj",
"l#####ml###########",
"@@@@@@@@nnn@@@@@@@@",
"+++++++++++++++++++",
"..................."};
