/* XPM */
static char * backdock01_xpm[] = {
"19 19 100 2",
"  	c None",
". 	c #910091",
"+ 	c #8C008C",
"@ 	c #860086",
"# 	c #820082",
"$ 	c #810081",
"% 	c #830083",
"& 	c #840084",
"* 	c #850085",
"= 	c #800080",
"- 	c #7A007A",
"; 	c #760076",
"> 	c #740074",
", 	c #750075",
"' 	c #7D007D",
") 	c #790079",
"! 	c #770077",
"~ 	c #910191",
"{ 	c #8F018F",
"] 	c #8C018C",
"^ 	c #8A018A",
"/ 	c #880188",
"( 	c #870187",
"_ 	c #860186",
": 	c #850185",
"< 	c #9C019C",
"[ 	c #990199",
"} 	c #970197",
"| 	c #950195",
"1 	c #940194",
"2 	c #920192",
"3 	c #8D018D",
"4 	c #930193",
"5 	c #9F019F",
"6 	c #980198",
"7 	c #830183",
"8 	c #8E018E",
"9 	c #9E019E",
"0 	c #9A019A",
"a 	c #960196",
"b 	c #840184",
"c 	c #720072",
"d 	c #810181",
"e 	c #8B018B",
"f 	c #9D019D",
"g 	c #820182",
"h 	c #760176",
"i 	c #690069",
"j 	c #610061",
"k 	c #650065",
"l 	c #700070",
"m 	c #780178",
"n 	c #7C017C",
"o 	c #7E017E",
"p 	c #7F017F",
"q 	c #800180",
"r 	c #820181",
"s 	c #680068",
"t 	c #590059",
"u 	c #510051",
"v 	c #550055",
"w 	c #5D005D",
"x 	c #640064",
"y 	c #6B006B",
"z 	c #6D006D",
"A 	c #70006F",
"B 	c #730073",
"C 	c #790179",
"D 	c #7E017D",
"E 	c #530053",
"F 	c #4B004B",
"G 	c #4D004D",
"H 	c #540054",
"I 	c #5A005A",
"J 	c #600060",
"K 	c #630063",
"L 	c #670067",
"M 	c #740174",
"N 	c #7A017A",
"O 	c #520052",
"P 	c #660066",
"Q 	c #6A006A",
"R 	c #6E006E",
"S 	c #790178",
"T 	c #6F006F",
"U 	c #770177",
"V 	c #7B017B",
"W 	c #7F017E",
"X 	c #9B019B",
"Y 	c #890189",
"Z 	c #8D008D",
"` 	c #780078",
" .	c #900090",
"..	c #890089",
"+.	c #7B007B",
"@.	c #9B009B",
"#.	c #950095",
"$.	c #8E008E",
"%.	c #880088",
"&.	c #7F007F",
". + @ # $ $ $ $ # # # # # # % % % & & ",
"* = - ; > > > > , , , , , , , , , , ; ",
"* $ ' ) ! ; ; ; ; ! ! ; ; , , , , , , ",
"~ { ] ^ / ( _ : _ ( ( ( ( _ : : : : : ",
"< [ } | 1 2 { 3 { 2 4 1 1 4 4 4 2 2 2 ",
"5 < 6 | 4 { ( 7 ( 8 2 1 1 1 4 4 1 1 1 ",
"9 0 a ~ ] b ) c ! d / e ] ] ] 3 3 8 8 ",
"f [ 2 ^ g h i j k l m n o p q r b _ ( ",
"< } 8 7 ; s t u v w x i y z A B C D q ",
"< } 3 p l j E F G H I w J K L z M N o ",
"f 6 { 7 ! i I O v w K P s Q R B S D q ",
"f [ 2 e g h i j k T U N V n W d b _ ( ",
"9 X a ~ ] b ) c ! d / ^ e e ] 3 3 8 8 ",
"5 < 6 a 4 { ( 7 ( 8 2 1 1 1 1 1 1 | | ",
"< 0 } | 1 2 8 3 { 2 1 1 1 | | | | | | ",
"| ~ 3 ^ / _ : : : ( ( / / / / Y Y Y ^ ",
"Z @ = - ! ; , , ; ; ; ; ; ! ! ! ! ! ` ",
" ...$ +.! , , , > > > > > > > > > > > ",
"@.#.$.%.& % # # # # # $ $ $ = = = = &."};
