/* XPM */
static char * backdormantshaderbeast01_xpm[] = {
"19 19 49 1",
" 	c None",
".	c #700970",
"+	c #510951",
"@	c #400940",
"#	c #7D0A7D",
"$	c #7E0A7E",
"%	c #780A78",
"&	c #790A79",
"*	c #720A72",
"=	c #730A73",
"-	c #700A70",
";	c #6B0A6B",
">	c #710A71",
",	c #6F0A6F",
"'	c #690A69",
")	c #560A56",
"!	c #580A58",
"~	c #670A67",
"{	c #6C0A6C",
"]	c #5F0A5F",
"^	c #4F0A4F",
"/	c #530A53",
"(	c #5B0A5B",
"_	c #640A64",
":	c #640A63",
"<	c #600A60",
"[	c #4C0A4B",
"}	c #5E0A5E",
"|	c #590A59",
"1	c #4F094E",
"2	c #400740",
"3	c #4C0A4C",
"4	c #550A54",
"5	c #4A094A",
"6	c #450945",
"7	c #510A50",
"8	c #620A62",
"9	c #550A55",
"0	c #510A51",
"a	c #440944",
"b	c #540A54",
"c	c #520A52",
"d	c #4D0A4D",
"e	c #500A50",
"f	c #770A76",
"g	c #770A77",
"h	c #7B0A7B",
"i	c #7C0A7C",
"j	c #410941",
"...................",
"+++++++++++++++++++",
"@@@@@@@@@@@@@@@@@@@",
"#$$$$$$$$$$$$$$$$$$",
"%%&&&&&&&&&&&&&&&&&",
"**==-;;>===>;;-====",
",,,,')!~{,{~!)',,,,",
"''''']^/(_(/^]'''''",
":::::<)^[^[^)<:::::",
"}}}}}|1223221!}}}}}",
":::::}4567654}:::::",
"''''''890a0b8''''''",
",,,,,,{~cde~{,,,,,,",
"=======;(](;=======",
"%%%%%%fg,;,g%gggggg",
"h#####i############",
"@@@@@@@@jjj@@@@@@@@",
"+++++++++++++++++++",
"..................."};
