/* XPM */
static char * backdockActive_xpm[] = {
"19 19 82 1",
" 	c None",
".	c #870087",
"+	c #830083",
"@	c #7E007E",
"#	c #7C007C",
"$	c #700070",
"%	c #630063",
"&	c #7D007D",
"*	c #790079",
"=	c #750075",
"-	c #730073",
";	c #740074",
">	c #6E006E",
",	c #7F007F",
"'	c #780078",
")	c #760076",
"!	c #720072",
"~	c #8B008B",
"{	c #8C008C",
"]	c #880088",
"^	c #860086",
"/	c #850085",
"(	c #810081",
"_	c #7B007B",
":	c #770077",
"<	c #840084",
"[	c #970097",
"}	c #960096",
"|	c #940094",
"1	c #930093",
"2	c #900090",
"3	c #890089",
"4	c #920092",
"5	c #990099",
"6	c #950095",
"7	c #6D006D",
"8	c #8E008E",
"9	c #8D008D",
"0	c #8A008A",
"a	c #650065",
"b	c #6F006F",
"c	c #800080",
"d	c #8F008F",
"e	c #940194",
"f	c #910091",
"g	c #820082",
"h	c #5C005C",
"i	c #660066",
"j	c #780077",
"k	c #870187",
"l	c #920192",
"m	c #5F005F",
"n	c #560056",
"o	c #810181",
"p	c #910190",
"q	c #8E008D",
"r	c #7F007E",
"s	c #7A007A",
"t	c #740073",
"u	c #680068",
"v	c #580058",
"w	c #500050",
"x	c #570057",
"y	c #670067",
"z	c #7A0079",
"A	c #7D007C",
"B	c #7E007D",
"C	c #7F017E",
"D	c #600060",
"E	c #520051",
"F	c #490049",
"G	c #6D006C",
"H	c #480048",
"I	c #4E004E",
"J	c #5E005E",
"K	c #6C006C",
"L	c #6A006A",
"M	c #5A005A",
"N	c #510051",
"O	c #690069",
"P	c #610061",
"Q	c #980098",
"..+@#$$%%%%%%%%%%%%",
"&&*=---;;>>>>>>>>>>",
"@,#')==;-!-========",
"~{~].^/(_:_(<//<</^",
"[[}||123#=#32444411",
"55[6|12^)7)^24111|1",
"[[|2890,>abc09988d8",
"e6f~]^g:ahijg^^.kkk",
"l|8.g,_$mnm$_,ccooo",
"p1q/rstuvwxy-zABrCC",
"l|8^@)7DEFwmG)#,(oo",
"e}f0g'7mwHIJK'(/.kk",
"[[|d0g'LMNvO:g3{888",
"55[|f8._LPOs.8f1|11",
"QQ}|4f9<)b)/841||44",
"88~]^/+@)!:,/..]]//",
"++@s)=;!b7b-=======",
"++@'=---!>>>>>>>>>>",
"30/c&->O%%%%%%%%%%%"};
