/* XPM */
static char * backactshaderbeast_xpm[] = {
"19 19 51 1",
" 	c None",
".	c #700970",
"+	c #510951",
"@	c #400940",
"#	c #7D0A7D",
"$	c #7E0A7E",
"%	c #780A78",
"&	c #790A79",
"*	c #720A72",
"=	c #730A73",
"-	c #700A70",
";	c #6B0A6B",
">	c #710A71",
",	c #6F0A6F",
"'	c #690A69",
")	c #560A56",
"!	c #580A58",
"~	c #670A67",
"{	c #6C0A6C",
"]	c #5F0A5F",
"^	c #4F0A4F",
"/	c #530A53",
"(	c #5B0A5B",
"_	c #640A64",
":	c #640A63",
"<	c #600A60",
"[	c #4C0A4B",
"}	c #5E0A5E",
"|	c #590A59",
"1	c #4F094E",
"2	c #6B072E",
"3	c #530737",
"4	c #4C0A4C",
"5	c #520738",
"6	c #550A54",
"7	c #55073D",
"8	c #4A0A4A",
"9	c #510A50",
"0	c #620A62",
"a	c #550A55",
"b	c #510A51",
"c	c #490A49",
"d	c #540A54",
"e	c #520A52",
"f	c #4D0A4D",
"g	c #500A50",
"h	c #770A76",
"i	c #770A77",
"j	c #7B0A7B",
"k	c #7C0A7C",
"l	c #410941",
"...................",
"+++++++++++++++++++",
"@@@@@@@@@@@@@@@@@@@",
"#$$$$$$$$$$$$$$$$$$",
"%%&&&&&&&&&&&&&&&&&",
"**==-;;>===>;;-====",
",,,,')!~{,{~!)',,,,",
"''''']^/(_(/^]'''''",
":::::<)^[^[^)<:::::",
"}}}}}|1234521!}}}}}",
":::::}6789876}:::::",
"''''''0abcbd0''''''",
",,,,,,{~efg~{,,,,,,",
"=======;(](;=======",
"%%%%%%hi,;,i%iiiiii",
"j#####k############",
"@@@@@@@@lll@@@@@@@@",
"+++++++++++++++++++",
"..................."};
