/* XPM */
static char * backdock02_xpm[] = {
"19 19 59 1",
" 	c None",
".	c #7D097D",
"+	c #770977",
"@	c #6F096F",
"#	c #700970",
"$	c #710971",
"%	c #5D095D",
"&	c #5B095B",
"*	c #500950",
"=	c #4F094F",
"-	c #510951",
";	c #520952",
">	c #530953",
",	c #540954",
"'	c #550955",
")	c #560956",
"!	c #4C094C",
"~	c #430943",
"{	c #420942",
"]	c #410941",
"^	c #400940",
"/	c #3F093F",
"(	c #3E093E",
"_	c #7E0A7E",
":	c #7F0A7F",
"<	c #7D0A7D",
"[	c #7B0A7B",
"}	c #7A0A7A",
"|	c #790A79",
"1	c #780A78",
"2	c #7C0A7C",
"3	c #730A73",
"4	c #720A72",
"5	c #770A77",
"6	c #6F0A6F",
"7	c #590959",
"8	c #760A76",
"9	c #710A71",
"0	c #6E0A6E",
"a	c #690A69",
"b	c #380938",
"c	c #5C095C",
"d	c #6D0A6D",
"e	c #470947",
"f	c #310931",
"g	c #640A63",
"h	c #3B093B",
"i	c #2D092D",
"j	c #280928",
"k	c #5E0A5E",
"l	c #4E094E",
"m	c #800A80",
"n	c #810A81",
"o	c #620962",
"p	c #440944",
"q	c #5F095F",
"r	c #800980",
"s	c #780978",
"t	c #6E096E",
".+@@@@@@###$$$$$$$$",
"%&*=**-----;;>>,,,'",
")-!~{]^^]]]^^/(((((",
"_:_:__<<___<<[[}||1",
"2111111111111111111",
"[134333!33333333333",
"[546667!76666666666",
"[890aa7b7caaaaaaaaa",
"}89d7,efe!''7777ggg",
"|89!!hijiiiffbh/ekk",
"[89d77!felllll77ggg",
"[890aa,b7caaaaaaaaa",
"[546667!76666666666",
"[133333!33333333333",
"2|||111111111111111",
"[[[22<<<<_:::mmmmnn",
"o;!e(///^^^^^]{{~~p",
"@q7>>>;;-----**====",
"r.s$$$$$###@@@@@@@t"};
