/* XPM */
static char * backmaximize01_xpm[] = {
"19 19 85 1",
" 	c None",
".	c #820082",
"+	c #810081",
"@	c #750075",
"#	c #740074",
"$	c #760076",
"%	c #730073",
"&	c #740073",
"*	c #880188",
"=	c #870187",
"-	c #850185",
";	c #800080",
">	c #820182",
",	c #860186",
"'	c #80007F",
")	c #7F007F",
"!	c #820081",
"~	c #850184",
"{	c #950195",
"]	c #940194",
"^	c #920192",
"/	c #8D008C",
"(	c #860086",
"_	c #840084",
":	c #8D018D",
"<	c #900190",
"[	c #830082",
"}	c #850085",
"|	c #8C008B",
"1	c #910191",
"2	c #930193",
"3	c #930192",
"4	c #8D018C",
"5	c #840083",
"6	c #7D007C",
"7	c #830182",
"8	c #7B007B",
"9	c #7A007A",
"0	c #8C018C",
"a	c #8F018F",
"b	c #890189",
"c	c #770076",
"d	c #700070",
"e	c #6E006E",
"f	c #6D006C",
"g	c #8E018E",
"h	c #880187",
"i	c #870186",
"j	c #80017F",
"k	c #6B006A",
"l	c #610061",
"m	c #5C005C",
"n	c #5E005E",
"o	c #660066",
"p	c #730072",
"q	c #7E017D",
"r	c #840184",
"s	c #810181",
"t	c #800180",
"u	c #7E017E",
"v	c #770177",
"w	c #6B006B",
"x	c #540054",
"y	c #5A005A",
"z	c #680068",
"A	c #750175",
"B	c #7D017D",
"C	c #7F017F",
"D	c #7F017E",
"E	c #7A0179",
"F	c #70006F",
"G	c #590059",
"H	c #600060",
"I	c #6E016E",
"J	c #790178",
"K	c #810180",
"L	c #770077",
"M	c #640064",
"N	c #720072",
"O	c #780077",
"P	c #860185",
"Q	c #8C008C",
"R	c #890089",
"S	c #8A018A",
"T	c #940193",
"....++.......++....",
"@@@@####@@@########",
"$$$@#%#@$$$@#%&@$$$",
"**=-.;;>-,->')!~,==",
"{{]^/(_=:<:,[}|12]]",
"{{]345667,>89.012]]",
"aaa:b+cdddef%)*0ggg",
"hhhi~jcklmnopqri===",
"sssstuvwmxyzABtss>>",
"CCCCDqEFlGHIJqDCCjj",
"sssssKuLwMwvussss>>",
"=====i};LNOKP====hh",
"ggggg:QR_;rS:gggggg",
"]]]]]221g0g^2]]]]]]",
"2222222^<<1^2T]]]]2",
",,,,,,==,,,=======,",
"@@@@@@$$$$$$@@@@@@@",
"######@@@@@########",
"..................."};
