/* XPM */
static char * backFbar01_xpm[] = {
"19 19 20 1",
" 	c None",
".	c #700970",
"+	c #510951",
"@	c #400940",
"#	c #7E0A7E",
"$	c #7D0A7D",
"%	c #790A79",
"&	c #780A78",
"*	c #730A73",
"=	c #720A72",
"-	c #6F0A6F",
";	c #690A69",
">	c #640A63",
",	c #5E0A5E",
"'	c #600A60",
")	c #770A77",
"!	c #770A76",
"~	c #7C0A7C",
"{	c #7B0A7B",
"]	c #410941",
"...................",
"+++++++++++++++++++",
"@@@@@@@@@@@@@@@@@@@",
"##################$",
"%%%%%%%%%%%%&&&&&&&",
"******************=",
"-------------------",
";;;;;;;;;;;;;;;;;;;",
">>>>>>>>>>>>>>>>>>>",
",,,,,,,,,,,'''',,''",
">>>>>>>>>>>>>>>>>>>",
";;;;;;;;;;;;;;;;;;;",
"-------------------",
"*******************",
"))))))))))&&!&&&&&&",
"$$$$$$#####$~$$$$${",
"@@@@@@@@]]]@@@@@@@@",
"+++++++++++++++++++",
"..................."};
