/* XPM */
static char * backmaximize_xpm[] = {
"19 19 70 1",
" 	c None",
".	c #630063",
"+	c #6E006E",
"@	c #750075",
"#	c #860086",
"$	c #840084",
"%	c #810081",
"&	c #7F007E",
"*	c #850085",
"=	c #7E007E",
"-	c #810080",
";	c #930093",
">	c #910090",
",	c #8C008B",
"'	c #830083",
")	c #8C008C",
"!	c #8F008E",
"~	c #820081",
"{	c #8B008A",
"]	c #900090",
"^	c #910091",
"/	c #7C007B",
"(	c #7C007C",
"_	c #820082",
":	c #800080",
"<	c #7A0079",
"[	c #8B008B",
"}	c #8E008E",
"|	c #8D008D",
"1	c #880088",
"2	c #760076",
"3	c #70006F",
"4	c #6F006F",
"5	c #700070",
"6	c #6D006D",
"7	c #6C006B",
"8	c #720072",
"9	c #880087",
"0	c #870087",
"a	c #7F007F",
"b	c #760075",
"c	c #6A006A",
"d	c #600060",
"e	c #5C005B",
"f	c #5D005D",
"g	c #650065",
"h	c #710071",
"i	c #7D007D",
"j	c #770076",
"k	c #6B006A",
"l	c #540053",
"m	c #590059",
"n	c #670067",
"o	c #740074",
"p	c #7F017E",
"q	c #7E007D",
"r	c #7D007C",
"s	c #790079",
"t	c #580058",
"u	c #5F005F",
"v	c #6E006D",
"w	c #780078",
"x	c #810181",
"y	c #80007F",
"z	c #870187",
"A	c #770077",
"B	c #890089",
"C	c #920092",
"D	c #8A008A",
"E	c #8F008F",
"...................",
"+++++++++++++++++++",
"@@@@@@@@@@@@@@@@@@@",
"###$%&&%$*$%==-$###",
";;;>,*'#)!)*~${];;;",
";;;^,'/(_*:<<~[^;;;",
"}}|)1:2345678=9)|}}",
"00##$abcdefghi'##00",
"%%%::ijkelmno(a:%%%",
"p&&=qrs4dtuvw(==&&p",
"x%%-:yi2c.c2q::%%%x",
"z00###$ajhA:$##00zz",
"}}}|||)B'a'B)||}}}}",
";;;;;CC])D|]C;;;;;;",
"CCCCCCC^]E]^CCCCCCC",
"**####*************",
"@@@@@@@@@@@@@@@@@@@",
"+++++++++++++++++++",
"..................."};
