/* XPM */
static char * backmin02_xpm[] = {
"19 19 64 1",
" 	c None",
".	c #700970",
"+	c #510951",
"@	c #400940",
"#	c #7E0A7E",
"$	c #6F0A6F",
"%	c #710971",
"&	c #730973",
"*	c #7B097B",
"=	c #7D0A7D",
"-	c #790A79",
";	c #760A76",
">	c #5C095C",
",	c #550955",
"'	c #670967",
")	c #720972",
"!	c #780A78",
"~	c #730A73",
"{	c #6A096A",
"]	c #520952",
"^	c #440944",
"/	c #6F096F",
"(	c #720A72",
"_	c #660966",
":	c #5E095E",
"<	c #480948",
"[	c #3D093D",
"}	c #430943",
"|	c #6B096B",
"1	c #690A69",
"2	c #650A65",
"3	c #620A62",
"4	c #5B095B",
"5	c #390939",
"6	c #370937",
"7	c #600960",
"8	c #640A63",
"9	c #600A5F",
"0	c #5C095B",
"a	c #350935",
"b	c #330933",
"c	c #560956",
"d	c #5D0A5C",
"e	c #5E0A5E",
"f	c #5B0A5B",
"g	c #540954",
"h	c #3E093E",
"i	c #320932",
"j	c #2D092D",
"k	c #570957",
"l	c #600A60",
"m	c #540953",
"n	c #3B093B",
"o	c #2F092F",
"p	c #4E094E",
"q	c #3C093C",
"r	c #6C0A6C",
"s	c #770A77",
"t	c #6D0A6D",
"u	c #710A70",
"v	c #740A73",
"w	c #7C0A7C",
"x	c #7B0A7B",
"y	c #410941",
"...................",
"+++++++++++++++++++",
"@@@@@@@@@@@@@@@@@@@",
"#####$%&*#########=",
"----;$>,');-!!!!!!!",
"~~~~~~{>]^{/~~~~~~(",
"$$$$$$$_:<[}'|$$$$$",
"1111111234<56>7_111",
"88888888890<ab5cd88",
"eeeeeeeeeefghijikll",
"888888888889mno}888",
"11111111111lpbp1111",
"$$$$$$$$$184qk$$$$$",
"~~~~~~~~~$re:r~~~~~",
"sssssssssstuv!!!!!!",
"======#####=w=====x",
"@@@@@@@@yyy@@@@@@@@",
"+++++++++++++++++++",
"..................."};
