/* XPM */
static char * backpokeshadebeast_xpm[] = {
"19 19 57 1",
" 	c None",
".	c #700970",
"+	c #510951",
"@	c #400940",
"#	c #7D0A7D",
"$	c #7E0A7E",
"%	c #780A78",
"&	c #790A79",
"*	c #720A72",
"=	c #730A73",
"-	c #6F0A6F",
";	c #670966",
">	c #600960",
",	c #6C0A6C",
"'	c #690A69",
")	c #620962",
"!	c #5B095B",
"~	c #640A64",
"{	c #640A63",
"]	c #5E095D",
"^	c #4F094F",
"/	c #5B0A5B",
"(	c #5F0A5F",
"_	c #5E0A5E",
":	c #550955",
"<	c #4E094E",
"[	c #570A57",
"}	c #4C094C",
"|	c #590958",
"1	c #510950",
"2	c #620A62",
"3	c #5C095C",
"4	c #590959",
"5	c #530953",
"6	c #670A67",
"7	c #550954",
"8	c #5E095E",
"9	c #530952",
"0	c #5D095D",
"a	c #6D0A6D",
"b	c #520952",
"c	c #580958",
"d	c #670967",
"e	c #540954",
"f	c #700A70",
"g	c #710A71",
"h	c #570957",
"i	c #5C095B",
"j	c #650964",
"k	c #6D096D",
"l	c #740A74",
"m	c #770A77",
"n	c #560A56",
"o	c #610961",
"p	c #7A0A7A",
"q	c #7C0A7C",
"r	c #410941",
"...................",
"+++++++++++++++++++",
"@@@@@@@@@@@@@@@@@@@",
"#$$$$$$$$$$$$$$$$$$",
"%%%%%%%&&&&&&&&&&&&",
"*==================",
"-------;>,---------",
"'''''')+!~'''''''''",
"{{{{{]^/({{{{{{{{{{",
"____:<[/___________",
"{{{]}|12{{{{{{{{{{{",
"''3^4+456''''''''''",
"-;^+7890a----------",
"=!bc8cdef==========",
"ghij8k4lmmmmmmmmmmm",
"n!oi%pq$$##########",
"@@@@@@@@rrr@@@@@@@@",
"+++++++++++++++++++",
"..................."};
