/* XPM */
static char * backFbar_xpm[] = {
"19 19 19 1",
" 	c None",
".	c #820082",
"+	c #750075",
"@	c #740074",
"#	c #760076",
"$	c #880188",
"%	c #870187",
"&	c #950195",
"*	c #940194",
"=	c #8F018F",
"-	c #8E018E",
";	c #880187",
">	c #810181",
",	c #820182",
"'	c #7F017F",
")	c #80017F",
"!	c #930193",
"~	c #940193",
"{	c #860186",
"...................",
"++++++++++++@@@@@@@",
"###################",
"$$$$$$$$$$$%%%%%%%%",
"&&&&&&&&&&&********",
"&&&&&&&&&&&********",
"===========--------",
";;;;;;;;;;;;;;;%%%%",
">>>>>>>>>>>,,,,>>,,",
"'''''''''''))))''))",
">>>>>>>>>>>,,,,>>,,",
"%%%%%%%%%%%;;;;%%;;",
"-------------------",
"*******************",
"!!!!!!******~*****!",
"{{{{{{%%%%%%%%%%%%{",
"++++++######+++++++",
"@@@@@@+++++@@@@@@@@",
"..................."};
