/* XPM */
static char * backbackBars_xpm[] = {
"19 19 15 1",
" 	c None",
".	c #630063",
"+	c #6E006E",
"@	c #750075",
"#	c #760076",
"$	c #860086",
"%	c #870087",
"&	c #930093",
"*	c #940094",
"=	c #8E008E",
"-	c #870187",
";	c #810181",
">	c #7F017E",
",	c #920092",
"'	c #850085",
"...................",
"+++++++++++++++++++",
"@@##############@@@",
"$$%%%%%%%%%%%%%%$$$",
"&&**************&&&",
"&&**************&&&",
"===================",
"-------------------",
";;;;;;;;;;;;;;;;;;;",
">>>>>>>>>>>>>>>>>>>",
";;;;;;;;;;;;;;;;;;;",
"-------------------",
"===================",
"&&&&&&&&&&&&&&&&&&&",
",,,,,,,,&&&&,,,,,,,",
"''$$$$$$$$$$'''''''",
"@@@@@@@@@@@@@@@@@@@",
"+++++++++++++++++++",
"..................."};
