/* XPM */
static char * backdockActive01_xpm[] = {
"19 19 104 2",
"  	c None",
". 	c #910091",
"+ 	c #8C008C",
"@ 	c #860086",
"# 	c #820082",
"$ 	c #810081",
"% 	c #830083",
"& 	c #840084",
"* 	c #850085",
"= 	c #800080",
"- 	c #7A007A",
"; 	c #760076",
"> 	c #740074",
", 	c #750075",
"' 	c #7D007D",
") 	c #790079",
"! 	c #770077",
"~ 	c #730073",
"{ 	c #910191",
"] 	c #8F018F",
"^ 	c #8C018C",
"/ 	c #8A018A",
"( 	c #880188",
"_ 	c #860186",
": 	c #830183",
"< 	c #7C007C",
"[ 	c #780078",
"} 	c #820182",
"| 	c #850185",
"1 	c #9C019C",
"2 	c #990199",
"3 	c #970197",
"4 	c #950195",
"5 	c #940194",
"6 	c #7E007E",
"7 	c #930193",
"8 	c #920192",
"9 	c #9F019F",
"0 	c #980198",
"a 	c #960196",
"b 	c #870187",
"c 	c #6E006E",
"d 	c #9E019E",
"e 	c #9A019A",
"f 	c #8E018E",
"g 	c #7F017F",
"h 	c #660066",
"i 	c #6F006F",
"j 	c #800180",
"k 	c #8D018D",
"l 	c #9D019D",
"m 	c #780178",
"n 	c #670067",
"o 	c #5E005E",
"p 	c #680068",
"q 	c #790179",
"r 	c #880187",
"s 	c #830182",
"t 	c #7C017B",
"u 	c #710170",
"v 	c #60005F",
"w 	c #570057",
"x 	c #600060",
"y 	c #710171",
"z 	c #80017F",
"A 	c #810181",
"B 	c #7B017A",
"C 	c #750174",
"D 	c #690069",
"E 	c #590059",
"F 	c #500050",
"G 	c #580058",
"H 	c #740174",
"I 	c #7A017A",
"J 	c #7D017D",
"K 	c #870186",
"L 	c #770177",
"M 	c #610061",
"N 	c #520052",
"O 	c #4A004A",
"P 	c #510051",
"Q 	c #6E006D",
"R 	c #490049",
"S 	c #5F005F",
"T 	c #860185",
"U 	c #900190",
"V 	c #6B006B",
"W 	c #5A005A",
"X 	c #7C017C",
"Y 	c #620062",
"Z 	c #6A006A",
"` 	c #7B017B",
" .	c #700070",
"..	c #890189",
"+.	c #840184",
"@.	c #8D008D",
"#.	c #900090",
"$.	c #890089",
"%.	c #7B007B",
"&.	c #9B009B",
"*.	c #950095",
"=.	c #8E008E",
"-.	c #880088",
";.	c #7F007F",
". + @ # $ $ $ # # # # # # # % % % & & ",
"* = - ; > > > , ; ; ; ; , , , , , , ; ",
"* $ ' ) ! ; ; ; > ~ > ; ; , , , , , , ",
"{ ] ^ / ( ( _ : < [ < } _ _ | | | | | ",
"1 2 3 4 5 5 { / ' ; 6 / { 7 7 7 8 8 8 ",
"9 1 0 a 5 5 { b ! c ! b { 5 5 5 5 5 5 ",
"d e 4 { ] f / g c h i j / k f f f f f ",
"l 0 8 ^ ( b : m n o p q : _ b b b b b ",
"1 3 ] r s j t u v w x y t z A A A A A ",
"1 3 ] _ g B C D E F G p H I J g g g g ",
"l 0 ] K g L c M N O P x Q L J j A A A ",
"l 0 8 / s q c x P R F S Q q A T b b b ",
"d e 4 U / : ) V W N E D [ : / k f f f ",
"9 1 0 4 7 ] ( X V Y Z ` ( ] 8 5 5 4 4 ",
"1 e 3 4 7 8 f | !  .! | ] 7 5 4 4 4 4 ",
"4 { k ..b _ +.g ! ~ [ j _ ( ( ....../ ",
"@.@ = - ! ; , ~  .c  .> ; ! ! ! ! ! [ ",
"#.$.$ %.! , , > ~ ~ ~ > > > > > > > > ",
"&.*.=.-.& % # # # # $ $ $ $ = = = = ;."};
