/* XPM */
static char * backmin01_xpm[] = {
"19 19 86 1",
" 	c None",
".	c #820082",
"+	c #810081",
"@	c #750075",
"#	c #740074",
"$	c #730073",
"%	c #720072",
"&	c #760076",
"*	c #710071",
"=	c #700070",
"-	c #880188",
";	c #860186",
">	c #830183",
",	c #7E017E",
"'	c #790079",
")	c #7B007B",
"!	c #7F007F",
"~	c #850185",
"{	c #870187",
"]	c #950195",
"^	c #930193",
"/	c #8F018F",
"(	c #890189",
"_	c #7D007D",
":	c #7E007E",
"<	c #8D018C",
"[	c #900190",
"}	c #920192",
"|	c #940194",
"1	c #910191",
"2	c #8C018C",
"3	c #850085",
"4	c #780078",
"5	c #7A007A",
"6	c #8E018E",
"7	c #8D018D",
"8	c #8B018B",
"9	c #6D006D",
"0	c #6A006A",
"a	c #880187",
"b	c #770177",
"c	c #6E006D",
"d	c #650064",
"e	c #5F005F",
"f	c #600060",
"g	c #670067",
"h	c #810181",
"i	c #800180",
"j	c #7E017D",
"k	c #7A0179",
"l	c #730172",
"m	c #690068",
"n	c #5E005D",
"o	c #550055",
"p	c #550054",
"q	c #5B005B",
"r	c #680068",
"s	c #750175",
"t	c #7F017F",
"u	c #7F017E",
"v	c #7C017C",
"w	c #790178",
"x	c #710170",
"y	c #640064",
"z	c #560056",
"A	c #4D004D",
"B	c #500050",
"C	c #5E005E",
"D	c #6F016F",
"E	c #7A017A",
"F	c #780177",
"G	c #6C016C",
"H	c #5D005D",
"I	c #530053",
"J	c #630063",
"K	c #730173",
"L	c #7D017D",
"M	c #720172",
"N	c #650065",
"O	c #740174",
"P	c #860185",
"Q	c #820181",
"R	c #7B017B",
"S	c #820182",
"T	c #840184",
"U	c #910190",
".....++++..........",
"@@@##$%$$##########",
"&&&@#*==*$@&&&&&&&&",
"---;>,'')!>~;{{{{{{",
"]]]^/(._:+{<[}^||||",
"]]]|123_4&5+-61^|||",
"///678~:@909#:~(276",
"aaaa{;>,bcdefg*5h~{",
"hhhhhhijklmnopqrsjh",
"ttttttujvwxyzABCDEu",
"hhhhhhhhi,FGHIoJKLh",
"{{{{{{{{;>LMNfgOtPa",
"666666662-QF=%R~876",
"||||||||}6-StT81^||",
"^^^^^^||^[2((2U^||^",
";;;;;;{{{~TS>T;{{{;",
"@@@@@@&&&&@@#@@@@@@",
"######@@@@@########",
"..................."};
