/* XPM */
static char * backclose02_xpm[] = {
"19 19 64 1",
" 	c None",
".	c #700970",
"+	c #780978",
"@	c #7C097C",
"#	c #800980",
"$	c #510951",
"%	c #580958",
"&	c #5E095E",
"*	c #6E096E",
"=	c #400940",
"-	c #490949",
";	c #4F094F",
">	c #540954",
",	c #640964",
"'	c #7E0A7E",
")	c #7D0A7D",
"!	c #790A79",
"~	c #760A76",
"{	c #780A78",
"]	c #7C0A7C",
"^	c #730A73",
"/	c #6A096A",
"(	c #6B096B",
"_	c #700A70",
":	c #7B0A7B",
"<	c #6F0A6F",
"[	c #470947",
"}	c #680967",
"|	c #600960",
"1	c #670967",
"2	c #720A72",
"3	c #770A77",
"4	c #690A69",
"5	c #650965",
"6	c #390939",
"7	c #5A095A",
"8	c #500950",
"9	c #6E0A6E",
"0	c #710A71",
"a	c #640A63",
"b	c #590959",
"c	c #3A093A",
"d	c #450945",
"e	c #340934",
"f	c #50094F",
"g	c #6D0A6D",
"h	c #7A0A7A",
"i	c #5E0A5E",
"j	c #280928",
"k	c #600A60",
"l	c #630A62",
"m	c #6C0A6C",
"n	c #3B093B",
"o	c #570957",
"p	c #650963",
"q	c #6A0969",
"r	c #610961",
"s	c #770A76",
"t	c #410941",
"u	c #4E094E",
"v	c #530953",
"w	c #5D095D",
"x	c #5F095F",
"y	c #7F097F",
"................+@#",
"$$$$$$$$$$$$$$$$%&*",
"===============-;>,",
"'''''''''''''''''')",
"!!!!~!!!!!!!!{~{{{]",
"^^^^^/^^^^^^(&_^^{:",
"<<<<<<[}<<<|$1<<23:",
"444444567486|4490~:",
"aaaaaaabcdefaaag0~h",
"iiiiiiiidjdkkklm0~!",
"aaaaaaafednbaaag0~h",
"4444444[847644490~:",
"<<<<<<op<<<&><<<23:",
"^^^^^1q^^^^^/r^^^{:",
"3333.33333{{s{{{{{]",
"))))))''''')])))))]",
"========ttt=====-uv",
"$$$$$$$$$$$$$$$$$wx",
".................+y"};
