/* XPM */
static char * backmax01_xpm[] = {
"19 19 80 1",
" 	c None",
".	c #820082",
"+	c #750075",
"@	c #740074",
"#	c #760076",
"$	c #880188",
"%	c #870187",
"&	c #860186",
"*	c #950195",
"=	c #940194",
"-	c #930193",
";	c #910191",
">	c #900190",
",	c #8C018C",
"'	c #890189",
")	c #8F018F",
"!	c #8E018E",
"~	c #8D018D",
"{	c #8A018A",
"]	c #840184",
"^	c #7C007C",
"/	c #790079",
"(	c #7F007F",
"_	c #880187",
":	c #7E017E",
"<	c #6B006B",
"[	c #6A006A",
"}	c #730073",
"|	c #7D017D",
"1	c #810181",
"2	c #830183",
"3	c #850185",
"4	c #870186",
"5	c #800180",
"6	c #7E017D",
"7	c #790179",
"8	c #720072",
"9	c #690069",
"0	c #620062",
"a	c #6C006B",
"b	c #740174",
"c	c #760176",
"d	c #820182",
"e	c #7F017F",
"f	c #7F017E",
"g	c #7B017A",
"h	c #710071",
"i	c #6C006C",
"j	c #670067",
"k	c #610061",
"l	c #60005F",
"m	c #660065",
"n	c #6B006A",
"o	c #6E006E",
"p	c #7A0179",
"q	c #770177",
"r	c #700070",
"s	c #6D006D",
"t	c #640064",
"u	c #5E005E",
"v	c #600060",
"w	c #660066",
"x	c #770077",
"y	c #7B007B",
"z	c #850184",
"A	c #7F007E",
"B	c #750074",
"C	c #8B018B",
"D	c #7A007A",
"E	c #810081",
"F	c #840084",
"G	c #920192",
"H	c #860086",
"I	c #830083",
"J	c #890089",
"K	c #850085",
"L	c #870087",
"M	c #7D007D",
"N	c #800080",
"O	c #860185",
"...................",
"++++++++++++@@@@@@@",
"###################",
"$$$$$$$$%&%%%%%%%%%",
"******=-;>;-=======",
"******=>,',;-======",
"))))!~{]^/($,,,~~!!",
"___%&]:+<[}|111234%",
"1115678900abc@+/|5d",
"ef6gchijklmnnno@p6e",
"15|qrssatuvtw9rx|5d",
"&2|@or+@[vvws}y1z4_",
",%ABhxee+[<}^2$C~!!",
";C.yD.{{ED^FC>G-===",
";,H.I'!!JKL,>G-===-",
"32(M(d33.NE]O4%%%%&",
"+@}8}@+#+@@++++++++",
"@@@@@@++++@@@@@@@@@",
"..................."};
