/* XPM */
static char * bigbutton_xpm[] = {
"19 19 95 2",
"  	c None",
". 	c #910091",
"+ 	c #660066",
"@ 	c #4D004D",
"# 	c #A501A5",
"$ 	c #A001A0",
"% 	c #9A019A",
"& 	c #930193",
"* 	c #810181",
"= 	c #940194",
"- 	c #A401A4",
"; 	c #9E019E",
"> 	c #7E017E",
", 	c #440044",
"' 	c #7A017A",
") 	c #940193",
"! 	c #970197",
"~ 	c #9D019D",
"{ 	c #960196",
"] 	c #920192",
"^ 	c #7B017B",
"/ 	c #390038",
"( 	c #300030",
"_ 	c #760176",
": 	c #880187",
"< 	c #900190",
"[ 	c #950195",
"} 	c #8F018F",
"| 	c #8C018C",
"1 	c #750175",
"2 	c #3E003E",
"3 	c #520052",
"4 	c #730172",
"5 	c #670167",
"6 	c #720172",
"7 	c #830182",
"8 	c #8B018B",
"9 	c #870187",
"0 	c #840184",
"a 	c #6C016C",
"b 	c #430043",
"c 	c #5C005C",
"d 	c #790178",
"e 	c #870186",
"f 	c #7D017D",
"g 	c #670166",
"h 	c #3B003B",
"i 	c #7E017D",
"j 	c #80017F",
"k 	c #7D017C",
"l 	c #690168",
"m 	c #3C003C",
"n 	c #60015F",
"o 	c #6F016E",
"p 	c #3C003B",
"q 	c #780178",
"r 	c #70016F",
"s 	c #4B004A",
"t 	c #340033",
"u 	c #340034",
"v 	c #2C002B",
"w 	c #350035",
"x 	c #320032",
"y 	c #4B004B",
"z 	c #750174",
"A 	c #720171",
"B 	c #600160",
"C 	c #330033",
"D 	c #540054",
"E 	c #610061",
"F 	c #830183",
"G 	c #6A016A",
"H 	c #560056",
"I 	c #6C006C",
"J 	c #7C007C",
"K 	c #410041",
"L 	c #5A015A",
"M 	c #6F006F",
"N 	c #890189",
"O 	c #7D007D",
"P 	c #5E005E",
"Q 	c #40003F",
"R 	c #9B019B",
"S 	c #8F008F",
"T 	c #7F007F",
"U 	c #7E007E",
"V 	c #7A007A",
"W 	c #9C019C",
"X 	c #A301A3",
"Y 	c #900090",
"Z 	c #8E008E",
"` 	c #990199",
" .	c #A101A1",
"..	c #4E004E",
"+.	c #4F004F",
". . . . . . . . . . . . . . . . . . . ",
"+ + + + + + + + + + + + + + + + + + + ",
"@ @ @ @ @ @ @ @ @ @ @ @ @ @ @ @ @ @ @ ",
"# # # # # # $ % & * & = $ # # # # # - ",
"; ; ; ; ; ; ; % > , ' ) ! ~ ~ ~ ~ ~ ~ ",
"{ { { { { { ] ^ / ( / _ : < [ [ [ [ = ",
"} } } } } | 1 2 3 4 5 2 6 7 8 } } } } ",
"9 9 9 9 0 a b c d e f g h a i 0 9 9 9 ",
"j j j k l m 3 n o l o n 3 p l d i j j ",
"q q q r s , t u v v v w x 2 y r 6 ' ' ",
"j j j k z ' A o B C b D E r z d j j j ",
"9 9 9 9 9 9 9 F G h H I F 9 9 9 9 9 9 ",
"} } } } } } 9 J K L 2 M N 8 } } } } } ",
"[ [ [ [ [ < < O P Q P O < [ [ [ [ [ [ ",
"R R R R R R S S T U V S R W ~ ~ ~ ~ W ",
"X X X X X X $ % Y Z ! ` ; X X X X X  .",
"@ @ @ @ @ @ ....+.+.+.@ @ @ @ @ @ @ @ ",
"+ + + + + + + + + + + + + + + + + + + ",
". . . . . . . . . . . . . . . . . . . "};
