/* XPM */
static char * bottom_gripF_xpm[] = {
"19 9 23 1",
" 	c None",
".	c #380138",
"+	c #3D013D",
"@	c #3B013B",
"#	c #360136",
"$	c #450145",
"%	c #470147",
"&	c #4C014C",
"*	c #520152",
"=	c #540154",
"-	c #590159",
";	c #5E015E",
">	c #610161",
",	c #660166",
"'	c #6B016B",
")	c #6E046E",
"!	c #730573",
"~	c #780578",
"{	c #7D057D",
"]	c #7A057A",
"^	c #700470",
"/	c #750475",
"(	c #780478",
".+@####+@@@+####@@.",
"$$%%&&&&&*&&&&%%%$$",
"=-----;;>>>;;-----=",
",,,,''''''''''',,,,",
")!!~~~~~{]{~~~~~!!)",
"^^///(((({((((///^^",
"=-----;;>>>;;-----=",
"$$%%&&&&&*&&&&%%%$$",
".@@####+@@@+####@@."};
