/* XPM */
static char * bottom_bar_F01_xpm[] = {
"19 9 10 1",
" 	c None",
".	c #420542",
"+	c #570657",
"@	c #660866",
"#	c #800A7F",
"$	c #960C96",
"%	c #990C99",
"&	c #9C0C9C",
"*	c #9E0C9E",
"=	c #A10CA1",
"...................",
"+++++++++++++++++++",
"@@@@@@@@@@@@@@@@@@@",
"###################",
"$%%&&*=======*&&%%$",
"###################",
"@@@@@@@@@@@@@@@@@@@",
"+++++++++++++++++++",
"..................."};
