/* XPM */
static char * bottom_gripF01_xpm[] = {
"19 9 30 1",
" 	c None",
".	c #380138",
"+	c #360136",
"@	c #3B013B",
"#	c #450145",
"$	c #470147",
"%	c #4A014A",
"&	c #4C014C",
"*	c #4F014F",
"=	c #540154",
"-	c #590159",
";	c #5C015C",
">	c #5E015E",
",	c #610161",
"'	c #660166",
")	c #6B016B",
"!	c #6E016E",
"~	c #6E046E",
"{	c #730573",
"]	c #780578",
"^	c #7D057D",
"/	c #80057F",
"(	c #820681",
"_	c #850684",
":	c #700470",
"<	c #750475",
"[	c #780478",
"}	c #520152",
"|	c #400140",
"1	c #3D013D",
"...++++@@@@@+++....",
"##$$%%&&&*&&&%$$$##",
"=-----;>>,>>;-----=",
"''''))))!!!))))''''",
"~{{]]]^/(_(/^]]]{{~",
"::<<<[[[[^[[[[<<<::",
"----=->>,,,>>-=----",
"**&$$$&&&}&&&$$$&**",
"%#|@+++1@@@1+++@|#%"};
