/* XPM */
static char * button_bar_xpm[] = {
"19 19 43 1",
" 	c None",
".	c #910091",
"+	c #8C008C",
"@	c #660066",
"#	c #630063",
"$	c #4D004D",
"%	c #4F004F",
"&	c #540054",
"*	c #590059",
"=	c #5E005E",
"-	c #A501A5",
";	c #9E019E",
">	c #8F018F",
",	c #A401A4",
"'	c #990199",
")	c #870187",
"!	c #9D019D",
"~	c #960196",
"{	c #7D017D",
"]	c #6B016B",
"^	c #950195",
"/	c #940194",
"(	c #8A018A",
"_	c #820182",
":	c #610161",
"<	c #570157",
"[	c #80017F",
"}	c #780177",
"|	c #6E016E",
"1	c #5E015E",
"2	c #5C015C",
"3	c #520151",
"4	c #780178",
"5	c #750175",
"6	c #520152",
"7	c #4C014B",
"8	c #7A017A",
"9	c #9B019B",
"0	c #9B019A",
"a	c #9C019C",
"b	c #A301A3",
"c	c #A201A2",
"d	c #A101A1",
".........+.........",
"@@@@@@@@###@@@@@@@@",
"$$$$$$%&*=*&%$$$$$$",
"--------;>;-------,",
";;;;;;;'>)>'!!!!!!!",
"~~~~~~~>{]{>^^^^^^/",
">>>>>(_{]:]{_(>>>>>",
"))))_{]]:<:]]{_))))",
"[[[}|]1223221]|}[[[",
"45|]:2<63736<::]|58",
"[[[}|]1223221]|}[[[",
"))))_{]]:<:]]{_))))",
">>>>>(_{]:]{_(>>>>>",
"^^^^^^^>{]{>^^^^^^^",
"9999999'>)>'0!!!!!a",
"bbbbbb--;>;bcbbbbbd",
"$$$$$$%&*=*&%$$$$$$",
"@@@@@@@@###@@@@@@@@",
".........+........."};
