/* XPM */
static char * clock_bar02_xpm[] = {
"80 19 299 2",
"  	c None",
". 	c #910091",
"+ 	c #920092",
"@ 	c #930093",
"# 	c #940094",
"$ 	c #630063",
"% 	c #640064",
"& 	c #650065",
"* 	c #660066",
"= 	c #670067",
"- 	c #680068",
"; 	c #690069",
"> 	c #6A006A",
", 	c #6B006B",
"' 	c #6C006C",
") 	c #6D006D",
"! 	c #6E006E",
"~ 	c #6F006F",
"{ 	c #700070",
"] 	c #520052",
"^ 	c #530053",
"/ 	c #540054",
"( 	c #560056",
"_ 	c #580058",
": 	c #590059",
"< 	c #5A005A",
"[ 	c #5B005B",
"} 	c #5C005C",
"| 	c #5D005D",
"1 	c #5E005E",
"2 	c #5F005F",
"3 	c #600060",
"4 	c #610061",
"5 	c #620062",
"6 	c #510051",
"7 	c #4F004F",
"8 	c #A601A6",
"9 	c #A501A5",
"0 	c #9F019F",
"a 	c #9E019E",
"b 	c #9D019D",
"c 	c #960196",
"d 	c #950195",
"e 	c #970197",
"f 	c #980198",
"g 	c #970298",
"h 	c #980298",
"i 	c #980299",
"j 	c #99029A",
"k 	c #970198",
"l 	c #8F018F",
"m 	c #900190",
"n 	c #910191",
"o 	c #920192",
"p 	c #920193",
"q 	c #930194",
"r 	c #940295",
"s 	c #950296",
"t 	c #960398",
"u 	c #970399",
"v 	c #98049B",
"w 	c #99059D",
"x 	c #99059F",
"y 	c #9A07A1",
"z 	c #9A07A3",
"A 	c #9B07A4",
"B 	c #9C08A5",
"C 	c #9C08A6",
"D 	c #9D08A7",
"E 	c #98059D",
"F 	c #97039A",
"G 	c #870187",
"H 	c #880187",
"I 	c #880188",
"J 	c #890188",
"K 	c #890189",
"L 	c #8A0189",
"M 	c #8A018A",
"N 	c #8B018B",
"O 	c #8C018C",
"P 	c #8D018D",
"Q 	c #8E018E",
"R 	c #8F0190",
"S 	c #910292",
"T 	c #930295",
"U 	c #950398",
"V 	c #97039B",
"W 	c #98059E",
"X 	c #9907A2",
"Y 	c #9A0AA6",
"Z 	c #9A0DAB",
"` 	c #9A11AF",
" .	c #9A14B4",
"..	c #9918B8",
"+.	c #991BBC",
"@.	c #981EC0",
"#.	c #9721C3",
"$.	c #9723C4",
"%.	c #9624C6",
"&.	c #9724C6",
"*.	c #9724C7",
"=.	c #9824C8",
"-.	c #9721C2",
";.	c #981BBC",
">.	c #9A11B0",
",.	c #990AA6",
"'.	c #9807A1",
").	c #97059D",
"!.	c #96039A",
"~.	c #940397",
"{.	c #920294",
"].	c #910291",
"^.	c #80017F",
"/.	c #800180",
"(.	c #810181",
"_.	c #820181",
":.	c #820182",
"<.	c #830182",
"[.	c #840183",
"}.	c #840184",
"|.	c #850185",
"1.	c #860186",
"2.	c #8F018E",
"3.	c #960499",
"4.	c #9C0AA9",
"5.	c #9D0EAF",
"6.	c #9C14B6",
"7.	c #9524C4",
"8.	c #912DCA",
"9.	c #8C35D1",
"0.	c #873DD6",
"a.	c #8146DB",
"b.	c #7B4EDF",
"c.	c #7654E2",
"d.	c #7358E5",
"e.	c #715BE6",
"f.	c #705CE6",
"g.	c #7661F3",
"h.	c #745FEF",
"i.	c #7661F4",
"j.	c #745FEE",
"k.	c #725BE6",
"l.	c #7358E4",
"m.	c #7654E1",
"n.	c #863DD6",
"o.	c #8B35D1",
"p.	c #902DCB",
"q.	c #9424C4",
"r.	c #9B14B5",
"s.	c #9C0EAF",
"t.	c #9B0AA9",
"u.	c #950498",
"v.	c #930294",
"w.	c #89018A",
"x.	c #810180",
"y.	c #780178",
"z.	c #790179",
"A.	c #7C017C",
"B.	c #7E017D",
"C.	c #7F017F",
"D.	c #850184",
"E.	c #930193",
"F.	c #9D0AAA",
"G.	c #9E0FB1",
"H.	c #9D15B9",
"I.	c #991DC0",
"J.	c #9427C8",
"K.	c #8D33D0",
"L.	c #853FD7",
"M.	c #7D4BDE",
"N.	c #7456E3",
"O.	c #6A63E8",
"P.	c #606FEC",
"Q.	c #5879EE",
"R.	c #3289DB",
"S.	c #368DE4",
"T.	c #3896F2",
"U.	c #3695ED",
"V.	c #399CFA",
"W.	c #3A9BFA",
"X.	c #3798F2",
"Y.	c #368CE4",
"Z.	c #3587DC",
"`.	c #2E7FCC",
" +	c #853FD8",
".+	c #8E33D0",
"++	c #9527C9",
"@+	c #9A1DC1",
"#+	c #9D0FB2",
"$+	c #9C0AAA",
"%+	c #97059C",
"&+	c #950397",
"*+	c #7E017E",
"=+	c #7D017D",
"-+	c #7D017C",
";+	c #7B017B",
">+	c #7A017A",
",+	c #830183",
"'+	c #860185",
")+	c #8B018A",
"!+	c #930496",
"~+	c #95059B",
"{+	c #9A0EAC",
"]+	c #9914B3",
"^+	c #961CBA",
"/+	c #9325C2",
"(+	c #8E2EC9",
"_+	c #8838D0",
":+	c #8142D6",
"<+	c #794DDA",
"[+	c #6F58DE",
"}+	c #6762E2",
"|+	c #606AE5",
"1+	c #5B71E6",
"2+	c #5776E6",
"3+	c #5379E6",
"4+	c #557CEB",
"5+	c #537AE7",
"6+	c #567CEC",
"7+	c #5C71E6",
"8+	c #616AE5",
"9+	c #6862E2",
"0+	c #7058DF",
"a+	c #7A4DDA",
"b+	c #8242D6",
"c+	c #8938D1",
"d+	c #8F2ECA",
"e+	c #9425C4",
"f+	c #971CBC",
"g+	c #9A14B5",
"h+	c #9B0EAE",
"i+	c #9B0AA7",
"j+	c #96059C",
"k+	c #930497",
"l+	c #910293",
"m+	c #870186",
"n+	c #8D018E",
"o+	c #8F0290",
"p+	c #900292",
"q+	c #920394",
"r+	c #96059A",
"s+	c #96079E",
"t+	c #970AA3",
"u+	c #970EA9",
"v+	c #9712AE",
"w+	c #9616B3",
"x+	c #951BB7",
"y+	c #9221BB",
"z+	c #8F27BF",
"A+	c #8C2CC2",
"B+	c #8930C4",
"C+	c #8634C5",
"D+	c #8437C5",
"E+	c #8139C5",
"F+	c #803BC5",
"G+	c #8734C5",
"H+	c #9321BB",
"I+	c #9716B3",
"J+	c #9812AF",
"K+	c #990EAA",
"L+	c #980AA5",
"M+	c #9807A0",
"N+	c #950399",
"O+	c #940396",
"P+	c #920293",
"Q+	c #900291",
"R+	c #8E018F",
"S+	c #8C018B",
"T+	c #910190",
"U+	c #930293",
"V+	c #940294",
"W+	c #96049A",
"X+	c #98079E",
"Y+	c #9808A0",
"Z+	c #980AA1",
"`+	c #980BA3",
" @	c #970CA4",
".@	c #970DA5",
"+@	c #960EA5",
"@@	c #950EA5",
"#@	c #950FA5",
"$@	c #970EA5",
"%@	c #940296",
"&@	c #910192",
"*@	c #960195",
"=@	c #960197",
"-@	c #970297",
";@	c #960297",
">@	c #960298",
",@	c #950196",
"'@	c #940194",
")@	c #9B019B",
"!@	c #9C019C",
"~@	c #9D019C",
"{@	c #9C019B",
"]@	c #9B019A",
"^@	c #A401A4",
"/@	c #A301A3",
"(@	c #A201A2",
". . . . . . . . . . . . . . . . + + @ # # # # # # # # # # # # # # # # # # # # # # # # # # # # # # # # # # # @ @ + . . . . . . . . . . . . . . . . . . . . . . . ",
"$ $ % & & * * * * * * * = - ; ; ; ; ; ; ; ; ; ; ; ; ; > > , ' ) ! ~ { { { { { { { { { { ~ ! ) ' , , , , , , , > > ; ; ; ; ; ; ; - = * * * * * * * & & % $ $ $ $ ",
"] ] ] ] ] ] ^ / ( _ : : : : : : < [ } | 1 2 2 3 4 5 % * = ; > , ' ' ) ! ~ { { { { ~ ! ) ' ' , > ; = * % 5 4 3 2 2 1 | } [ < : : : : : : _ ( / ^ ] ] ] ] ] ] 6 7 ",
"8 9 9 9 9 9 9 9 9 9 9 9 9 9 9 9 9 9 9 9 9 9 9 9 9 9 9 9 9 9 9 9 9 9 9 9 9 9 9 9 9 9 9 9 9 9 9 9 9 9 9 9 9 9 9 9 9 9 9 9 9 9 9 9 9 9 9 9 9 9 9 9 9 9 9 9 9 9 9 9 ",
"0 a a a a a a a a a a a a a a a a a a a a a a a b b b a a a a a a b b b a a a a a a b b b b a a a a a b b b b b b b b b b b b b b b b b b b b b b b b b b a b b ",
"c c c c c c c c c c c c c c c c c c c c c c c d c c e e f f f g h g g g i j j j j i g g g g g k e e e c c c c c c c c d d d d d d d d d d d d d d d d d d d d d ",
"l l l l l l l l l l l l l l l l m m m n n o p q r s t u v w x y z A B C D D D D D D C B A z y x E v F t s r q o o n n m m l l l l l l l l l l l l l l l l l l l ",
"G G G G G G G H H I J K L M M N O P Q R S T U V W X Y Z `  ...+.@.#.$.%.&.&.*.=.=.=.&.$.-.@.;... .>.Z ,.'.).!.~.{.].l Q P O N M M L K J I H H G G G G G G G G G ",
"^.^.^./.(._._.:.<.[.}.|.1.G J M O 2.n r 3.E z 4.5.6.+.7.8.9.0.a.b.c.d.e.f.g.h.i.j.i.k.l.m.b.a.n.o.p.q.;.r.s.t.X ).u.v.m Q N w.I G 1.|.}.[.<.:._._.(.x./././.^.^.",
"y.y.z.A.B.C.^./.(._.<.[.D.1.I M P m E.t E z F.G.H.I.J.K.L.M.N.O.P.Q.R.S.T.U.V.W.W.X.U.Y.Z.`.O.N.M. +.+++@+H.#+$+z %+&+p m O M I 1.D.[.<._.x./.^.C.*+=+-+A.;+>+>+",
"^.^.^.^.x._._.:.,+,+}.|.'+1.H J )+P l S !+~+'.Y {+]+^+/+(+_+:+<+[+}+|+1+2+3+4+4+5+6+7+8+9+0+a+b+c+d+e+f+g+h+i+X j+k+l+l P N K I m+'+|.}.,+<.:._._.(.x./.^.^.^.^.",
"G G G G G G G G I I I K K K M M N N O n+o+p+q+~.r+s+t+u+v+w+x+y+z+A+B+C+D+E+F+F+E+D+G+B+A+z+H+x+I+J+K+L+M+%+N+O+P+Q+R+P O S+)+M L K K I I I H G G G G G G G G G ",
"l l l l l l l l l l l l l l l l l l l m m T+n o U+V+s t W+%+X+Y+Z+`+ @.@+@@@#@#@@@$@.@ @`+Z+Y+X+%+W+U %@r U+o &@m m m l l l l l l l l l l l l l l l l l l l l l ",
"d d d d d d d d d d d d d d d d d d d d d d d d *@c c c c =@-@-@-@g g g ;@;@;@;@>@g g g g g ;@;@c c ,@c *@d d d d '@'@'@'@d d d d d d d d d d d d d d d d d d d ",
")@)@)@)@)@)@)@)@)@)@)@)@)@)@)@)@)@)@)@)@)@)@)@)@)@)@)@)@)@)@)@)@)@)@)@)@)@)@)@)@!@!@b b b b b b b ~@!@{@]@]@]@{@!@b b b b b b b b b b b b b b b b b b b b b b b ",
"^@/@/@/@/@/@/@/@/@/@/@/@/@/@/@/@/@/@/@/@/@^@^@9 9 9 9 9 9 9 9 9 9 9 9 9 9 9 9 9 9 9 9 9 9 ^@^@/@/@/@(@(@(@(@(@(@/@/@/@/@/@/@/@/@/@/@/@/@/@/@/@/@/@/@/@/@/@/@/@(@",
"] ] ] ] ] ] ^ / ( _ : : : : : : < [ } | 1 2 2 3 4 5 % * = ; > , ' ' ) ! ~ { { { { ~ ! ) ' ' , > ; = * % 5 4 3 2 2 1 | } [ < : : : : : : _ ( / ^ ] ] ] ] ] ] 6 7 ",
"$ $ % & & * * * * * * * = - ; ; ; ; ; ; ; > > , , , , , , , ' ) ! ~ { { { { { { { { { { ~ ! ) ' , > > ; ; ; ; ; ; ; ; ; ; ; ; ; - = * * * * * * * & & % $ $ $ $ ",
". . . . . . . . . . . . . . . . . . . . . + @ @ # # # # # # # # # # # # # # # # # # # # # # # # # # # # # # @ @ + . . . . . . . . . . . . . . . . . . . . . . . "};
