/* XPM */
static char * clock_bar_xpm[] = {
"90 19 112 2",
"  	c None",
". 	c #920092",
"+ 	c #910091",
"@ 	c #930093",
"# 	c #940094",
"$ 	c #640064",
"% 	c #630063",
"& 	c #650065",
"* 	c #660066",
"= 	c #670067",
"- 	c #680068",
"; 	c #690069",
"> 	c #6A006A",
", 	c #6B006B",
"' 	c #6C006C",
") 	c #6D006D",
"! 	c #6E006E",
"~ 	c #6F006F",
"{ 	c #700070",
"] 	c #4D004D",
"^ 	c #4E004E",
"/ 	c #4F004F",
"( 	c #510051",
"_ 	c #520052",
": 	c #530053",
"< 	c #540054",
"[ 	c #560056",
"} 	c #580058",
"| 	c #590059",
"1 	c #5A005A",
"2 	c #5B005B",
"3 	c #5C005C",
"4 	c #5D005D",
"5 	c #5E005E",
"6 	c #5F005F",
"7 	c #600060",
"8 	c #610061",
"9 	c #620062",
"0 	c #A601A6",
"a 	c #A501A5",
"b 	c #A401A4",
"c 	c #9F019F",
"d 	c #9E019E",
"e 	c #9D019D",
"f 	c #970197",
"g 	c #960196",
"h 	c #950195",
"i 	c #940194",
"j 	c #900190",
"k 	c #8F018F",
"l 	c #880188",
"m 	c #870187",
"n 	c #860186",
"o 	c #8A018A",
"p 	c #8E018D",
"q 	c #910190",
"r 	c #940193",
"s 	c #950194",
"t 	c #980198",
"u 	c #990199",
"v 	c #9A019A",
"w 	c #9B019B",
"x 	c #810180",
"y 	c #80017F",
"z 	c #830182",
"A 	c #840183",
"B 	c #870186",
"C 	c #8B018A",
"D 	c #8F018D",
"E 	c #920191",
"F 	c #960195",
"G 	c #9C019C",
"H 	c #A001A0",
"I 	c #930193",
"J 	c #910191",
"K 	c #8F018E",
"L 	c #8C018B",
"M 	c #8A0189",
"N 	c #880187",
"O 	c #860185",
"P 	c #820181",
"Q 	c #790179",
"R 	c #780178",
"S 	c #7A017A",
"T 	c #7C017C",
"U 	c #7F017F",
"V 	c #830183",
"W 	c #8B018B",
"X 	c #A101A1",
"Y 	c #A201A2",
"Z 	c #7B017B",
"` 	c #850184",
" .	c #890188",
"..	c #980197",
"+.	c #9A0199",
"@.	c #9D019C",
"#.	c #9F019E",
"$.	c #A101A0",
"%.	c #A401A3",
"&.	c #A301A3",
"*.	c #890189",
"=.	c #89018A",
"-.	c #8C018C",
";.	c #8E018E",
">.	c #930192",
",.	c #970196",
"'.	c #990197",
").	c #9A0198",
"!.	c #90018F",
"~.	c #8D018D",
"{.	c #9C019B",
"].	c #9B019A",
". + + + + + + + + + + + + + + + + + + + + + . . @ # # # # # # # # # # # # # # # # # # # # # # # # # # # # # # # # # # # @ @ . + + + + + + + + + + + + + + + + + + + + + + + + + + . ",
"$ % % % % % % % $ & & * * * * * * * = - ; ; ; ; ; ; ; ; ; ; ; ; ; > > , ' ) ! ~ { { { { { { { { { { ~ ! ) ' , , , , , , , > > ; ; ; ; ; ; ; - = * * * * * * * & & $ % % % % % % % $ ",
"] ] ] ^ / ( _ _ _ _ _ _ : < [ } | | | | | | 1 2 3 4 5 6 6 7 8 9 $ * = ; > , ' ' ) ! ~ { { { { ~ ! ) ' ' , > ; = * $ 9 8 7 6 6 5 4 3 2 1 | | | | | | } [ < : _ _ _ _ _ _ ( / ^ ] ] ] ",
"0 a a a a a 0 a a a a a a a a a a a a a a a a a a a a a a a a a a a a a a a a a a a a a a a a a a a a a a a a a a a a a a a a a a a a a a a a a a a a a a a a a a a a a a a a b b a ",
"c d d d d d c d d d d d d d d d d d d d d d d d d d d d d d d d d d d d d d d d d d d d d d d d d d d d d d d d d e e e e e e e e e e e e e e e e e e e e e e e e e e d e e e e e d ",
"f g g g g g g g g g g g g g g g g g g g g g g g g g g h h i i i h h g g g h h i i i h g g g g h i i i i h h h h h h h h h h h h h h h h h h h h h h h h h h h h h h h h h h h i i h ",
"j k k k k k k k k k k k k k k k k k k k k k k k k k k k k k k k k j j j j j k k k k k j j j j k k k k k j j j j j k k k k k k k k k k k k k k k k k k k k k k k k k k k k k k k k j ",
"l m m m m m m m m m m m m m m m m m m m m m m n n n l o p q r s s h h h g f t t u v v w w w w v v u t t f g h h h s s r q p o l n n n m m m m m m m m m m m m m m m m m m m m m m l ",
"x y y y y y y y y y y y y y y y y y x x z A B C D E r s h F g g f f t u v G d c H H H H H H H H H H c d G v u t g h i I J j K p L M N O A z P x y y y y y y y y y y y y y y y y y x ",
"Q R R R R R R R R R R R R Q Q S T U V m W k J I i g t v G d H X X X X X X X X X X Y b a 0 0 a b Y X X X X X X X X X X H d G v t g i I J k W m V U T S Q R R R R Q Q S S S S S S S Z ",
"x y y y y y y y y y y y y y y y y y y y y y x P z ` B  .L K E s ..+.@.#.$.Y %.a a b &.X H H X &.b a a %.Y $.#.@.+...s E K L  .B ` z P x y y y y y y y y y y y y y y y y y y y y y x ",
"l m m m m m m m m m m m m m m m m m m m m m m m m m m l *.=.W -.;.q >.r r r I I I s ,.'.).).'.,.s I I I r s s s s s s r E !.p -.o *.l l m m m m m m m m m m m m m m m m m m m m m l ",
"j k k k k k k k k k k k k k k k k k k k k k k k k k k k k k k k k k k k ;.;.~.-.-.~.~.;.k k ;.~.~.-.-.~.;.k k k ;.~.-.-.-.~.;.k k k k k k k k k k k k k k k k k k k k k k k k k k j ",
"g h h h h h h h h h h h h h h h h h h h h h h h h h h h h h h h h h h h h h h h h h i i i i i h h h h h i i i i i h h h h h i i i i i h h h h h h h h h h h h h h h h h h h h h h g ",
"G w w w w w w w w w w w w w w w w w w w w w w w w w w w w w w w w w w w w w w w w w w w w w G G e e e e e e e @.G {.].].].{.G e e e e e e e e e e e e e e e e e e e e e e e e G G e ",
"b &.&.&.&.&.b &.&.&.&.&.&.&.&.&.&.&.&.&.&.&.&.&.&.&.&.b b a a a a a a a a a a a a a a a a a a a a a a b b &.&.&.Y Y Y Y Y Y &.&.&.&.&.&.&.&.&.&.&.&.&.&.&.&.&.&.&.&.&.&.&.Y Y X X Y ",
"] ] ] ^ / ( _ _ _ _ _ _ : < [ } | | | | | | 1 2 3 4 5 6 6 7 8 9 $ * = ; > , ' ' ) ! ~ { { { { ~ ! ) ' ' , > ; = * $ 9 8 7 6 6 5 4 3 2 1 | | | | | | } [ < : _ _ _ _ _ _ ( / ^ ] ] ] ",
"$ % % % % % % % $ & & * * * * * * * = - ; ; ; ; ; ; ; > > , , , , , , , ' ) ! ~ { { { { { { { { { { ~ ! ) ' , > > ; ; ; ; ; ; ; ; ; ; ; ; ; - = * * * * * * * & & $ % % % % % % % $ ",
". + + + + + + + + + + + + + + + + + + + + + + + + + + . @ @ # # # # # # # # # # # # # # # # # # # # # # # # # # # # # # @ @ . + + + + + + + + + + + + + + + + + + + + + + + + + + . "};
