/* XPM */
static char * clock_Fbar_xpm[] = {
"19 19 31 1",
" 	c None",
".	c #910091",
"+	c #660066",
"@	c #4D004D",
"#	c #4F004F",
"$	c #520052",
"%	c #540054",
"&	c #A501A5",
"*	c #A401A4",
"=	c #9E019E",
"-	c #9D019D",
";	c #960196",
">	c #9B019B",
",	c #950195",
"'	c #940194",
")	c #8F018F",
"!	c #870187",
"~	c #910191",
"{	c #80017F",
"]	c #990199",
"^	c #780178",
"/	c #7D017C",
"(	c #850184",
"_	c #8A018A",
":	c #9C019C",
"<	c #7A017A",
"[	c #9B019A",
"}	c #A301A3",
"|	c #A201A2",
"1	c #A101A1",
"2	c #4E004E",
"...................",
"+++++++++++++++++++",
"@@###$$%%%%%$$$##@@",
"&&&&&&&&&&&&&&&&&&*",
"========&&&=-------",
";;;;;;;>>>>>,,,,,,'",
")))))),,,>,,,))))))",
"!!!!!)~),,,)~)!!!!!",
"{{{{!!)~~]~~)!!{{{{",
"^^/{{(_']:]'_({{/<<",
"{{{{!!)~~]~~)!!{{{{",
"!!!!!)~),,,)~)!!!!!",
")))))),,,>,,,))))))",
",,,,,,,>>>>>,,,,,,,",
">>>>>>>>&&&-[-----:",
"}}}}}}&&&&&}|}}}}}1",
"@@@@@@22###@@@@@@@@",
"+++++++++++++++++++",
"..................."};
