/* XPM */
static char * clock_bar01_xpm[] = {
"90 19 270 2",
"  	c None",
". 	c #920092",
"+ 	c #910091",
"@ 	c #930093",
"# 	c #940094",
"$ 	c #640064",
"% 	c #630063",
"& 	c #650065",
"* 	c #660066",
"= 	c #670067",
"- 	c #680068",
"; 	c #690069",
"> 	c #6A006A",
", 	c #6B006B",
"' 	c #6C006C",
") 	c #6D006D",
"! 	c #6E006E",
"~ 	c #6F006F",
"{ 	c #700070",
"] 	c #4D004D",
"^ 	c #4E004E",
"/ 	c #4F004F",
"( 	c #510051",
"_ 	c #520052",
": 	c #530053",
"< 	c #540054",
"[ 	c #560056",
"} 	c #580058",
"| 	c #590059",
"1 	c #5A005A",
"2 	c #5B005B",
"3 	c #5C005C",
"4 	c #5D005D",
"5 	c #5E005E",
"6 	c #5F005F",
"7 	c #600060",
"8 	c #610061",
"9 	c #620062",
"0 	c #A601A6",
"a 	c #A501A5",
"b 	c #A401A4",
"c 	c #9F019F",
"d 	c #9E019E",
"e 	c #9D019D",
"f 	c #970197",
"g 	c #960196",
"h 	c #950195",
"i 	c #940194",
"j 	c #900190",
"k 	c #8F018F",
"l 	c #910191",
"m 	c #920192",
"n 	c #930193",
"o 	c #950295",
"p 	c #960296",
"q 	c #970397",
"r 	c #980399",
"s 	c #99039B",
"t 	c #9A049D",
"u 	c #9B049F",
"v 	c #9C04A1",
"w 	c #9D04A2",
"x 	c #9E04A3",
"y 	c #9A049E",
"z 	c #99039C",
"A 	c #98039A",
"B 	c #970398",
"C 	c #960297",
"D 	c #880188",
"E 	c #870187",
"F 	c #890189",
"G 	c #8A018A",
"H 	c #8B018B",
"I 	c #8C018C",
"J 	c #8D018D",
"K 	c #8E018F",
"L 	c #900191",
"M 	c #920193",
"N 	c #940296",
"O 	c #960299",
"P 	c #98049C",
"Q 	c #9905A0",
"R 	c #9B08A4",
"S 	c #9C0AA9",
"T 	c #9D0DAE",
"U 	c #9E10B3",
"V 	c #9E13B7",
"W 	c #9E16BB",
"X 	c #9E18BF",
"Y 	c #9E1BC2",
"Z 	c #9E1CC4",
"` 	c #9E1DC6",
" .	c #9F1DC6",
"..	c #9A08A4",
"+.	c #98059F",
"@.	c #97049B",
"#.	c #950298",
"$.	c #930295",
"%.	c #910192",
"&.	c #8E018E",
"*.	c #810180",
"=.	c #80017F",
"-.	c #820181",
";.	c #830182",
">.	c #840183",
",.	c #850184",
"'.	c #860185",
").	c #870186",
"!.	c #890187",
"~.	c #8A0189",
"{.	c #8F018E",
"].	c #940295",
"^.	c #960499",
"/.	c #99059E",
"(.	c #9B07A4",
"_.	c #9D0AAA",
":.	c #9E0EB0",
"<.	c #9D14B7",
"[.	c #9A1CBE",
"}.	c #9625C6",
"|.	c #922ECD",
"1.	c #8D37D4",
"2.	c #883FD9",
"3.	c #8248DE",
"4.	c #7C50E2",
"5.	c #7756E6",
"6.	c #735BE9",
"7.	c #725DEA",
"8.	c #715DEA",
"9.	c #725CEA",
"0.	c #725DE9",
"a.	c #735BE8",
"b.	c #7756E5",
"c.	c #8148DE",
"d.	c #873FD9",
"e.	c #8C37D4",
"f.	c #912ECE",
"g.	c #9525C6",
"h.	c #991CBE",
"i.	c #9C14B7",
"j.	c #9D0EB0",
"k.	c #9C0AAA",
"l.	c #9A07A3",
"m.	c #98059D",
"n.	c #950498",
"o.	c #930294",
"p.	c #790179",
"q.	c #780178",
"r.	c #7B017B",
"s.	c #7C017C",
"t.	c #7E017E",
"u.	c #7F017F",
"v.	c #800180",
"w.	c #810181",
"x.	c #820182",
"y.	c #830183",
"z.	c #860186",
"A.	c #8A018B",
"B.	c #9A05A0",
"C.	c #9C08A6",
"D.	c #9F0CAE",
"E.	c #9F12B6",
"F.	c #9E19BE",
"G.	c #9A22C6",
"H.	c #922DCE",
"I.	c #8A3AD6",
"J.	c #8048DD",
"K.	c #7655E4",
"L.	c #6C61E9",
"M.	c #616FED",
"N.	c #567BF1",
"O.	c #4C86F3",
"P.	c #458FF5",
"Q.	c #3F94F7",
"R.	c #3C98F8",
"S.	c #3A9AF8",
"T.	c #399BF8",
"U.	c #932DCE",
"V.	c #9E0CAE",
"W.	c #99059F",
"X.	c #970399",
"Y.	c #7D017D",
"Z.	c #7A017A",
"`.	c #840184",
" +	c #880187",
".+	c #900292",
"++	c #920496",
"@+	c #95059B",
"#+	c #9807A1",
"$+	c #9A0AA7",
"%+	c #9B0EAD",
"&+	c #9A15B4",
"*+	c #971DBC",
"=+	c #9326C4",
"-+	c #8E30CC",
";+	c #883AD3",
">+	c #8045D9",
",+	c #7751DE",
"'+	c #6C5EE2",
")+	c #6369E6",
"!+	c #5B72E9",
"~+	c #5579EA",
"{+	c #507FEA",
"]+	c #4C83EA",
"^+	c #4986EA",
"/+	c #5679EA",
"(+	c #5C72E9",
"_+	c #6469E6",
":+	c #6D5EE3",
"<+	c #7851DE",
"[+	c #8145D9",
"}+	c #893AD4",
"|+	c #8F30CD",
"1+	c #9426C6",
"2+	c #981DBE",
"3+	c #9B15B6",
"4+	c #9C0EAF",
"5+	c #9B0AA8",
"6+	c #9907A2",
"7+	c #96059C",
"8+	c #930497",
"9+	c #910293",
"0+	c #8C018D",
"a+	c #8F0190",
"b+	c #910292",
"c+	c #9808A1",
"d+	c #990BA7",
"e+	c #9A0EAC",
"f+	c #9A12B1",
"g+	c #9916B5",
"h+	c #971CBA",
"i+	c #9521BE",
"j+	c #9326C1",
"k+	c #902AC3",
"l+	c #8E2EC5",
"m+	c #8B31C5",
"n+	c #8933C5",
"o+	c #8735C5",
"p+	c #981CBA",
"q+	c #9A16B6",
"r+	c #9B12B2",
"s+	c #9B0BA8",
"t+	c #9908A3",
"u+	c #98059E",
"v+	c #97049A",
"w+	c #950297",
"x+	c #8D018E",
"y+	c #8B018A",
"z+	c #890188",
"A+	c #870188",
"B+	c #90018F",
"C+	c #910190",
"D+	c #920191",
"E+	c #930192",
"F+	c #940193",
"G+	c #98049A",
"H+	c #99059C",
"I+	c #99069D",
"J+	c #9A079F",
"K+	c #9A07A0",
"L+	c #9A08A1",
"M+	c #9908A1",
"N+	c #9C019C",
"O+	c #9B019B",
"P+	c #9D019C",
"Q+	c #9C019B",
"R+	c #9B019A",
"S+	c #A301A3",
"T+	c #A201A2",
"U+	c #A101A1",
". + + + + + + + + + + + + + + + + + + + + + . . @ # # # # # # # # # # # # # # # # # # # # # # # # # # # # # # # # # # # @ @ . + + + + + + + + + + + + + + + + + + + + + + + + + + . ",
"$ % % % % % % % $ & & * * * * * * * = - ; ; ; ; ; ; ; ; ; ; ; ; ; > > , ' ) ! ~ { { { { { { { { { { ~ ! ) ' , , , , , , , > > ; ; ; ; ; ; ; - = * * * * * * * & & $ % % % % % % % $ ",
"] ] ] ^ / ( _ _ _ _ _ _ : < [ } | | | | | | 1 2 3 4 5 6 6 7 8 9 $ * = ; > , ' ' ) ! ~ { { { { ~ ! ) ' ' , > ; = * $ 9 8 7 6 6 5 4 3 2 1 | | | | | | } [ < : _ _ _ _ _ _ ( / ^ ] ] ] ",
"0 a a a a a 0 a a a a a a a a a a a a a a a a a a a a a a a a a a a a a a a a a a a a a a a a a a a a a a a a a a a a a a a a a a a a a a a a a a a a a a a a a a a a a a a a b b a ",
"c d d d d d c d d d d d d d d d d d d d d d d d d d d d d d d d d d d d d d d d d d d d d d d d d d d d d d d d d e e e e e e e e e e e e e e e e e e e e e e e e e e d e e e e e d ",
"f g g g g g g g g g g g g g g g g g g g g g g g g g g h h i i i h h g g g h h i i i h g g g g h i i i i h h h h h h h h h h h h h h h h h h h h h h h h h h h h h h h h h h h i i h ",
"j k k k k k k k k k k k k k k k k k k k k k k k k j j l l m n i o p q r s t u v w x x x x x x x x w v u y z A B C o i n m l l j j k k k k k k k k k k k k k k k k k k k k k k k k j ",
"D E E E E E E E E E E E E E E D D D F F F G H I J K L M N O P Q R S T U V W X Y Z `  . . . . . .` Z Y X W V U T S ..+.@.#.$.%.j &.J I H G F F F D D D E E E E E E E E E E E E E E D ",
"*.=.=.=.=.=.=.=.=.=.*.*.*.-.-.;.>.,.'.).!.~.I {.l ].^./.(._.:.<.[.}.|.1.2.3.4.5.6.7.8.7.9.9.7.8.0.a.b.4.c.d.e.f.g.h.i.j.k.l.m.n.o.j &.H F D ).'.,.>.;.-.-.*.*.*.=.=.=.=.=.=.=.=.=.*.",
"p.q.q.q.q.q.q.q.p.r.s.t.u.u.v.w.x.y.,.z.D A.&.l h A B.C.D.E.F.G.H.I.J.K.L.M.N.O.P.Q.R.S.T.T.S.R.Q.P.O.N.M.L.K.J.I.U.G.F.E.V.C.W.X.i l J A.D z.,.y.x.w.v.u.u.t.Y.s.r.Z.Z.Z.Z.Z.Z.Z.r.",
"*.=.=.=.=.=.=.=.=.=.*.*.*.-.x.x.y.`.,.'.). +~.I &..+++@+#+$+%+&+*+=+-+;+>+,+'+)+!+~+{+]+^+^+]+{+/+(+_+:+<+[+}+|+1+2+3+4+5+6+7+8+9+k 0+G D E '.,.`.y.x.-.-.*.*.*.=.=.=.=.=.=.=.=.=.*.",
"D E E E E E E E E E E E E E D D D D D D F F G G H I &.a+b+$.n.7+c+d+e+f+g+h+i+j+k+l+m+n+o+o+n+m+l+k+j+i+p+q+r+%+s+t+u+v+w+o.%.a+x+I H y+~.~.z+z+D D D A+E E E E E E E E E E E E E D ",
"j k k k k k k k k k k k k k k k k k k k k k k k k k k B+j C+D+E+F+o p B G+H+I+J+K+L+L+M+M+M+M+L+L+K+J+I+H+G+B p ].n m l j j k k k k k k k k k k k k k k k k k k k k k k k k k k k j ",
"g h h h h h h h h h h h h h h h h h h h h h h h h h h h h h h h h h h h h h h h h h i i i i i h h h h h i i i i i h h h h h i i i i i h h h h h h h h h h h h h h h h h h h h h h g ",
"N+O+O+O+O+O+O+O+O+O+O+O+O+O+O+O+O+O+O+O+O+O+O+O+O+O+O+O+O+O+O+O+O+O+O+O+O+O+O+O+O+O+O+O+O+O+N+N+e e e e e e e P+N+Q+R+R+R+Q+N+e e e e e e e e e e e e e e e e e e e e e e e e N+N+e ",
"b S+S+S+S+S+b S+S+S+S+S+S+S+S+S+S+S+S+S+S+S+S+S+S+S+S+b b a a a a a a a a a a a a a a a a a a a a a a b b S+S+S+T+T+T+T+T+T+S+S+S+S+S+S+S+S+S+S+S+S+S+S+S+S+S+S+S+S+S+S+S+T+T+U+U+T+",
"] ] ] ^ / ( _ _ _ _ _ _ : < [ } | | | | | | 1 2 3 4 5 6 6 7 8 9 $ * = ; > , ' ' ) ! ~ { { { { ~ ! ) ' ' , > ; = * $ 9 8 7 6 6 5 4 3 2 1 | | | | | | } [ < : _ _ _ _ _ _ ( / ^ ] ] ] ",
"$ % % % % % % % $ & & * * * * * * * = - ; ; ; ; ; ; ; > > , , , , , , , ' ) ! ~ { { { { { { { { { { ~ ! ) ' , > > ; ; ; ; ; ; ; ; ; ; ; ; ; - = * * * * * * * & & $ % % % % % % % $ ",
". + + + + + + + + + + + + + + + + + + + + + + + + + + . @ @ # # # # # # # # # # # # # # # # # # # # # # # # # # # # # # @ @ . + + + + + + + + + + + + + + + + + + + + + + + + + + . "};
