/* XPM */
static char * close_xpm[] = {
"12 12 111 2",
"  	c #002CB0",
". 	c #0032D3",
"+ 	c #0032CE",
"@ 	c #0032CA",
"# 	c #0032C8",
"$ 	c #0032C7",
"% 	c #0032C6",
"& 	c #0058D2",
"* 	c #0059D0",
"= 	c #0059CE",
"- 	c #0059CC",
"; 	c #0056C7",
"> 	c #024CB7",
", 	c #0058CB",
"' 	c #0058CC",
") 	c #0085D5",
"! 	c #0084D5",
"~ 	c #0080CF",
"{ 	c #0273BD",
"] 	c #0080CE",
"^ 	c #0084D3",
"/ 	c #017FCD",
"( 	c #0463A6",
"_ 	c #083E73",
": 	c #0274BD",
"< 	c #0085D3",
"[ 	c #00AFDD",
"} 	c #00ADDD",
"| 	c #0297C5",
"1 	c #085076",
"2 	c #0483AD",
"3 	c #01A2D0",
"4 	c #0482AD",
"5 	c #093E6B",
"6 	c #044F98",
"7 	c #019BD2",
"8 	c #00B0DE",
"9 	c #00CFE6",
"0 	c #00CCE6",
"a 	c #01B5D9",
"b 	c #04589A",
"c 	c #09486D",
"d 	c #06819B",
"e 	c #045498",
"f 	c #01A7D3",
"g 	c #00C8E4",
"h 	c #00D0E7",
"i 	c #00CFE7",
"j 	c #00DDEC",
"k 	c #00D6EB",
"l 	c #00D2E9",
"m 	c #01A6D0",
"n 	c #063F80",
"o 	c #0A305C",
"p 	c #00D3EA",
"q 	c #00D7EC",
"r 	c #00DFEE",
"s 	c #00DEEE",
"t 	c #00BFE6",
"u 	c #00C0E7",
"v 	c #01BDE1",
"w 	c #0497B6",
"x 	c #093867",
"y 	c #06307C",
"z 	c #0498B7",
"A 	c #01C0E2",
"B 	c #00C4E9",
"C 	c #00C7EA",
"D 	c #00C6EA",
"E 	c #0098DA",
"F 	c #0198D6",
"G 	c #0480AD",
"H 	c #0B405D",
"I 	c #04408F",
"J 	c #016ABC",
"K 	c #044093",
"L 	c #09436D",
"M 	c #0484B1",
"N 	c #019ED8",
"O 	c #00A3DE",
"P 	c #00A2DE",
"Q 	c #006ACC",
"R 	c #0265B8",
"S 	c #0A3A60",
"T 	c #0C2C4E",
"U 	c #025AAC",
"V 	c #006FC8",
"W 	c #015CBC",
"X 	c #04368F",
"Y 	c #083E70",
"Z 	c #026BB7",
"` 	c #0077CD",
" .	c #0076CD",
"..	c #0041C1",
"+.	c #0144BA",
"@.	c #023CA3",
"#.	c #023EA1",
"$.	c #0149B5",
"%.	c #004DB9",
"&.	c #004AB8",
"*.	c #0042AF",
"=.	c #0240A3",
"-.	c #004AB4",
";.	c #004CB9",
">.	c #004BB9",
",.	c #0022BA",
"'.	c #0024B3",
").	c #0027AC",
"!.	c #0028A8",
"~.	c #0029A6",
"{.	c #0029A5",
"                        ",
". + @ # $ % % % % % % % ",
"& * = - - - - ; > ; , ' ",
") ! ~ { ] ^ / ( _ : < < ",
"[ } | 1 2 3 4 5 6 7 8 [ ",
"9 0 a b c d c e f g h i ",
"j k l m n o n m p q r s ",
"t u v w x y x z A B C D ",
"E F G H I J K L M N O P ",
"Q R S T U V W X Y Z `  .",
"..+.@.#.$.%.&.*.=.-.;.>.",
",.'.).!.~.{.{.{.{.{.{.{."};
