/* XPM */
static char * close_xpm[] = {
"19 19 72 1",
" 	c None",
".	c #910091",
"+	c #9C009C",
"@	c #A200A2",
"#	c #A700A7",
"$	c #660066",
"%	c #6F006F",
"&	c #770077",
"*	c #8E008E",
"=	c #4D004D",
"-	c #5A005A",
";	c #620062",
">	c #6A006A",
",	c #800080",
"'	c #A501A5",
")	c #A301A3",
"!	c #9E019E",
"~	c #990199",
"{	c #9D019D",
"]	c #A201A2",
"^	c #960196",
"/	c #890089",
"(	c #950195",
"_	c #8A008A",
":	c #910191",
"<	c #9C019C",
"[	c #A101A1",
"}	c #8F018F",
"|	c #570057",
"1	c #860085",
"2	c #7A007A",
"3	c #850085",
"4	c #940194",
"5	c #9B019B",
"6	c #870187",
"7	c #820081",
"8	c #440044",
"9	c #720072",
"0	c #640064",
"a	c #8E018E",
"b	c #930193",
"c	c #9A019A",
"d	c #A001A0",
"e	c #80017F",
"f	c #710071",
"g	c #450045",
"h	c #550055",
"i	c #3D003D",
"j	c #640063",
"k	c #8D018D",
"l	c #920192",
"m	c #9F019F",
"n	c #780178",
"o	c #540054",
"p	c #2B002B",
"q	c #7A017A",
"r	c #7F017E",
"s	c #8C018C",
"t	c #460046",
"u	c #6E006E",
"v	c #81007F",
"w	c #890087",
"x	c #880088",
"y	c #7C007C",
"z	c #9B019A",
"A	c #4E004E",
"B	c #4F004F",
"C	c #610061",
"D	c #680068",
"E	c #760076",
"F	c #790079",
"G	c #A600A6",
"................+@#",
"$$$$$$$$$$$$$$$$%&*",
"===============-;>,",
"'''''''''''''''''')",
"!!!!~!!!!!!!!{~{{{]",
"^^^^^/^^^^^(_&:((<[",
"}}}}}}|1}}}2$3}}45[",
"666666789608266abcd",
"eeeeeeefghijeeeklcm",
"nnnnnnnnopoqqqrsl~!",
"eeeeeeejihtfeeeklcm",
"6666666|0698666abcd",
"}}}}}}uv}}}&>}}}45[",
"(((((3w(((((xy(((<[",
"5555.55555{{z{{{{{]",
"))))))''''')])))))]",
"======AABBB=====-CD",
"$$$$$$$$$$$$$$$$$EF",
".................+G"};
