/* XPM */
static char * cobweb_atempt_xpm[] = {
"19 19 25 1",
" 	c None",
".	c #4F014F",
"+	c #6B016B",
"@	c #690169",
"#	c #630163",
"$	c #700170",
"%	c #590159",
"&	c #6B026B",
"*	c #750175",
"=	c #7A017A",
"-	c #820182",
";	c #780278",
">	c #870187",
",	c #8C018C",
"'	c #910191",
")	c #960196",
"!	c #9C019C",
"~	c #A301A3",
"{	c #A801A8",
"]	c #AD01AD",
"^	c #B201B2",
"/	c #B802B8",
"(	c #BD02BD",
"_	c #C202C2",
":	c #C702C7",
"...................",
"...+@#..#++..+++#.+",
"..$.$.#$@%.#$..$&$$",
"..*@..*.*@.****&.**",
".=...===..===%.==.=",
".-#.#.-.--.#;.;----",
".#.>>@.>>>>>..;>>>>",
"..;,,.,.,,,.,;@.,,,",
".@#'.'''.@.''''''''",
".).);)))$.;))))))))",
".!!.;!!%.;.;!!!!!!!",
"..~~.~~.~~;.~~~~~~~",
".;{{{.@.{{{{@{{{{{{",
"..@]]..]]]]]];]]]]]",
".^...^^.^^^^^^^^^^^",
".//.////;//////////",
"$$((.((((((((((((((",
";__________________",
":::::::::::::::::::"};
