/* XPM */
static char * corner_xpm[] = {
"19 19 32 1",
" 	c None",
".	c #910091",
"+	c #660066",
"@	c #4D004D",
"#	c #A501A5",
"$	c #A401A4",
"%	c #9E019E",
"&	c #9D019D",
"*	c #960196",
"=	c #6B016B",
"-	c #950195",
";	c #940194",
">	c #8F018F",
",	c #630163",
"'	c #7A017A",
")	c #870187",
"!	c #520152",
"~	c #700170",
"{	c #80017F",
"]	c #4C014C",
"^	c #5C015C",
"/	c #780178",
"(	c #470147",
"_	c #730173",
":	c #9B019B",
"<	c #9B019A",
"[	c #9C019C",
"}	c #A301A3",
"|	c #A201A2",
"1	c #A101A1",
"2	c #4E004E",
"3	c #4F004F",
"...................",
"+++++++++++++++++++",
"@@@@@@@@@@@@@@@@@@@",
"##################$",
"%%%%%%%%%%%%&&&&&&&",
"***********=------;",
">>>>>,>>>>,'>>>>>>>",
")))))!~){]^))))))))",
"{{{{{]~{]^~{{{{{{{{",
"/////]~]!~/''''//''",
"{{{{{](!~''{{{{{{{{",
"))))'(]]]]=_)))))))",
">>>>''~~~'>>>>>>>>>",
"-----))))----------",
"::::::::::&&<&&&&&[",
"}}}}}}#####}|}}}}}1",
"@@@@@@22333@@@@@@@@",
"+++++++++++++++++++",
"..................."};
