/* XPM */
static char * cyan_dot_Fbar01_xpm[] = {
"19 19 91 1",
" 	c None",
".	c #910091",
"+	c #940094",
"@	c #630063",
"#	c #660066",
"$	c #690069",
"%	c #6B006B",
"&	c #700070",
"*	c #4D004D",
"=	c #520052",
"-	c #590059",
";	c #5E005E",
">	c #610061",
",	c #6D006D",
"'	c #A501A5",
")	c #A401A4",
"!	c #9E019E",
"~	c #9D019D",
"{	c #960196",
"]	c #940194",
"^	c #950195",
"/	c #8F018F",
"(	c #900190",
"_	c #930193",
":	c #980399",
"<	c #9D04A2",
"[	c #9E04A3",
"}	c #98039A",
"|	c #870187",
"1	c #880188",
"2	c #8A018A",
"3	c #8F0190",
"4	c #98049D",
"5	c #9E10B3",
"6	c #9E1CC4",
"7	c #9F1DC6",
"8	c #97049C",
"9	c #80017F",
"0	c #810180",
"a	c #840183",
"b	c #8A0189",
"c	c #950397",
"d	c #9E10B2",
"e	c #8D37D4",
"f	c #745AE8",
"g	c #725CEA",
"h	c #745AE7",
"i	c #8C37D4",
"j	c #9D10B2",
"k	c #940396",
"l	c #890189",
"m	c #780178",
"n	c #7E017E",
"o	c #820182",
"p	c #99049D",
"q	c #9D1BC0",
"r	c #7655E4",
"s	c #468DF5",
"t	c #399BF8",
"u	c #98049C",
"v	c #7A017A",
"w	c #830183",
"x	c #880187",
"y	c #910394",
"z	c #9B10AF",
"A	c #883AD3",
"B	c #5D70E8",
"C	c #4986EA",
"D	c #5E70E8",
"E	c #893AD4",
"F	c #9C10B1",
"G	c #920395",
"H	c #8D018D",
"I	c #950499",
"J	c #9A12B1",
"K	c #9129C3",
"L	c #8735C5",
"M	c #9B12B2",
"N	c #97049B",
"O	c #8E018F",
"P	c #920191",
"Q	c #970398",
"R	c #9A07A0",
"S	c #9908A1",
"T	c #910191",
"U	c #9B019B",
"V	c #9B019A",
"W	c #9C019C",
"X	c #A301A3",
"Y	c #A201A2",
"Z	c #A101A1",
".....++++++++......",
"@@##$$$%&&&%%$$##@@",
"*==--;>$,&,$>;--==*",
"'''''''''''''''''')",
"!!!!!!!!!!!!~~~~~~~",
"{{{{{{]{]{]^^^^^^^]",
"/////(_:<[<}_(/////",
"|||1234567658/21|||",
"990abcdefghijkla099",
"mmno2pqrstsrqu2onvv",
"990wxyzABCDEFG1w099",
"|||1lHIJKLKMNOb1|||",
"//////PQRSRQT//////",
"^^^^^^^^^]^]^]^^^^^",
"UUUUUUUUUU~~V~~~~~W",
"XXXXXX'''''XYXXXXXZ",
"*==--;>$,&,$>;--==*",
"@@##$$%%&&&%$$$##@@",
"......+++++++......"};
