/* XPM */
static char * cyanTypeOfThingy_xpm[] = {
"19 19 12 1",
" 	c None",
".	c #BCCFCF",
"+	c #81C9C9",
"@	c #89D6D6",
"#	c #65C9C9",
"$	c #2EDBDB",
"%	c #2BCFCF",
"&	c #00FFFF",
"*	c #33C9C9",
"=	c #2FB8B8",
"-	c #85CFCF",
";	c #A0CFCF",
"                   ",
"                   ",
"                   ",
"                   ",
"                   ",
"                   ",
".++++++++++++++@@  ",
" +#$%%%%%%%%%%%#@  ",
"  &&$**==%%%=*$$&  ",
"   #&&&&&&*=&  ##  ",
"      ###&&*.      ",
"         #&$*.     ",
"          #&$*.    ",
"           ##$* %  ",
"            ##$*%- ",
"             ##$$-;",
"              ;$#-.",
"               ;@. ",
"                .  "};
