/* XPM */
static char * death_xpm[] = {
"19 19 55 1",
" 	c None",
".	c #910091",
"+	c #660066",
"@	c #4D004D",
"#	c #A501A5",
"$	c #9B019B",
"%	c #540054",
"&	c #A401A4",
"*	c #9E019E",
"=	c #9C009C",
"-	c #510050",
";	c #3A0039",
">	c #950195",
",	c #9D019D",
"'	c #960196",
")	c #980198",
"!	c #940094",
"~	c #4E004D",
"{	c #4F004F",
"]	c #690068",
"^	c #870087",
"/	c #740074",
"(	c #560056",
"_	c #770076",
":	c #8F018F",
"<	c #870187",
"[	c #7C007C",
"}	c #6E006E",
"|	c #4F004E",
"1	c #320031",
"2	c #290028",
"3	c #470046",
"4	c #670067",
"5	c #7D007D",
"6	c #510051",
"7	c #908090",
"8	c #A392A3",
"9	c #7F007F",
"0	c #80017F",
"a	c #7A0179",
"b	c #3A003A",
"c	c #380038",
"d	c #780178",
"e	c #700070",
"f	c #450045",
"g	c #3B003B",
"h	c #6E006D",
"i	c #5B005B",
"j	c #3C003B",
"k	c #8C008C",
"l	c #820082",
"m	c #A301A3",
"n	c #A201A2",
"o	c #A101A1",
"p	c #4E004E",
"...................",
"+++++++++++++++++++",
"@@@@@@@@@@@@@@@@@@@",
"##$$%%$######$%%$#&",
"**=-;->******>-;-*,",
"')!~~{]^/((/^_{~~''",
":::<[}{|12213{45<.:",
"<<<<[62782287269<<<",
"0000ab28822882ca000",
"ddddd{22222222{dddd",
"0000002223322200000",
"<<<<<e{fg77gf{e<<<<",
":::~~{h0igji0_{~~::",
">>:-;-k>>ll>>>-;-:>",
"$$$$%%$$$$$$$$%%$$$",
"mmmmmm#####mnmmmmmo",
"@@@@@@pp{{{@@@@@@@@",
"+++++++++++++++++++",
"..................."};
