/* XPM */
static char * death01_xpm[] = {
"19 19 54 1",
" 	c None",
".	c #910091",
"+	c #660066",
"@	c #4D004D",
"#	c #A501A5",
"$	c #9B019B",
"%	c #540054",
"&	c #A401A4",
"*	c #9E019E",
"=	c #9C009C",
"-	c #510050",
";	c #3A0039",
">	c #950195",
",	c #9D019D",
"'	c #960196",
")	c #980198",
"!	c #940094",
"~	c #4E004D",
"{	c #4F004F",
"]	c #690068",
"^	c #870087",
"/	c #740074",
"(	c #560056",
"_	c #770076",
":	c #8F018F",
"<	c #870187",
"[	c #7C007C",
"}	c #6E006E",
"|	c #4F004E",
"1	c #320031",
"2	c #290028",
"3	c #470046",
"4	c #670067",
"5	c #7D007D",
"6	c #510051",
"7	c #908090",
"8	c #A392A3",
"9	c #7F007F",
"0	c #80017F",
"a	c #7A0179",
"b	c #3A003A",
"c	c #380038",
"d	c #780178",
"e	c #3C003B",
"f	c #700070",
"g	c #450045",
"h	c #3B003B",
"i	c #866A86",
"j	c #6E006D",
"k	c #8C008C",
"l	c #A301A3",
"m	c #A201A2",
"n	c #A101A1",
"o	c #4E004E",
"...................",
"+++++++++++++++++++",
"@@@@@@@@@@@@@@@@@@@",
"##$$%%$######$%%$#&",
"**=-;->******>-;-*,",
"')!~~{]^/((/^_{~~''",
":::<[}{|12213{45<.:",
"<<<<[62782287269<<<",
"0000ab28822882ca000",
"ddddd{22222222{dddd",
"000000222ee22200000",
"<<<<<f{ghiihg{f<<<<",
":::~~{j0____0_{~~::",
">>:-;-k>>>>>>>-;-:>",
"$$$$%%$$$$$$$$%%$$$",
"llllll#####lmllllln",
"@@@@@@oo{{{@@@@@@@@",
"+++++++++++++++++++",
"..................."};
