/* XPM */
static char * dockActive_xpm[] = {
"19 19 83 1",
" 	c None",
".	c #A400A4",
"+	c #9B009B",
"@	c #8F008F",
"#	c #900090",
"$	c #910091",
"%	c #920092",
"&	c #930093",
"*	c #760076",
"=	c #740074",
"-	c #640064",
";	c #630063",
">	c #650065",
",	c #660066",
"'	c #670067",
")	c #680068",
"!	c #690069",
"~	c #6A006A",
"{	c #6B006B",
"]	c #6C006C",
"^	c #5F005F",
"/	c #510051",
"(	c #500050",
"_	c #4F004F",
":	c #4E004E",
"<	c #5E005E",
"[	c #4D004D",
"}	c #4C004C",
"|	c #4B004B",
"1	c #A501A5",
"2	c #A601A6",
"3	c #A301A3",
"4	c #A401A4",
"5	c #7A007A",
"6	c #A101A1",
"7	c #A001A0",
"8	c #9F019F",
"9	c #9E019E",
"0	c #9D019D",
"a	c #A201A2",
"b	c #9C019C",
"c	c #7D007D",
"d	c #990199",
"e	c #950195",
"f	c #780078",
"g	c #470047",
"h	c #9B019B",
"i	c #940194",
"j	c #8F018F",
"k	c #700070",
"l	c #9A019A",
"m	c #930193",
"n	c #8C018C",
"o	c #870187",
"p	c #850185",
"q	c #330033",
"r	c #910191",
"s	c #870186",
"t	c #820181",
"u	c #80017F",
"v	c #7D017C",
"w	c #7D017D",
"x	c #7A017A",
"y	c #780178",
"z	c #730073",
"A	c #570057",
"B	c #2E002E",
"C	c #420042",
"D	c #380038",
"E	c #2B002B",
"F	c #A701A7",
"G	c #A801A8",
"H	c #A901A9",
"I	c #7E007E",
"J	c #520052",
"K	c #530053",
"L	c #790079",
"M	c #710071",
"N	c #620062",
"O	c #A800A8",
"P	c #A300A3",
"Q	c #9D009D",
"R	c #8E008E",
".+@@@###$$$%%%%%&&&",
"*=-;-->>,,,''))!!~{",
"],^/(_::<<<[[}|||||",
"1212113415143678990",
"a0bb0000c}c00000000",
"6bdeeeeefgfeeeeeeee",
"6hijjjjj{gkjjjjjjjj",
"7lmnooop<q!pooooooo",
"8lrstuuv<q<vuuuuuuu",
"9djpwxyz<qAzyyyyyyy",
"7lrstuk{AB_{kuuuuuu",
"7lmno<<CDEDC<<ooooo",
"6hijjjkk<q_kkjjjjjj",
"6bdeeeeekqkeeeeeeee",
"a9990000kAk00000000",
"666aa33445222FFGGHH",
"I'^A|}}}[[[::_((/JK",
"#LM)))'',,,>>--;;NN",
"OPQ%%%%%$$$###@@@@R"};
