/* XPM */
static char * dock_act01_xpm[] = {
"19 19 61 1",
" 	c None",
".	c #910091",
"+	c #A600A6",
"@	c #9C009C",
"#	c #960096",
"$	c #940094",
"%	c #630063",
"&	c #80007F",
"*	c #730073",
"=	c #690069",
"-	c #6E006E",
";	c #700070",
">	c #780078",
",	c #660066",
"'	c #4D004D",
")	c #610061",
"!	c #6B016B",
"~	c #870187",
"{	c #590059",
"]	c #520052",
"^	c #A501A5",
"/	c #A801A8",
"(	c #A301A3",
"_	c #8C018C",
":	c #7A017A",
"<	c #990199",
"[	c #A401A4",
"}	c #9E019E",
"|	c #9B019B",
"1	c #750075",
"2	c #4C004C",
"3	c #9D019D",
"4	c #960196",
"5	c #A101A1",
"6	c #940194",
"7	c #420042",
"8	c #950195",
"9	c #8F018F",
"0	c #910191",
"a	c #8A018A",
"b	c #850185",
"c	c #380038",
"d	c #540054",
"e	c #80017F",
"f	c #7D017C",
"g	c #330033",
"h	c #570057",
"i	c #7A0179",
"j	c #750175",
"k	c #730173",
"l	c #780178",
"m	c #8C018B",
"n	c #7D007D",
"o	c #5E005E",
"p	c #2B002B",
"q	c #6B006B",
"r	c #9B019A",
"s	c #9C019C",
"t	c #A201A2",
"u	c #850085",
"v	c #990099",
".+@#.$$$$$$$$......",
"%@&*==-;;>;;-==,,%%",
"'&*=)=;>>!~>;={{]]'",
"^/^^^^^(_]:<^^^^^^[",
"}^|}}}}<12;_3333333",
"4(544464,7,_8888886",
"9^|0999_{7,_0999999",
"~^54a~b~)cd~b~~~~~~",
"e(|4eeef)gh-iffeeee",
"^^|0a1jk2c2)j>lll::",
"^^|mn1),2gd,-e>eeee",
"^^|~>oo7cpcco,~~~~~",
"^^599>))2g{)-999999",
"8^|8888>oc268688888",
"|^5}||||o2q3r33333s",
"(/^(((^^^o^(t(((((5",
"']]{{o)=*>*=)o{{]]'",
"%un1;=qq;;;q===,,%%",
".v##..$$$$$$$......"};
