/* XPM */
static char * dock_pressed_xpm[] = {
"19 19 66 1",
" 	c None",
".	c #A400A4",
"+	c #9B009B",
"@	c #8F008F",
"#	c #900090",
"$	c #910091",
"%	c #920092",
"&	c #930093",
"*	c #760076",
"=	c #740074",
"-	c #640064",
";	c #630063",
">	c #650065",
",	c #660066",
"'	c #670067",
")	c #680068",
"!	c #690069",
"~	c #6A006A",
"{	c #6B006B",
"]	c #6C006C",
"^	c #5F005F",
"/	c #510051",
"(	c #500050",
"_	c #4F004F",
":	c #4E004E",
"<	c #4B004B",
"[	c #A501A5",
"}	c #A601A6",
"|	c #A301A3",
"1	c #A401A4",
"2	c #A101A1",
"3	c #A001A0",
"4	c #9F019F",
"5	c #9E019E",
"6	c #9D019D",
"7	c #A201A2",
"8	c #9C019C",
"9	c #950195",
"0	c #9B019B",
"a	c #940194",
"b	c #8F018F",
"c	c #9A019A",
"d	c #930193",
"e	c #870187",
"f	c #920192",
"g	c #80017F",
"h	c #990199",
"i	c #7D017D",
"j	c #780178",
"k	c #750175",
"l	c #A701A7",
"m	c #A801A8",
"n	c #A901A9",
"o	c #7E007E",
"p	c #570057",
"q	c #4C004C",
"r	c #4D004D",
"s	c #520052",
"t	c #530053",
"u	c #790079",
"v	c #710071",
"w	c #620062",
"x	c #A800A8",
"y	c #A300A3",
"z	c #9D009D",
"A	c #8E008E",
".+@@@###$$$%%%%%&&&",
"*=-;-->>,,,''))!!~{",
"],^/(_:<<<<<<<<<<<<",
"[}[}[[|1[[[1|234556",
"7688666666666666666",
"2899999999999999999",
"20abbbbbbbbbbbbbbbb",
"3cdbeeeeeeeeeeeeeee",
"4cfbegggggggggggggg",
"5hfbeggijkjjjjjjjjj",
"3cfbegggggggggggggg",
"3cdbeeeeeeeeeeeeeee",
"20abbbbbbbbbbbbbbbb",
"2899999999999999999",
"7555666666666666666",
"22277||}}}}}}llmmnn",
"o'^p<qqqrrr::_((/st",
"#uv)))'',,,>>--;;ww",
"xyz%%%%%$$$###@@@@A"};
