/* XPM */
static char * dock_xpm[] = {
"19 19 76 1",
" 	c None",
".	c #A400A4",
"+	c #9B009B",
"@	c #8F008F",
"#	c #900090",
"$	c #910091",
"%	c #920092",
"&	c #930093",
"*	c #760076",
"=	c #740074",
"-	c #640064",
";	c #630063",
">	c #650065",
",	c #660066",
"'	c #670067",
")	c #680068",
"!	c #690069",
"~	c #6A006A",
"{	c #6B006B",
"]	c #6C006C",
"^	c #5F005F",
"/	c #510051",
"(	c #500050",
"_	c #4F004F",
":	c #4E004E",
"<	c #4D004D",
"[	c #4C004C",
"}	c #4B004B",
"|	c #A501A5",
"1	c #A601A6",
"2	c #A301A3",
"3	c #A401A4",
"4	c #A101A1",
"5	c #A001A0",
"6	c #9F019F",
"7	c #9E019E",
"8	c #9D019D",
"9	c #A201A2",
"0	c #9C019C",
"a	c #950195",
"b	c #940194",
"c	c #5E005E",
"d	c #9B019B",
"e	c #8F018F",
"f	c #700070",
"g	c #9A019A",
"h	c #930193",
"i	c #8E018E",
"j	c #870187",
"k	c #420042",
"l	c #750075",
"m	c #920192",
"n	c #8D018D",
"o	c #570057",
"p	c #380038",
"q	c #80017F",
"r	c #990199",
"s	c #470047",
"t	c #330033",
"u	c #2B002B",
"v	c #780178",
"w	c #610061",
"x	c #960196",
"y	c #A701A7",
"z	c #A801A8",
"A	c #A901A9",
"B	c #7E007E",
"C	c #520052",
"D	c #530053",
"E	c #790079",
"F	c #710071",
"G	c #620062",
"H	c #A800A8",
"I	c #A300A3",
"J	c #9D009D",
"K	c #8E008E",
".+@@@###$$$%%%%%&&&",
"*=-;-->>,,,''))!!~{",
"],^/(_::___<<[}}}}}",
"|1|1||23|||32456778",
"9800888888888888888",
"40abaaacaaaaaaaaaaa",
"4dbeeefcfeeeeeeeeee",
"5ghijjfkfljjjjjjjjj",
"6gmnf!opoc{{ffffqqq",
"7rmccstutttppks[ovv",
"5gmnffcpowwwwwffqqq",
"5ghijj!kfljjjjjjjjj",
"4dbeeefcfeeeeeeeeee",
"40axaaacaaaaaaaaaaa",
"9777888888888888888",
"444992233|111yyzzAA",
"B'^o}[[[<<<::_((/CD",
"#EF)))'',,,>>--;;GG",
"HIJ%%%%%$$$###@@@@K"};
