/* XPM */
static char * fail_xpm[] = {
"19 19 14 1",
" 	c None",
".	c #CF96CF",
"+	c #A100A1",
"@	c #870087",
"#	c #CF58CF",
"$	c #7A007A",
"%	c #4D004D",
"&	c #CC00CC",
"*	c #960096",
"=	c #990099",
"-	c #BD00BD",
";	c #940B94",
">	c #BD1DBD",
",	c #BD4BBD",
"                   ",
"                   ",
"                   ",
"              ..   ",
"   .         ....  ",
"  ....      ..+@+. ",
" .#$%.      .&%%%. ",
"..$%%@.    .&@*%%+.",
".&%%%%@.  .&@$%%$@.",
".#&@@$%@..&@$%$... ",
" .#&&@$%@$%%%@..   ",
"   .#&&%%%%$+.     ",
"   ##$%$@$%$@..... ",
" .#$%%@&&&@%%@@%=-.",
".;$%%$&##&&$@%%%%%=",
".;$$%@#  .#&&@%%%$#",
".##@@&.  ..#&&$%>, ",
" .#&&#.   ...,&$&. ",
"  .#..      .....# "};
