/* XPM */
static char * Fbar_xpm[] = {
"19 19 23 1",
" 	c None",
".	c #910091",
"+	c #660066",
"@	c #4D004D",
"#	c #A501A5",
"$	c #A401A4",
"%	c #9E019E",
"&	c #9D019D",
"*	c #960196",
"=	c #950195",
"-	c #940194",
";	c #8F018F",
">	c #870187",
",	c #80017F",
"'	c #780178",
")	c #9B019B",
"!	c #9B019A",
"~	c #9C019C",
"{	c #A301A3",
"]	c #A201A2",
"^	c #A101A1",
"/	c #4E004E",
"(	c #4F004F",
"...................",
"+++++++++++++++++++",
"@@@@@@@@@@@@@@@@@@@",
"##################$",
"%%%%%%%%%%%%&&&&&&&",
"***********=======-",
";;;;;;;;;;;;;;;;;;;",
">>>>>>>>>>>>>>>>>>>",
",,,,,,,,,,,,,,,,,,,",
"'''''''''''''''''''",
",,,,,,,,,,,,,,,,,,,",
">>>>>>>>>>>>>>>>>>>",
";;;;;;;;;;;;;;;;;;;",
"===================",
"))))))))))&&!&&&&&~",
"{{{{{{#####{]{{{{{^",
"@@@@@@//(((@@@@@@@@",
"+++++++++++++++++++",
"..................."};
