/* XPM */
static char * Fbar01_xpm[] = {
"19 19 38 1",
" 	c None",
".	c #910091",
"+	c #940094",
"@	c #630063",
"#	c #660066",
"$	c #690069",
"%	c #6B006B",
"&	c #700070",
"*	c #4D004D",
"=	c #520052",
"-	c #590059",
";	c #5E005E",
">	c #610061",
",	c #A501A5",
"'	c #A401A4",
")	c #9E019E",
"!	c #9D019D",
"~	c #960196",
"{	c #940194",
"]	c #950195",
"^	c #8F018F",
"/	c #8C018C",
"(	c #870187",
"_	c #850185",
":	c #80017F",
"<	c #7D017C",
"[	c #7A0179",
"}	c #780178",
"|	c #750175",
"1	c #730173",
"2	c #700170",
"3	c #7A017A",
"4	c #9B019B",
"5	c #9B019A",
"6	c #9C019C",
"7	c #A301A3",
"8	c #A201A2",
"9	c #A101A1",
".....++++++++......",
"@@##$$$%&&&%%$$##@@",
"*==--;>$$$$$>;--==*",
",,,,,,,,,,,,,,,,,,'",
"))))))))))))!!!!!!!",
"~~~~~~{~{~{]]]]]]]{",
"^^^^^^^/^/^/^^^^^^^",
"((((((_(_(_(_((((((",
":::::::<[<[<[<<::::",
"}}}}}}|12221||}}}33",
":::::<<[<[<[<::::::",
"(((((((_(_(_(_(((((",
"^^^^^^^^/^/^/^^^^^^",
"]]]]]]]]]{]{]{]]]]]",
"4444444444!!5!!!!!6",
"777777,,,,,78777779",
"*==--;>$$$$$>;--==*",
"@@##$$%%&&&%$$$##@@",
"......+++++++......"};
