/* XPM */
static char * Fbar03_xpm[] = {
"19 19 30 1",
" 	c None",
".	c #910091",
"+	c #700070",
"@	c #540054",
"#	c #A501A5",
"$	c #A401A4",
"%	c #9E019E",
"&	c #9D019D",
"*	c #960196",
"=	c #950195",
"-	c #940194",
";	c #8F018F",
">	c #870187",
",	c #80017F",
"'	c #780178",
")	c #7A017A",
"!	c #9B019B",
"~	c #9B019A",
"{	c #9C019C",
"]	c #A301A3",
"^	c #A201A2",
"/	c #A101A1",
"(	c #BD00BD",
"_	c #C200C2",
":	c #C700C7",
"<	c #C900C9",
"[	c #CC00CC",
"}	c #CF00CF",
"|	c #D100D1",
"1	c #D600D6",
"...................",
"+++++++++++++++++++",
"@@@@@@@@@@@@@@@@@@@",
"##################$",
"%%%%%%%%%%%%&&&&&&&",
"***********=======-",
";;;;;;;;;;;;;;;;;;;",
">>>>>>>>>>>>>>>>>>>",
",,,,,,,,,,,,,,,,,,,",
"'''''''''''))))''))",
",,,,,,,,,,,,,,,,,,,",
">>>>>>>>>>>>>>>>>>>",
";;;;;;;;;;;;;;;;;;;",
"===================",
"!!!!!!!!!!&&~&&&&&{",
"]]]]]]#####]^]]]]]/",
"(_:<:[}|111|}[<:__(",
"+++++++++++++++++++",
"..................."};
