/* XPM */
static char * Fbar04_xpm[] = {
"19 19 16 1",
" 	c None",
".	c #910091",
"+	c #660066",
"@	c #4D004D",
"#	c #A501A5",
"$	c #A401A4",
"%	c #9E019E",
"&	c #9D019D",
"*	c #941394",
"=	c #851185",
"-	c #781078",
";	c #721071",
">	c #690F69",
",	c #9C019C",
"'	c #A601A6",
")	c #540054",
"...................",
"+++++++++++++++++++",
"@@@@@@@@@@@@@@@@@@@",
"##################$",
"%%%%%%%%%%%%&&&&&&&",
"*******************",
"===================",
"-------------------",
";;;;;;;;;;;;;;;;;;;",
">>>>>>>>>>>>>>>>>>>",
";;;;;;;;;;;;;;;;;;;",
"-------------------",
"===================",
"*******************",
"&&&&&&&&&&&&&&&&&&,",
"'''''''''''''''''''",
")))))))))))))))))))",
"+++++++++++++++++++",
"..................."};
