/* XPM */
static char * hoversubs_xpm[] = {
"13 13 3 1",
" 	c None",
".	c #4C0000",
"+	c #400000",
"             ",
"             ",
"             ",
"             ",
"             ",
"       ..    ",
".+++...++.   ",
" ...         ",
"      ..+.   ",
"       ..+.  ",
"         .   ",
"             ",
"             "};
