/* XPM */
static char * in_xpm[] = {
"12 12 99 2",
"  	c #002CB0",
". 	c #0032D3",
"+ 	c #0032CE",
"@ 	c #0032CA",
"# 	c #0032C8",
"$ 	c #0032C7",
"% 	c #0032C6",
"& 	c #0058D2",
"* 	c #0058D0",
"= 	c #0058CE",
"- 	c #0058CC",
"; 	c #0058CB",
"> 	c #0085D5",
", 	c #0084D6",
"' 	c #0084D5",
") 	c #0081D0",
"! 	c #0075C2",
"~ 	c #006BB6",
"{ 	c #0076C4",
"] 	c #0081D1",
"^ 	c #0084D4",
"/ 	c #0085D3",
"( 	c #00AFDD",
"_ 	c #00ABDE",
": 	c #00A7D9",
"< 	c #0095C4",
"[ 	c #007099",
"} 	c #005A81",
"| 	c #0075A7",
"1 	c #0099CE",
"2 	c #00A8DB",
"3 	c #00ACDE",
"4 	c #00CFE6",
"5 	c #00C3E1",
"6 	c #00B0CC",
"7 	c #00839B",
"8 	c #005466",
"9 	c #004962",
"0 	c #00638D",
"a 	c #0090BB",
"b 	c #00B6D8",
"c 	c #00C5E4",
"d 	c #00C9E6",
"e 	c #00CFE7",
"f 	c #00DDEC",
"g 	c #00BAD0",
"h 	c #008D9D",
"i 	c #005864",
"j 	c #00525F",
"k 	c #006882",
"l 	c #006692",
"m 	c #0071A1",
"n 	c #009CC2",
"o 	c #00C1DD",
"p 	c #00CFE9",
"q 	c #00DEEE",
"r 	c #00BFE6",
"s 	c #0088A1",
"t 	c #004F5C",
"u 	c #003741",
"v 	c #005667",
"w 	c #00738E",
"x 	c #00668E",
"y 	c #005489",
"z 	c #006A9E",
"A 	c #0098C3",
"B 	c #00B7DE",
"C 	c #00C6EA",
"D 	c #0098DA",
"E 	c #005A84",
"F 	c #003654",
"G 	c #00314D",
"H 	c #004464",
"I 	c #005174",
"J 	c #004D7B",
"K 	c #004885",
"L 	c #005195",
"M 	c #006FB0",
"N 	c #0090CD",
"O 	c #00A2DE",
"P 	c #006ACC",
"Q 	c #006FCD",
"R 	c #0073CD",
"S 	c #0075CD",
"T 	c #0076CD",
"U 	c #0077CD",
"V 	c #0041C1",
"W 	c #0045BE",
"X 	c #0048BC",
"Y 	c #004ABB",
"Z 	c #004BBA",
"` 	c #004BB9",
" .	c #004CB9",
"..	c #0022BA",
"+.	c #0024B3",
"@.	c #0027AC",
"#.	c #0028A8",
"$.	c #0029A6",
"%.	c #0029A5",
"                        ",
". + @ # $ % % % % % % % ",
"& * = - - - - - ; - ; - ",
"> , ' ) ! ~ { ] ^ ^ ^ / ",
"( _ : < [ } | 1 2 _ 3 ( ",
"4 5 6 7 8 9 0 a b c d e ",
"f g h i j k l m n o p q ",
"r s t u v w x y z A B C ",
"D E F G H I J K L M N O ",
"P Q R S T T T T U T U T ",
"V W X Y Z ` ` `  .`  .` ",
"..+.@.#.$.%.%.%.%.%.%.%."};
