/* XPM */
static char * inselect02_xpm[] = {
"19 19 33 1",
" 	c None",
".	c #8B0184",
"+	c #7D0476",
"@	c #8B0283",
"#	c #75056E",
"$	c #540D50",
"%	c #800479",
"&	c #900088",
"*	c #8D0185",
"=	c #800478",
"-	c #7C0375",
";	c #72056C",
">	c #750570",
",	c #83037B",
"'	c #4B0F47",
")	c #3B1139",
"!	c #62075E",
"~	c #650661",
"{	c #510D4E",
"]	c #75056F",
"^	c #72066C",
"/	c #3A1237",
"(	c #2E142D",
"_	c #440F41",
":	c #73066D",
"<	c #8C0184",
"[	c #8D0184",
"}	c #71066C",
"|	c #470F43",
"1	c #8B0183",
"2	c #900087",
"3	c #81037A",
"4	c #8B0185",
"                   ",
"                   ",
"                   ",
"                   ",
"                   ",
"                   ",
"                   ",
"                   ",
"                   ",
"                   ",
"             .+@   ",
"             #$%   ",
"      &*=-  ;$>    ",
"      &,')!~{]*    ",
"       *^/(_:<     ",
"       &[}|}12     ",
"        &<34       ",
"          &        ",
"                   "};
