/* XPM */
static char * inselect01_xpm[] = {
"19 19 42 1",
" 	c None",
".	c #690864",
"+	c #7D0475",
"@	c #8C0284",
"#	c #86017F",
"$	c #84027B",
"%	c #530D4E",
"&	c #42113F",
"*	c #8D0085",
"=	c #83027C",
"-	c #6F0669",
";	c #660561",
">	c #6D0467",
",	c #6C0767",
"'	c #530C50",
")	c #3F113D",
"!	c #590B55",
"~	c #8B0083",
"{	c #770470",
"]	c #41103D",
"^	c #30122F",
"/	c #460B43",
"(	c #4A0C47",
"_	c #3D113B",
":	c #5B0A57",
"<	c #770570",
"[	c #8C0085",
"}	c #800379",
"|	c #5A0956",
"1	c #2E142D",
"2	c #251524",
"3	c #341232",
"4	c #570C52",
"5	c #74066E",
"6	c #880082",
"7	c #760471",
"8	c #540B4F",
"9	c #381336",
"0	c #530C4F",
"a	c #72076B",
"b	c #6D0768",
"c	c #770571",
"                   ",
"                   ",
"                   ",
"                   ",
"                   ",
"                   ",
"                   ",
"                   ",
"                   ",
"                   ",
"              .+   ",
"       @#$   %&.   ",
"      *=-;>,')!    ",
"      ~{]^/(_:<    ",
"      [}|12345     ",
"       67890a      ",
"         7bc       ",
"                   ",
"                   "};
