/* XPM */
static char * inselect03_xpm[] = {
"19 19 40 1",
" 	c None",
".	c #780372",
"+	c #790473",
"@	c #760470",
"#	c #70066C",
"$	c #73046D",
"%	c #790471",
"&	c #70056B",
"*	c #71066C",
"=	c #72056C",
"-	c #7E0474",
";	c #700768",
">	c #62095D",
",	c #5F095A",
"'	c #660861",
")	c #6B0666",
"!	c #70066B",
"~	c #76056F",
"{	c #7A0472",
"]	c #6A0964",
"^	c #5B0B56",
"/	c #540C51",
"(	c #570B54",
"_	c #60095C",
":	c #680864",
"<	c #7A0574",
"[	c #6B0867",
"}	c #5C0B58",
"|	c #540C52",
"1	c #5A0B55",
"2	c #650960",
"3	c #71066B",
"4	c #74056D",
"5	c #680862",
"6	c #5F095C",
"7	c #630960",
"8	c #6F066B",
"9	c #760670",
"0	c #6F086A",
"a	c #71076C",
"                   ",
"                   ",
"                   ",
"                   ",
"                   ",
"                   ",
"                   ",
"                   ",
"                   ",
"              .+   ",
"             @#$%  ",
"            &*=*@  ",
"       -;> ,')!~   ",
"       {]^/(_:!    ",
"       <[}|123     ",
"        45678      ",
"         90a       ",
"                   ",
"                   "};
