/* XPM */
static char * kiss_select01_xpm[] = {
"13 13 6 1",
" 	c None",
".	c #C94CD0",
"+	c #E300EB",
"@	c #C900D0",
"#	c #D600DE",
"$	c #C34AC9",
"             ",
"             ",
"             ",
"             ",
"           . ",
"          +@ ",
"         +@  ",
"    +   +@   ",
"    @+.+@    ",
" +   @+@     ",
"#$    @      ",
"             ",
"             "};
