/* XPM */
static char * kiss_select_xpm[] = {
"13 13 5 1",
" 	c None",
".	c #E300EB",
"+	c #C900D0",
"@	c #C500CC",
"#	c #DE00E6",
"             ",
"             ",
"             ",
"             ",
"             ",
"          .+ ",
"         .+  ",
"    ..  .+   ",
"    +. .+    ",
" .   +.+     ",
".@#   +      ",
"             ",
"             "};
