/* XPM */
static char * KittenGrip_xpm[] = {
"19 4 21 1",
" 	c None",
".	c #0029F5",
"+	c #0028F4",
"@	c #0026F4",
"#	c #0025F3",
"$	c #0077EC",
"%	c #0070E9",
"&	c #0063E5",
"*	c #005CE2",
"=	c #005BE2",
"-	c #0078EC",
";	c #0090F4",
">	c #0083F0",
",	c #006AE7",
"'	c #005DE3",
")	c #0092F5",
"!	c #0041FE",
"~	c #003AFB",
"{	c #002DF7",
"]	c #0025F4",
"^	c #0042FE",
".+@###@+....+@##@+.",
"$%&*=*&%$--$%&**&%$",
";>,'=',>;));>,'',>;",
"!~{@]@{~!^^!~{@@{~!"};
