/* XPM */
static char * KittenButtonBar_xpm[] = {
"21 17 124 2",
"  	c None",
". 	c #00FF00",
"+ 	c #03EA4F",
"@ 	c #05E26B",
"# 	c #04E55F",
"$ 	c #04E660",
"% 	c #04E661",
"& 	c #04E762",
"* 	c #04E865",
"= 	c #04EA69",
"- 	c #03EC6C",
"; 	c #03ED6E",
"> 	c #06DB83",
", 	c #05DE7A",
"' 	c #05DF7B",
") 	c #05DF7C",
"! 	c #05E07E",
"~ 	c #05E281",
"{ 	c #04E486",
"] 	c #04E88D",
"^ 	c #04EB94",
"/ 	c #03EC97",
"( 	c #06D697",
"_ 	c #06D890",
": 	c #06D991",
"< 	c #06DA92",
"[ 	c #06DB94",
"} 	c #06DD97",
"| 	c #05E09D",
"1 	c #04E5A5",
"2 	c #04EAAF",
"3 	c #03EEB8",
"4 	c #03F1BE",
"5 	c #07D2A7",
"6 	c #07D4A3",
"7 	c #07D5A4",
"8 	c #06D7A6",
"9 	c #06D9A9",
"0 	c #05DDAF",
"a 	c #04E2B6",
"b 	c #04E8C1",
"c 	c #03EECD",
"d 	c #02F3D7",
"e 	c #02F6DC",
"f 	c #08CEB4",
"g 	c #08D1B3",
"h 	c #07D3B5",
"i 	c #07D6B8",
"j 	c #06DABD",
"k 	c #05E0C4",
"l 	c #04E6CD",
"m 	c #03EDD7",
"n 	c #02F3E2",
"o 	c #01F8EB",
"p 	c #01FBEF",
"q 	c #08CBBF",
"r 	c #08CEBF",
"s 	c #07D1C2",
"t 	c #07D6C7",
"u 	c #06DBCD",
"v 	c #05E2D5",
"w 	c #04EADE",
"x 	c #03F1E7",
"y 	c #02F7F0",
"z 	c #01FBF6",
"A 	c #00FDF9",
"B 	c #09C9C9",
"C 	c #09CBC9",
"D 	c #08CFCD",
"E 	c #07D4D2",
"F 	c #06DBD9",
"G 	c #05E2E0",
"H 	c #03EAE8",
"I 	c #02F2F0",
"J 	c #01F8F6",
"K 	c #00FCFB",
"L 	c #00FEFC",
"M 	c #09C6D1",
"N 	c #09C7D1",
"O 	c #08CAD4",
"P 	c #07CFD9",
"Q 	c #06D5DF",
"R 	c #05DDE5",
"S 	c #04E5EC",
"T 	c #03EDF3",
"U 	c #02F4F8",
"V 	c #01F8FC",
"W 	c #00FBFE",
"X 	c #09C4D8",
"Y 	c #09C2D8",
"Z 	c #09C4DA",
"` 	c #08C8DD",
" .	c #07CCE1",
"..	c #06D2E6",
"+.	c #05D9EB",
"@.	c #04E2F1",
"#.	c #03EAF6",
"$.	c #02F1FA",
"%.	c #02F4FC",
"&.	c #09C0DE",
"*.	c #06CBEA",
"=.	c #05D3EF",
"-.	c #04DBF3",
";.	c #03E3F7",
">.	c #03E7F9",
",.	c #07C5E6",
"'.	c #08C1E3",
").	c #09B9E4",
"!.	c #08B5E7",
"~.	c #09ABE8",
"{.	c #07A9ED",
"].	c #06ADEF",
"^.	c #06B2F1",
"/.	c #05B5F2",
"(.	c #0893ED",
"_.	c #078CED",
":.	c #078DEE",
"<.	c #078EEE",
"[.	c #0790EF",
"}.	c #0692F0",
"|.	c #0695F1",
"1.	c #0696F2",
"2.	c #0672F2",
"3.	c #044DF7",
". . . . . . . . . . . . . . . . . . . . . ",
"+ + + + + + + + + + + + + + + + + + + + + ",
"@ # # $ $ % & * = - ; ; - = * & % $ $ # @ ",
"> , , ' ) ! ~ { ] ^ / / ^ ] { ~ ! ) ' , > ",
"( _ : < [ } | 1 2 3 4 4 3 2 1 | } [ < : ( ",
"5 6 7 8 9 0 a b c d e e d c b a 0 9 8 7 5 ",
"f g h i j k l m n o p p o n m l k j i h f ",
"q r s t u v w x y z A A z y x w v u t s q ",
"B C D E F G H I J K L L K J I H G F E D B ",
"M N O P Q R S T U V W W V U T S R Q P O M ",
"X Y Z `  ...+.@.#.$.%.%.$.#.@.+... .` Z X ",
"&.&.&.&.&.&.*.=.-.;.>.>.;.-.=.*.,.'.&.&.&.",
").).).).).!.&.&.&.&.&.&.&.&.&.&.&.).).).).",
"~.~.~.~.~.~.~.{.].^././.^.].{.~.~.~.~.~.~.",
"(.(.(._._.:.<.[.}.|.1.1.|.}.[.<.:._.(.(.(.",
"2.2.2.2.2.2.2.2.2.2.2.2.2.2.2.2.2.2.2.2.2.",
"3.3.3.3.3.3.3.3.3.3.3.3.3.3.3.3.3.3.3.3.3."};
