/* XPM */
static char * KittenMenuTitle02_xpm[] = {
"21 17 19 1",
" 	c None",
".	c #002CB0",
"+	c #004BBA",
"@	c #004BB9",
"#	c #004CB9",
"$	c #0076CD",
"%	c #0077CD",
"&	c #00A3DE",
"*	c #00A2DE",
"=	c #00C6EA",
"-	c #00C7EA",
";	c #00DDEC",
">	c #00DDED",
",	c #00DEED",
"'	c #00DEEE",
")	c #00DFEE",
"!	c #00E4F5",
"~	c #00E9FA",
"{	c #00F0FF",
".....................",
"+++++@@@#@#@#@@@+++++",
"$$$$$$$$%$%$%$$$$$$$$",
"&&&&&&&&&&&&&**&&&&&&",
"========-=-=-========",
";>,''''')')')''''',>;",
"!!!!!!!!!!!!!!!!!!!!!",
"~~~~~~~~~~~~~~~~~~~~~",
"{{{{{{{{{{{{{{{{{{{{{",
"~~~~~~~~~~~~~~~~~~~~~",
"!!!!!!!!!!!!!!!!!!!!!",
";>,''''')')')''''',>;",
"========-=-=-========",
"&&&&&&&&&&&&&**&&&&&&",
"$$$$$$$$%$%$%$$$$$$$$",
"+++++@@@#@#@#@@@+++++",
"....................."};
