/* XPM */
static char * KittenM_xpm[] = {
"10 9 18 1",
" 	c None",
".	c #00FF47",
"+	c #00FF74",
"@	c #00FFA3",
"#	c #00FFFF",
"$	c #00DDEC",
"%	c #00DDED",
"&	c #00DEED",
"*	c #00DEEE",
"=	c #00DFEE",
"-	c #00C6EA",
";	c #00C7EA",
">	c #00A3DE",
",	c #0076CD",
"'	c #0077CD",
")	c #004BBA",
"!	c #004BB9",
"~	c #004CB9",
"..........",
"++++++++++",
"@@@@@@@@@@",
"##########",
"$%&*****=*",
"--------;-",
">>>>>>>>>>",
",,,,,,,,',",
")))))!!!~!"};
