/* XPM */
static char * KittenMin_xpm[] = {
"12 12 70 1",
" 	c None",
".	c #002CB0",
"+	c #0032D1",
"@	c #0032CA",
"#	c #0032C7",
"$	c #0032C6",
"%	c #0058D1",
"&	c #0058CE",
"*	c #0058CC",
"=	c #0085D5",
"-	c #0085D4",
";	c #0085D3",
">	c #00AFDD",
",	c #00AEDD",
"'	c #00ADDD",
")	c #00CFE6",
"!	c #00CFE7",
"~	c #01C9E2",
"{	c #04B7D0",
"]	c #01C7E1",
"^	c #00CCE6",
"/	c #00CDE6",
"(	c #00CEE7",
"_	c #00DDEC",
":	c #02D5E7",
"<	c #0BAFBC",
"[	c #166A72",
"}	c #09A8B4",
"|	c #08BDCC",
"1	c #07BECC",
"2	c #06BCCB",
"3	c #07C3D2",
"4	c #01D5E7",
"5	c #00C0E7",
"6	c #05B5D8",
"7	c #1C6C7D",
"8	c #1A424D",
"9	c #16505C",
"0	c #1D5D69",
"a	c #16525D",
"b	c #1A494F",
"c	c #1C6E7D",
"d	c #06B2D4",
"e	c #0099DB",
"f	c #009FDD",
"g	c #0496CF",
"h	c #0686BD",
"i	c #0685BC",
"j	c #0787BD",
"k	c #0887BD",
"l	c #0978A7",
"m	c #164E6A",
"n	c #0B7EB0",
"o	c #029AD8",
"p	c #006CCC",
"q	c #0073CD",
"r	c #0076CD",
"s	c #0076CC",
"t	c #0173C7",
"u	c #0468B7",
"v	c #0174CA",
"w	c #0042C0",
"x	c #0048BC",
"y	c #004BBA",
"z	c #004BB9",
"A	c #004CB9",
"B	c #0023B8",
"C	c #0027AB",
"D	c #0029A6",
"E	c #0029A5",
"............",
"+@#$$$$$$#@+",
"%&********&%",
"=-;;;;;;;;-=",
">>>,',>>>>>>",
")!~{]^^^/(!)",
"_:<[}|12234_",
"5678900abcd5",
"efghijklmnoe",
"pqrrssstuvqp",
"wxyzzzAAzyxw",
"BCDEEEEEEDCB"};
