/* XPM */
static char * KittenMenuHover_xpm[] = {
"21 17 20 1",
" 	c None",
".	c #00DDEC",
"+	c #00DDED",
"@	c #00DEED",
"#	c #00DEEE",
"$	c #00DFEE",
"%	c #00C6EA",
"&	c #00C7EA",
"*	c #00A3DE",
"=	c #00A2DE",
"-	c #0076CD",
";	c #0077CD",
">	c #004BBA",
",	c #004BB9",
"'	c #004CB9",
")	c #002CB0",
"!	c #00238C",
"~	c #002182",
"{	c #001D79",
"]	c #001D7C",
".+@#####$#$#$#####@+.",
"%%%%%%%%&%&%&%%%%%%%%",
"*************==******",
"--------;-;-;--------",
">>>>>,,,',',',,,>>>>>",
")))))))))))))))))))))",
"!!!!!!!!!!!!!!!!!!!!!",
"~~~~~~~~~~~~~~~~~~~~~",
"{{{{{{{{{{{{{{{{{{{{{",
"]]]]]]]]]]]]]]]]]]]]]",
"~~~~~~~~~~~~~~~~~~~~~",
"!!!!!!!!!!!!!!!!!!!!!",
")))))))))))))))))))))",
">>>>>,,,',',',,,>>>>>",
"--------;-;-;--------",
"*************==******",
"%%%%%%%%&%&%&%%%%%%%%"};
