/* XPM */
static char * KittenIn_xpm[] = {
"12 12 80 1",
" 	c None",
".	c #002CB0",
"+	c #0032D1",
"@	c #0032CA",
"#	c #0032C7",
"$	c #0032C6",
"%	c #0058D1",
"&	c #0058CE",
"*	c #0058CC",
"=	c #0085D5",
"-	c #0085D4",
";	c #0085D3",
">	c #0084D2",
",	c #007CC9",
"'	c #006BB6",
")	c #0076C4",
"!	c #0083D2",
"~	c #00AFDD",
"{	c #00AEDC",
"]	c #009CCB",
"^	c #007099",
"/	c #005A81",
"(	c #0075A7",
"_	c #009ACE",
":	c #00ADDC",
"<	c #00CFE6",
"[	c #00CDE6",
"}	c #00B4CF",
"|	c #00839B",
"1	c #005466",
"2	c #004962",
"3	c #00638D",
"4	c #0090BB",
"5	c #00B8D9",
"6	c #00CFE7",
"7	c #00DDEC",
"8	c #00BCD2",
"9	c #008D9D",
"0	c #005864",
"a	c #00525F",
"b	c #006882",
"c	c #006692",
"d	c #0071A1",
"e	c #009CC2",
"f	c #00C7E0",
"g	c #00BFE6",
"h	c #0088A1",
"i	c #004F5C",
"j	c #003741",
"k	c #005667",
"l	c #00738E",
"m	c #00668E",
"n	c #005489",
"o	c #006A9E",
"p	c #0098C3",
"q	c #00BAE1",
"r	c #00C0E7",
"s	c #0098DA",
"t	c #005E89",
"u	c #003D5D",
"v	c #003856",
"w	c #004A6C",
"x	c #00557A",
"y	c #004D7B",
"z	c #004885",
"A	c #005195",
"B	c #006FB0",
"C	c #0090CD",
"D	c #0099DB",
"E	c #006CCC",
"F	c #0073CD",
"G	c #0076CD",
"H	c #0042C0",
"I	c #0048BC",
"J	c #004BBA",
"K	c #004BB9",
"L	c #0023B8",
"M	c #0027AB",
"N	c #0029A6",
"O	c #0029A5",
"............",
"+@#$$$$$$#@+",
"%&********&%",
"=-;>,')!;;-=",
"~~{]^/(_:~~~",
"<[}|12345[6<",
"7890abcdef77",
"ghijklmnopqr",
"stuvwxyzABCD",
"EFGGGGGGGGFE",
"HIJKKKKKKJIH",
"LMNOOOOOONML"};
