/* XPM */
static char * KittenNoFocusHandle_xpm[] = {
"10 4 6 1",
" 	c None",
".	c #00E23D",
"+	c #00E23C",
"@	c #00BFA5",
"#	c #009BEB",
"$	c #0042FD",
"..++++++++",
"@@@@@@@@@@",
"##########",
"$$$$$$$$$$"};
