/* XPM */
static char * KittenToolBar_xpm[] = {
"21 17 44 1",
" 	c None",
".	c #00E600",
"+	c #00FA00",
"@	c #00FF47",
"#	c #00FF71",
"$	c #00FFAF",
"%	c #00FFD5",
"&	c #00DDEC",
"*	c #00DDED",
"=	c #00DEED",
"-	c #00DEEE",
";	c #00DFEE",
">	c #00BFE6",
",	c #00C2E8",
"'	c #00C4E9",
")	c #00C5EA",
"!	c #00C6EA",
"~	c #00C7EA",
"{	c #0098DA",
"]	c #009CDC",
"^	c #009FDD",
"/	c #00A1DE",
"(	c #00A2DE",
"_	c #00A3DE",
":	c #006ACC",
"<	c #006FCD",
"[	c #0073CD",
"}	c #0075CD",
"|	c #0076CD",
"1	c #0077CD",
"2	c #0041C1",
"3	c #0045BE",
"4	c #0048BC",
"5	c #004ABB",
"6	c #004BBA",
"7	c #004BB9",
"8	c #004CB9",
"9	c #0022BA",
"0	c #0024B3",
"a	c #0027AC",
"b	c #0028A8",
"c	c #0029A6",
"d	c #0029A5",
"e	c #001D8F",
".....................",
"+++++++++++++++++++++",
"@@@@@@@@@@@@@@@@@@@@@",
"#####################",
"$$$$$$$$$$$$$$$$$$$$$",
"%%%%%%%%%%%%%%%%%%%%%",
"%%%%%%%%%%%%%%%%%%%%%",
"%%%%%%%%%%%%%%%%%%%%%",
"%%%%%%%%%%%%%%%%%%%%%",
"%%%%%%%%%%%%%%%%%%%%%",
"&*=-----;-;-;-----=*&",
">,')!!!!~!~!~!!!!)',>",
"{]^/((((_(_(_((((/^]{",
":<[}||||1|1|1||||}[<:",
"234567778787877765432",
"90abcdddddddddddcba09",
"eeeeeeeeeeeeeeeeeeeee"};
