/* XPM */
static char * KittenHiSub_xpm[] = {
"10 9 5 1",
" 	c None",
".	c #00B2B2",
"+	c #00C4C4",
"@	c #00D6D6",
"#	c #00BFBF",
"          ",
"          ",
"          ",
"          ",
"          ",
" .  .  .  ",
"  +  +  + ",
"  @  @  @ ",
" #  #  #  "};
