/* XPM */
static char * KittenWindowBar_xpm[] = {
"21 12 57 1",
" 	c None",
".	c #002CB0",
"+	c #0032D3",
"@	c #0032CE",
"#	c #0032CA",
"$	c #0032C8",
"%	c #0032C7",
"&	c #0032C6",
"*	c #0058D2",
"=	c #0058D0",
"-	c #0058CE",
";	c #0058CC",
">	c #0058CB",
",	c #0085D5",
"'	c #0085D4",
")	c #0085D3",
"!	c #00AFDD",
"~	c #00B0DE",
"{	c #00CFE6",
"]	c #00CFE7",
"^	c #00D0E7",
"/	c #00DDEC",
"(	c #00DDED",
"_	c #00DEED",
":	c #00DEEE",
"<	c #00DFEE",
"[	c #00BFE6",
"}	c #00C2E8",
"|	c #00C4E9",
"1	c #00C5EA",
"2	c #00C6EA",
"3	c #00C7EA",
"4	c #0098DA",
"5	c #009CDC",
"6	c #009FDD",
"7	c #00A1DE",
"8	c #00A2DE",
"9	c #00A3DE",
"0	c #006ACC",
"a	c #006FCD",
"b	c #0073CD",
"c	c #0075CD",
"d	c #0076CD",
"e	c #0077CD",
"f	c #0041C1",
"g	c #0045BE",
"h	c #0048BC",
"i	c #004ABB",
"j	c #004BBA",
"k	c #004BB9",
"l	c #004CB9",
"m	c #0022BA",
"n	c #0024B3",
"o	c #0027AC",
"p	c #0028A8",
"q	c #0029A6",
"r	c #0029A5",
".....................",
"+@#$%&&&&&&&&&&&%$#@+",
"*=-;;;;;>;>;>;;;;;-=*",
",'')))))))))))))))'',",
"!!!!!!!!~!~!~!!!!!!!!",
"{]]]]]]]^]^]^]]]]]]]{",
"/(_:::::<:<:<:::::_(/",
"[}|122223232322221|}[",
"456788889898988887654",
"0abcddddedededdddcba0",
"fghijkkklklklkkkjihgf",
"mnopqrrrrrrrrrrrqponm"};
