/* XPM */
static char * KittenOut_xpm[] = {
"12 12 84 1",
" 	c None",
".	c #002CB0",
"+	c #0032D1",
"@	c #0032CA",
"#	c #0032C7",
"$	c #0032C6",
"%	c #0058D1",
"&	c #0058CE",
"*	c #0058CC",
"=	c #0085D5",
"-	c #0085D4",
";	c #0085D3",
">	c #00AADC",
",	c #005F89",
"'	c #003E5D",
")	c #003956",
"!	c #004B6C",
"~	c #00567A",
"{	c #004D7B",
"]	c #004885",
"^	c #005195",
"/	c #006FB0",
"(	c #0090CD",
"_	c #00AEDD",
":	c #00CBE6",
"<	c #0088A1",
"[	c #004F5C",
"}	c #003741",
"|	c #005667",
"1	c #00738E",
"2	c #00668E",
"3	c #005489",
"4	c #006A9E",
"5	c #0098C3",
"6	c #00BEE0",
"7	c #00CEE6",
"8	c #00DDEC",
"9	c #00BCD2",
"0	c #008D9D",
"a	c #005864",
"b	c #00525F",
"c	c #006882",
"d	c #006692",
"e	c #0071A1",
"f	c #009CC2",
"g	c #00C7E0",
"h	c #00C0E7",
"i	c #00C3E7",
"j	c #00B3D0",
"k	c #00839B",
"l	c #005466",
"m	c #004962",
"n	c #00638D",
"o	c #0090BB",
"p	c #00B7D9",
"q	c #00C5E9",
"r	c #00C4E9",
"s	c #0099DB",
"t	c #009FDD",
"u	c #00A2DD",
"v	c #0098CB",
"w	c #007099",
"x	c #005A81",
"y	c #0075A7",
"z	c #0099CE",
"A	c #00A3DD",
"B	c #00A2DE",
"C	c #006CCC",
"D	c #0073CD",
"E	c #0076CD",
"F	c #0075C7",
"G	c #006BB6",
"H	c #0076C4",
"I	c #0078CE",
"J	c #0042C0",
"K	c #0048BC",
"L	c #004BBA",
"M	c #004BB9",
"N	c #004DBC",
"O	c #004CBA",
"P	c #0023B8",
"Q	c #0027AB",
"R	c #0029A6",
"S	c #0029A5",
"............",
"+@#$$$$$$#@+",
"%&********&%",
"=-;;;;;;;;-=",
">,')!~{]^/(_",
":<[}|1234567",
"890abcdefg88",
"hijklmnopqrh",
"stuvwxyzABts",
"CDEEFGHIEEDC",
"JKLMMNOMMLKJ",
"PQRSSSSSSRQP"};
