/* XPM */
static char * KittenMenuTitle01_xpm[] = {
"10 10 41 1",
" 	c #002CB0",
".	c #004EBE",
"+	c #0051B7",
"@	c #0055B0",
"#	c #005AA7",
"$	c #005F9F",
"%	c #0067BF",
"&	c #006DB3",
"*	c #0073A6",
"=	c #007A98",
"-	c #00818B",
";	c #0081BD",
">	c #0088AD",
",	c #00919A",
"'	c #009A87",
")	c #00A375",
"!	c #0090BD",
"~	c #0098AB",
"{	c #00A195",
"]	c #00AC7F",
"^	c #00B66A",
"/	c #008FC0",
"(	c #0096B0",
"_	c #009E9C",
":	c #00A886",
"<	c #00B26F",
"[	c #007DC4",
"}	c #0082B8",
"|	c #0088A9",
"1	c #009097",
"2	c #009A83",
"3	c #0064C5",
"4	c #0067BE",
"5	c #006AB5",
"6	c #0070A9",
"7	c #00789A",
"8	c #004BC2",
"9	c #004DBF",
"0	c #004FBA",
"a	c #0052B3",
"b	c #0058A9",
"          ",
".+@#$$#@+.",
"%&*=--=*&%",
";>,'))',>;",
"!~{]^^]{~!",
"/(_:<<:_(/",
"[}|1221|}[",
"3456776543",
"890abba098",
"          "};
