/* XPM */
static char * KittenClockBar_xpm[] = {
"21 17 79 1",
" 	c None",
".	c #02F527",
"+	c #03ED42",
"@	c #04E55F",
"#	c #05DE7A",
"$	c #06D890",
"%	c #07D3A2",
"&	c #08CFB1",
"*	c #08CCBD",
"=	c #08CBBD",
"-	c #08CABD",
";	c #09C8C7",
">	c #09C7C7",
",	c #08C6C7",
"'	c #08C5C8",
")	c #08C4C8",
"!	c #08C3C8",
"~	c #09C3D0",
"{	c #09C1D0",
"]	c #08BED1",
"^	c #08BBD1",
"/	c #08B9D2",
"(	c #08B8D2",
"_	c #08B7D3",
":	c #09BDD8",
"<	c #08B9D9",
"[	c #08B3DA",
"}	c #08ADDB",
"|	c #08A8DC",
"1	c #08A6DC",
"2	c #08A4DD",
"3	c #09B4DE",
"4	c #08AEE0",
"5	c #08A5E1",
"6	c #079CE3",
"7	c #0794E4",
"8	c #0790E5",
"9	c #078DE5",
"0	c #078CE6",
"a	c #09A9E4",
"b	c #08A1E6",
"c	c #0897E8",
"d	c #078CE9",
"e	c #0783EB",
"f	c #067DEC",
"g	c #0679ED",
"h	c #0677ED",
"i	c #0676ED",
"j	c #089BE9",
"k	c #0894EA",
"l	c #078BEC",
"m	c #0781EE",
"n	c #0678EF",
"o	c #0671F0",
"p	c #056CF1",
"q	c #056AF2",
"r	c #0569F2",
"s	c #0789EE",
"t	c #0785EE",
"u	c #077FEF",
"v	c #0677F0",
"w	c #0670F2",
"x	c #056AF3",
"y	c #0566F3",
"z	c #0563F4",
"A	c #0562F4",
"B	c #0676F1",
"C	c #0673F2",
"D	c #066CF3",
"E	c #0568F3",
"F	c #0560F4",
"G	c #055FF5",
"H	c #055EF5",
"I	c #0564F4",
"J	c #0560F5",
"K	c #055CF5",
"L	c #055BF5",
"M	c #055AF6",
"N	c #0559F6",
".....................",
"+++++++++++++++++++++",
"@@@@@@@@@@@@@@@@@@@@@",
"#####################",
"$$$$$$$$$$$$$$$$$$$$$",
"%%%%%%%%%%%%%%%%%%%%%",
"&&&&&&&&&&&&&&&&&&&&&",
"**==-------------==**",
";>,'))!!!!!!!!!))',>;",
"~{]^/(_________(/^]{~",
":<[}|12222222221|}[<:",
"345678900000009876543",
"abcdefghiiiiihgfedcba",
"jklmnopqrrrrrqponmlkj",
"stuvwxyzAAAAAzyxwvuts",
"BCwDEzFGHHHHHGFzEDwCB",
"IzAJHKLMNNNNNMLKHJAzI"};
