/* XPM */
static char * KittenSelectPoint_xpm[] = {
"13 13 4 1",
" 	c None",
".	c #00D1D1",
"+	c #00BDBD",
"@	c #00FCFC",
"             ",
"   .+        ",
"  .          ",
" .           ",
" +           ",
"      +      ",
"     +@+     ",
"      +      ",
"           + ",
"           . ",
"          .  ",
"        +.   ",
"             "};
