/* XPM */
static char * KittenSub_xpm[] = {
"10 9 3 1",
" 	c None",
".	c #40D6BF",
"+	c #31A694",
"          ",
"          ",
"          ",
"          ",
"          ",
"          ",
"          ",
"          ",
"  .+ .+ .+"};
