/* XPM */
static char * max_xpm[] = {
"12 12 86 1",
" 	c #002CB0",
".	c #0032D3",
"+	c #0032CE",
"@	c #0032CA",
"#	c #0032C8",
"$	c #0032C7",
"%	c #0032C6",
"&	c #0058D2",
"*	c #0058D0",
"=	c #0058CE",
"-	c #0058CC",
";	c #0058CB",
">	c #0085D5",
",	c #0084D4",
"'	c #0084D3",
")	c #0085D3",
"!	c #00AFDD",
"~	c #0393C0",
"{	c #048EBA",
"]	c #048FBB",
"^	c #01A8D6",
"/	c #0394C1",
"(	c #00CFE6",
"_	c #0F4A55",
":	c #10343C",
"<	c #104650",
"[	c #104A55",
"}	c #0796AC",
"|	c #0796AB",
"1	c #10444F",
"2	c #0F4F5B",
"3	c #00CFE7",
"4	c #00DDEC",
"5	c #10393F",
"6	c #073B42",
"7	c #078591",
"8	c #123C41",
"9	c #104952",
"0	c #104951",
"a	c #122427",
"b	c #078692",
"c	c #105259",
"d	c #00DEEE",
"e	c #00BFE6",
"f	c #134953",
"g	c #097D92",
"h	c #088DA4",
"i	c #114751",
"j	c #078CA8",
"k	c #11424B",
"l	c #087C90",
"m	c #0990A5",
"n	c #13505A",
"o	c #00C6EA",
"p	c #0098DA",
"q	c #1B4A63",
"r	c #18475B",
"s	c #114155",
"t	c #0F4057",
"u	c #038CC1",
"v	c #114154",
"w	c #18485B",
"x	c #1B4C63",
"y	c #00A2DE",
"z	c #0077CD",
"A	c #0665B5",
"B	c #0662AE",
"C	c #0460AC",
"D	c #0363B1",
"E	c #0172C6",
"F	c #0661AE",
"G	c #0666B4",
"H	c #0076CD",
"I	c #0041C1",
"J	c #0048BE",
"K	c #004ABC",
"L	c #004CBA",
"M	c #004CB9",
"N	c #004DB9",
"O	c #004BB9",
"P	c #0022BA",
"Q	c #0024B3",
"R	c #0027AC",
"S	c #0028A8",
"T	c #0029A6",
"U	c #0029A5",
"            ",
".+@#$%%%%%%%",
"&*=-----;-;-",
">,,'',,'''')",
"!~{]~^^~]]/!",
"(_:<[}|1:<23",
"4567890a6bcd",
"efghijjklmno",
"pqrstuutvwxy",
"zABCDEEDCFGH",
"IJKLMNNMNMNO",
"PQRSTUUUUUUU"};
