/* XPM */
static char * max01_xpm[] = {
"19 19 66 1",
" 	c None",
".	c #910091",
"+	c #660066",
"@	c #4D004D",
"#	c #A501A5",
"$	c #A401A4",
"%	c #9E019E",
"&	c #9D019D",
"*	c #960196",
"=	c #800080",
"-	c #950195",
";	c #940194",
">	c #8F018F",
",	c #840084",
"'	c #5D005D",
")	c #830083",
"!	c #870187",
"~	c #7D007D",
"{	c #510051",
"]	c #4A004A",
"^	c #720072",
"/	c #80017F",
"(	c #770076",
"_	c #560056",
":	c #4B004B",
"<	c #6F006E",
"[	c #610061",
"}	c #780178",
"|	c #700070",
"1	c #500050",
"2	c #690069",
"3	c #680068",
"4	c #7A017A",
"5	c #6A006A",
"6	c #8A018A",
"7	c #5C005C",
"8	c #530053",
"9	c #650064",
"0	c #490049",
"a	c #680067",
"b	c #640064",
"c	c #520052",
"d	c #5B005B",
"e	c #4E004E",
"f	c #780078",
"g	c #440044",
"h	c #550055",
"i	c #630063",
"j	c #740074",
"k	c #750075",
"l	c #7A007A",
"m	c #8A008A",
"n	c #6B006B",
"o	c #570057",
"p	c #7F007F",
"q	c #9B019B",
"r	c #8F008F",
"s	c #930093",
"t	c #9B019A",
"u	c #9C019C",
"v	c #A301A3",
"w	c #960096",
"x	c #9C009C",
"y	c #A201A2",
"z	c #A101A1",
"A	c #4F004F",
"...................",
"+++++++++++++++++++",
"@@@@@@@@@@@@@@@@@@@",
"##################$",
"%%%%%%%%%%%%&&&&&&&",
"*********=*-------;",
">>>>>>>>,')>>>>>>>>",
"!!!!!!!~{]^=!!~!!!!",
"//////(@_:(//<[(///",
"}}}}}|1231|45:67|44",
"////(8<(90ab:cd(///",
"!!!~e2f!2g]hij~!!!!",
">>,{7k>>k0'l,>>>>>>",
"-mn-o)--)5pm-------",
"qqr^rqqqs,.&t&&&&&u",
"vvvwvv###x#vyvvvvvz",
"@@@@@@eeAAA@@@@@@@@",
"+++++++++++++++++++",
"..................."};
