/* XPM */
static char * maximize_xpm[] = {
"19 19 67 1",
" 	c None",
".	c #910091",
"+	c #660066",
"@	c #4D004D",
"#	c #A501A5",
"$	c #9C009B",
"%	c #A200A1",
"&	c #9B0099",
"*	c #A401A4",
"=	c #9E019E",
"-	c #940093",
";	c #7B007B",
">	c #830082",
",	c #7A007A",
"'	c #9D019D",
")	c #960196",
"!	c #880087",
"~	c #520052",
"{	c #7A0079",
"]	c #790079",
"^	c #4B004B",
"/	c #950195",
"(	c #940194",
"_	c #8F018F",
":	c #860085",
"<	c #390039",
"[	c #770076",
"}	c #750074",
"|	c #340034",
"1	c #720071",
"2	c #870187",
"3	c #7D007C",
"4	c #780077",
"5	c #330033",
"6	c #50004F",
"7	c #670066",
"8	c #740074",
"9	c #80017F",
"0	c #7C007B",
"a	c #530053",
"b	c #470047",
"c	c #740073",
"d	c #780178",
"e	c #750175",
"f	c #5F005F",
"g	c #600060",
"h	c #7A017A",
"i	c #7F007E",
"j	c #700070",
"k	c #860086",
"l	c #810081",
"m	c #570157",
"n	c #8D008D",
"o	c #8E008E",
"p	c #6F006F",
"q	c #8C008C",
"r	c #920192",
"s	c #790179",
"t	c #9B019B",
"u	c #970197",
"v	c #9B019A",
"w	c #9C019C",
"x	c #A301A3",
"y	c #A201A2",
"z	c #A101A1",
"A	c #4E004E",
"B	c #4F004F",
"...................",
"+++++++++++++++++++",
"@@@@@@@@@@@@@@@@@@@",
"####$%#######%&###*",
"====-;>=====>,-''''",
")))))!~{)))]^!////(",
"_____:{<[_}|1:_____",
"2222223456|78222222",
"99999990a5bc9999999",
"dddddddef5gdddhddhh",
"9999999ij<j99999999",
"222222kklml22222222",
"_____nnnopqnn______",
"////////rs/////////",
"tttttttttu''v'''''w",
"xxxxxx#####xyxxxxxz",
"@@@@@@AABBB@@@@@@@@",
"+++++++++++++++++++",
"..................."};
