/* XPM */
static char * maxpress01_xpm[] = {
"19 19 61 1",
" 	c None",
".	c #910091",
"+	c #660066",
"@	c #4D004D",
"#	c #A501A5",
"$	c #A401A4",
"%	c #9E019E",
"&	c #9D019D",
"*	c #960196",
"=	c #950195",
"-	c #8E008E",
";	c #940194",
">	c #8F018F",
",	c #840084",
"'	c #6C006C",
")	c #830083",
"!	c #870187",
"~	c #7D007D",
"{	c #510051",
"]	c #590059",
"^	c #540054",
"/	c #810081",
"(	c #80017F",
"_	c #770076",
":	c #6B006B",
"<	c #640063",
"[	c #7B007A",
"}	c #780178",
"|	c #700070",
"1	c #500050",
"2	c #690069",
"3	c #750075",
"4	c #7A017A",
"5	c #580058",
"6	c #530053",
"7	c #6F006E",
"8	c #6A0069",
"9	c #520052",
"0	c #4E004E",
"a	c #780078",
"b	c #800180",
"c	c #6E006E",
"d	c #7C007C",
"e	c #850185",
"f	c #880088",
"g	c #8A008A",
"h	c #570057",
"i	c #600060",
"j	c #6D006D",
"k	c #9B019B",
"l	c #8F008F",
"m	c #720072",
"n	c #950095",
"o	c #710071",
"p	c #9C019C",
"q	c #A301A3",
"r	c #960096",
"s	c #A201A2",
"t	c #9A009A",
"u	c #A101A1",
"v	c #4F004F",
"...................",
"+++++++++++++++++++",
"@@@@@@@@@@@@@@@@@@@",
"##################$",
"%%%%%%%%%%%%&&&&&&&",
"********=-========;",
">>>>>>>>,')>>>>>>>>",
"!!!!!!!~{]^/!!!!!!!",
"((((((_@+:<{[((((((",
"}}}}}|12343'5344444",
"((((_67_((([89[((((",
"!!!~02ab!!!//c5d/!!",
">>,{+3e>>>>>fa+]~>>",
"=g:=h)=======-i=j-=",
"kklmlkkkkkkkk&no-&p",
"qqqrqq#####qsqqtqqu",
"@@@@@@00vvv@@@@@@@@",
"+++++++++++++++++++",
"..................."};
