/* XPM */
static char * maybe_kiss_select_xpm[] = {
"13 13 12 1",
" 	c None",
".	c #3D0040",
"+	c #400042",
"@	c #450047",
"#	c #3B003D",
"$	c #360038",
"%	c #420045",
"&	c #2C002E",
"*	c #340036",
"=	c #250026",
"-	c #230024",
";	c #200021",
".............",
".+@++###++@+.",
".@$#@#%#@#$@.",
".##&*@+@*&##.",
".++*=*#*=*++.",
".##@*-*=*%##.",
".#++#*;*#++#.",
".##@*=*-*%##.",
".@@*=*+*=*@#.",
".##&*%+%*&##.",
".@$#@#%#@#$@.",
".+@@#####@@+.",
"............."};
