/* XPM */
static char * menu_bar01_xpm[] = {
"19 19 55 1",
" 	c None",
".	c #6F006F",
"+	c #660066",
"@	c #730073",
"#	c #8E018E",
"$	c #8D018D",
"%	c #8C018C",
"&	c #9B019B",
"*	c #9A019A",
"=	c #970197",
"-	c #930193",
";	c #910091",
">	c #960196",
",	c #990199",
"'	c #820082",
")	c #810081",
"!	c #8B008B",
"~	c #950195",
"{	c #870187",
"]	c #7F007F",
"^	c #7C007C",
"/	c #8F018F",
"(	c #830183",
"_	c #810181",
":	c #850185",
"<	c #860186",
"[	c #750075",
"}	c #770077",
"|	c #7A017A",
"1	c #7C017C",
"2	c #7B017B",
"3	c #7B017A",
"4	c #7D017D",
"5	c #7D017C",
"6	c #720072",
"7	c #740074",
"8	c #750074",
"9	c #760075",
"0	c #780177",
"a	c #820182",
"b	c #7D007D",
"c	c #7B007A",
"d	c #7E017E",
"e	c #880188",
"f	c #7E007D",
"g	c #840084",
"h	c #80007F",
"i	c #910191",
"j	c #920192",
"k	c #980198",
"l	c #8B018A",
"m	c #890188",
"n	c #890189",
"o	c #8B018B",
"p	c #650065",
"...................",
"+++++++++++++++++++",
"@@@@@@@@@@@@@@@@@@@",
"###$%%$####$$$$$$$$",
"&&*=-;>*&&&*******,",
">>-%')!->>>~~~~~~~~",
"#%{]^^]{%#/######//",
"(_^^))^^_(:<::::<{{",
"[[}|11|}[}|12332145",
"6@7[889[@6@[9889[@6",
"552233142}[024420[7",
"{{<:::<{:abcd((dcb_",
"//#####/#%e)faab)e%",
"~~~~~~~~~~-$gh]g$-~",
",,,,,,,,,,,=i!!j=,k",
"%%%%%%$$$$$%lmno%%o",
"@@@@@@@@@@@@@@@@@@@",
"++++++++++++p+++++p",
"..................."};
