/* XPM */
static char * menu_bar02_xpm[] = {
"19 19 53 1",
" 	c None",
".	c #710071",
"+	c #640064",
"@	c #6B006B",
"#	c #950195",
"$	c #940194",
"%	c #9E019E",
"&	c #9C019C",
"*	c #970197",
"=	c #930093",
"-	c #9B019B",
";	c #9D019D",
">	c #960196",
",	c #8E018E",
"'	c #7C007C",
")	c #7B007B",
"!	c #8C008C",
"~	c #8F018F",
"{	c #880188",
"]	c #7A007A",
"^	c #840184",
"/	c #820182",
"(	c #790079",
"_	c #850085",
":	c #860186",
"<	c #870187",
"[	c #720072",
"}	c #730073",
"|	c #760076",
"1	c #7B017B",
"2	c #7E017D",
"3	c #740074",
"4	c #7A017A",
"5	c #7A0179",
"6	c #7D017D",
"7	c #6F006F",
"8	c #7C017C",
"9	c #790178",
"0	c #7D017C",
"a	c #830183",
"b	c #770077",
"c	c #800180",
"d	c #8A018A",
"e	c #7E007E",
"f	c #850185",
"g	c #810080",
"h	c #800080",
"i	c #8B008B",
"j	c #930193",
"k	c #930192",
"l	c #910191",
"m	c #920192",
"n	c #650065",
"...................",
"+++++++++++++++++++",
"@@@@@@@@@@@@@@@@@@@",
"#####$############$",
"%%%&*=-%%%%;;;;;;;&",
">>#,')!#>>>########",
"~,{)]]]{,~~~~~~~~~~",
"^/()__)(/^:::::::<<",
"[}|1221|}3114554162",
"7.[[..}}.7.}}..}}.7",
"2614551683[902209[[",
"<<:::::<:a'bc::cb'a",
"~~~~~~~~~,de(ff(ed,",
"##########$~g](h~$#",
"----------&-#!i>-&-",
"jjjjjj#####$kllj$$m",
"@@@@@@@@@@@@@@@@@@@",
"++++++++nnn++++++++",
"..................."};
