/* XPM */
static char * menu_bar_xpm[] = {
"19 19 27 1",
" 	c None",
".	c #660066",
"+	c #4D004D",
"@	c #A501A5",
"#	c #A401A4",
"$	c #9E019E",
"%	c #940094",
"&	c #9D019D",
"*	c #960196",
"=	c #6E006E",
"-	c #950195",
";	c #940194",
">	c #8F018F",
",	c #7A007A",
"'	c #870187",
")	c #8C008C",
"!	c #80017F",
"~	c #7A0179",
"{	c #9B019B",
"]	c #9B019A",
"^	c #870087",
"/	c #9C019C",
"(	c #A301A3",
"_	c #A201A2",
":	c #A101A1",
"<	c #4E004E",
"[	c #4F004F",
"                   ",
"...................",
"+++++++++++++++++++",
"@@@@@@@@@@@@@@@@@@#",
"$$$$$%$$$$$$&&&&&&&",
"****==%****-------;",
">>>=,,=>>>>>>>>>>>>",
"''=,)),='''''''''''",
"==,!!!!,==!~~~~~~!!",
"===================",
"!!~~~~~!!==!!!!!!==",
"'''''''''',=''''=,'",
">>>>>>>>>>>,=>>=,>>",
"------------,==,---",
"{{{{{{{{{{&&])^&&&/",
"((((((@@@@@(_(((((:",
"++++++<<[[[++++++++",
"...................",
"                   "};
