/* XPM */
static char * min_xpm[] = {
"19 19 76 1",
" 	c None",
".	c #910091",
"+	c #660066",
"@	c #4D004D",
"#	c #A501A5",
"$	c #8F018F",
"%	c #920092",
"&	c #960096",
"*	c #A000A0",
"=	c #A401A4",
"-	c #9E019E",
";	c #990199",
">	c #750075",
",	c #6B006B",
"'	c #840084",
")	c #940094",
"!	c #9D019D",
"~	c #960196",
"{	c #880088",
"]	c #670067",
"^	c #530053",
"/	c #890089",
"(	c #8F008F",
"_	c #950195",
":	c #940194",
"<	c #830083",
"[	c #770077",
"}	c #590059",
"|	c #490049",
"1	c #520052",
"2	c #850085",
"3	c #8A008A",
"4	c #870187",
"5	c #810181",
"6	c #7D017D",
"7	c #740074",
"8	c #440044",
"9	c #400040",
"0	c #7A007A",
"a	c #80017F",
"b	c #7A0179",
"c	c #750074",
"d	c #580058",
"e	c #3E003E",
"f	c #3B003B",
"g	c #6C006C",
"h	c #760175",
"i	c #780178",
"j	c #730173",
"k	c #690069",
"l	c #4B004B",
"m	c #390039",
"n	c #330033",
"o	c #6E006E",
"p	c #7A017A",
"q	c #690068",
"r	c #460046",
"s	c #360036",
"t	c #510051",
"u	c #7B017B",
"v	c #610061",
"w	c #730073",
"x	c #480048",
"y	c #900190",
"z	c #8C018C",
"A	c #8B018B",
"B	c #9B019B",
"C	c #8D018D",
"D	c #920191",
"E	c #970196",
"F	c #9C019C",
"G	c #A301A3",
"H	c #A201A2",
"I	c #A101A1",
"J	c #4E004E",
"K	c #4F004F",
"...................",
"+++++++++++++++++++",
"@@@@@@@@@@@@@@@@@@@",
"#####$%&*#########=",
"----;$>,');-!!!!!!!",
"~~~~~~{>]^/(______:",
"$$$$$$$<[}|123$$$$$",
"4444444567}89>0<444",
"aaaaaaaaabcdef8ghaa",
"iiiiiiiiiijklmnmopp",
"aaaaaaaaaaabqrstaaa",
"44444444444uvfv4444",
"$$$$$$$$$4awxo$$$$$",
"_________yzi[A_____",
"BBBBBBBBBBCDE!!!!!F",
"GGGGGG#####GHGGGGGI",
"@@@@@@JJKKK@@@@@@@@",
"+++++++++++++++++++",
"..................."};
