/* XPM */
static char * nameless_xpm[] = {
"19 19 23 1",
" 	c None",
".	c #E800E8",
"+	c #E000E0",
"@	c #D900D9",
"#	c #D100D1",
"$	c #C900C9",
"%	c #C400C4",
"&	c #9E009E",
"*	c #A600A6",
"=	c #BD00BD",
"-	c #750075",
";	c #960096",
">	c #AD00AD",
",	c #B500B5",
"'	c #660066",
")	c #80007F",
"!	c #5E005E",
"~	c #A800A8",
"{	c #8F008F",
"]	c #870087",
"^	c #6E006E",
"/	c #530053",
"(	c #590059",
"...................",
"+++++++++++++++++++",
"@@@@@@@@@@@@@@@@@@@",
"###################",
"$$$$$$$$$$$$$$$$$$$",
"%%%%%%%%%%%&*%%%%%%",
"==========&-;>=====",
",,,,,,,,,&-''>,,,,,",
">>>>>>>>)-!!)>>>>>>",
"~~~~~~~)-!!~~~~~~~~",
"&&&&&&)-!!&&&&&&&&&",
";;;;;)-!!;;;;;;;;;;",
"{{{{)-!!{{{{{{{{{{{",
"]])-^!!]]]]]]]]]]]]",
"))-!!!)))))))))))))",
")-!!!--------------",
")!!/!!^^^^^^^^^^^^^",
"!(///!!!!!!!!!!!!!!",
"///////////////////"};
