/* XPM */
static char * nameless03_xpm[] = {
"19 19 57 1",
" 	c None",
".	c #BC00B1",
"+	c #CE00C2",
"@	c #C800BC",
"#	c #C000B5",
"$	c #BA00AF",
"%	c #B800AD",
"&	c #B200A8",
"*	c #B400A9",
"=	c #AA00A0",
"-	c #A10097",
";	c #AE00A4",
">	c #AC00A2",
",	c #A6009C",
"'	c #8E0086",
")	c #98008F",
"!	c #A00097",
"~	c #A4009A",
"{	c #9E0095",
"]	c #8C0084",
"^	c #72006B",
"/	c #690062",
"(	c #9C0092",
"_	c #96008D",
":	c #7E0077",
"<	c #6E0068",
"[	c #5E0058",
"}	c #6B0065",
"|	c #9A0091",
"1	c #900088",
"2	c #7C0075",
"3	c #6A0064",
"4	c #660060",
"5	c #880080",
"6	c #920089",
"7	c #7A0073",
"8	c #64005E",
"9	c #82007A",
"0	c #8A0082",
"a	c #86007E",
"b	c #780071",
"c	c #62005C",
"d	c #84007C",
"e	c #74006D",
"f	c #60005A",
"g	c #76006F",
"h	c #6C0066",
"i	c #5C0057",
"j	c #680062",
"k	c #5A0055",
"l	c #560051",
"m	c #580053",
"n	c #54004F",
"o	c #50004B",
"p	c #52004D",
"q	c #4E0049",
"r	c #4C0048",
"...................",
"+++++++++++++++++++",
"@@@@@@@@@@@@@@@@@@@",
"###################",
"$$$$$$$$$$%&&&%%%$$",
"**********=--;*****",
";;;;;;;;>,'')!>;;;;",
",,,,,,,~{]^/'(~,,,,",
"!!!!!!{_:<[})!!!!!!",
"|||||)123[456)|||||",
"11111]73[89'1111111",
"0000ab3[c2500000000",
"dd9:e3[fg9ddddddddd",
"27eh8i[^72222222222",
"eej[k[heeeeeeeeeeee",
"^jilmc3hhhhhhhhhhh<",
"3inonifccccccccccc8",
"mpqrqnmmmmmmmmmmmmm",
"qqqqqqqqqqqqqqqqqqq"};
