/* XPM */
static char * nameless04_xpm[] = {
"19 19 42 1",
" 	c None",
".	c #4E0049",
"+	c #580053",
"@	c #54004F",
"#	c #4C0048",
"$	c #52004D",
"%	c #64005E",
"&	c #62005C",
"*	c #60005A",
"=	c #5C0057",
"-	c #50004B",
";	c #6A0064",
">	c #6E0068",
",	c #6C0066",
"'	c #560051",
")	c #680062",
"!	c #72006B",
"~	c #74006D",
"{	c #5E0058",
"]	c #5A0055",
"^	c #7C0075",
"/	c #7A0073",
"(	c #84007C",
"_	c #82007A",
":	c #76006F",
"<	c #7E0077",
"[	c #8A0082",
"}	c #880080",
"|	c #780071",
"1	c #86007E",
"2	c #900088",
"3	c #8D0085",
"4	c #810079",
"5	c #63005D",
"6	c #8C0084",
"7	c #9A0091",
"8	c #98008F",
"9	c #7B0074",
"0	c #65005F",
"a	c #85007D",
"b	c #7D0076",
"c	c #6B0064",
"...................",
"+++++++++++++@.#.$+",
"%&&&&&&&&&&&*=@-@=;",
">,,,,,,,,,,,;&+'=)!",
"~~~~~~~~~~~~,{]{)~~",
"^^^^^^^^^^/!{=%,~/^",
"(((((((((_:*{;~<_((",
"[[[[[[[[}^&{;|1[[[[",
"2222222345{;/622222",
"77777829;{;^2877777",
"222226/;{0<a2222222",
"[[[[1|;{&ba[[[[[[[[",
"a(_<~;{*:_aaaaaaaaa",
"^/~,%={!/^^^^^^^^^^",
"~~){]{,~~~~~~~~~~~~",
"!)='+&;,,,,,,,,,,,,",
"c=@-@=*&&&&&&&&&&&&",
"]$.#.@+++++++++++++",
"..................."};
