/* XPM */
static char * nameless02_xpm[] = {
"19 19 53 1",
" 	c None",
".	c #BC00B1",
"+	c #CE00C2",
"@	c #C800BC",
"#	c #C000B5",
"$	c #BA00AF",
"%	c #B800AD",
"&	c #B400A9",
"*	c #B600AB",
"=	c #AA00A0",
"-	c #98008F",
";	c #9E0095",
">	c #AE00A4",
",	c #AC00A2",
"'	c #A6009C",
")	c #8E0086",
"!	c #780071",
"~	c #86007E",
"{	c #A00097",
"]	c #A4009A",
"^	c #8C0084",
"/	c #72006B",
"(	c #62005C",
"_	c #96008D",
":	c #7E0077",
"<	c #6E0068",
"[	c #5E0058",
"}	c #64005E",
"|	c #7A0073",
"1	c #9A0091",
"2	c #900088",
"3	c #7C0075",
"4	c #6A0064",
"5	c #660060",
"6	c #880080",
"7	c #920089",
"8	c #82007A",
"9	c #8A0082",
"0	c #84007C",
"a	c #74006D",
"b	c #60005A",
"c	c #76006F",
"d	c #6C0066",
"e	c #5C0057",
"f	c #680062",
"g	c #5A0055",
"h	c #560051",
"i	c #580053",
"j	c #54004F",
"k	c #50004B",
"l	c #52004D",
"m	c #4E0049",
"n	c #4C0048",
"...................",
"+++++++++++++++++++",
"@@@@@@@@@@@@@@@@@@@",
"###################",
"$$$$$$$$$$%&*%$$$$$",
"&&&&&&&&&&=-;>&&&&&",
">>>>>>>>,')!~{,>>>>",
"'''''''];^/(/-]''''",
"{{{{{{;_:<[}|-{{{{{",
"11111-234[567-11111",
"22222^|4[}8)2222222",
"9999~!4[(3699999999",
"008:a4[bc8000000000",
"3|ad}e[/|3333333333",
"aaf[g[daaaaaaaaaaaa",
"/fehi(4ddddddddddd<",
"4ejkjeb(((((((((((}",
"ilmnmjiiiiiiiiiiiii",
"mmmmmmmmmmmmmmmmmmm"};
