/* XPM */
static char * nameless01_xpm[] = {
"19 19 88 1",
" 	c None",
".	c #CE00CE",
"+	c #E000E0",
"@	c #D900D9",
"#	c #D100D1",
"$	c #CA00CA",
"%	c #C800C8",
"&	c #C400C4",
"*	c #C500C5",
"=	c #C300C3",
"-	c #BA00BA",
";	c #A500A5",
">	c #AB00AB",
",	c #BD00BD",
"'	c #BC00BC",
")	c #B500B5",
"!	c #9C009C",
"~	c #830083",
"{	c #920092",
"]	c #AE00AE",
"^	c #BB00BB",
"/	c #B400B4",
"(	c #990099",
"_	c #7B007B",
":	c #6C006C",
"<	c #7B007A",
"[	c #A500A4",
"}	c #AD00AD",
"|	c #AC00AC",
"1	c #A300A2",
"2	c #8A0089",
"3	c #770077",
"4	c #670067",
"5	c #6E006E",
"6	c #850085",
"7	c #A700A7",
"8	c #A600A6",
"9	c #9E009E",
"0	c #870087",
"a	c #730073",
"b	c #660066",
"c	c #700070",
"d	c #930093",
"e	c #A0009F",
"f	c #9D009D",
"g	c #980097",
"h	c #860085",
"i	c #6D006D",
"j	c #8D008D",
"k	c #960096",
"l	c #960095",
"m	c #910091",
"n	c #830082",
"o	c #940094",
"p	c #8F008F",
"q	c #8E008D",
"r	c #8A008A",
"s	c #800080",
"t	c #730072",
"u	c #650065",
"v	c #6A006A",
"w	c #810081",
"x	c #860086",
"y	c #80007F",
"z	c #760076",
"A	c #640064",
"B	c #680068",
"C	c #7C007C",
"D	c #7D007D",
"E	c #720072",
"F	c #610061",
"G	c #750075",
"H	c #7E007E",
"I	c #7F007F",
"J	c #7C007B",
"K	c #5D005D",
"L	c #600060",
"M	c #740074",
"N	c #760075",
"O	c #780077",
"P	c #5C005C",
"Q	c #570057",
"R	c #630063",
"S	c #5A005A",
"T	c #550055",
"U	c #540054",
"V	c #560056",
"W	c #5F005F",
"...................",
"+++++++++++++++++++",
"@@@@@@@@@@@@@@@@@@@",
"###################",
"$$$$$$$$$$%&*%$$$$$",
"&&&&&&&&&=-;>,=&&&&",
",,,,,,,,')!~{]^,,,,",
")))))))/>(_:<[/))))",
"}}}}}}|123456;}}}}}",
"77777890abcde877777",
"9999fghabij!9999999",
"kkklmnab:0okkkkkkkk",
"ppqrstuvwjppppppppp",
"0xyziABCx0000000000",
"sDEuFbGHIIIIIIIIIII",
"JEAKL:MNNNNNNNNNNNO",
"aAPQPRv:::::::::::5",
"LSTUVPWWWWWWWWWWWWW",
"5i:::55555555555555"};
