/* XPM */
static char * octopusSkull01_xpm[] = {
"19 19 48 1",
" 	c None",
".	c #C6A7C6",
"+	c #C4A9C4",
"@	c #A481A4",
"#	c #9B739B",
"$	c #C2A3C2",
"%	c #B481B4",
"&	c #661765",
"*	c #6F3B6F",
"=	c #C5A8C5",
"-	c #BD9DBD",
";	c #B565B5",
">	c #7D007C",
",	c #884287",
"'	c #C3A8C3",
")	c #C786C7",
"!	c #B85EB8",
"~	c #AD72AD",
"{	c #C0A6C0",
"]	c #C2A7C2",
"^	c #C4A6C4",
"/	c #A985A9",
"(	c #A981A9",
"_	c #B17CB1",
":	c #914F91",
"<	c #7E4E7E",
"[	c #9F779F",
"}	c #C1A2C1",
"|	c #400040",
"1	c #A57EA5",
"2	c #B762B6",
"3	c #7A0079",
"4	c #5A0A5A",
"5	c #997399",
"6	c #C6A9C6",
"7	c #835483",
"8	c #A27AA2",
"9	c #C3A5C3",
"0	c #C0A2C0",
"a	c #C885C8",
"b	c #B55AB4",
"c	c #B178B0",
"d	c #C6ABC6",
"e	c #A66AA6",
"f	c #A37CA3",
"g	c #C1AEC1",
"h	c #844384",
"i	c #C2A5C2",
"                   ",
"            .      ",
"           +@#$    ",
"           %&*=-   ",
"           ;>,'-   ",
"           )!~{]^$ ",
"            /(_:<[^",
"         ^ }|123456",
"        =7890 abcd ",
"       97e7f   g]  ",
"         he7^      ",
"         e7=       ",
"          i        ",
"                   ",
"                   ",
"                   ",
"                   ",
"                   ",
"                   "};
