/* XPM */
static char * octopusSkull_xpm[] = {
"19 19 8 1",
" 	c None",
".	c #BD9DBD",
"+	c #400040",
"@	c #4D004D",
"#	c #80017F",
"$	c #CB43CB",
"%	c #6E246E",
"&	c #591D59",
"                   ",
"     ...           ",
"    ..+..          ",
"    ..@#.          ",
"  ....#$.          ",
" .......           ",
" .+@#.%.           ",
" ..#$......        ",
"  ...  ..&..       ",
"       .&.%.       ",
"       ..%         ",
"        ..         ",
"                   ",
"                   ",
"                   ",
"                   ",
"                   ",
"                   ",
"                   "};
