/* XPM */
static char * ok_kiss_select_xpm[] = {
"13 13 4 1",
" 	c None",
".	c #E300EB",
"+	c #C900D0",
"@	c #D100D9",
"             ",
"             ",
"             ",
"             ",
"           . ",
"    .     .+ ",
"    @.   .+  ",
"     +. .+   ",
"      +.+    ",
"      .+.    ",
"     .+ +.   ",
"    .+   +.  ",
"          +. "};
