/* XPM */
static char * out_xpm[] = {
"12 12 107 2",
"  	c #002CB0",
". 	c #0032D3",
"+ 	c #0032CE",
"@ 	c #0032CA",
"# 	c #0032C8",
"$ 	c #0032C7",
"% 	c #0032C6",
"& 	c #0058D2",
"* 	c #0058D0",
"= 	c #0058CE",
"- 	c #0058CC",
"; 	c #0058CB",
"> 	c #0085D5",
", 	c #0064AE",
"' 	c #00579D",
") 	c #00559A",
"! 	c #00589D",
"~ 	c #005AA0",
"{ 	c #005CA5",
"] 	c #005EAD",
"^ 	c #0062B4",
"/ 	c #006CBE",
"( 	c #007BCC",
"_ 	c #0085D3",
": 	c #00AFDD",
"< 	c #006587",
"[ 	c #003C57",
"} 	c #00364F",
"| 	c #004A65",
"1 	c #005675",
"2 	c #00537A",
"3 	c #004D82",
"4 	c #005790",
"5 	c #0077AD",
"6 	c #009ACE",
"7 	c #00CFE6",
"8 	c #008EA1",
"9 	c #00525D",
"0 	c #003941",
"a 	c #005A66",
"b 	c #00778C",
"c 	c #00698A",
"d 	c #005681",
"e 	c #006D97",
"f 	c #009DC0",
"g 	c #00BDDC",
"h 	c #00CFE7",
"i 	c #00DDEC",
"j 	c #00B9D0",
"k 	c #008B9D",
"l 	c #005764",
"m 	c #00535F",
"n 	c #006A7F",
"o 	c #00688C",
"p 	c #00709A",
"q 	c #009BBE",
"r 	c #00C0DC",
"s 	c #00CFE8",
"t 	c #00DEEE",
"u 	c #00BFE6",
"v 	c #00B9E1",
"w 	c #00A7CC",
"x 	c #007C9B",
"y 	c #005066",
"z 	c #004860",
"A 	c #006088",
"B 	c #008AB9",
"C 	c #00AED8",
"D 	c #00BEE5",
"E 	c #00C1E7",
"F 	c #00C6EA",
"G 	c #0098DA",
"H 	c #0099DB",
"I 	c #0098D7",
"J 	c #0089C3",
"K 	c #006697",
"L 	c #00527F",
"M 	c #006CA3",
"N 	c #008ECB",
"O 	c #009CDA",
"P 	c #009FDC",
"Q 	c #00A0DC",
"R 	c #00A2DE",
"S 	c #006ACC",
"T 	c #0070CD",
"U 	c #0073CD",
"V 	c #0072C8",
"W 	c #0068B9",
"X 	c #005FAD",
"Y 	c #0069BB",
"Z 	c #0074C9",
"` 	c #0077CC",
" .	c #0078CC",
"..	c #0076CD",
"+.	c #0041C1",
"@.	c #0045BE",
"#.	c #0048BC",
"$.	c #004ABB",
"%.	c #004BBA",
"&.	c #004BB9",
"*.	c #004CB9",
"=.	c #0022BA",
"-.	c #0024B3",
";.	c #0027AC",
">.	c #0028A8",
",.	c #0029A6",
"'.	c #0029A5",
"                        ",
". + @ # $ % % % % % % % ",
"& * = - - - - - ; - ; - ",
"> , ' ) ! ~ { ] ^ / ( _ ",
": < [ } | 1 2 3 4 5 6 : ",
"7 8 9 0 a b c d e f g h ",
"i j k l m n o p q r s t ",
"u v w x y z A B C D E F ",
"G H I J K L M N O P Q R ",
"S T U V W X Y Z `  . ...",
"+.@.#.$.%.&.&.&.*.&.*.&.",
"=.-.;.>.,.'.'.'.'.'.'.'."};
