/* XPM */
static char * outfocusClose_xpm[] = {
"12 12 107 2",
"  	c None",
". 	c #00E600",
"+ 	c #00FA00",
"@ 	c #00FF47",
"# 	c #00FD42",
"$ 	c #00FC41",
"% 	c #01FA40",
"& 	c #00FC40",
"* 	c #00FD41",
"= 	c #05ED3B",
"- 	c #08E439",
"; 	c #04F03E",
"> 	c #00FF71",
", 	c #01FD75",
"' 	c #04F26E",
") 	c #08E565",
"! 	c #05EF6A",
"~ 	c #02F770",
"{ 	c #07EA69",
"] 	c #13C75B",
"^ 	c #19BA5A",
"/ 	c #0CDF6A",
"( 	c #00FFAF",
"_ 	c #02FAA5",
": 	c #0CDE93",
"< 	c #19B979",
"[ 	c #14C57E",
"} 	c #0CD98A",
"| 	c #16C17C",
"1 	c #279D6E",
"2 	c #26AA7F",
"3 	c #10DE9A",
"4 	c #00FFD5",
"5 	c #02F1CC",
"6 	c #10D5B8",
"7 	c #27A290",
"8 	c #2A937B",
"9 	c #239E7F",
"0 	c #2B917B",
"a 	c #2D988B",
"b 	c #1CC2B0",
"c 	c #09E7C8",
"d 	c #00DDEC",
"e 	c #01DCE2",
"f 	c #0ACFD5",
"g 	c #21A6AC",
"h 	c #377A7A",
"i 	c #3B6E69",
"j 	c #22A4AC",
"k 	c #0CCDD5",
"l 	c #02DCE2",
"m 	c #00DFEE",
"n 	c #00DEEE",
"o 	c #00BFE6",
"p 	c #01BDE2",
"q 	c #08B3D2",
"r 	c #1D93A7",
"s 	c #376F7B",
"t 	c #40656F",
"u 	c #37707B",
"v 	c #1E95A9",
"w 	c #09B6D3",
"x 	c #01C1E3",
"y 	c #00C7EA",
"z 	c #00C6EA",
"A 	c #0098DA",
"B 	c #0494CE",
"C 	c #1083AD",
"D 	c #236D87",
"E 	c #2E6986",
"F 	c #2D6F94",
"G 	c #316C89",
"H 	c #28738D",
"I 	c #1389B0",
"J 	c #059AD0",
"K 	c #00A3DE",
"L 	c #00A2DE",
"M 	c #006ACC",
"N 	c #0767B9",
"O 	c #145893",
"P 	c #1C5183",
"Q 	c #175E9E",
"R 	c #1268B2",
"S 	c #1D63A3",
"T 	c #265C8E",
"U 	c #196198",
"V 	c #086FB9",
"W 	c #0077CD",
"X 	c #0076CD",
"Y 	c #0041C1",
"Z 	c #0345B6",
"` 	c #0940A3",
" .	c #0A419F",
"..	c #0649AD",
"+.	c #034DB5",
"@.	c #094CAF",
"#.	c #1048A3",
"$.	c #0C47A2",
"%.	c #044CB0",
"&.	c #004CB9",
"*.	c #004BB9",
"=.	c #0022BA",
"-.	c #0024B3",
";.	c #0027AC",
">.	c #0028A8",
",.	c #0029A6",
"'.	c #0029A5",
". . . . . . . . . . . . ",
"+ + + + + + + + + + + + ",
"@ # $ % & * % = - ; @ @ ",
"> , ' ) ! ~ { ] ^ / > > ",
"( _ : < [ } | 1 2 3 ( ( ",
"4 5 6 7 8 9 0 a b c 4 4 ",
"d e f g h i h j k l m n ",
"o p q r s t u v w x y z ",
"A B C D E F G H I J K L ",
"M N O P Q R S T U V W X ",
"Y Z `  ...+.@.#.$.%.&.*.",
"=.-.;.>.,.'.'.'.'.'.'.'."};
