/* XPM */
static char * outfocusStuff_xpm[] = {
"12 12 56 1",
" 	c None",
".	c #00E600",
"+	c #00FA00",
"@	c #00FF47",
"#	c #00FF71",
"$	c #00FFAF",
"%	c #00FFD5",
"&	c #00DDEC",
"*	c #07D8DB",
"=	c #12CFCE",
"-	c #18CAC6",
";	c #19C9C5",
">	c #19CAC5",
",	c #18CBC7",
"'	c #12D0CE",
")	c #07DADC",
"!	c #00DEEE",
"~	c #00BFE6",
"{	c #0DB4D5",
"]	c #22A3BC",
"^	c #2D9AAF",
"/	c #2F99AD",
"(	c #2F9AAD",
"_	c #2D9BAF",
":	c #22A5BD",
"<	c #0DB8D7",
"[	c #00C6EA",
"}	c #0098DA",
"|	c #0794D3",
"1	c #128DC6",
"2	c #1889BE",
"3	c #1989BD",
"4	c #198ABD",
"5	c #188BBF",
"6	c #1290C6",
"7	c #079AD4",
"8	c #00A2DE",
"9	c #006ACC",
"0	c #006FCD",
"a	c #0073CD",
"b	c #0075CD",
"c	c #0076CD",
"d	c #0077CD",
"e	c #0041C1",
"f	c #0045BE",
"g	c #0048BC",
"h	c #004ABB",
"i	c #004BBA",
"j	c #004BB9",
"k	c #004CB9",
"l	c #0022BA",
"m	c #0024B3",
"n	c #0027AC",
"o	c #0028A8",
"p	c #0029A6",
"q	c #0029A5",
"............",
"++++++++++++",
"@@@@@@@@@@@@",
"############",
"$$$$$$$$$$$$",
"%%%%%%%%%%%%",
"&*=-;;;>,')!",
"~{]^///(_:<[",
"}|1233345678",
"90abccccdcdc",
"efghijjjkjkj",
"lmnopqqqqqqq"};
