/* XPM */
static char * peaks02_xpm[] = {
"19 19 98 2",
"  	c None",
". 	c #470042",
"+ 	c #50004A",
"@ 	c #5C0056",
"# 	c #680062",
"$ 	c #680061",
"% 	c #670061",
"& 	c #73006C",
"* 	c #72006B",
"= 	c #71006A",
"- 	c #700069",
"; 	c #71006B",
"> 	c #7C0075",
", 	c #7A0073",
"' 	c #76006F",
") 	c #75006E",
"! 	c #790072",
"~ 	c #7B0074",
"{ 	c #84007C",
"] 	c #83007C",
"^ 	c #83007B",
"/ 	c #7F0077",
"( 	c #780071",
"_ 	c #7E0077",
": 	c #82007B",
"< 	c #8A0082",
"[ 	c #890081",
"} 	c #880080",
"| 	c #82007A",
"1 	c #6E0068",
"2 	c #900088",
"3 	c #900087",
"4 	c #8F0086",
"5 	c #8C0084",
"6 	c #8D0085",
"7 	c #8F0087",
"8 	c #8C0083",
"9 	c #800079",
"0 	c #6F0069",
"a 	c #650060",
"b 	c #7F0078",
"c 	c #94008B",
"d 	c #93008B",
"e 	c #910089",
"f 	c #86007E",
"g 	c #920089",
"h 	c #910088",
"i 	c #660060",
"j 	c #5D0057",
"k 	c #8B0083",
"l 	c #770070",
"m 	c #87007F",
"n 	c #810079",
"o 	c #5D0058",
"p 	c #580053",
"q 	c #61005B",
"r 	c #85007E",
"s 	c #72006C",
"t 	c #66005F",
"u 	c #6A0064",
"v 	c #7E0076",
"w 	c #62005C",
"x 	c #590054",
"y 	c #5E0058",
"z 	c #7D0076",
"A 	c #73006B",
"B 	c #6C0065",
"C 	c #560051",
"D 	c #6B0065",
"E 	c #6D0066",
"F 	c #63005D",
"G 	c #5B0056",
"H 	c #5A0055",
"I 	c #5C0057",
"J 	c #63005E",
"K 	c #64005E",
"L 	c #64005D",
"M 	c #60005B",
"N 	c #570052",
"O 	c #53004E",
"P 	c #52004D",
"Q 	c #570051",
"R 	c #5F0059",
"S 	c #61005C",
"T 	c #62005D",
"U 	c #5B0055",
"V 	c #54004F",
"W 	c #54004E",
"X 	c #5E0059",
"Y 	c #65005F",
"Z 	c #690063",
"` 	c #5A0054",
" .	c #5F005A",
"..	c #580052",
"+.	c #60005A",
"@.	c #61005A",
"#.	c #590053",
"$.	c #53004D",
". . . . . . . . . . . . . . . . . . . ",
"+ + + + + + + + + + + + + + + + + + + ",
"@ @ @ @ @ @ @ @ @ @ @ @ @ @ @ @ @ @ @ ",
"# # # # # # # # # # # # # # $ % % $ # ",
"& & & & & & & & & & & & & * = - - ; & ",
"> > > > > > > > > > > > > , ' & ) ! ~ ",
"{ { { { { { { ] { { { { ^ / ( & ( _ : ",
"< < < < < < [ [ < < < < } | ' 1 ' | } ",
"2 2 2 2 3 4 5 < 6 7 2 7 8 9 0 a 1 b < ",
"c c c d e 6 f : [ 7 g h < , i j i , < ",
"3 3 3 4 k ^ l ; , m 6 k n 1 o p q ) r ",
"} } m { _ s t q u , | v = w x p y 1 z ",
"( ( ' A B w p C y D ; E F G H I I J 1 ",
"K L w M I N O P Q o q R @ o S T I U R ",
"R o U x x N V W N I X X M Y Z % y ` U ",
"S  .I G G H p ..I w F F K % # Y R @ y ",
"+.R I G @ @ ` U R q @.+.+.S S +.o I y ",
"p p p N ....Q ..x ` #.p p #.#.p p N p ",
"P P P P P P P P O $.P P P P P P P O P "};
