/* XPM */
static char * peaks_xpm[] = {
"19 19 33 1",
" 	c None",
".	c #40003C",
"+	c #4F004A",
"@	c #5C0056",
"#	c #690062",
"$	c #74006D",
"%	c #7C0075",
"&	c #6C0066",
"*	c #7A0073",
"=	c #84007C",
"-	c #82007A",
";	c #8A0082",
">	c #86007E",
",	c #590054",
"'	c #7A0074",
")	c #900088",
"!	c #8C0084",
"~	c #9A0091",
"{	c #98008F",
"]	c #780070",
"^	c #85007D",
"/	c #7E0077",
"(	c #780071",
"_	c #62005C",
":	c #7D0076",
"<	c #5C0057",
"[	c #50004B",
"}	c #680062",
"|	c #560051",
"1	c #580053",
"2	c #54004F",
"3	c #60005A",
"4	c #4E0049",
"...................",
"+++++++++++++++++++",
"@@@@@@@@@@@@@@@@@@@",
"###################",
"$$$$$$$$$$$$$$$$$$$",
"%%%%%%%%%%%%%%%&$*%",
"==============$&-==",
";;;;;;;;;;;;;;>,';;",
")))))))))))))!&+&))",
"~~~~~{)]~~~~~^,+,'~",
")))))!*,/))))$+++')",
";;;;>(,+_:;;$++<+';",
"^=-/$,+++-^$,+,<+,^",
"++++++++++++++,%[++",
",,,,,,+++,,,,]]$<+,",
"&}<|1_,+,]&&&&&&,2&",
"______3,]________<_",
"11111111111111111,1",
"44444444444444444+4"};
