/* XPM */
static char * peaks01_xpm[] = {
"19 19 89 1",
" 	c None",
".	c #43003E",
"+	c #4F004A",
"@	c #5C0056",
"#	c #690062",
"$	c #73006C",
"%	c #72006B",
"&	c #7C0075",
"*	c #7B0074",
"=	c #780071",
"-	c #71006A",
";	c #75006E",
">	c #7A0073",
",	c #84007C",
"'	c #82007A",
")	c #6F0069",
"!	c #8A0082",
"~	c #87007F",
"{	c #7B0073",
"]	c #660060",
"^	c #770071",
"/	c #910088",
"(	c #900088",
"_	c #8F0087",
":	c #8D0085",
"<	c #900087",
"[	c #86007E",
"}	c #6D0067",
"|	c #5A0055",
"1	c #6C0066",
"2	c #97008E",
"3	c #94008B",
"4	c #7F0077",
"5	c #96008D",
"6	c #800078",
"7	c #60005A",
"8	c #53004E",
"9	c #5F0059",
"0	c #93008A",
"a	c #890081",
"b	c #770070",
"c	c #670061",
"d	c #8C0084",
"e	c #70006A",
"f	c #560051",
"g	c #51004C",
"h	c #580053",
"i	c #880080",
"j	c #83007B",
"k	c #74006D",
"l	c #5F005A",
"m	c #7E0077",
"n	c #5A0054",
"o	c #570052",
"p	c #72006C",
"q	c #86007F",
"r	c #7D0075",
"s	c #6F0068",
"t	c #5E0058",
"u	c #50004B",
"v	c #700069",
"w	c #5C0057",
"x	c #54004F",
"y	c #60005B",
"z	c #780070",
"A	c #590054",
"B	c #590053",
"C	c #52004D",
"D	c #54004E",
"E	c #570051",
"F	c #6B0066",
"G	c #580052",
"H	c #5B0055",
"I	c #6C0065",
"J	c #5D0057",
"K	c #660061",
"L	c #63005E",
"M	c #5D0058",
"N	c #5B0056",
"O	c #5E0059",
"P	c #6A0064",
"Q	c #680062",
"R	c #6B0065",
"S	c #690063",
"T	c #64005E",
"U	c #62005C",
"V	c #61005B",
"W	c #680061",
"X	c #65005F",
"...................",
"+++++++++++++++++++",
"@@@@@@@@@@@@@@@@@@@",
"###################",
"$$$$$$$$$$$$$$$%%$$",
"&&&&&&&&&&&&&*=-;>&",
",,,,,,,,,,,,,'=)*',",
"!!!!!!!!!!!!!~{]^~!",
"/////(_:<///<[}|1~<",
"222223!4<52236789&0",
"////_abc*d(<aefgh^:",
"!!!ijklf]mi,%n8oopq",
"r&{bst8uh$>vt8owxyz",
"nnABfCu+goAoDEyFG8h",
"H|hoooCu8HHHtI-sJDB",
"KLMANOhxMPQcQR1SJhT",
"UVlO99J@WXUUUUUV9wV",
"hhhhhhGo|Bhhhhhhhhh",
"uuuuuuuuuuuuuuuuugu"};
