/* XPM */
static char * pinkL_xpm[] = {
"19 19 10 1",
" 	c None",
".	c #E32CE3",
"+	c #E3B2E3",
"@	c #F53AF5",
"#	c #E37CE3",
"$	c #D624D6",
"%	c #E360E3",
"&	c #A801A8",
"*	c #E36CE3",
"=	c #E33AE3",
"                   ",
"                   ",
"                   ",
"                   ",
"                   ",
"                   ",
"                   ",
"         .         ",
"   ++   .@.        ",
"  #@@#  $@@%       ",
"  #@&%  $&&@%      ",
"   #%@% *&$%@%     ",
"     %@=*&# %@% ++ ",
"      %@@&$  %@%## ",
"       =&&$   %&@# ",
"        .@.    @@  ",
"         .         ",
"                   ",
"                   "};
