/* XPM */
static char * pinkL01_xpm[] = {
"19 19 24 1",
" 	c None",
".	c #E32CE3",
"+	c #E37CE3",
"@	c #F53AF5",
"#	c #CC01CC",
"$	c #D624D6",
"%	c #E360E3",
"&	c #A801A8",
"*	c #E36CE3",
"=	c #B201B2",
"-	c #E38CE3",
";	c #E33AE3",
">	c #F55FF5",
",	c #E662E3",
"'	c #F551F5",
")	c #BF01BF",
"!	c #E394E3",
"~	c #E362E3",
"{	c #E383E3",
"]	c #CF64CF",
"^	c #CF08CF",
"/	c #CF5ACF",
"(	c #CF3ACF",
"_	c #E374E3",
"                   ",
"                   ",
"                   ",
"                   ",
"                   ",
"                   ",
"                   ",
"         .         ",
"  +++   .@.        ",
"  +@#+  $#@%       ",
"  +#&%  $&&@%      ",
"   +%#% *&$=@%     ",
"    -%@;*&+@@@%>   ",
"     -%=@&$,,')%+! ",
"      -;&&$~ {%&&] ",
"       -.#.~  {&^/ ",
"        -.-    /(] ",
"         -_        ",
"                   "};
