/* XPM */
static char * pokeshadebeast_xpm[] = {
"19 19 66 1",
" 	c None",
".	c #910091",
"+	c #660066",
"@	c #4D004D",
"#	c #A401A4",
"$	c #A501A5",
"%	c #9D019D",
"&	c #9E019E",
"*	c #940194",
"=	c #950195",
"-	c #960196",
";	c #8F018F",
">	c #840083",
",	c #7B007A",
"'	c #8B018B",
")	c #870187",
"!	c #7D007D",
"~	c #730073",
"{	c #800180",
"]	c #80017F",
"^	c #770076",
"/	c #620062",
"(	c #730173",
"_	c #790179",
":	c #780178",
"<	c #6B006B",
"[	c #610061",
"}	c #6E016E",
"|	c #740174",
"1	c #5F005F",
"2	c #70006F",
"3	c #650064",
"4	c #7E017D",
"5	c #750075",
"6	c #630063",
"7	c #710071",
"8	c #650065",
"9	c #700070",
"0	c #680068",
"a	c #850185",
"b	c #6B006A",
"c	c #780077",
"d	c #680067",
"e	c #760076",
"f	c #8D018D",
"g	c #670067",
"h	c #6F006F",
"i	c #780078",
"j	c #840084",
"k	c #690069",
"l	c #910191",
"m	c #930193",
"n	c #6E006E",
"o	c #750074",
"p	c #810080",
"q	c #8D008D",
"r	c #970197",
"s	c #9B019B",
"t	c #6D016D",
"u	c #740074",
"v	c #7C007C",
"w	c #9F019F",
"x	c #A201A2",
"y	c #A301A3",
"z	c #4F004F",
"A	c #4E004E",
"...................",
"+++++++++++++++++++",
"@@@@@@@@@@@@@@@@@@@",
"#$$$$$$$$$$$$$$$$$$",
"%%%%%%%&&&&&&&&&&&&",
"*=======-----------",
";;;;;;;>,';;;;;;;;;",
"))))))!+~{)))))))))",
"]]]]]^/(_]]]]]]]]]]",
"::::<[}|:::::::::::",
"]]]^1234]]]]]]]]]]]",
"))567890a))))))))))",
";>6+bcdef;;;;;;;;;;",
"=~ghihjkl==========",
"mnopcq9rsssssssssss",
"tuvo%wx$$yyyyyyyyyy",
"@@@@@@@@zzzAA@@@@@@",
"+++++++++++++++++++",
"..................."};
