/* XPM */
static char * pressstick_xpm[] = {
"12 12 72 1",
" 	c #002CB0",
".	c #0032D3",
"+	c #0032CE",
"@	c #0032CA",
"#	c #0032C8",
"$	c #0032C7",
"%	c #0032C6",
"&	c #0058D2",
"*	c #0058D0",
"=	c #0058CE",
"-	c #0058CC",
";	c #0058CB",
">	c #0085D5",
",	c #0085D4",
"'	c #0085D3",
")	c #00AFDD",
"!	c #01ABDE",
"~	c #06A7DE",
"{	c #00B0DE",
"]	c #00CFE6",
"^	c #00CFE7",
"/	c #01C9E7",
"(	c #11BAE8",
"_	c #2AA4E9",
":	c #01CAE7",
"<	c #00D0E7",
"[	c #00DDEC",
"}	c #00DDED",
"|	c #00DEED",
"1	c #04CEEB",
"2	c #1FB6ED",
"3	c #4E8EF0",
"4	c #04CFEB",
"5	c #00DEEE",
"6	c #00DFEE",
"7	c #00BFE6",
"8	c #00C2E8",
"9	c #00C4E9",
"0	c #01C0E8",
"a	c #11B2E8",
"b	c #2A9CEA",
"c	c #11B3E9",
"d	c #01C2E9",
"e	c #00C6EA",
"f	c #00C7EA",
"g	c #0098DA",
"h	c #009CDC",
"i	c #009FDD",
"j	c #00A1DE",
"k	c #019FDD",
"l	c #069BDD",
"m	c #00A3DE",
"n	c #00A2DE",
"o	c #006ACC",
"p	c #006FCD",
"q	c #0073CD",
"r	c #0075CD",
"s	c #0076CD",
"t	c #0077CD",
"u	c #0041C1",
"v	c #0045BE",
"w	c #0048BC",
"x	c #004ABB",
"y	c #004BBA",
"z	c #004BB9",
"A	c #004CB9",
"B	c #0022BA",
"C	c #0024B3",
"D	c #0027AC",
"E	c #0028A8",
"F	c #0029A6",
"G	c #0029A5",
"            ",
".+@#$%%%%%%%",
"&*=-----;-;-",
">,,'''''''''",
"))))!~~!{){)",
"]^^/(__(:^<^",
"[}|123324565",
"7890abbcdefe",
"ghijkllkmnmn",
"opqrsssststs",
"uvwxyzzzAzAz",
"BCDEFGGGGGGG"};
