/* XPM */
static char * presed_maximize01_xpm[] = {
"19 19 84 1",
" 	c None",
".	c #910091",
"+	c #660066",
"@	c #4D004D",
"#	c #A501A5",
"$	c #9C009B",
"%	c #A200A1",
"&	c #9C0099",
"*	c #A100A0",
"=	c #A401A4",
"-	c #9E019E",
";	c #940093",
">	c #930080",
",	c #8C007A",
"'	c #9D0085",
")	c #950091",
"!	c #9D019D",
"~	c #960196",
"{	c #860186",
"]	c #90007B",
"^	c #E7000E",
"/	c #7A0079",
"(	c #790079",
"_	c #770066",
":	c #850070",
"<	c #950195",
"[	c #940194",
"}	c #8F018F",
"|	c #710071",
"1	c #CC0012",
"2	c #A8000E",
"3	c #700070",
"4	c #840083",
"5	c #AC000F",
"6	c #CD0012",
"7	c #6B005B",
"8	c #7E006B",
"9	c #870187",
"0	c #7C007C",
"a	c #650053",
"b	c #B30007",
"c	c #B70006",
"d	c #6C006A",
"e	c #5C004C",
"f	c #760062",
"g	c #80017F",
"h	c #6F006F",
"i	c #A3000D",
"j	c #A3000E",
"k	c #47003A",
"l	c #670055",
"m	c #780065",
"n	c #780178",
"o	c #780078",
"p	c #47002E",
"q	c #750061",
"r	c #7F006C",
"s	c #7A017A",
"t	c #710070",
"u	c #690057",
"v	c #B00006",
"w	c #460039",
"x	c #650055",
"y	c #81006B",
"z	c #860086",
"A	c #680058",
"B	c #C80008",
"C	c #500042",
"D	c #8D008D",
"E	c #830071",
"F	c #C80009",
"G	c #5B004C",
"H	c #83006D",
"I	c #920192",
"J	c #850071",
"K	c #9B019B",
"L	c #860071",
"M	c #9B019A",
"N	c #9C019C",
"O	c #A301A3",
"P	c #A201A2",
"Q	c #A101A1",
"R	c #4E004E",
"S	c #4F004F",
"...................",
"+++++++++++++++++++",
"@@@@@@@@@@@@@@@@@@@",
"####$%#######&*###=",
"----;>,-----,')!!!!",
"~~~~{]^/~~~(^_:<<<[",
"}}}}}|123435678}}}}",
"999990abcdcbef:9999",
"gggggghaijiklmggggg",
"nnnnnnoapipkqrsnnss",
"gggggggtuvwxygggggg",
"999999zzABCq9999999",
"}}}}}DDDEFGHD}}}}}}",
"<<<<<<<<ImJ<<<<<<<<",
"KKKKKKKKKL!!M!!!!!N",
"OOOOOO#####OPOOOOOQ",
"@@@@@@RRSSS@@@@@@@@",
"+++++++++++++++++++",
"..................."};
