/* XPM */
static char * presed_maximize_xpm[] = {
"19 19 73 1",
" 	c None",
".	c #910091",
"+	c #660066",
"@	c #4D004D",
"#	c #A501A5",
"$	c #9C009B",
"%	c #A200A1",
"&	c #9B0099",
"*	c #A401A4",
"=	c #9E019E",
"-	c #940093",
";	c #930080",
">	c #8C007A",
",	c #9D019D",
"'	c #960196",
")	c #860186",
"!	c #90007B",
"~	c #E2000F",
"{	c #7A0079",
"]	c #790079",
"^	c #E1000E",
"/	c #8D007B",
"(	c #950195",
"_	c #940194",
":	c #8F018F",
"<	c #710071",
"[	c #CC0012",
"}	c #A8000E",
"|	c #700070",
"1	c #840083",
"2	c #AC000F",
"3	c #CD0012",
"4	c #870187",
"5	c #7C007C",
"6	c #650053",
"7	c #B30007",
"8	c #AE0006",
"9	c #6C006A",
"0	c #AF0006",
"a	c #80017F",
"b	c #6F006F",
"c	c #AC0006",
"d	c #5A0058",
"e	c #670055",
"f	c #7A007A",
"g	c #780178",
"h	c #780078",
"i	c #B20007",
"j	c #6E006C",
"k	c #7A017A",
"l	c #710070",
"m	c #690057",
"n	c #B00006",
"o	c #710170",
"p	c #860086",
"q	c #680058",
"r	c #C80008",
"s	c #860071",
"t	c #8D008D",
"u	c #830071",
"v	c #C80009",
"w	c #780065",
"x	c #7B007B",
"y	c #920192",
"z	c #850071",
"A	c #9B019B",
"B	c #9B019A",
"C	c #9C019C",
"D	c #A301A3",
"E	c #A201A2",
"F	c #A101A1",
"G	c #4E004E",
"H	c #4F004F",
"...................",
"+++++++++++++++++++",
"@@@@@@@@@@@@@@@@@@@",
"####$%#######%&###*",
"====-;>=====>;-,,,,",
"'''')!~{''']^/)(((_",
":::::<[}|1|23<:::::",
"4444456789076|44444",
"aaaaaab6cdc6efaaaaa",
"ggggggh6ic7ejfkggkk",
"aaaaaaalmnmo|aaaaaa",
"444444ppqrqs4444444",
":::::tttuvwxt::::::",
"((((((((ywz((((((((",
"AAAAAAAAAs,,B,,,,,C",
"DDDDDD#####DEDDDDDF",
"@@@@@@GGHHH@@@@@@@@",
"+++++++++++++++++++",
"..................."};
