/* XPM */
static char * redselect_xpm[] = {
"19 19 11 1",
" 	c None",
".	c #4A0000",
"+	c #540000",
"@	c #5C0000",
"#	c #660000",
"$	c #750000",
"%	c #7D0000",
"&	c #850000",
"*	c #910000",
"=	c #990000",
"-	c #A60000",
"...................",
"+++++++++++++++++++",
"@@@@@@@@@@@@@@@@@@@",
"###################",
"$$$$$$$$$$$$$$$$$$$",
"%%%%%%%%%%%%%%%%%%%",
"&&&&&&&&&&&&&&&&&&&",
"*******************",
"===================",
"-------------------",
"===================",
"*******************",
"&&&&&&&&&&&&&&&&&&&",
"%%%%%%%%%%%%%%%%%%%",
"$$$$$$$$$$$$$$$$$$$",
"###################",
"@@@@@@@@@@@@@@@@@@@",
"+++++++++++++++++++",
"..................."};
