/* XPM */
static char * select_xpm[] = {
"19 19 15 1",
" 	c None",
".	c #8F0088",
"+	c #910088",
"@	c #900088",
"#	c #900087",
"$	c #910089",
"%	c #8F0087",
"&	c #8E0086",
"*	c #8B0083",
"=	c #84017C",
"-	c #6D0268",
";	c #900089",
">	c #8C0084",
",	c #74016E",
"'	c #380135",
"                   ",
"                   ",
"                   ",
"                   ",
"                   ",
"                   ",
"                   ",
"                   ",
"                   ",
"         .++.      ",
"      +@.@##@.@+   ",
"     $$+%&**&%+$$  ",
"    .@@@&=--=&@@@. ",
"    ;$$@>,'',>@$@; ",
"    .@@@&=--=&@@@. ",
"     $$+%&**&%+$$  ",
"      +@.@##@.@+   ",
"         .++.      ",
"                   "};
