/* XPM */
static char * shaderbeast_xpm[] = {
"19 19 63 1",
" 	c None",
".	c #910091",
"+	c #660066",
"@	c #4D004D",
"#	c #A401A4",
"$	c #A501A5",
"%	c #9D019D",
"&	c #9E019E",
"*	c #910191",
"=	c #9A019A",
"-	c #940194",
";	c #950195",
">	c #960196",
",	c #8A018A",
"'	c #770177",
")	c #930193",
"!	c #8F018F",
"~	c #840184",
"{	c #6D016D",
"]	c #6F016F",
"^	c #8C018C",
"/	c #870187",
"(	c #810181",
"_	c #790179",
":	c #630163",
"<	c #680168",
"[	c #730173",
"}	c #800180",
"|	c #80017F",
"1	c #7B017A",
"2	c #6D016C",
"3	c #5E015D",
"4	c #650165",
"5	c #780178",
"6	c #710171",
"7	c #603260",
"8	c #3F753F",
"9	c #601760",
"0	c #610161",
"a	c #780177",
"b	c #6B016A",
"c	c #535653",
"d	c #70016F",
"e	c #650164",
"f	c #7E017E",
"g	c #6B016B",
"h	c #660166",
"i	c #5A015A",
"j	c #690169",
"k	c #8B018B",
"l	c #670167",
"m	c #600160",
"n	c #640164",
"o	c #740174",
"p	c #9C019C",
"q	c #9B019A",
"r	c #9B019B",
"s	c #880188",
"t	c #A101A1",
"u	c #A301A3",
"v	c #A201A2",
"w	c #4F004F",
"x	c #4E004E",
"...................",
"+++++++++++++++++++",
"@@@@@@@@@@@@@@@@@@@",
"#$$$$$$$$$$$$$$$$$$",
"%%&**=&&&&&&&=**&&&",
"-;>,',)>>>>>),',>>>",
"!!!~{]~^!!!^~]{~!!!",
"///(_:<[}/}[<:_(///",
"||||12:3:4:3:21||||",
"5555567890987]55555",
"|||||abcdedcba|||||",
"//////fghihjf//////",
"!!!!!!k~lmn~k!!!!!!",
";;;;;;;,o_[,;;;;;;;",
"p%p%p%qrs!kr%rrrrrr",
"tuuuuuvtuuuuuuuuuuu",
"@@@@@@@@wwwxx@@@@@@",
"+++++++++++++++++++",
"..................."};
