/* XPM */
static char * skull_xpm[] = {
"19 19 116 2",
"  	c #000000",
". 	c #6C6C6C",
"+ 	c #202020",
"@ 	c #404040",
"# 	c #ECECEB",
"$ 	c #E7E7E5",
"% 	c #E9E9E9",
"& 	c #E4E3E3",
"* 	c #E2E1DF",
"= 	c #EFEFED",
"- 	c #F5F4F3",
"; 	c #EFEEEE",
"> 	c #E9E8E7",
", 	c #DBDBD9",
"' 	c #D8D8D5",
") 	c #E1E0E0",
"! 	c #E3E1E2",
"~ 	c #FCFBFB",
"{ 	c #FDFCFC",
"] 	c #FDFCFD",
"^ 	c #FEFDFD",
"/ 	c #FEFDFC",
"( 	c #F7F6F4",
"_ 	c #C0BFBD",
": 	c #C9CAC9",
"< 	c #5E5E5E",
"[ 	c #BABABA",
"} 	c #E3E3E4",
"| 	c #F0F0F2",
"1 	c #FAFBFB",
"2 	c #FCFCFD",
"3 	c #FEFEFE",
"4 	c #FDFDFC",
"5 	c #E3E3E1",
"6 	c #B6B5B4",
"7 	c #D4D4D4",
"8 	c #8F8F91",
"9 	c #67676A",
"0 	c #707272",
"a 	c #B6B8B7",
"b 	c #F6F6F6",
"c 	c #FDFEFD",
"d 	c #FCFBF9",
"e 	c #C7C7C5",
"f 	c #DDDCDC",
"g 	c #CBCBCB",
"h 	c #797878",
"i 	c #1E1F1E",
"j 	c #4B4F48",
"k 	c #8A8D88",
"l 	c #DEE0E1",
"m 	c #FAFAFB",
"n 	c #FDFBFB",
"o 	c #D1D0CE",
"p 	c #E2E2E2",
"q 	c #D3D3D3",
"r 	c #BAB8B6",
"s 	c #585653",
"t 	c #575651",
"u 	c #A8A8A5",
"v 	c #E9E8E8",
"w 	c #676768",
"x 	c #464948",
"y 	c #ADAEAE",
"z 	c #FAF9F9",
"A 	c #C8C7C4",
"B 	c #E4E2E2",
"C 	c #D4D4D6",
"D 	c #C0C1C2",
"E 	c #D6D6D6",
"F 	c #DCDBD9",
"G 	c #CBCCCA",
"H 	c #C4C3C2",
"I 	c #282626",
"J 	c #2E312B",
"K 	c #6A6A66",
"L 	c #BDBBBB",
"M 	c #C1C0BF",
"N 	c #9D9D9B",
"O 	c #B9B9B9",
"P 	c #EAE9E9",
"Q 	c #B7B7B5",
"R 	c #D8D7D5",
"S 	c #7B7978",
"T 	c #3C3C38",
"U 	c #74726D",
"V 	c #A4A3A1",
"W 	c #DCDADA",
"X 	c #E8E8E7",
"Y 	c #A09F9C",
"Z 	c #8F8E8C",
"` 	c #BBB9BB",
" .	c #D1D0D1",
"..	c #E7E6E7",
"+.	c #D6D5D5",
"@.	c #C6C3C3",
"#.	c #BBB9B8",
"$.	c #C5C5C4",
"%.	c #C6C6C4",
"&.	c #B7B7B6",
"*.	c #999896",
"=.	c #8C8A88",
"-.	c #A2A0A0",
";.	c #A5A3A4",
">.	c #B9B8B8",
",.	c #C8C8C8",
"'.	c #D7D8D9",
").	c #CBCCCD",
"!.	c #CDCDCC",
"~.	c #C1C0BD",
"{.	c #B7B6B6",
"].	c #DAD8D9",
"^.	c #D9DADB",
"/.	c #D2D3D3",
"(.	c #D0D0D0",
"_.	c #DAD9DA",
"                                      ",
"                      . + +           ",
"            @ + + + . # $ % % + + + @ ",
"            +     & * = - ; > , '   + ",
"            +   ) ! ~ { ] ^ / ( _ : + ",
"            + < [ } | 1 2 3 3 4 5 6 + ",
"            + 7 8 9 0 a b c 3 4 d e f ",
"            + g h i j k % % l m n o p ",
"            + q r s t u v w x y z A B ",
"            + C D E F G H I J K L M + ",
"            +   N O P Q R S T U V W + ",
"            + X Y Z `  ...+.@.#.$.  + ",
"            +   %.&.*.=.-.;.>.,.<   + ",
"            +   '.).!.~.{.].        + ",
"            @ + + ^./.(._.+ + + + + @ ",
"                                      ",
"                                      ",
"                                      ",
"                                      "};
