/* XPM */
static char * slit_xpm[] = {
"19 19 63 1",
" 	c None",
".	c #290129",
"+	c #300130",
"@	c #360136",
"#	c #380138",
"$	c #3B013B",
"%	c #3C013C",
"&	c #440144",
"*	c #500150",
"=	c #670267",
"-	c #710371",
";	c #790479",
">	c #7E067E",
",	c #810781",
"'	c #8B078B",
")	c #940794",
"!	c #2B012B",
"~	c #400140",
"{	c #430143",
"]	c #490149",
"^	c #4C014C",
"/	c #5F015F",
"(	c #6C036C",
"_	c #760476",
":	c #7C067C",
"<	c #800780",
"[	c #830783",
"}	c #820782",
"|	c #4F014F",
"1	c #530153",
"2	c #560156",
"3	c #540154",
"4	c #760576",
"5	c #7D077D",
"6	c #850785",
"7	c #80077F",
"8	c #7E077E",
"9	c #5C015C",
"0	c #610161",
"a	c #660166",
"b	c #6B036B",
"c	c #7D067D",
"d	c #840784",
"e	c #750475",
"f	c #6E036E",
"g	c #6E016E",
"h	c #6D036D",
"i	c #210121",
"j	c #770477",
"k	c #260126",
"l	c #200120",
"m	c #7F077F",
"n	c #250125",
"o	c #630163",
"p	c #590159",
"q	c #470147",
"r	c #320132",
"s	c #1C011C",
"t	c #170117",
"u	c #190119",
"v	c #0F010F",
"w	c #1E011C",
"x	c #180118",
".++@+#$%%%&*=-;>,')",
"!!@$~{{{]^*/(_:<[}'",
"!+${|11123/(45,[678",
".+${1//90ab_c,d678e",
"!+${1/ffghe5,[678eh",
"i+${1/fjjj:,d678eh/",
"!+${1/fjcc<d678eh/1",
"k+${1/hjc<[6>8eh/1{",
"l+${1/h_c<688eh/1{$",
"k+${1/hem688eh/1{$+",
"n+${1/he888ehopq~@r",
"l+${1/heeeeeh/1{$++",
"l+${1/hhhhhhh/1{$+!",
"s+${1/////////1{$+r",
"s+${11111111111{$+!",
"t+${{{{{{{{{{{{{$+r",
"u.@$$$$$$$$$$$$$$+!",
"vw.+++++++++++++++!",
"vxsssssssssllnkk!!!"};
