/* XPM */
static char * slit02_xpm[] = {
"69 69 171 2",
"  	c None",
". 	c #290129",
"+ 	c #2A012A",
"@ 	c #2C012C",
"# 	c #2F012F",
"$ 	c #310131",
"% 	c #300130",
"& 	c #320132",
"* 	c #340134",
"= 	c #350135",
"- 	c #2E012E",
"; 	c #330133",
"> 	c #360136",
", 	c #380138",
"' 	c #390139",
") 	c #3A013A",
"! 	c #3B013B",
"~ 	c #3C013C",
"{ 	c #3E013E",
"] 	c #410141",
"^ 	c #440144",
"/ 	c #460146",
"( 	c #490149",
"_ 	c #4D014D",
": 	c #530153",
"< 	c #5A015A",
"[ 	c #610261",
"} 	c #670267",
"| 	c #6B026B",
"1 	c #6D026D",
"2 	c #6F036F",
"3 	c #720372",
"4 	c #740374",
"5 	c #760376",
"6 	c #780478",
"7 	c #7A047A",
"8 	c #7C057C",
"9 	c #7D057D",
"0 	c #7E067E",
"a 	c #7F067F",
"b 	c #7F077F",
"c 	c #800780",
"d 	c #820782",
"e 	c #850785",
"f 	c #890789",
"g 	c #8C078C",
"h 	c #8F078F",
"i 	c #920792",
"j 	c #940794",
"k 	c #950795",
"l 	c #280128",
"m 	c #370137",
"n 	c #3D013D",
"o 	c #3F013F",
"p 	c #420142",
"q 	c #450145",
"r 	c #470147",
"s 	c #4A014A",
"t 	c #4E014E",
"u 	c #540154",
"v 	c #5B015B",
"w 	c #620262",
"x 	c #6D036D",
"y 	c #700370",
"z 	c #770477",
"A 	c #790479",
"B 	c #7D067D",
"C 	c #880788",
"D 	c #8B078B",
"E 	c #8E078E",
"F 	c #910791",
"G 	c #960796",
"H 	c #510151",
"I 	c #560156",
"J 	c #5C015C",
"K 	c #630263",
"L 	c #680268",
"M 	c #6C026C",
"N 	c #6E036E",
"O 	c #730373",
"P 	c #750475",
"Q 	c #7B057B",
"R 	c #810781",
"S 	c #870787",
"T 	c #8A078A",
"U 	c #8D078D",
"V 	c #900790",
"W 	c #930793",
"X 	c #2B012B",
"Y 	c #400140",
"Z 	c #430143",
"` 	c #500150",
" .	c #550155",
"..	c #590159",
"+.	c #5F025F",
"@.	c #640264",
"#.	c #690269",
"$.	c #6C036C",
"%.	c #760476",
"&.	c #7A057A",
"*.	c #840784",
"=.	c #840783",
"-.	c #840785",
";.	c #80077F",
">.	c #2D012D",
",.	c #7E077D",
"'.	c #7D077D",
").	c #7C067C",
"!.	c #7B067B",
"~.	c #7A067A",
"{.	c #790579",
"].	c #780578",
"^.	c #770578",
"/.	c #770577",
"(.	c #730473",
"_.	c #710371",
":.	c #720472",
"<.	c #270127",
"[.	c #6A026A",
"}.	c #230123",
"|.	c #240124",
"1.	c #260126",
"2.	c #200120",
"3.	c #210121",
"4.	c #660266",
"5.	c #630163",
"6.	c #600160",
"7.	c #5F015F",
"8.	c #5D015D",
"9.	c #580158",
"0.	c #520152",
"a.	c #4F014F",
"b.	c #4C014C",
"c.	c #480148",
"d.	c #250125",
"e.	c #220122",
"f.	c #1F011F",
"g.	c #1E011E",
"h.	c #1D011D",
"i.	c #1C011C",
"j.	c #1A011A",
"k.	c #1B011B",
"l.	c #190119",
"m.	c #170117",
"n.	c #180118",
"o.	c #150115",
"p.	c #140114",
"q.	c #160116",
"r.	c #200121",
"s.	c #130113",
"t.	c #1B011A",
"u.	c #100110",
"v.	c #110111",
"w.	c #0D010E",
"x.	c #0F010F",
"y.	c #150114",
"z.	c #0D010D",
"A.	c #0E010E",
"B.	c #140113",
"C.	c #180117",
"D.	c #1C011A",
"E.	c #1F011E",
"F.	c #220121",
"G.	c #170116",
"H.	c #1A0119",
"I.	c #220123",
"J.	c #0E010F",
"K.	c #190118",
"L.	c #150116",
"M.	c #120112",
"N.	c #170118",
"  . + @ # $ $ % # % & * = * & # - % ; > , ' ' ) ! ! ! ! ! ! ! ) ) ) ) ~ { ] ^ / ( _ : < [ } | 1 2 3 4 5 6 7 8 9 0 a b c d e f g h i j k   ",
"l . + @ # % % % % % & * > = ; % # $ * m , ' ) ! ! ! ~ ~ ~ ~ ~ ! ! ! ! n o p q r s t u v w } | x y 3 4 z A 7 8 B 0 a b c d e C D E F j k G ",
". . + @ - # % % % $ ; = > > * & & * > , ) ! ! ~ ~ ~ n n n n n { n n { o ] ^ / ( _ H I J K L M N y O P z A Q 8 B 0 b c R d e S T U V i W k ",
"+ + + X @ - # % $ ; = > , , m > > m ' ! ~ n n { { { { { o Y ] ] ] p p Z q r ( _ `  ...+.@.#.$.2 3 4 %.6 &.Q B 0 a c c R d *.e S T U V F W ",
"X X X X                                                                                                                           T U E V ",
"X X X +                                                                                                                           S T D g ",
"X X X X                                                                                                                           *.S C f ",
"X X @ @                                                                                                                           d =.*.-.",
"X X @ @                                                                                                                           ;.c c c ",
"+ X @ >.                                                                                                                          ,.'.'.'.",
"+ + X @                                                                                                                           ).!.~.~.",
". . + @                                                                                                                           !.{.].^.",
"l . + X                                                                                                                           {./.P P ",
". . + @                                                                                                                           /.P (.O ",
"+ + X @                                                                                                                           P (._._.",
"X X @ >.                                                                                                                          :._.2 2 ",
"+ X X @                                                                                                                           2 N $.$.",
"<.l . X                                                                                                                           x [.#.L ",
"}.|.1..                                                                                                                           #.} @.@.",
"2.3.}.<.                                                                                                                          4.5.6.6.",
"2.3.}.<.                                                                                                                          K 7.8.J ",
"}.|.1..                                                                                                                           7.J < ..",
"l l . X                                                                                                                           v ..I I ",
"X X @ @                                                                                                                           9. .: 0.",
"+ X @ @                                                                                                                           u H a.t ",
". . + @                                                                                                                           ` b.s ( ",
"<.<.l +                                                                                                                           b.c.q ^ ",
"d.d.<..                                                                                                                           c.^ p ] ",
"e.}.d.l                                                                                                                           q p o o ",
"2.3.}.<.                                                                                                                          p o { n ",
"f.2.e.1.                                                                                                                          o n ~ ! ",
"f.2.e.1.                                                                                                                          ~ ) ' , ",
"3.e.|.l                                                                                                                           ' m = = ",
"}.|.1..                                                                                                                           > * & $ ",
"d.1.<.+                                                                                                                           * $ % # ",
"d.1.l +                                                                                                                           ; $ # # ",
"d.1.<.+                                                                                                                           ; & % % ",
"|.d.<..                                                                                                                           ; & & $ ",
"|.|.1..                                                                                                                           ; & & & ",
"e.}.d.l                                                                                                                           & & & & ",
"2.3.}.<.                                                                                                                          $ $ $ $ ",
"f.2.e.1.                                                                                                                          % % % % ",
"g.f.e.1.                                                                                                                          # # # # ",
"g.f.e.1.                                                                                                                          - >.>.>.",
"f.2.e.1.                                                                                                                          >.@ X X ",
"g.f.e.1.                                                                                                                          >.@ X X ",
"h.g.3.1.                                                                                                                          - >.>.>.",
"i.h.2.d.                                                                                                                          # # # % ",
"j.i.f.|.                                                                                                                          % $ & & ",
"j.k.g.|.                                                                                                                          % $ & & ",
"j.k.f.|.                                                                                                                          # % # % ",
"j.k.f.|.                                                                                                                          - >.>.>.",
"j.k.f.|.                                                                                                                          >.@ X X ",
"l.j.g.}.                                                                                                                          >.@ @ @ ",
"m.n.i.}.                                                                                                                          # # # # ",
"o.m.k.e.                                                                                                                          % $ $ $ ",
"p.q.j.3.                                                                                                                          $ & & & ",
"o.m.k.3.                                                                                                                          % % % $ ",
"m.n.k.r.                                                                                                                          - - - - ",
"n.l.k.2.                                                                                                                          >.@ X X ",
"q.m.j.g.                                                                                                                          @ X + + ",
"s.p.m.t.                                                                                                                          >.X + + ",
"u.v.s.m.                                                                                                                          >.@ X + ",
"w.x.v.y.                                                                                                                          >.@ X X ",
"z.A.u.B.C.D.E.F.|.1.l . + X X X X X X X X X X X X X X X X X X X X X X X + + X X X X @ X X @ @ @ >.>.>.>.>.>.>.>.>.>.- - - # # # - >.@ X X ",
"z.A.u.s.G.H.i.g.2.3.I.}.|.|.|.|.|.|.|.|.|.|.|.|.|.|.|.|.|.|.|.|.|.|.|.|.|.|.|.d.1.1.1.1.1.1.<.l . . + + + + + . + + X @ >.>.>.>.>.@ X X X ",
"A.J.u.s.q.K.t.i.h.g.g.g.g.f.f.f.f.f.f.f.f.f.f.f.f.f.f.f.f.f.f.f.f.f.f.g.g.g.f.2.3.e.e.e.e.e.}.d.1.<.<.<.<.<.<.<.<.l + X @ @ @ @ @ X X X X ",
"A.x.u.s.L.n.l.j.k.i.i.k.k.k.k.k.k.k.k.k.k.k.k.k.k.k.k.k.k.k.k.k.k.k.k.k.k.k.i.h.g.f.2.f.f.f.3.e.|.d.d.1.1.1.d.d.1.<.. + X X X X X X X X X ",
"  x.u.M.o.N.l.j.j.k.k.j.j.j.j.j.j.j.j.j.j.j.j.j.j.j.j.j.j.j.j.j.j.j.j.j.l.j.j.k.h.g.g.g.g.g.2.3.}.|.d.d.d.d.d.d.d.<.l + X X X + X X X X   "};
