/* XPM */
static char * slit_bar_xpm[] = {
"19 19 31 1",
" 	c None",
".	c #2B012B",
"+	c #300130",
"@	c #360136",
"#	c #380138",
"$	c #3B013B",
"%	c #3C013C",
"&	c #440144",
"*	c #500150",
"=	c #670267",
"-	c #710371",
";	c #790479",
">	c #7E067E",
",	c #810781",
"'	c #850785",
")	c #400140",
"!	c #430143",
"~	c #490149",
"{	c #4C014C",
"]	c #5F015F",
"^	c #6C036C",
"/	c #760476",
"(	c #7C067C",
"_	c #800780",
":	c #830783",
"<	c #820782",
"[	c #80077F",
"}	c #7E077E",
"|	c #750475",
"1	c #6D036D",
"2	c #530153",
".++@@#$%%%&*=-;>,''",
".+@$)!!!~{*]^/(_:<<",
".+               [}",
".+               }|",
".+               |1",
".+               1]",
".+               ]2",
".+               2!",
".+               !$",
".+               $+",
".+               @+",
".+               ++",
".+               +.",
".+               +.",
".+               +.",
".+               +.",
".+               +.",
".+++++++++++++++++.",
"..................."};
