/* XPM */
static char * slit01_xpm[] = {
"69 69 154 2",
"  	c None",
". 	c #2B012B",
"+ 	c #2C012C",
"@ 	c #2D012D",
"# 	c #2F012F",
"$ 	c #300130",
"% 	c #320132",
"& 	c #340134",
"* 	c #350135",
"= 	c #360136",
"- 	c #370137",
"; 	c #380138",
"> 	c #390139",
", 	c #3A013A",
"' 	c #3B013B",
") 	c #3C013C",
"! 	c #3E013E",
"~ 	c #410141",
"{ 	c #440144",
"] 	c #460146",
"^ 	c #490149",
"/ 	c #4D014D",
"( 	c #530153",
"_ 	c #5A015A",
": 	c #610261",
"< 	c #670267",
"[ 	c #6B026B",
"} 	c #6D026D",
"| 	c #6F036F",
"1 	c #720372",
"2 	c #740374",
"3 	c #760376",
"4 	c #780478",
"5 	c #7A047A",
"6 	c #7C057C",
"7 	c #7D057D",
"8 	c #7E067E",
"9 	c #7F067F",
"0 	c #800780",
"a 	c #810781",
"b 	c #830783",
"c 	c #840784",
"d 	c #850785",
"e 	c #860786",
"f 	c #3D013D",
"g 	c #3F013F",
"h 	c #420142",
"i 	c #450145",
"j 	c #470147",
"k 	c #4A014A",
"l 	c #4E014E",
"m 	c #540154",
"n 	c #5B015B",
"o 	c #620262",
"p 	c #6D036D",
"q 	c #700370",
"r 	c #770477",
"s 	c #790479",
"t 	c #7D067D",
"u 	c #820782",
"v 	c #310131",
"w 	c #330133",
"x 	c #510151",
"y 	c #560156",
"z 	c #5C015C",
"A 	c #630263",
"B 	c #680268",
"C 	c #6C026C",
"D 	c #6E036E",
"E 	c #730373",
"F 	c #750475",
"G 	c #7B057B",
"H 	c #7F077F",
"I 	c #400140",
"J 	c #430143",
"K 	c #500150",
"L 	c #550155",
"M 	c #590159",
"N 	c #5F025F",
"O 	c #640264",
"P 	c #690269",
"Q 	c #6C036C",
"R 	c #760476",
"S 	c #7A057A",
"T 	c #850784",
"U 	c #480148",
"V 	c #4B014B",
"W 	c #5E015E",
"X 	c #6B036B",
"Y 	c #710371",
"Z 	c #790579",
"` 	c #7C067C",
" .	c #7E077E",
"..	c #2E012E",
"+.	c #4C014C",
"@.	c #4F014F",
"#.	c #620162",
"$.	c #660266",
"%.	c #690369",
"&.	c #720472",
"*.	c #6F046F",
"=.	c #740474",
"-.	c #770577",
";.	c #520152",
">.	c #570157",
",.	c #740574",
"'.	c #790679",
").	c #7B067B",
"!.	c #820781",
"~.	c #810780",
"{.	c #750575",
"].	c #7D077D",
"^.	c #80077F",
"/.	c #580158",
"(.	c #650265",
"_.	c #700470",
":.	c #830782",
"<.	c #7F077E",
"[.	c #7D077E",
"}.	c #5D015D",
"|.	c #5F015F",
"1.	c #840783",
"2.	c #7D067C",
"3.	c #600160",
"4.	c #840785",
"5.	c #7E077D",
"6.	c #780578",
"7.	c #610161",
"8.	c #630163",
"9.	c #640164",
"0.	c #650165",
"a.	c #660166",
"b.	c #670167",
"c.	c #680168",
"d.	c #710471",
"e.	c #7A067A",
"f.	c #730473",
"g.	c #6A026A",
"h.	c #6B016B",
"i.	c #760576",
"j.	c #6F026F",
"k.	c #6F016F",
"l.	c #6E016E",
"m.	c #6E026E",
"n.	c #720272",
"o.	c #710271",
"p.	c #700270",
"q.	c #7A067B",
"r.	c #750375",
"s.	c #820682",
"t.	c #810681",
"u.	c #800680",
"v.	c #6A036A",
"w.	c #2A012A",
"  . + @ # $ $ # # $ % & * = * * * * = = - ; > , ' ' ' ' ' ' ' , , , , ) ! ~ { ] ^ / ( _ : < [ } | 1 2 3 4 5 6 7 8 9 0 0 a b c d e e e d   ",
". . + @ # $ $ $ $ $ % & = = = = = = - - ; > , ' ' ' ) ) ) ) ) ' ' ' ' f g h i j k l m n o < [ p q 1 2 r s 5 6 t 8 9 0 a u b c d e d e d e ",
". . + @ # $ $ $ $ v w * = - - - - ; ; > , , ' ) ) ) f f f f f ! f f ! g ~ { ] ^ / x y z A B C D q E F r s G 6 t 8 H 0 a u b c d d d d d d ",
". . + @ # $ v v % w & = - ; > > , , ' ) ) f f ! ! ! ! ! g I ~ ~ ~ h h J i j ^ / K L M N O P Q | 1 2 R 4 S G t 8 9 0 a a u b b c c c c c T ",
". . + @ # $ v % & * = ; > , ' ) f ! ! g I I I I I I I I h J i ] ] j U ^ ^ V / x L M W o < X D Y E F r Z G ` t  .0 a a u b b b b b b b b c ",
". . + @ ..$ % w * - ; > ' ) ! g I ~ h J J J J J J J J J i j ^ k V V +./ l @.x L _ W #.$.%.Q | &.F r Z S ` t  .H 0 a u b b b u u u u u u u ",
". . + @ ..$ % & - ; , ' f g ~ J i ] j j U U j j j j j j ^ V +./ l l @.K x ( L M W #.$.P Q *.&.=.-.Z G ` t  .H 0 a u b c c b u a a a a a u ",
". . + @ ..$ % * ; , ) ! g h i j ^ V V +.+.+.+.+.+.+.+.+./ @.K x K K K ;.m >._ W o $.P Q *.&.,.-.'.).` 8 H 0 0 a u b c d c b !.~.~.0 ~.0 a ",
". . + @ ..$ w = > ' ! g h { U V / @.K K x x x x x K x x ;.( m m ( ;.;.m >.n W #.$.%.Q *.&.{.-.'.).]. .H 0 a u u b c d d d b !.^.^.H H H H ",
". . + @ ..$ w = , ) ! I J ] k l K ;.( m L L L L m m m m L y >.>.y L y /.n W #.(.P Q _.&.{.-.'.).]. .H 0 a u b b b c d d c :.~.^.<. . .].[.",
". . + @ ..$ w = , ) g ~ J ] V @.;.L >./.M M /./.>.>.>.>./.M _ n _ _ n }.|.#.(.P Q | &.F -.'.).]. .H a a u b c c c c c 1.:.!.~.^. .2.` ).).",
". . + @ ..$ w = , ) ! I J ] V @.( y M n z z z n _ M M M _ n }.W |.|.3.#.O $.B X | 1 F -.Z ).t  .H 0 a u b c 4.d d c b !.a ~.0 H 5.).Z 6.6.",
". . + @ ..$ w = > ) ! I h ] V @.( >.n W |.|.|.W }.z n n z W 3.7.8.9.0.a.B %.X D &.F r Z G t 8 H 0 a u b c c d d d 1.!.~.^.^.H  .` Z -.F F ",
". . + @ ..$ w = > ) ! I h ] V K m /.z |.7.#.#.#.#.7.3.3.3.#.8.0.a.b.c.P [ Q D d.=.r Z G t 8 H 0 a u b c c d d d c b a ^.<. . .].e.-.F f.E ",
". . + @ ..$ w = > ) ! I h ] V K m /.n W 7.9.$.< < $.(.(.(.a.b.c.c.P g.[ p | d.=.-.Z ).t 8 H 0 a u b c 4.d d c b :.!.~.^.<.].` e.6.F f.Y Y ",
". . + @ ..$ w = > ) ! I h ] V @.m >._ W 7.(.P X Q Q X g.g.h.h.h.h.[ X p | Y =.i.'.).]. .H 0 a u u b c d d d b !.~.0 0 H  .` S -.F &.Y | | ",
". . + @ ..$ w = > ) ! I h ] V @.m >._ }.7.$.[ D | | | | j.j.k.l.m.} p | d.=.R Z ).]. .H 0 a u u b b c d d c :.~.^.<.H  .].e.-.F 1 | D Q Q ",
". . + @ ..$ w = > ) ! I h ] V @.m >._ }.7.$.X | Y &.&.1 1 n.o.o.p.q q &.=.R 6.e.`  .0 a a u b b c c c c c b !.0 <. .].` q.6.F f.q p g.P B ",
". . + @ ..$ w = > ) ! I h ] V @.m >._ }.7.$.[ D Y f.=.F r.2 2 2 E E f.=.R 6.S `  .H 0 a u b c c d d c b u !.~.0 <.].` S 6.R f.Y p P < O O ",
". . + @ ..$ w = > ) ! I h ] V @.m >._ }.7.(.g.D Y f.F r r R R R R F R r Z S ` t H 0 a u b c c d d d 1.!.~.^.^.H  .` S -.F f.d.D X $.8.3.3.",
". . + @ ..$ w = > ) ! I h ] V @.m >._ }.7.(.g.D Y =.R 4 4 4 4 4 4 4 4 Z S ` t H 0 a u b c c d d d c :.~.^.<.<. .].q.6.F 1 q D X B A |.}.z ",
". . + @ ..$ w = > ) ! I h ] V @.m >._ }.7.(.g.D Y =.R 4 s S S S S S S G ` t  .0 a u b c d d d c 1.:.!.~.H  .].` e.6.R f.q D [ B O |.z _ M ",
". . + @ ..$ w = > ) ! I h ] V @.m >._ }.7.(.g.D Y =.R 4 Z G G ` ` G 6 ` t  .H a u b c d d d T b !.~.~.0 H  .` S -.F f.d.D [ < A 3.n M y y ",
". . + @ ..$ w = > ) ! I h ] V @.m >._ }.7.(.g.D Y f.F 4 S G t t t t t t  .H 0 a b c c d d d c u ~.^.H H  .].e.-.F f.Y D X B 8.3.z /.L ( ;.",
". . + @ ..$ w = > ) ! I h ] V @.m >._ }.7.(.g.p Y f.F 4 S 6 t 8 8 8 8 H H 0 a u c c d d c c :.a ^.<. .5.t ).6.F f.q D X B O 3.z /.m x @.l ",
". . + @ ..$ w = > ) ! I h ] V @.m >._ }.7.(.P p q f.F 4 S G t 8 8 H H 0 0 a u b c d d c s.t.a 0 ^.<.].` e.6.R f.Y D [ < O 3.}.M L K +.k ^ ",
". . + @ ..$ w = > ) ! I h ] V @.m >._ }.7.(.P p q f.F 4 S G t 8  .H 0 0 a u b c d d d b u.9 9 H H  .` S -.F f.d.D X < 8.3.}.M y x +.U i { ",
". . + @ ..$ w = > ) ! I h ] V @.m >._ }.7.(.P p q f.F 4 Z G t 8 H H 0 a u b b c d d c s.9 8 8  . .].e.6.F f.Y D X B O 3.z M y ;.l U { h ~ ",
". . + @ ..$ w = > ) ! I h ] V @.m >._ }.7.(.P p q f.F r Z G ` 8  .H 0 a b c c c c b u a H 8 t t ` ).6.R f.q D X B O 3.z M L x l ^ i h g g ",
". . + @ ..$ w = > ) ! I h ] V @.m >._ }.7.(.P p q &.F r Z G ` 8  .H 0 a b d d c u a 0 0 H  .t ).S 6.R f.Y D [ < O 3.}.M L x / ^ i h g ! f ",
". . + @ ..$ w = > ) ! I h ] V @.m >._ }.7.(.P p q &.=.r Z G ` 8  .H 0 a b d d b a H  . .H  .` S -.F f.Y | X < 8.3.z M y ;./ ^ { ~ g f ) ' ",
". . + @ ..$ w = > ) ! I h ] V @.m >._ }.7.(.P p q &.=.R Z G t 8 H 0 a u b c c u 0  .].]. .].).6.F 1 q D X B O 3.z M L ;.l ^ i ~ ! ) , > ; ",
". . + @ ..$ w = > ) ! I h ] V @.m >._ }.7.(.P p | 1 =.R Z ).t H a u b b b u u a 0  .].].` e.6.R f.q p g.< O 3.z M L x / ^ ] h g ) > - * * ",
". . + @ ..$ w = > ) ! I h ] V @.m >._ }.7.(.P p | 1 =.R Z ). .0 u c c c u 0 H H H H ].` S -.F f.d.D g.< 8.3.z M L x +.U i h g f , = & % v ",
". . + @ ..$ w = > ) ! I h ] V @.m >._ }.7.(.P p | Y f.R 6.). .0 b c d c a H  . . . .].e.-.F f.Y D X B O 3.z M y ;.l ^ i ~ g f ' ; & v $ # ",
". . + @ ..$ w = > ) ! I h ] V @.m >._ }.7.(.P p | Y f.R Z `  .0 u c c b a H ].].].` e.6.F 1 q D Q P (.7.}._ y ;.@.V ] J I ! ) , - w v # ..",
". . + @ ..$ w = > ) ! I h ] V @.m >._ }.7.(.P p | Y f.R Z `  .0 a u u a 0 H  .].).Z -.F &.q p [ P $.8.|.z /.( @.V U i h g f ' ; = w v # # ",
". . + @ ..$ w = > ) ! I h ] V @.m >._ }.7.(.P p | Y f.R Z `  .H 0 0 H 0 0 H  .` Z -.=.&.q D X P a.8.7.W n y x +.U i J ~ g ) , - * % v $ # ",
". . + @ ..$ w = > ) ! I h ] V @.m >._ }.7.(.P p | 1 f.R 6.).]. . .].].]. . .].).6.F f.Y | Q g.< 9.7.|.z M m @.k ] J h I ! ' ; = & % v $ $ ",
". . + @ ..$ w = > ) ! I h ] V @.m >._ }.7.(.P p q &.=.R 6.S ).).).).).).).` ).Z -.F f.Y | Q P $.8.3.}._ >.( / U { h I g f > = & % v v $ $ ",
". . + @ ..$ w = > ) ! I h ] V @.m >._ }.7.(.P p q &.=.R r 6.6.Z 6.6.6.6.6.Z 6.6.r R =.&.| Q P (.#.W n M L x +.j J ~ g f ' - & % v $ v $ $ ",
". . + @ ..$ w = > ) ! I h ] V @.m >._ }.7.(.P p q &.=.R R R R R R R R R R R R R R R =.&.q p P (.7.W _ >.m K V ] h I ! ) , = w $ $ $ $ $ $ ",
". . + @ ..$ w = > ) ! I h ] V @.m >._ }.7.(.P p q &.f.=.=.=.f.f.f.f.f.f.f.f.f.=.=.=.f.&.q p P (.7.}._ >.( @.k ] h I ! ) > = % $ # # # # # ",
". . + @ ..$ w = > ) ! I h ] V @.m >._ }.7.$.v.D q d.&.&.&.&.1 Y Y Y Y Y Y Y 1 &.&.&.&.d.q D v.(.7.}._ >.( @.k ] h I ! ) > = % $ ..........",
". . + @ ..$ w = > ) ! I h ] V @.m >._ }.7.$.v.D | q q q q q | | | | | | | | | q q q q q | D v.$.7.}._ >.( @.V ] h I ! ) > = w $ ..@ + + + ",
". . + @ ..$ w = > ) ! I h ] V @.m >._ }.7.(.g.p D D p p p p p p p p p p p p p p p p p D D p g.(.7.}._ >.m @.V ] h I ! ) > = w $ ..+ + . . ",
". . + @ ..$ w = > ) ! I h ] V @.m >.n W 7.O < g.v.v.P P P P P P P P P P P P P P P P P v.v.g.< O 7.W n >.m @.V ] h I ! ) > = w $ ..+ . w.w.",
". . + @ ..$ w = > ) ! I h ] V @.m /.n |.7.8.O (.$.$.(.(.(.(.(.(.(.(.(.(.(.(.(.(.(.(.(.$.$.(.O 8.7.|.n /.m @.V ] h I ! ) > = w $ ..+ . . w.",
". . + @ ..$ w = > ) ! I h ] V @.m /.n |.3.7.7.7.7.7.7.7.7.7.7.7.7.7.7.7.7.7.7.7.7.7.7.7.7.7.7.7.3.|.n /.m @.V ] h I ! ) > = w $ ..@ + . . ",
". . + @ ..$ w = > ) ! I h ] V K m >.n }.|.|.W }.}.}.}.}.}.}.}.}.}.}.}.}.}.}.}.}.}.}.}.}.}.}.W |.|.}.n >.m K V ] h I ! ) > = w $ ..@ + . . ",
". . + @ ..$ w = > ) ! I h ] V K m >.M n n n n _ _ _ _ _ _ _ _ _ _ _ _ _ _ _ _ _ _ _ _ _ _ _ n n n n M >.m K V ] h I ! ) > = w $ ..@ + . . ",
". . + @ ..$ w = > ) ! I h ] +.x L y >.>././.>.>.>.>.>.>.>.>.>.>.>.>.>.>.>.>.>.>.>.>.>.>.>.>.>././.>.>.y L x +.] h I ! ) > = w $ ..@ + . . ",
". . + @ ..$ w = > ) ! I h ] V K m L m m m m m m m m m m m m m m m m m m m m m m m m m m m m m m m m m L m K V ] h I ! ) > = w $ ..@ + . . ",
". . + @ ..$ w = > ) ! I J ] k l K x K K @.@.@.@.@.@.@.@.@.@.@.@.@.@.@.@.@.@.@.@.@.@.@.@.@.@.@.@.@.K K x K l k ] J I ! ) > = w $ ..@ + . . ",
". . + @ ..$ w = > ) g ~ J i U k +.+.V V V V V V V V V V V V V V V V V V V V V V V V V V V V V V V V V +.+.k U i J ~ g ) > = w $ ..@ + . . ",
". . + @ ..$ w = > ) g ~ J i i ] ] ] ] ] ] ] ] ] ] ] ] ] ] ] ] ] ] ] ] ] ] ] ] ] ] ] ] ] ] ] ] ] ] ] ] ] ] ] i i J ~ g ) > = w $ ..@ + . . ",
". . + @ ..$ w = > ) g ~ J J J J h h h h h h h h h h h h h h h h h h h h h h h h h h h h h h h h h h h h h J J J J ~ g ) > = w $ ..@ + . . ",
". . + @ ..$ w - , ) ! I ~ ~ ~ I I I I I I I I I I I I I I I I I I I I I I I I I I I I I I I I I I I I I I I ~ ~ ~ I ! ) , - w $ ..@ + . . ",
". . + + ..$ w - , f ! ! g g g ! ! ! ! ! ! ! ! ! ! ! ! ! ! ! ! ! ! ! ! ! ! ! ! ! ! ! ! ! ! ! ! ! ! ! ! ! ! ! g g g ! ! f , - w $ ..+ + . . ",
". . + @ ..$ w - , ) f ) ) ) ) ) ) ) ) ) ) ) ) ) ) ) ) ) ) ) ) ) ) ) ) ) ) ) ) ) ) ) ) ) ) ) ) ) ) ) ) ) ) ) ) ) ) ) f ) , - w $ ..@ + . . ",
". . + @ ..$ w = > , , , > > > > > > > > > > > > > > > > > > > > > > > > > > > > > > > > > > > > > > > > > > > > > , , , > = w $ ..@ + . . ",
". . + @ # $ % & = - - - = = = = = = = = = = = = = = = = = = = = = = = = = = = = = = = = = = = = = = = = = = = = = - - - = & % $ # @ + . . ",
". . + @ # $ v % w w w w w w w w w w w w w w w w w w w w w w w w w w w w w w w w w w w w w w w w w w w w w w w w w w w w w % v $ # @ + . . ",
". . + @ # $ $ $ $ $ $ $ $ $ $ $ $ $ $ $ $ $ $ $ $ $ $ $ $ $ $ $ $ $ $ $ $ $ $ $ $ $ $ $ $ $ $ $ $ $ $ $ $ $ $ $ $ $ $ $ $ $ $ $ # @ + . . ",
". . + @ ..# # # ..........................................................................................................# # # ..@ + . . ",
". . . + @ @ @ @ @ @ + @ @ @ @ @ @ @ @ @ @ @ @ @ @ @ @ @ @ @ @ @ @ @ @ @ @ @ @ @ @ @ @ @ @ @ @ @ @ @ @ @ @ @ @ @ @ @ + @ @ @ @ @ @ + . . . ",
". . . . + + + + + + + + + + + + + + + + + + + + + + + + + + + + + + + + + + + + + + + + + + + + + + + + + + + + + + + + + + + + + . . . . ",
". . . . . . . . . . . . . . . . . . . . . . . . . . . . . . . . . . . . . . . . . . . . . . . . . . . . . . . . . . . . . . . . . . . . . ",
"  . . . . w.w.w.w.w.w.w.w.w.w.w.w.w.w.w.w.w.w.w.w.w.w.w.w.w.w.w.w.w.w.w.w.w.w.w.w.w.w.w.w.w.w.w.w.w.w.w.w.w.w.w.w.w.w.w.w.w.w.w.. . . .   "};
