/* XPM */
static char * spider_xpm[] = {
"19 19 78 1",
" 	c None",
".	c #910091",
"+	c #660066",
"@	c #4D004D",
"#	c #4F004F",
"$	c #4E004E",
"%	c #A101A1",
"&	c #A301A3",
"*	c #8D008D",
"=	c #A90068",
"-	c #A0006B",
";	c #A6009A",
">	c #940069",
",	c #970097",
"'	c #9C019C",
")	c #9B019B",
"!	c #950095",
"~	c #A3008C",
"{	c #9D0071",
"]	c #7A0061",
"^	c #950195",
"/	c #980083",
"(	c #A60065",
"_	c #AF006D",
":	c #780062",
"<	c #9E0087",
"[	c #900090",
"}	c #8F018F",
"|	c #8B008B",
"1	c #A20063",
"2	c #9C005F",
"3	c #770061",
"4	c #9C005E",
"5	c #870187",
"6	c #9E005E",
"7	c #98005F",
"8	c #9C005A",
"9	c #760060",
"0	c #9D005A",
"a	c #80017F",
"b	c #9A0059",
"c	c #93005C",
"d	c #AB0053",
"e	c #990056",
"f	c #7A017A",
"g	c #780178",
"h	c #950055",
"i	c #84006D",
"j	c #8E0063",
"k	c #A30051",
"l	c #7A0079",
"m	c #94006A",
"n	c #A10057",
"o	c #7F0075",
"p	c #890083",
"q	c #93005E",
"r	c #830083",
"s	c #970065",
"t	c #9F005D",
"u	c #91008B",
"v	c #9A0064",
"w	c #8E0083",
"x	c #900063",
"y	c #940194",
"z	c #960196",
"A	c #A6006A",
"B	c #940089",
"C	c #99006A",
"D	c #9D019D",
"E	c #9E019E",
"F	c #A00093",
"G	c #A8006C",
"H	c #9A008E",
"I	c #9B006C",
"J	c #A401A4",
"K	c #A501A5",
"L	c #9F009F",
"M	c #92006C",
"...................",
"+++++++++++++++++++",
"@@@@@@@@###$$@@@@@@",
"%&&&*=&-;&;>&=,&&&&",
"')))!=)~{]{~)=!))))",
"^^^^^/(_:::_(<[^^^^",
"}}}}}}|12341|}}}}}}",
"5555566789076655555",
"aaaabaacdedcaabaaaa",
"fggggghijkjihgggggg",
"aaaaablamnmaobaaaaa",
"5555pqr5sts5rqp5555",
"}}}}uvw}}}}}wxu}}}}",
"yzzzzABzzzzzBCzzzzz",
"DEEEEFGHEEEHIFEEEEE",
"JKKKKKLMKKKMLKKKKKK",
"@@@@@@@@@@@@@@@@@@@",
"+++++++++++++++++++",
"..................."};
