/* XPM */
static char * SQminimazinghelperdrago_xpm[] = {
"19 19 156 2",
"  	c None",
". 	c #910091",
"+ 	c #650065",
"@ 	c #660058",
"# 	c #660066",
"$ 	c #570057",
"% 	c #BA005F",
"& 	c #7F005B",
"* 	c #60005C",
"= 	c #5C005C",
"- 	c #520052",
"; 	c #4D004D",
"> 	c #820167",
", 	c #DD0039",
"' 	c #D40063",
") 	c #A3017E",
"! 	c #970178",
"~ 	c #8C0186",
"{ 	c #930193",
"] 	c #A501A5",
"^ 	c #A401A4",
"/ 	c #780054",
"( 	c #C0003F",
"_ 	c #E00051",
": 	c #AB0036",
"< 	c #9F0183",
"[ 	c #9A0199",
"} 	c #9D019D",
"| 	c #9E019E",
"1 	c #9B009B",
"2 	c #7A017A",
"3 	c #7F0056",
"4 	c #CF0034",
"5 	c #D40050",
"6 	c #AB016A",
"7 	c #7F0076",
"8 	c #8D008D",
"9 	c #930093",
"0 	c #960196",
"a 	c #8C008C",
"b 	c #8F008E",
"c 	c #950195",
"d 	c #940194",
"e 	c #8E008E",
"f 	c #790075",
"g 	c #7C0053",
"h 	c #CE0063",
"i 	c #9D017A",
"j 	c #780074",
"k 	c #860086",
"l 	c #8F018F",
"m 	c #880088",
"n 	c #840080",
"o 	c #94017D",
"p 	c #8D0077",
"q 	c #850081",
"r 	c #870187",
"s 	c #7F007F",
"t 	c #73006E",
"u 	c #BF0043",
"v 	c #990176",
"w 	c #73006F",
"x 	c #7F007E",
"y 	c #7A0077",
"z 	c #92016B",
"A 	c #B3003A",
"B 	c #B80043",
"C 	c #95016E",
"D 	c #750072",
"E 	c #80017F",
"F 	c #810180",
"G 	c #7A0079",
"H 	c #71006C",
"I 	c #760058",
"J 	c #BF0047",
"K 	c #CE0061",
"L 	c #980170",
"M 	c #760065",
"N 	c #920163",
"O 	c #AD003A",
"P 	c #D5002D",
"Q 	c #CF0055",
"R 	c #B00050",
"S 	c #840170",
"T 	c #70006F",
"U 	c #780178",
"V 	c #7B017A",
"W 	c #770076",
"X 	c #780059",
"Y 	c #C70043",
"Z 	c #D60055",
"` 	c #BD0038",
" .	c #C90026",
"..	c #C50032",
"+.	c #880069",
"@.	c #C6006D",
"#.	c #8E016E",
"$.	c #730173",
"%.	c #730073",
"&.	c #7C007B",
"*.	c #750070",
"=.	c #7A0059",
"-.	c #C70035",
";.	c #D9001A",
">.	c #CA002F",
",.	c #800062",
"'.	c #7F0078",
").	c #B60061",
"!.	c #C0006C",
"~.	c #800163",
"{.	c #750074",
"].	c #7A0074",
"^.	c #79005A",
"/.	c #9A0044",
"(.	c #82017B",
"_.	c #8A0183",
":.	c #8C0074",
"<.	c #6D006D",
"[.	c #800080",
"}.	c #80007C",
"|.	c #7F0070",
"1.	c #820181",
"2.	c #8F018E",
"3.	c #910078",
"4.	c #950174",
"5.	c #7D007D",
"6.	c #8B008A",
"7.	c #940093",
"8.	c #970194",
"9.	c #98007D",
"0.	c #C80070",
"a.	c #9F017C",
"b.	c #750073",
"c.	c #940094",
"d.	c #9B019B",
"e.	c #980098",
"f.	c #9D0199",
"g.	c #990084",
"h.	c #BF0082",
"i.	c #780076",
"j.	c #980198",
"k.	c #9C019C",
"l.	c #970193",
"m.	c #93007C",
"n.	c #B30079",
"o.	c #94017A",
"p.	c #7E007B",
"q.	c #920191",
"r.	c #A301A3",
"s.	c #A101A1",
"t.	c #610061",
"u.	c #6B005C",
"v.	c #8D004C",
"w.	c #720056",
"x.	c #660063",
"y.	c #5E005E",
". . . . . . . . . . . . . . . . . . . ",
"+ @ # # # # # # # # # # # # # # # # # ",
"$ % & * = - ; ; ; ; ; ; ; ; ; ; ; ; ; ",
"> , ' ) ! ~ { ] ] ] ] ] ] ] ] ] ] ] ^ ",
"/ ( _ : ( < [ } | | | 1 } } } } } } } ",
"2 3 4 5 6 7 8 9 0 0 . a b c c c c c d ",
"e f g 4 h i j k l m n o p q l l l l l ",
"r s t / u h v w x y z A B C D r r r r ",
"E F G H I J K L M N O P Q R S T E E E ",
"U V V W H X Y Z `  ...+.R @.#.$.%.2 2 ",
"E E E E &.*.=.-.;.>.,.'.+.).!.~.{.E E ",
"r r r r r s ].^./.,.(._.:.R -.<.[.r r ",
"l l l l l l k }.|.1.2.1.3.-.4.5.l l l ",
"c c c c c c c 2.6.7.8.9.0.a.b.c.c c c ",
"d.d.d.d.d.d.d.d.e.f.g.h.< i.j.} } } k.",
"] ] ] ] ] ] ] ] l.m.n.o.p.q.j.r.r.r.s.",
"; ; ; ; ; ; ; t.u.v.w.x.y.; ; ; ; ; ; ",
"# # # # # # # # @ u.# # # # # # # # # ",
". . . . . . . . . . . . . . . . . . . "};
