/* XPM */
static char * stick_xpm[] = {
"12 12 83 1",
" 	c #002CB0",
".	c #0032D3",
"+	c #0032CE",
"@	c #0032CA",
"#	c #0032C8",
"$	c #0032C7",
"%	c #0032C6",
"&	c #0058D2",
"*	c #0058D0",
"=	c #0058CE",
"-	c #0058CC",
";	c #0058CB",
">	c #0085D5",
",	c #0085D4",
"'	c #0085D3",
")	c #00AFDD",
"!	c #00A8DA",
"~	c #029CCC",
"{	c #0491C0",
"]	c #029ACA",
"^	c #01A5D6",
"/	c #00AADC",
"(	c #00B0DE",
"_	c #00CFE6",
":	c #00CFE7",
"<	c #02B8D5",
"[	c #0793AB",
"}	c #0B758A",
"|	c #09859C",
"1	c #05A2BC",
"2	c #02BBD8",
"3	c #00D0E7",
"4	c #00DDEC",
"5	c #00DDED",
"6	c #00DEED",
"7	c #03B7CE",
"8	c #0A8699",
"9	c #0F5F6E",
"0	c #0F606D",
"a	c #03B8CF",
"b	c #00DEEE",
"c	c #00DFEE",
"d	c #00BFE6",
"e	c #00C2E8",
"f	c #00C4E9",
"g	c #02B3D9",
"h	c #059ABD",
"i	c #097E9D",
"j	c #0B6F8B",
"k	c #078CAC",
"l	c #02B2D6",
"m	c #00C6EA",
"n	c #00C7EA",
"o	c #0098DA",
"p	c #009CDC",
"q	c #009FDD",
"r	c #009CDA",
"s	c #0198D5",
"t	c #028FC9",
"u	c #0486BF",
"v	c #0291CB",
"w	c #009CD9",
"x	c #00A2DE",
"y	c #00A3DE",
"z	c #006ACC",
"A	c #006FCD",
"B	c #0073CD",
"C	c #0075CD",
"D	c #0076CD",
"E	c #0077CD",
"F	c #0041C1",
"G	c #0045BE",
"H	c #0048BC",
"I	c #004ABB",
"J	c #004BBA",
"K	c #004BB9",
"L	c #004CB9",
"M	c #0022BA",
"N	c #0024B3",
"O	c #0027AC",
"P	c #0028A8",
"Q	c #0029A6",
"R	c #0029A5",
"            ",
".+@#$%%%%%%%",
"&*=-----;-;-",
">,,'''''''''",
")))!~{]^/)()",
"_::<[}|12:3:",
"45678908abcb",
"defghijklmnm",
"opqrstuvwxyx",
"zABCDDDDEDED",
"FGHIJKKKLKLK",
"MNOPQRRRRRRR"};
