/* XPM */
static char * sticked_xpm[] = {
"12 12 92 1",
" 	c #002CB0",
".	c #0032D3",
"+	c #0032CE",
"@	c #0032CA",
"#	c #0032C8",
"$	c #0032C7",
"%	c #0032C6",
"&	c #0058D2",
"*	c #0151C7",
"=	c #0336A8",
"-	c #0147BE",
";	c #0056CB",
">	c #0059CC",
",	c #0147BD",
"'	c #052F93",
")	c #0C3574",
"!	c #0058CC",
"~	c #0085D5",
"{	c #0377BF",
"]	c #0C4174",
"^	c #053A94",
"/	c #0163BD",
"(	c #036CB7",
"_	c #0D406E",
":	c #0570AA",
"<	c #0085D3",
"[	c #00AFDD",
"}	c #01AAD8",
"|	c #058EB1",
"1	c #0D4970",
"2	c #083782",
"3	c #0F3961",
"4	c #00CFE6",
"5	c #00CCE5",
"6	c #01C1DA",
"7	c #08889F",
"8	c #0E3C64",
"9	c #0A4F86",
"0	c #08899F",
"a	c #01C2DA",
"b	c #00CCE6",
"c	c #00CFE7",
"d	c #00DDEC",
"e	c #01D1E5",
"f	c #05AABB",
"g	c #0D5173",
"h	c #084084",
"i	c #0F4465",
"j	c #05AABC",
"k	c #01D3E6",
"l	c #00DEEE",
"m	c #00BFE6",
"n	c #059BB9",
"o	c #0D4F73",
"p	c #054D9A",
"q	c #0193CE",
"r	c #03A3C9",
"s	c #0C5479",
"t	c #03AED0",
"u	c #00C6EA",
"v	c #0098DA",
"w	c #0C4F7A",
"x	c #054397",
"y	c #017CCA",
"z	c #009BDB",
"A	c #00A0DD",
"B	c #009CDB",
"C	c #017DCA",
"D	c #0354AD",
"E	c #0190D1",
"F	c #00A2DE",
"G	c #006ACC",
"H	c #035EB6",
"I	c #0162C2",
"J	c #0071CB",
"K	c #0076CD",
"L	c #0076CC",
"M	c #0073CB",
"N	c #0069C6",
"O	c #0041C1",
"P	c #0045BE",
"Q	c #0048BC",
"R	c #004ABB",
"S	c #004BBA",
"T	c #004BB9",
"U	c #004CB9",
"V	c #0022BA",
"W	c #0024B3",
"X	c #0027AC",
"Y	c #0028A8",
"Z	c #0029A6",
"`	c #0029A5",
"            ",
".+@#$%%%%%%%",
"&*=-;>>;,')!",
"~{]^/((/^_:<",
"[}|123321|}[",
"456789980abc",
"defghiihgjkl",
"mnopqrrqpstu",
"vwxyzAABCDEF",
"GHIJKLLLMNMK",
"OPQRSTTTUTUT",
"VWXYZ```````"};
