/* XPM */
static char * toolbarFbar_xpm[] = {
"19 19 24 1",
" 	c None",
".	c #910091",
"+	c #660066",
"@	c #4D004D",
"#	c #570057",
"$	c #A501A5",
"%	c #AD01AD",
"&	c #BF00BF",
"*	c #D400D4",
"=	c #D900D9",
"-	c #A401A4",
";	c #A801A8",
">	c #960196",
",	c #950195",
"'	c #940194",
")	c #8F018F",
"!	c #870187",
"~	c #80017F",
"{	c #780178",
"]	c #D100D1",
"^	c #D600D6",
"/	c #DB00DB",
"(	c #E800E8",
"_	c #F700F7",
"...................",
"+++++++++++++++++++",
"@@@@###########@@@@",
"$$%&&*=======*&&%$-",
";;;;;;;;;;;;;;;;;;;",
">>>>>>>>>>>,,,,,,,'",
")))))))))))))))))))",
"!!!!!!!!!!!!!!!!!!!",
"~~~~~~~~~~~~~~~~~~~",
"{{{{{{{{{{{{{{{{{{{",
"~~~~~~~~~~~~~~~~~~~",
"!!!!!!!!!!!!!!!!!!!",
")))))))))))))))))))",
",,,,,,,,,,,,,,,,,,,",
";;;;;;;;;;;;;;;;;;;",
"$&]^/(_______(/^]&$",
"@@@@###########@@@@",
"+++++++++++++++++++",
"..................."};
