/* XPM */
static char * underselect_xpm[] = {
"19 19 8 1",
" 	c None",
".	c #C302C3",
"+	c #C502C5",
"@	c #C402C4",
"#	c #C301C3",
"$	c #C202C2",
"%	c #C102C1",
"&	c #C303C3",
"                   ",
"                   ",
"                   ",
"                   ",
"                   ",
"        .++.       ",
"     @#$....$#@    ",
"    %$.@@@@@@.$%   ",
"   @&..........&@  ",
"   @&..........&@  ",
"    %$.@@@@@@.$%   ",
"     @#$....$#@    ",
"        .++.       ",
"                   ",
"                   ",
"                   ",
"                   ",
"                   ",
"                   "};
