/* XPM */
static char * watching_xpm[] = {
"13 13 10 1",
" 	c None",
".	c #510054",
"+	c #47004A",
"@	c #560059",
"#	c #310033",
"$	c #3E0040",
"%	c #200021",
"&	c #5D0061",
"*	c #270029",
"=	c #38003B",
"   .     .   ",
"   +@    +@  ",
"   #$@   #$@ ",
"  #%#   #%#  ",
"  &*#   &*$  ",
"   #+    $+  ",
"   +     +   ",
"      #      ",
"       =     ",
"             ",
"             ",
"     %*$     ",
"      $++@   "};
