/* XPM */
static char * where_xpm[] = {
"19 19 65 1",
" 	c None",
".	c #A400A4",
"+	c #9B009B",
"@	c #9E009E",
"#	c #990099",
"$	c #900090",
"%	c #910091",
"&	c #920092",
"*	c #760076",
"=	c #740074",
"-	c #640064",
";	c #630063",
">	c #650065",
",	c #660066",
"'	c #960000",
")	c #670067",
"!	c #680068",
"~	c #690069",
"{	c #780078",
"]	c #6C006C",
"^	c #5F005F",
"/	c #510051",
"(	c #500050",
"_	c #4F004F",
":	c #4E004E",
"<	c #4B004B",
"[	c #AD0000",
"}	c #FF0000",
"|	c #A501A5",
"1	c #A601A6",
"2	c #A301A3",
"3	c #A401A4",
"4	c #A101A1",
"5	c #A001A0",
"6	c #9F019F",
"7	c #9E019E",
"8	c #9D019D",
"9	c #A201A2",
"0	c #9C019C",
"a	c #B80000",
"b	c #950195",
"c	c #9B019B",
"d	c #940194",
"e	c #8F018F",
"f	c #9A019A",
"g	c #930193",
"h	c #870187",
"i	c #920192",
"j	c #80017F",
"k	c #990199",
"l	c #7D017D",
"m	c #780178",
"n	c #750175",
"o	c #A701A7",
"p	c #A801A8",
"q	c #A901A9",
"r	c #7E007E",
"s	c #570057",
"t	c #4C004C",
"u	c #4D004D",
"v	c #790079",
"w	c #710071",
"x	c #A800A8",
"y	c #A300A3",
"z	c #9D009D",
".+@##$$$%%%&&&##@@.",
"*=-;-->>,,'))!!~~={",
"],^/(_:<<[}[<<<<^^^",
"|1|1||23|}}}2456778",
"980088888a}a8888888",
"40bbbbbbb}}}bbbbbb8",
"4cdeeeeeea}aeeeeeb8",
"5fgehhhhh}}}hhhheb8",
"6fiehjjjj'}jjjjheb8",
"7kiehjjlmnammjjheb8",
"5fiehjjjjjjjjjjheb8",
"5fgehhhhhh8hhhhheb8",
"4cdeeeeee8}8eeeeeb8",
"40bbbbbb8}}}8bbbbb8",
"9777888888}88888888",
"4449922111111ooppqq",
"r)^s<tttuuu::_(s^)r",
"$vw!!!)),,,>>--;;w$",
"xyz#&&&&%%%$$$#zzy."};
