/* XPM */
static char * yesselect_xpm[] = {
"19 19 40 1",
" 	c None",
".	c #900088",
"+	c #8B0184",
"@	c #7D0476",
"#	c #8B0283",
"$	c #8F0088",
"%	c #900087",
"&	c #8E0086",
"*	c #8D0086",
"=	c #8A0183",
"-	c #75056E",
";	c #540D50",
">	c #800479",
",	c #8F0087",
"'	c #8D0185",
")	c #800478",
"!	c #7C0375",
"~	c #83017C",
"{	c #72056C",
"]	c #750570",
"^	c #83037B",
"/	c #4B0F47",
"(	c #3B1139",
"_	c #62075E",
":	c #650661",
"<	c #510D4E",
"[	c #75056F",
"}	c #72066C",
"|	c #3A1237",
"1	c #2E142D",
"2	c #440F41",
"3	c #73066D",
"4	c #8C0184",
"5	c #900089",
"6	c #8D0184",
"7	c #71066C",
"8	c #470F43",
"9	c #8B0183",
"0	c #81037A",
"a	c #8B0185",
"                   ",
"                   ",
"                   ",
"                   ",
"                   ",
"                   ",
"                   ",
"                   ",
"                   ",
"         ....      ",
"      .......+@#   ",
"     $..%&**=-;>$  ",
"     ,.')!~~{;]',  ",
"    $$.^/(_:<['.$$ ",
"     ,.'}|1234.5,  ",
"     $..67879%..$  ",
"      ...40a....   ",
"         ....      ",
"                   "};
