/* XPM */
static char * bgclose_xpm[] = {
"12 12 57 1",
" 	c None",
".	c #E605DE",
"+	c #CE03CA",
"@	c #BF01B0",
"#	c #A40299",
"$	c #920174",
"%	c #A40188",
"&	c #B601A3",
"*	c #BF02B2",
"=	c #B504AE",
"-	c #A903A1",
";	c #92027F",
">	c #87015A",
",	c #91016A",
"'	c #AB039D",
")	c #A805A1",
"!	c #A904A0",
"~	c #A3028B",
"{	c #7F0248",
"]	c #7E0251",
"^	c #920281",
"/	c #990194",
"(	c #A10299",
"_	c #A3018B",
":	c #81024F",
"<	c #90016F",
"[	c #8C016A",
"}	c #A5019E",
"|	c #A4029D",
"1	c #990189",
"2	c #7E0246",
"3	c #770240",
"4	c #810150",
"5	c #AF05A7",
"6	c #AB04A3",
"7	c #970287",
"8	c #81024B",
"9	c #750238",
"0	c #89025B",
"a	c #B804B0",
"b	c #B603AA",
"c	c #AC0297",
"d	c #91016B",
"e	c #7F0249",
"f	c #9B0273",
"g	c #B901AA",
"h	c #B002A3",
"i	c #9B0187",
"j	c #8C025F",
"k	c #970171",
"l	c #B901A8",
"m	c #A8029D",
"n	c #9B027D",
"o	c #A80296",
"p	c #C102B7",
"q	c #CF03C9",
"r	c #EB05E3",
"............",
"++++++++++++",
"@@@#$%&*@@@@",
"===-;>,'====",
")))!~{]^))))",
"///(_:<[////",
"}}}|1234}}}}",
"555678905555",
"aaabcdefaaaa",
"ggghijklgggg",
"+++mnopq++++",
"rrrrrrrrrrrr"};
