/* XPM */
static char * bgwttl01_xpm[] = {
"12 12 8 1",
" 	c None",
".	c #DB63DB",
"+	c #DE75DD",
"@	c #D16ED0",
"#	c #C266C1",
"$	c #B55FB4",
"%	c #A657A5",
"&	c #AB5AAA",
"............",
"++++++++++++",
"@@@@@@@@@@@@",
"############",
"$$$$$$$$$$$$",
"%%%%%%%%%%%%",
"&&&&&&&&&&&&",
"$$$$$$$$$$$$",
"############",
"@@@@@@@@@@@@",
"++++++++++++",
"............"};
