/* XPM */
static char * bgwttlbut_xpm[] = {
"12 12 35 1",
" 	c None",
".	c #E605DE",
"+	c #CE03CA",
"@	c #BF01B0",
"#	c #B504AE",
"$	c #A805A1",
"%	c #990194",
"&	c #9C0296",
"*	c #94028F",
"=	c #9B0296",
"-	c #9E0298",
";	c #A5019E",
">	c #9B0295",
",	c #7B0276",
"'	c #90018A",
")	c #A1029B",
"!	c #AF05A7",
"~	c #AC04A4",
"{	c #970491",
"]	c #72036D",
"^	c #92048C",
"/	c #B804B0",
"(	c #B704AE",
"_	c #A5049D",
":	c #650261",
"<	c #6A0265",
"[	c #B901AA",
"}	c #B802AC",
"|	c #9F0295",
"1	c #7A0274",
"2	c #C103BB",
"3	c #93028E",
"4	c #B503B0",
"5	c #CC03C6",
"6	c #EB05E3",
"............",
"++++++++++++",
"@@@@@@@@@@@@",
"############",
"$$$$$$$$$$$$",
"%%&*=--=*&%%",
";;>,'))',>;;",
"!!~{]^^]{~!!",
"//(_:<<:_(//",
"[[}|1||1|}[[",
"++23455432++",
"666666666666"};
