/* XPM */
static char * BubbleHover_xpm[] = {
"21 17 116 2",
"  	c None",
". 	c #833788",
"+ 	c #A24DA6",
"@ 	c #C261C5",
"# 	c #C361C6",
"$ 	c #C360C6",
"% 	c #C260C5",
"& 	c #C160C4",
"* 	c #DA69DC",
"= 	c #D868DA",
"- 	c #DA68DC",
"; 	c #DB68DD",
"> 	c #DB67DD",
", 	c #DA67DC",
"' 	c #D966DB",
") 	c #D866DA",
"! 	c #D766D9",
"~ 	c #E361E4",
"{ 	c #DF60E0",
"] 	c #DE5FDF",
"^ 	c #DF5FE0",
"/ 	c #E25EE3",
"( 	c #E55EE6",
"_ 	c #E55DE6",
": 	c #E45CE4",
"< 	c #E05BE1",
"[ 	c #DD5ADE",
"} 	c #DC5ADD",
"| 	c #DC4FDE",
"1 	c #D64DD7",
"2 	c #D34CD4",
"3 	c #D54BD6",
"4 	c #DA4BDB",
"5 	c #DF4ADF",
"6 	c #E048E0",
"7 	c #DC46DD",
"8 	c #D645D7",
"9 	c #D044D1",
"0 	c #CE44CF",
"a 	c #CC3ECD",
"b 	c #C33CC4",
"c 	c #BD39BF",
"d 	c #BF37C0",
"e 	c #C536C7",
"f 	c #CB35CC",
"g 	c #CD33CE",
"h 	c #C931CA",
"i 	c #C130C3",
"j 	c #B92FBB",
"k 	c #B62FB8",
"l 	c #BE33BF",
"m 	c #B230B4",
"n 	c #AB2DAD",
"o 	c #AA2BAC",
"p 	c #AF29B0",
"q 	c #B427B6",
"r 	c #B725B8",
"s 	c #B523B6",
"t 	c #AE23B0",
"u 	c #A823A9",
"v 	c #A523A7",
"w 	c #BB31BC",
"x 	c #B12EB3",
"y 	c #A82BAA",
"z 	c #A428A6",
"A 	c #A325A5",
"B 	c #A921AB",
"C 	c #AB21AD",
"D 	c #AA21AC",
"E 	c #A722AA",
"F 	c #A623A8",
"G 	c #C736C8",
"H 	c #C034C1",
"I 	c #B831B9",
"J 	c #B02EB1",
"K 	c #A929AB",
"L 	c #AE28AF",
"M 	c #B428B5",
"N 	c #B829BA",
"O 	c #BA2BBB",
"P 	c #BA2CBB",
"Q 	c #DA42DA",
"R 	c #D541D6",
"S 	c #CE3FCF",
"T 	c #C63DC7",
"U 	c #BF3BC0",
"V 	c #BC39BE",
"W 	c #C038C2",
"X 	c #C838C9",
"Y 	c #CF3AD0",
"Z 	c #D23BD3",
"` 	c #D33CD4",
" .	c #E752E8",
"..	c #E551E5",
"+.	c #E151E1",
"@.	c #DB50DB",
"#.	c #D54ED6",
"$.	c #D24DD3",
"%.	c #D54DD6",
"&.	c #DB4DDC",
"*.	c #E14DE1",
"=.	c #E44EE4",
"-.	c #E54FE5",
";.	c #E962EA",
">.	c #E862E8",
",.	c #E662E6",
"'.	c #E361E3",
").	c #DF61E0",
"!.	c #DE61DF",
"~.	c #E360E3",
"{.	c #E660E6",
"].	c #E861E8",
"^.	c #E861E9",
"/.	c #DC69DE",
"(.	c #DB69DD",
"_.	c #D869DA",
". . . . . . . . . . . . . . . . . . . . . ",
"+ + + + + + + + + + + + + + + + + + + + + ",
"@ @ @ @ @ # # $ % % & % % $ # # @ @ @ @ @ ",
"* = = = - ; > , ' ) ! ) ' , > ; - = = = * ",
"~ { ] ^ / ( _ : < [ } [ < : _ ( / ^ ] { ~ ",
"| 1 2 3 4 5 6 7 8 9 0 9 8 7 6 5 4 3 2 1 | ",
"a b c d e f g h i j k j i h g f e d c b a ",
"l m n o p q r s t u v u t s r q p o n m l ",
"w x y z A v B C D E F E D C B v A z y x w ",
"G H I J o K L M N O P O N M L K o J I H G ",
"Q R S T U V W X Y Z ` Z Y X W V U T S R Q ",
" ...+.@.#.$.%.&.*.=.-.=.*.&.%.$.#.@.+... .",
";.>.,.'.).!.{ ~.{.].^.].{.~.{ !.).'.,.>.;.",
"/./.(.* _._._.* (./././.(.* _._._.* (././.",
"# # # @ @ @ @ @ # # # # # @ @ @ @ @ # # # ",
"+ + + + + + + + + + + + + + + + + + + + + ",
". . . . . . . . . . . . . . . . . . . . . "};
