/* XPM */
static char * BubbleMenu_xpm[] = {
"21 17 235 2",
"  	c None",
". 	c #E40BE3",
"+ 	c #E312E2",
"@ 	c #E318E2",
"# 	c #E41EE3",
"$ 	c #E622E5",
"% 	c #E725E6",
"& 	c #E927E8",
"* 	c #EA28E9",
"= 	c #E313E2",
"- 	c #E21FE1",
"; 	c #E22AE1",
"> 	c #E333E2",
", 	c #E53AE4",
"' 	c #E83FE7",
") 	c #EB42EA",
"! 	c #EC43EB",
"~ 	c #ED44EC",
"{ 	c #E31EE2",
"] 	c #E22EE1",
"^ 	c #E13CE0",
"/ 	c #E248E1",
"( 	c #E450E4",
"_ 	c #E956E8",
": 	c #EC59EC",
"< 	c #EF5CEE",
"[ 	c #F05CEF",
"} 	c #F05DF0",
"| 	c #EF5DF0",
"1 	c #E428E4",
"2 	c #E239E2",
"3 	c #E048E1",
"4 	c #E053E1",
"5 	c #E35BE4",
"6 	c #E860E8",
"7 	c #EC64ED",
"8 	c #EF66F0",
"9 	c #EF67F1",
"0 	c #EF68F1",
"a 	c #EE68F0",
"b 	c #E52FE6",
"c 	c #E03EE3",
"d 	c #DD4BE0",
"e 	c #DC53E0",
"f 	c #DF59E2",
"g 	c #E45CE8",
"h 	c #E95FEC",
"i 	c #EA61EF",
"j 	c #E963EE",
"k 	c #E665ED",
"l 	c #E565ED",
"m 	c #E336E5",
"n 	c #DB40E0",
"o 	c #D549DC",
"p 	c #D44FDC",
"q 	c #D752E0",
"r 	c #DC53E5",
"s 	c #DF55E9",
"t 	c #DE58EA",
"u 	c #D95CE8",
"v 	c #D460E6",
"w 	c #D162E5",
"x 	c #E03BE5",
"y 	c #D442DD",
"z 	c #CA49D7",
"A 	c #C74ED7",
"B 	c #C950DB",
"C 	c #CD51E0",
"D 	c #CE52E3",
"E 	c #CA55E2",
"F 	c #C15CDF",
"G 	c #B964DC",
"H 	c #B667DA",
"I 	c #CA49D8",
"J 	c #DF3EE5",
"K 	c #D145DD",
"L 	c #C44CD6",
"M 	c #BB52D4",
"N 	c #B955D6",
"O 	c #BA56D9",
"P 	c #B957DA",
"Q 	c #B35BD9",
"R 	c #A965D6",
"S 	c #A070D3",
"T 	c #9C74D2",
"U 	c #BC52D4",
"V 	c #E23FE8",
"W 	c #D545E0",
"X 	c #C64DD9",
"Y 	c #B955D4",
"Z 	c #B15AD2",
"` 	c #AD5CD2",
" .	c #AB5DD3",
"..	c #A661D2",
"+.	c #9D6BD1",
"@.	c #9577D0",
"#.	c #917CCF",
"$.	c #AE5CD3",
"%.	c #B15AD3",
"&.	c #BA55D5",
"*.	c #C64ED9",
"=.	c #D546E1",
"-.	c #E33FE8",
";.	c #E83EED",
">.	c #DD44E6",
",.	c #CF4CDF",
"'.	c #C054D7",
").	c #B559D2",
"!.	c #AF5BD0",
"~.	c #AD5CD1",
"{.	c #AA5ED2",
"].	c #A466D2",
"^.	c #9E70D2",
"/.	c #9A75D1",
"(.	c #AA5FD2",
"_.	c #B05CD1",
":.	c #B75AD4",
"<.	c #C355DA",
"[.	c #D14DE1",
"}.	c #DF45E7",
"|.	c #E93EED",
"1.	c #EC3AEF",
"2.	c #E542EA",
"3.	c #DA4AE4",
"4.	c #CD51DC",
"5.	c #C356D7",
"6.	c #BE58D5",
"7.	c #BE58D6",
"8.	c #BE59D8",
"9.	c #BB5ED9",
"0.	c #B664D9",
"a.	c #B467D9",
"b.	c #BF59D7",
"c.	c #C15AD7",
"d.	c #C758DB",
"e.	c #D253E1",
"f.	c #DE4CE8",
"g.	c #E843ED",
"h.	c #EE3BF0",
"i.	c #ED36ED",
"j.	c #E840EA",
"k.	c #E14BE5",
"l.	c #D953E0",
"m.	c #D358DD",
"n.	c #D15BDD",
"o.	c #D35BDF",
"p.	c #D55BE2",
"q.	c #D45DE3",
"r.	c #D160E3",
"s.	c #D062E3",
"t.	c #D55CE1",
"u.	c #D65DE1",
"v.	c #DA5BE4",
"w.	c #E156E8",
"x.	c #E84EEC",
"y.	c #EC42EE",
"z.	c #EF37EF",
"A.	c #EA30EA",
"B.	c #E73FE8",
"C.	c #E44EE5",
"D.	c #E059E3",
"E.	c #DF60E3",
"F.	c #E064E5",
"G.	c #E365E8",
"H.	c #E565EA",
"I.	c #E565EB",
"J.	c #E466EB",
"K.	c #E367EB",
"L.	c #E665EB",
"M.	c #E566EA",
"N.	c #E666EA",
"O.	c #E763EB",
"P.	c #EA5DEC",
"Q.	c #EC51ED",
"R.	c #EC41ED",
"S.	c #EC31EC",
"T.	c #E628E6",
"U.	c #E53BE5",
"V.	c #E44DE4",
"W.	c #E45BE5",
"X.	c #E665E6",
"Y.	c #E86AE9",
"Z.	c #EB6CEC",
"`.	c #ED6DEE",
" +	c #EC6DEE",
".+	c #ED6DEF",
"++	c #ED6CEE",
"@+	c #ED68ED",
"#+	c #EC5FED",
"$+	c #EB50EB",
"%+	c #EA3DE9",
"&+	c #E929E8",
"*+	c #E41FE3",
"=+	c #E431E3",
"-+	c #E443E4",
";+	c #E653E5",
">+	c #E85FE8",
",+	c #EA66EA",
"'+	c #EC69EC",
")+	c #ED6AED",
"!+	c #EE6BEE",
"~+	c #ED6BEE",
"{+	c #EE6AED",
"]+	c #ED67ED",
"^+	c #EC61EC",
"/+	c #EB56EA",
"(+	c #E945E8",
"_+	c #E732E6",
":+	c #E61FE5",
"<+	c #E414E3",
"[+	c #E422E3",
"}+	c #E532E4",
"|+	c #E642E5",
"1+	c #E84EE7",
"2+	c #EA56E9",
"3+	c #EB5AEA",
"4+	c #EB5CEA",
"5+	c #EB5CEB",
"6+	c #EA4FE9",
"7+	c #E943E8",
"8+	c #E733E6",
"9+	c #E523E4",
"0+	c #E50BE4",
"a+	c #E515E4",
"b+	c #E521E4",
"c+	c #E62EE5",
"d+	c #E739E6",
"e+	c #E842E7",
"f+	c #E947E8",
"g+	c #E949E8",
"h+	c #E94AE8",
"i+	c #E942E8",
"j+	c #E83AE7",
"k+	c #E72EE6",
"l+	c #E621E5",
". + @ # $ % & * * * * * * * & % $ # @ + . ",
"= - ; > , ' ) ! ~ ~ ~ ~ ~ ! ) ' , > ; - = ",
"{ ] ^ / ( _ : < [ } | } [ < : _ ( / ^ ] { ",
"1 2 3 4 5 6 7 8 9 0 a 0 9 8 7 6 5 4 3 2 1 ",
"b c d e f g h i j k l k j i h g f e d c b ",
"m n o p q r s t u v w v u t s r q p o n m ",
"x y z A B C D E F G H G F E D C B A I y x ",
"J K L M N O P Q R S T S R Q P O N U L K J ",
"V W X Y Z `  ...+.@.#.@.+... .$.%.&.*.=.-.",
";.>.,.'.).!.~.{.].^./.^.].(.~._.:.<.[.}.|.",
"1.2.3.4.5.6.7.8.9.0.a.0.9.8.b.c.d.e.f.g.h.",
"i.j.k.l.m.n.o.p.q.r.s.r.q.p.t.u.v.w.x.y.z.",
"A.B.C.D.E.F.G.H.I.J.K.J.I.L.M.N.O.P.Q.R.S.",
"T.U.V.W.X.Y.Z.`.`.`. +`..+`.`.++@+#+$+%+&+",
"*+=+-+;+>+,+'+)+!+~+~+!+!+!+{+]+^+/+(+_+:+",
"<+[+}+|+1+2+3+4+5+5+5+5+5+5+3+/+6+7+8+9+<+",
"0+a+b+c+d+e+f+g+g+h+h+h+g+g+f+i+j+k+l+a+0+"};
