/* XPM */
static char * closingmoon_xpm[] = {
"12 12 59 1",
" 	c None",
".	c #C901C6",
"+	c #D401D0",
"@	c #D301CF",
"#	c #CD01C3",
"$	c #D001CA",
"%	c #CF01C4",
"&	c #B5028C",
"*	c #C301AE",
"=	c #CA01C4",
"-	c #DB01D8",
";	c #D801D3",
">	c #C901B4",
",	c #A4027A",
"'	c #9C018B",
")	c #C401C0",
"!	c #DA01D6",
"~	c #DC01D9",
"{	c #D301CD",
"]	c #A60195",
"^	c #78025E",
"/	c #960189",
"(	c #D201CE",
"_	c #E001DD",
":	c #DF01DC",
"<	c #DD01DA",
"[	c #C701C2",
"}	c #830174",
"|	c #78025A",
"1	c #CC01C2",
"2	c #E101DE",
"3	c #CF01CC",
"4	c #83007A",
"5	c #720252",
"6	c #CA01BF",
"7	c #E801E4",
"8	c #E701E3",
"9	c #E501E1",
"0	c #CC01C7",
"a	c #840175",
"b	c #79025C",
"c	c #D201C8",
"d	c #DD01D7",
"e	c #A90198",
"f	c #99018C",
"g	c #DE01D8",
"h	c #E601DF",
"i	c #D301BE",
"j	c #A9027E",
"k	c #A10190",
"l	c #CF01CB",
"m	c #E001D5",
"n	c #BE0295",
"o	c #D201BD",
"p	c #DB01D5",
"q	c #E601E2",
"r	c #E801E3",
"s	c #E101D7",
"t	c #E601E0",
"............",
"+++@#$@+++++",
"+++%&*=@++++",
"---;>,')!---",
"--~~{]^/(---",
"__::<[}|1___",
"__2223456___",
"778890abc777",
"7777de^fg777",
"777hijkl8777",
"777mnopq7777",
"777rst777777"};
