/* XPM */
static char * DragonHover_xpm[] = {
"13 13 15 1",
" 	c None",
".	c #401246",
"+	c #431348",
"@	c #401245",
"#	c #5D1B64",
"$	c #6C1F75",
"%	c #5F1C66",
"&	c #6A1F73",
"*	c #902A9B",
"=	c #9D2DA8",
"-	c #4C1551",
";	c #6C2075",
">	c #4B1551",
",	c #661E6E",
"'	c #431448",
"             ",
"             ",
"             ",
"             ",
"    .+ +.    ",
"   @#$%$#@   ",
"   +&*=*&+   ",
"    -;*;-    ",
"     >,>     ",
"      '      ",
"             ",
"             ",
"             "};
