/* XPM */
static char * DragonsMerge_xpm[] = {
"13 13 5 1",
" 	c None",
".	c #91AB9F",
"+	c #4EAB9F",
"@	c #FF5EFF",
"#	c #E668E5",
"             ",
" .++         ",
" +  +        ",
" +  +.       ",
"  +  +   .   ",
"     ++@ +   ",
"    +#@#+    ",
"   . @++     ",
"       +  +  ",
"       .+  + ",
"        +  + ",
"         ++. ",
"             "};
