/* XPM */
static char * hearting_xpm[] = {
"12 12 17 1",
" 	c None",
".	c #C901C6",
"+	c #D401D0",
"@	c #DB01D8",
"#	c #C901C7",
"$	c #B001AE",
"%	c #6E022F",
"&	c #5E0228",
"*	c #BD01BB",
"=	c #E001DD",
"-	c #8F018D",
";	c #750232",
">	c #91018F",
",	c #69022C",
"'	c #8C018A",
")	c #C201C0",
"!	c #E801E4",
"............",
"++++++++++++",
"+++++++++@++",
"@+@##@##@@@@",
"@+$%&*&%$@@@",
"=+-;>,'&-===",
"=@);>''&#===",
"!!@);'&#!!!!",
"!!!@);#!!!!!",
"!!!!@)!!!!!!",
"!!!!!!!!!!!!",
"!!!!!!!!!!!!"};
