/* XPM */
static char * KittenSelectPoint01_xpm[] = {
"13 13 2 1",
" 	c None",
".	c #0FE9E9",
"             ",
"             ",
"             ",
"             ",
"       ..    ",
"         .   ",
"          .  ",
"          .  ",
"   .         ",
"   .         ",
"    .        ",
"     ..      ",
"             "};
