/* XPM */
static char * KittenSelected02_xpm[] = {
"13 13 7 1",
" 	c None",
".	c #0FE9E9",
"+	c #00A1A1",
"@	c #0EA1A1",
"#	c #00ABAB",
"$	c #12B3B3",
"%	c #109F9F",
"             ",
"             ",
"             ",
"    ..       ",
"   .         ",
"  .     +    ",
"  .    @     ",
"    # @$     ",
"     %$   .  ",
"      +   .  ",
"         .   ",
"       ..    ",
"             "};
