/* XPM */
static char * KittenSelect_xpm[] = {
"10 9 2 1",
" 	c None",
".	c #00FFFF",
"   ..     ",
"  .       ",
" .        ",
" .        ",
"          ",
"         .",
"         .",
"        . ",
"      ..  "};
