/* XPM */
static char * KittenSlit_xpm[] = {
"25 25 316 2",
"  	c None",
". 	c #0063B6",
"+ 	c #0075C0",
"@ 	c #0084C7",
"# 	c #008ECC",
"$ 	c #0090CF",
"% 	c #008ACC",
"& 	c #007EC6",
"* 	c #006EBF",
"= 	c #005DB6",
"- 	c #004EAE",
"; 	c #0044A7",
"> 	c #003CA2",
", 	c #00399F",
"' 	c #00389F",
") 	c #003BA1",
"! 	c #0041A6",
"~ 	c #004CAD",
"{ 	c #005AB4",
"] 	c #006BBD",
"^ 	c #007CC4",
"/ 	c #008BCC",
"( 	c #0094D1",
"_ 	c #0098D4",
": 	c #0097D6",
"< 	c #0092D5",
"[ 	c #0068BA",
"} 	c #0073C0",
"| 	c #0082C6",
"1 	c #0081C6",
"2 	c #007AC2",
"3 	c #006FBD",
"4 	c #0063B8",
"5 	c #0057B2",
"6 	c #0046AA",
"7 	c #0042A7",
"8 	c #0040A6",
"9 	c #0045A9",
"0 	c #0055B1",
"a 	c #0061B7",
"b 	c #006DBD",
"c 	c #0079C3",
"d 	c #0083C7",
"e 	c #008ACB",
"f 	c #008CCF",
"g 	c #008CD1",
"h 	c #006ABD",
"i 	c #006FBF",
"j 	c #0072C0",
"k 	c #0072BF",
"l 	c #0068B9",
"m 	c #0060B6",
"n 	c #0059B3",
"o 	c #0052B1",
"p 	c #004DAE",
"q 	c #004AAD",
"r 	c #0049AC",
"s 	c #0048AC",
"t 	c #0048AB",
"u 	c #004CAE",
"v 	c #0051B0",
"w 	c #0057B3",
"x 	c #005FB6",
"y 	c #0070BE",
"z 	c #0077C2",
"A 	c #007DC6",
"B 	c #0080C9",
"C 	c #0065BC",
"D 	c #0067BB",
"E 	c #0065B9",
"F 	c #0061B6",
"G 	c #005DB4",
"H 	c #0057B0",
"I 	c #0052AF",
"J 	c #0051AF",
"K 	c #005DB3",
"L 	c #0064B7",
"M 	c #006ABC",
"N 	c #005DB7",
"O 	c #0051AD",
"P 	c #004DAA",
"Q 	c #0049A8",
"R 	c #0048A9",
"S 	c #0047AA",
"T 	c #004BAC",
"U 	c #004CAC",
"V 	c #004DAC",
"W 	c #004AAC",
"X 	c #0047A9",
"Y 	c #0049A9",
"Z 	c #004CAB",
"` 	c #0052AC",
" .	c #005CB3",
"..	c #0051AE",
"+.	c #004CAA",
"@.	c #0047A7",
"#.	c #0043A4",
"$.	c #003FA2",
"%.	c #003DA3",
"&.	c #003EA4",
"*.	c #003FA6",
"=.	c #0041A7",
"-.	c #0043A8",
";.	c #0045A8",
">.	c #0046A7",
",.	c #0045A7",
"'.	c #0043A7",
").	c #003DA2",
"!.	c #0042A3",
"~.	c #0046A4",
"{.	c #004AA6",
"].	c #0042A4",
"^.	c #003EA0",
"/.	c #003B9D",
"(.	c #00379C",
"_.	c #00359C",
":.	c #00369E",
"<.	c #003AA0",
"[.	c #003B9F",
"}.	c #003C9E",
"|.	c #003D9E",
"1.	c #003D9D",
"2.	c #00359D",
"3.	c #00349B",
"4.	c #00369A",
"5.	c #003799",
"6.	c #003A9B",
"7.	c #003397",
"8.	c #003195",
"9.	c #002E94",
"0.	c #002E95",
"a.	c #002E96",
"b.	c #002F98",
"c.	c #003198",
"d.	c #003298",
"e.	c #003297",
"f.	c #003396",
"g.	c #003395",
"h.	c #003294",
"i.	c #002E97",
"j.	c #002C94",
"k.	c #002D92",
"l.	c #002D91",
"m.	c #002E91",
"n.	c #002C90",
"o.	c #002A8E",
"p.	c #00288D",
"q.	c #00288F",
"r.	c #002990",
"s.	c #002991",
"t.	c #002A91",
"u.	c #002B90",
"v.	c #002B8E",
"w.	c #002A8D",
"x.	c #002A8C",
"y.	c #002B8F",
"z.	c #002A90",
"A.	c #002890",
"B.	c #00278E",
"C.	c #00268C",
"D.	c #00278A",
"E.	c #002788",
"F.	c #002588",
"G.	c #002587",
"H.	c #002487",
"I.	c #002488",
"J.	c #002489",
"K.	c #00258A",
"L.	c #002589",
"M.	c #002586",
"N.	c #00248A",
"O.	c #002389",
"P.	c #002387",
"Q.	c #002385",
"R.	c #002283",
"S.	c #002182",
"T.	c #002183",
"U.	c #002185",
"V.	c #002284",
"W.	c #002285",
"X.	c #002184",
"Y.	c #002083",
"Z.	c #002181",
"`.	c #002080",
" +	c #001F7E",
".+	c #001F80",
"++	c #002081",
"@+	c #00207F",
"#+	c #001F81",
"$+	c #00207E",
"%+	c #001E7D",
"&+	c #001F7C",
"*+	c #001F7F",
"=+	c #001E7E",
"-+	c #001F7D",
";+	c #001E7C",
">+	c #002082",
",+	c #002386",
"'+	c #002286",
")+	c #002288",
"!+	c #002388",
"~+	c #002384",
"{+	c #002287",
"]+	c #002186",
"^+	c #00288C",
"/+	c #00288B",
"(+	c #00268B",
"_+	c #00258B",
":+	c #00268D",
"<+	c #00288E",
"[+	c #002789",
"}+	c #00268E",
"|+	c #00258C",
"1+	c #002486",
"2+	c #002E92",
"3+	c #002A93",
"4+	c #002B93",
"5+	c #002C95",
"6+	c #002D95",
"7+	c #002E93",
"8+	c #002E90",
"9+	c #002B94",
"0+	c #00298F",
"a+	c #00298D",
"b+	c #003D9F",
"c+	c #00399C",
"d+	c #003599",
"e+	c #003398",
"f+	c #003098",
"g+	c #00309A",
"h+	c #00329B",
"i+	c #00339C",
"j+	c #00369C",
"k+	c #00379B",
"l+	c #00379A",
"m+	c #00349D",
"n+	c #00329C",
"o+	c #003196",
"p+	c #003296",
"q+	c #003496",
"r+	c #0041A2",
"s+	c #003CA0",
"t+	c #00379E",
"u+	c #0038A0",
"v+	c #0039A1",
"w+	c #003EA3",
"x+	c #0041A3",
"y+	c #003AA1",
"z+	c #00389D",
"A+	c #003A9D",
"B+	c #003E9E",
"C+	c #0042A1",
"D+	c #005BB7",
"E+	c #0056B1",
"F+	c #004FAD",
"G+	c #0042A5",
"H+	c #003FA4",
"I+	c #003DA4",
"J+	c #003FA5",
"K+	c #0044A9",
"L+	c #0049AB",
"M+	c #0041A8",
"N+	c #004FAA",
"O+	c #0055AD",
"P+	c #006AC0",
"Q+	c #004EAC",
"R+	c #0046A8",
"S+	c #0042A6",
"T+	c #0042A8",
"U+	c #0045AA",
"V+	c #0049AD",
"W+	c #004BB0",
"X+	c #004DB1",
"Y+	c #004CB0",
"Z+	c #0046AB",
"`+	c #004DAB",
" @	c #0056B0",
".@	c #0069BB",
"+@	c #0075C8",
"@@	c #0072C4",
"#@	c #006DC0",
"$@	c #0064B9",
"%@	c #0059B2",
"&@	c #004EAB",
"*@	c #0041A5",
"=@	c #0046AC",
"-@	c #0049AF",
";@	c #004CB1",
">@	c #0049B0",
",@	c #0046AD",
"'@	c #0043A9",
")@	c #0040A5",
"!@	c #0044A6",
"~@	c #0059B1",
"{@	c #0066B9",
"]@	c #007EC7",
"^@	c #007ECC",
"/@	c #007ECB",
"(@	c #007AC7",
"_@	c #0071C1",
":@	c #0055AF",
"<@	c #0048A7",
"[@	c #003FA3",
"}@	c #003CA4",
"|@	c #003FA8",
"1@	c #0042AD",
"2@	c #0045B0",
"3@	c #0044AE",
"4@	c #0040A9",
"5@	c #003DA5",
"6@	c #003EA2",
"7@	c #0046A6",
"8@	c #0053AE",
"9@	c #0063B7",
"0@	c #0084CA",
"a@	c #0090D1",
". + @ # $ % & * = - ; > , ' ) ! ~ { ] ^ / ( _ : < ",
"[ } ^ | 1 2 3 4 5 - 6 7 ! 8 7 9 ~ 0 a b c d e f g ",
"h i j k 3 l m n o p q r s t r q u v w x [ y z A B ",
"C D E F G H I - u u u u p p u u u u - J H K L M i ",
"N { H O P Q R S t r T U V V U T W t S X Y Z ` H  .",
"..+.@.#.$.%.&.*.=.-.;.>.>.>.>.,.'.=.*.&.).$.!.~.{.",
"].^./.(._._.:.' <.[.}.|.1.1.|.}.[.<.' :.2.3.4.5.6.",
"4.7.8.9.0.a.b.c.d.e.f.g.h.h.g.g.e.d.c.b.i.j.k.l.m.",
"n.o.p.p.q.r.s.t.u.v.w.x.x.x.x.w.v.y.z.r.A.B.C.D.E.",
"F.G.H.I.J.K.K.L.L.G.G.M.M.M.M.G.G.L.K.K.N.O.P.Q.R.",
"S.S.T.T.U.V.W.V.R.T.S.S.S.S.S.S.T.R.V.V.W.X.Y.Z.`.",
" + + +.+++++++`.`.@+@+@+@+@+@+@+@+`.`.`.++#+.+$+ +",
"%+&+%+ + +*+*+ + + + + + + + + + + + +*+ +*+=+-+%+",
"%+&+%+=+ + + + + + + + + + + + + + + + + + +%+&+;+",
" + +=+.+#+.+.+.+*+*+*+*+*+*+*+*+*+*+*+.+.+.+=+-+%+",
"++++++>+Y.T.T.T.S.Z.Z.Z.Z.++++++S.S.T.T.X.Y.>+++*+",
",+Q.'+'+)+!+!+H.,+,+Q.Q.~+~+Q.Q.,+,+P.!+!+{+]+V.S.",
"^+/+(+_+:+:+B.<+p.^+D.D.[+[+D.D./+p.<+B.}+|+N.F.1+",
"8.2+l.t.3+4+5+6+9.7+2+m.8+8+8+m.7+9.6+j.9+s.0+a+x.",
"b+c+d+e+f+g+h+i+2.j+k+l+l+l+l+k+j+2.m+n+g+f+o+p+q+",
"Z >.r+s+, t+u+v+> w+x+!.!.!.!.x+w+> y+u+' z+A+B+C+",
"D+E+F+Q G+H+I+J+=.K+S L+W W L+S K+M+*.I+w+G+@.N+O+",
"P+C x E+Q+R+S+! T+U+V+W+X+X+Y+V+Z+-.! ! ;.`+ @F .@",
"+@@@#@$@%@&@,.*@8 T+=@-@;@;@>@,@'@8 )@!@`+~@{@} ]@",
"^@/@(@_@4 :@<@[@> }@|@1@2@2@3@4@5@> 6@7@8@9@+ 0@a@"};
