/* XPM */
static char * moreofwndw_xpm[] = {
"12 12 17 1",
" 	c None",
".	c #C901C6",
"+	c #D401D0",
"@	c #8C018A",
"#	c #780232",
"$	c #69022C",
"%	c #DB01D8",
"&	c #C201BF",
"*	c #BF01BC",
"=	c #730230",
"-	c #960194",
";	c #E001DD",
">	c #820236",
",	c #E801E4",
"'	c #BA01B7",
")	c #CC01C8",
"!	c #D601D3",
"............",
"+++++.++++++",
"+++.@#$.++++",
"%%&@*=#$%%%%",
"%%&#=-@=.%%%",
";;.>@@@=.;;;",
";;;.$$$&%;;;",
",,,,.$'%,,,,",
",,,,.$';,,,,",
",,,,.$.,,,,,",
",,,,)$),,,,,",
",,,,!)!,,,,,"};
