/* XPM */
static char * PinkUnselected_xpm[] = {
"13 13 4 1",
" 	c None",
".	c #E683E5",
"+	c #FF5EFF",
"@	c #E668E5",
"..+          ",
".  +         ",
"+  @         ",
" .  .        ",
"    ..       ",
"      .      ",
"             ",
"      .      ",
"       ..    ",
"        .  . ",
"         @  +",
"         +  .",
"          +.."};
