/* XPM */
static char * PinkFBar01_xpm[] = {
"21 17 62 1",
" 	c None",
".	c #F77EF7",
"+	c #F799F7",
"@	c #FAA7FA",
"#	c #FAA6FA",
"$	c #FBA7FA",
"%	c #FAA8FB",
"&	c #FAA8FA",
"*	c #FAA7FB",
"=	c #FBA7FB",
"-	c #FBA8FA",
";	c #FA9CF9",
">	c #FA9CFA",
",	c #F99CFA",
"'	c #F99DFA",
")	c #FA9BFA",
"!	c #FA9AFA",
"~	c #FA9DFA",
"{	c #FA9DF9",
"]	c #FA9EFA",
"^	c #F99EF9",
"/	c #F992F9",
"(	c #F990F9",
"_	c #F98DF9",
":	c #F98EF9",
"<	c #F987F9",
"[	c #FA80F9",
"}	c #F98FF9",
"|	c #F991F9",
"1	c #F993F9",
"2	c #F993FA",
"3	c #F994F9",
"4	c #F87DF8",
"5	c #F977F8",
"6	c #F971F8",
"7	c #F974F8",
"8	c #FA61F7",
"9	c #FB55F7",
"0	c #F768F7",
"a	c #F965F8",
"b	c #F95AF7",
"c	c #FA4BF7",
"d	c #FB4AF6",
"e	c #FB45F6",
"f	c #FC35F6",
"g	c #FD2FF6",
"h	c #F74DF7",
"i	c #F850F7",
"j	c #F84CF7",
"k	c #FA40F7",
"l	c #FB2EF6",
"m	c #FD21F6",
"n	c #FE18F5",
"o	c #FF11F5",
"p	c #FF10F5",
"q	c #F739F7",
"r	c #F845F7",
"s	c #F93FF7",
"t	c #FB31F6",
"u	c #FD20F5",
"v	c #FF07F4",
"w	c #FF04F4",
".....................",
"+++++++++++++++++++++",
"@#$@@$@%@&&*@=@-&&&%&",
";>,,,>'>>)!)>~~{~{]]^",
"/////(_:_<[<:}:|12113",
"....4567689867654....",
"0000abcdefgfedcba0000",
"hhhijklmnoponmlkjihhh",
"qqqrstupvwwwvputsrqqq",
"hhhijklmnoponmlkjihhh",
"0000abcdefgfedcba0000",
"....4567689867654....",
"/////(_:_<[<:}:|12113",
";>,,,>'>>)!)>~~{~{]]^",
"@#$@@$@%@&&*@=@-&&&%&",
"+++++++++++++++++++++",
"....................."};
