/* XPM */
static char * pinksshadeprss_xpm[] = {
"12 12 54 1",
" 	c None",
".	c #C901C6",
"+	c #D401D0",
"@	c #D201CE",
"#	c #D001CC",
"$	c #BB01B0",
"%	c #930270",
"&	c #D301CF",
"*	c #C101BC",
"=	c #940182",
"-	c #77024A",
";	c #D501D1",
">	c #DB01D8",
",	c #D101CE",
"'	c #A8019F",
")	c #84025E",
"!	c #72023B",
"~	c #DA01D7",
"{	c #D001CB",
"]	c #BA01A7",
"^	c #89025C",
"/	c #DC01D9",
"(	c #E001DD",
"_	c #DF01DC",
":	c #CF01C4",
"<	c #9A0276",
"[	c #C201B1",
"}	c #DB01D6",
"|	c #E101DE",
"1	c #DE01D9",
"2	c #C701B7",
"3	c #A60286",
"4	c #C601B6",
"5	c #DD01D9",
"6	c #E801E4",
"7	c #E701E3",
"8	c #E301DD",
"9	c #C801B6",
"0	c #9D0278",
"a	c #D601CA",
"b	c #E201DC",
"c	c #9F0279",
"d	c #D701CB",
"e	c #E201DD",
"f	c #D401C8",
"g	c #BF01AD",
"h	c #A40284",
"i	c #CB01BB",
"j	c #E401DF",
"k	c #E601E2",
"l	c #D101C7",
"m	c #9F027B",
"n	c #9A0275",
"o	c #C301B2",
"............",
"++@#$%$#@@++",
"++&*=-=*&;++",
">>,')!)',~>>",
">>~{]^]{~/>>",
"((__:<[}__((",
"((||12345|((",
"66777890a766",
"66667b9cd666",
"667efghij666",
"66klmnob6666",
"666666666666"};
