/* XPM */
static char * pinksunshadeprss_xpm[] = {
"12 12 54 1",
" 	c None",
".	c #C901C6",
"+	c #D401D0",
"@	c #D201CE",
"#	c #C601BC",
"$	c #970273",
"%	c #94026F",
"&	c #BB01AA",
"*	c #CF01C9",
"=	c #D501D1",
"-	c #D201CC",
";	c #C701BA",
">	c #BB01A9",
",	c #A0027F",
"'	c #BD01AC",
")	c #DB01D8",
"!	c #DA01D7",
"~	c #DA01D6",
"{	c #D701D1",
"]	c #BE01AD",
"^	c #980273",
"/	c #CA01BF",
"(	c #DC01D9",
"_	c #D801D3",
":	c #BF01AD",
"<	c #990275",
"[	c #CC01C1",
"}	c #E001DD",
"|	c #DF01DC",
"1	c #DC01D7",
"2	c #C501B5",
"3	c #A40284",
"4	c #E101DE",
"5	c #D001C6",
"6	c #9B0277",
"7	c #C301B2",
"8	c #DD01D8",
"9	c #E801E4",
"0	c #E401E0",
"a	c #D901D3",
"b	c #C201AE",
"c	c #8C025F",
"d	c #C101AE",
"e	c #E701E3",
"f	c #DE01DA",
"g	c #AF01A5",
"h	c #860260",
"i	c #72023C",
"j	c #E501E1",
"k	c #D001CB",
"l	c #9A0187",
"m	c #78024C",
"n	c #CD01C1",
"o	c #9C0279",
"............",
"++@#$%&*@@++",
"++=-;>,'-=++",
"))!!~{]^/!))",
"))(((_:<[())",
"}}||12321|}}",
"}}44567844}}",
"990abcda0e99",
"99fghihgf999",
"99jklmlkj999",
"999jnonj9999",
"999999999999"};
