/* XPM */
static char * pinkdraco04_xpm[] = {
"500 12 380 2",
"  	c #AC019F",
". 	c #AF00A2",
"+ 	c #AF03AA",
"@ 	c #DC07D6",
"# 	c #F400EA",
"$ 	c #E006E5",
"% 	c #C006C0",
"& 	c #CE03BB",
"* 	c #CC01D1",
"= 	c #E407D6",
"- 	c #DA04DC",
"; 	c #BD02C8",
"> 	c #AB0AA8",
", 	c #9A038B",
"' 	c #A5039E",
") 	c #A902A7",
"! 	c #A901A4",
"~ 	c #B600AE",
"{ 	c #D800D7",
"] 	c #ED05F4",
"^ 	c #DB04DD",
"/ 	c #C200BC",
"( 	c #CE03D0",
"_ 	c #C706C9",
": 	c #B200B7",
"< 	c #B602B9",
"[ 	c #C609C6",
"} 	c #C100C4",
"| 	c #AB02A6",
"1 	c #AD01AF",
"2 	c #AC04A8",
"3 	c #A800AB",
"4 	c #A605A2",
"5 	c #990797",
"6 	c #DE00CE",
"7 	c #EE02E9",
"8 	c #D903C8",
"9 	c #BB00AC",
"0 	c #B202B2",
"a 	c #BC00BE",
"b 	c #CC04C9",
"c 	c #C801BD",
"d 	c #B803A6",
"e 	c #AF05B4",
"f 	c #A900C0",
"g 	c #AA02A6",
"h 	c #A5019A",
"i 	c #A2049C",
"j 	c #B000A2",
"k 	c #C900BF",
"l 	c #D508DD",
"m 	c #CB0BDB",
"n 	c #C101C1",
"o 	c #C901BD",
"p 	c #C506D3",
"q 	c #C700BB",
"r 	c #C606B5",
"s 	c #B300B3",
"t 	c #B301B9",
"u 	c #C303BD",
"v 	c #B500BC",
"w 	c #A40BAA",
"x 	c #BD00B6",
"y 	c #A607A8",
"z 	c #AD06AD",
"A 	c #E800D8",
"B 	c #D600D2",
"C 	c #C800BA",
"D 	c #B300A6",
"E 	c #B002AF",
"F 	c #B201B3",
"G 	c #BD02B5",
"H 	c #B40DBE",
"I 	c #A7009F",
"J 	c #C202C1",
"K 	c #DC0AE3",
"L 	c #C602BC",
"M 	c #A00297",
"N 	c #9C06A0",
"O 	c #B202AE",
"P 	c #D100C2",
"Q 	c #D501CD",
"R 	c #C303C6",
"S 	c #B800B7",
"T 	c #C004B5",
"U 	c #C200BA",
"V 	c #C808CA",
"W 	c #B806BE",
"X 	c #A800A9",
"Y 	c #C704C2",
"Z 	c #EA05E5",
"` 	c #E008E0",
" .	c #B000B4",
"..	c #B600AF",
"+.	c #B900BB",
"@.	c #A603A3",
"#.	c #CF06D0",
"$.	c #E802DC",
"%.	c #B800B3",
"&.	c #B400AA",
"*.	c #AC01A5",
"=.	c #AE06AB",
"-.	c #A801A5",
";.	c #AB029F",
">.	c #A406B7",
",.	c #B301B7",
"'.	c #E406DC",
").	c #FA06F2",
"!.	c #DB02CE",
"~.	c #A2019F",
"{.	c #9B02A7",
"].	c #BB04C2",
"^.	c #D101C6",
"/.	c #CC00BD",
"(.	c #BC00B2",
"_.	c #B000A7",
":.	c #B504A6",
"<.	c #BC00A3",
"[.	c #BC05C8",
"}.	c #AF02C4",
"|.	c #B804BA",
"1.	c #E90DDF",
"2.	c #FF02FF",
"3.	c #F002EB",
"4.	c #CE00CF",
"5.	c #AC02A2",
"6.	c #E908EC",
"7.	c #AE01AD",
"8.	c #E206E1",
"9.	c #D400CD",
"0.	c #A702A0",
"a.	c #A700A1",
"b.	c #A603A2",
"c.	c #A907A4",
"d.	c #A2019A",
"e.	c #A10398",
"f.	c #BE00BC",
"g.	c #D706D6",
"h.	c #EB0BE6",
"i.	c #E100DD",
"j.	c #D704D7",
"k.	c #AA01AB",
"l.	c #AE00B1",
"m.	c #CB06D0",
"n.	c #C504C4",
"o.	c #B400B1",
"p.	c #B002A9",
"q.	c #B100A0",
"r.	c #B601A0",
"s.	c #B104A4",
"t.	c #B300AF",
"u.	c #C900CA",
"v.	c #E508E6",
"w.	c #F80DF6",
"x.	c #EF01ED",
"y.	c #E600EB",
"z.	c #E703E4",
"A.	c #A801A4",
"B.	c #FE0DFF",
"C.	c #C806CF",
"D.	c #E109DD",
"E.	c #BD00B7",
"F.	c #A6009A",
"G.	c #A2009D",
"H.	c #A0029C",
"I.	c #A3059A",
"J.	c #A10098",
"K.	c #AA02A7",
"L.	c #EB06D6",
"M.	c #E001D9",
"N.	c #D202D0",
"O.	c #CB02C9",
"P.	c #CE08D7",
"Q.	c #B600B7",
"R.	c #C202B9",
"S.	c #CF06CF",
"T.	c #B901BE",
"U.	c #AB01B3",
"V.	c #B103AE",
"W.	c #B500A4",
"X.	c #B701A3",
"Y.	c #A905AA",
"Z.	c #C100B5",
"`.	c #EC05DD",
" +	c #FB01F6",
".+	c #EA02EB",
"++	c #D105D1",
"@+	c #DE08E2",
"#+	c #E505DF",
"$+	c #BF01C3",
"%+	c #E503E3",
"&+	c #DC05EA",
"*+	c #C803C3",
"=+	c #AA02A9",
"-+	c #B0009F",
";+	c #A500A0",
">+	c #9C0299",
",+	c #9F0393",
"'+	c #A8009D",
")+	c #C405C7",
"!+	c #E50CD7",
"~+	c #CD00CF",
"{+	c #BF00B7",
"]+	c #C103B0",
"^+	c #CC05CF",
"/+	c #C401C2",
"(+	c #BE04B6",
"_+	c #B902BA",
":+	c #BB00BE",
"<+	c #C502C4",
"[+	c #C304BD",
"}+	c #AF00A9",
"|+	c #A803A1",
"1+	c #B700AC",
"2+	c #D003D2",
"3+	c #F509F4",
"4+	c #F500E4",
"5+	c #DD00CF",
"6+	c #C308C8",
"7+	c #D902C8",
"8+	c #D704CB",
"9+	c #D701E5",
"0+	c #CA02C5",
"a+	c #CA05CB",
"b+	c #A6049F",
"c+	c #A601A9",
"d+	c #BD00AB",
"e+	c #A301A1",
"f+	c #9F0198",
"g+	c #A20197",
"h+	c #AC00A8",
"i+	c #D907D5",
"j+	c #CB06C6",
"k+	c #BD00BE",
"l+	c #BC02B2",
"m+	c #B802A7",
"n+	c #BF03BA",
"o+	c #C603C5",
"p+	c #B203AC",
"q+	c #AA00A5",
"r+	c #CA00C9",
"s+	c #EB0AE7",
"t+	c #DC07D7",
"u+	c #A900A4",
"v+	c #A0059B",
"w+	c #C000B7",
"x+	c #E206EE",
"y+	c #ED03F3",
"z+	c #E200D1",
"A+	c #D002BF",
"B+	c #C305C3",
"C+	c #D300C6",
"D+	c #C404BF",
"E+	c #D500DA",
"F+	c #BA04B8",
"G+	c #B302AA",
"H+	c #A5019B",
"I+	c #BE05C2",
"J+	c #E103D5",
"K+	c #B409AF",
"L+	c #9C0291",
"M+	c #A3009B",
"N+	c #BA04BC",
"O+	c #DA02D4",
"P+	c #BA03B2",
"Q+	c #B801AF",
"R+	c #B103A8",
"S+	c #B205AC",
"T+	c #BE03BC",
"U+	c #AF00AF",
"V+	c #BC06BB",
"W+	c #EF12EE",
"X+	c #FF12FF",
"Y+	c #E40AE2",
"Z+	c #A400A2",
"`+	c #9A0798",
" @	c #CC02CE",
".@	c #F408F5",
"+@	c #D700E0",
"@@	c #C900C4",
"#@	c #CD00BA",
"$@	c #C203C0",
"%@	c #C900C0",
"&@	c #B904B8",
"*@	c #C202C2",
"=@	c #B502B5",
"-@	c #AF00AE",
";@	c #C500B0",
">@	c #E20FE8",
",@	c #F602F6",
"'@	c #CB08BE",
")@	c #990393",
"!@	c #AD01A9",
"~@	c #D706D0",
"{@	c #CC01C7",
"]@	c #A801A0",
"^@	c #B205A9",
"/@	c #B201A9",
"(@	c #AF02A7",
"_@	c #B004A8",
":@	c #BD00C3",
"<@	c #DC08E6",
"[@	c #FF17FF",
"}@	c #F80AF4",
"|@	c #DC07DB",
"1@	c #AC00B1",
"2@	c #A105A7",
"3@	c #E808E6",
"4@	c #ED02E6",
"5@	c #B804C7",
"6@	c #B206B2",
"7@	c #CD00B4",
"8@	c #BC00BF",
"9@	c #C206B6",
"0@	c #B403AC",
"a@	c #AA03B8",
"b@	c #B704B2",
"c@	c #C004C3",
"d@	c #E700CF",
"e@	c #EF0BF2",
"f@	c #E300E5",
"g@	c #D201C2",
"h@	c #B502B2",
"i@	c #CB03D1",
"j@	c #E504DA",
"k@	c #B607AE",
"l@	c #A1039A",
"m@	c #AE07A7",
"n@	c #B103AB",
"o@	c #B206AA",
"p@	c #AA00A2",
"q@	c #B402AE",
"r@	c #E007DC",
"s@	c #EE03EC",
"t@	c #E605E8",
"u@	c #D300DA",
"v@	c #D808DB",
"w@	c #D404D4",
"x@	c #D502D3",
"y@	c #F20BEF",
"z@	c #C902CD",
"A@	c #B302BA",
"B@	c #B008AF",
"C@	c #BE00BB",
"D@	c #BC05C1",
"E@	c #AF02A3",
"F@	c #A004B6",
"G@	c #B505AB",
"H@	c #D90ADC",
"I@	c #ED06D8",
"J@	c #D901D9",
"K@	c #C404C2",
"L@	c #CF00C5",
"M@	c #D404D6",
"N@	c #DC03E1",
"O@	c #CE00C6",
"P@	c #A1089A",
"Q@	c #A801A1",
"R@	c #AB01A7",
"S@	c #AD02A8",
"T@	c #AF06A8",
"U@	c #AD00A3",
"V@	c #CA04C3",
"W@	c #F30DE5",
"X@	c #E600D7",
"Y@	c #CF04CF",
"Z@	c #BE02C8",
"`@	c #CE02D5",
" #	c #E801E4",
".#	c #FB01EE",
"+#	c #E008E2",
"@#	c #B001C3",
"##	c #CC00C7",
"$#	c #CB07C5",
"%#	c #A904B1",
"&#	c #BC00AF",
"*#	c #B001C2",
"=#	c #AA019E",
"-#	c #AD01BE",
";#	c #B003A4",
"  . + @ # $ % & * = - ; > , ' ) ! ~ { ] ^ / ( _ : < [ } | 1 2   . + @ # $ % & * = - ; > , ' ) ! ~ { ] ^ / ( _ : < [ } | 1 2   . + @ # $ % & * = - ; > , ' ) ! ~ { ] ^ / ( _ : < [ } | 3 1 2   . + @ # $ % & * = - ; > , ' ) ! ~ { ] ^ / ( _ : < [ } | 1 2   . + @ # $ % & * = - ; > , ' ) ! ~ { ] ^ / ( _ : < [ } | 1 2   . + @ # $ % & * = - ; > , ' ) ! ~ { ] ^ / ( _ : < [ } | 1 2   . + @ # $ % & * = - ; > , ' ) ! ~ { ] ^ / ( _ : < [ } | 3 1 2   . + @ # $ % & * = - ; > , ' ) ! ~ { ] ^ / ( _ : < [ } | 1 2   . + @ # $ % & * = - ; > , ' ) ! ~ { ] ^ / ( _ : < [ } | 3 1 2   . + @ # $ % & * = - ; > , ' ) ! ~ { ] ^ / ( _ : < [ } | 1 2   . + @ # $ % & * = - ; > , ' ) ! ~ { ] ^ / ( _ : < [ } | 3 1 2   . + @ # $ % & * = - ; > , ' ) ! ~ { ] ^ / ( _ : < [ } | 3 1 2   . + @ # $ % & * = - ; > , ' ) ! ~ { ] ^ / ( _ : < [ } | 3 1 2   . + @ # $ % & * = - ; > , ' ) ! ~ { ] ^ / ( _ : < [ } | 3 1 2   . + @ # $ % & * = - ; > , ' ) ! ~ { ] ^ / ( _ : < [ } | 1 2   . + @ # $ % & * = - ; > , ' ) ! ~ { ] ^ / ( _ : < [ } ",
"4 5 6 7 8 9 0 a b c d e f g h i j k l m n o p q r s t u v w x 4 5 6 7 8 9 0 a b c d e f g h i j k l m n o p q r s t u v w x 4 5 6 7 8 9 0 a b c d e f g h i j k l m n o p q r s t u v y w x 4 5 6 7 8 9 0 a b c d e f g h i j k l m n o p q r s t u v w x 4 5 6 7 8 9 0 a b c d e f g h i j k l m n o p q r s t u v w x 4 5 6 7 8 9 0 a b c d e f g h i j k l m n o p q r s t u v w x 4 5 6 7 8 9 0 a b c d e f g h i j k l m n o p q r s t u v y w x 4 5 6 7 8 9 0 a b c d e f g h i j k l m n o p q r s t u v w x 4 5 6 7 8 9 0 a b c d e f g h i j k l m n o p q r s t u v y w x 4 5 6 7 8 9 0 a b c d e f g h i j k l m n o p q r s t u v w x 4 5 6 7 8 9 0 a b c d e f g h i j k l m n o p q r s t u v y w x 4 5 6 7 8 9 0 a b c d e f g h i j k l m n o p q r s t u v y w x 4 5 6 7 8 9 0 a b c d e f g h i j k l m n o p q r s t u v y w x 4 5 6 7 8 9 0 a b c d e f g h i j k l m n o p q r s t u v y w x 4 5 6 7 8 9 0 a b c d e f g h i j k l m n o p q r s t u v w x 4 5 6 7 8 9 0 a b c d e f g h i j k l m n o p q r s t u ",
"4 z A B C D E F G H I J K L M N O P Q R S T U V W X Y Z `  ...4 z A B C D E F G H I J K L M N O P Q R S T U V W X Y Z `  ...4 z A B C D E F G H I J K L M N O P Q R S T U V W X Y Z ` +. ...4 z A B C D E F G H I J K L M N O P Q R S T U V W X Y Z `  ...4 z A B C D E F G H I J K L M N O P Q R S T U V W X Y Z `  ...4 z A B C D E F G H I J K L M N O P Q R S T U V W X Y Z `  ...4 z A B C D E F G H I J K L M N O P Q R S T U V W X Y Z ` +. ...4 z A B C D E F G H I J K L M N O P Q R S T U V W X Y Z `  ...4 z A B C D E F G H I J K L M N O P Q R S T U V W X Y Z ` +. ...4 z A B C D E F G H I J K L M N O P Q R S T U V W X Y Z `  ...4 z A B C D E F G H I J K L M N O P Q R S T U V W X Y Z ` +. ...4 z A B C D E F G H I J K L M N O P Q R S T U V W X Y Z ` +. ...4 z A B C D E F G H I J K L M N O P Q R S T U V W X Y Z ` +. ...4 z A B C D E F G H I J K L M N O P Q R S T U V W X Y Z ` +. ...4 z A B C D E F G H I J K L M N O P Q R S T U V W X Y Z `  ...4 z A B C D E F G H I J K L M N O P Q R S T U V W X Y Z ",
"@.#.$.%.&.*.=.-.;.>.,.'.).!.~.{.].^./.(._.:.<.[.}.|.1.2.3.4.5.@.#.$.%.&.*.=.-.;.>.,.'.).!.~.{.].^./.(._.:.<.[.}.|.1.2.3.4.5.@.#.$.%.&.*.=.-.;.>.,.'.).!.~.{.].^./.(._.:.<.[.}.|.1.2.3.6.4.5.@.#.$.%.&.*.=.-.;.>.,.'.).!.~.{.].^./.(._.:.<.[.}.|.1.2.3.4.5.@.#.$.%.&.*.=.-.;.>.,.'.).!.~.{.].^./.(._.:.<.[.}.|.1.2.3.4.5.@.#.$.%.&.*.=.-.;.>.,.'.).!.~.{.].^./.(._.:.<.[.}.|.1.2.3.4.5.@.#.$.%.&.*.=.-.;.>.,.'.).!.~.{.].^./.(._.:.<.[.}.|.1.2.3.6.4.5.@.#.$.%.&.*.=.-.;.>.,.'.).!.~.{.].^./.(._.:.<.[.}.|.1.2.3.4.5.@.#.$.%.&.*.=.-.;.>.,.'.).!.~.{.].^./.(._.:.<.[.}.|.1.2.3.6.4.5.@.#.$.%.&.*.=.-.;.>.,.'.).!.~.{.].^./.(._.:.<.[.}.|.1.2.3.4.5.@.#.$.%.&.*.=.-.;.>.,.'.).!.~.{.].^./.(._.:.<.[.}.|.1.2.3.6.4.5.@.#.$.%.&.*.=.-.;.>.,.'.).!.~.{.].^./.(._.:.<.[.}.|.1.2.3.6.4.5.@.#.$.%.&.*.=.-.;.>.,.'.).!.~.{.].^./.(._.:.<.[.}.|.1.2.3.6.4.5.@.#.$.%.&.*.=.-.;.>.,.'.).!.~.{.].^./.(._.:.<.[.}.|.1.2.3.6.4.5.@.#.$.%.&.*.=.-.;.>.,.'.).!.~.{.].^./.(._.:.<.[.}.|.1.2.3.4.5.@.#.$.%.&.*.=.-.;.>.,.'.).!.~.{.].^./.(._.:.<.[.}.|.1.2.",
"7.8.9.0.a.b.c.d.e.f.g.h.i.j.k.l.m.n.o.p.q.r.s.t.u.v.w.x.y.z.A.7.8.9.0.a.b.c.d.e.f.g.h.i.j.k.l.m.n.o.p.q.r.s.t.u.v.w.x.y.z.A.7.8.9.0.a.b.c.d.e.f.g.h.i.j.k.l.m.n.o.p.q.r.s.t.u.v.w.x.y.B.z.A.7.8.9.0.a.b.c.d.e.f.g.h.i.j.k.l.m.n.o.p.q.r.s.t.u.v.w.x.y.z.A.7.8.9.0.a.b.c.d.e.f.g.h.i.j.k.l.m.n.o.p.q.r.s.t.u.v.w.x.y.z.A.7.8.9.0.a.b.c.d.e.f.g.h.i.j.k.l.m.n.o.p.q.r.s.t.u.v.w.x.y.z.A.7.8.9.0.a.b.c.d.e.f.g.h.i.j.k.l.m.n.o.p.q.r.s.t.u.v.w.x.y.B.z.A.7.8.9.0.a.b.c.d.e.f.g.h.i.j.k.l.m.n.o.p.q.r.s.t.u.v.w.x.y.z.A.7.8.9.0.a.b.c.d.e.f.g.h.i.j.k.l.m.n.o.p.q.r.s.t.u.v.w.x.y.B.z.A.7.8.9.0.a.b.c.d.e.f.g.h.i.j.k.l.m.n.o.p.q.r.s.t.u.v.w.x.y.z.A.7.8.9.0.a.b.c.d.e.f.g.h.i.j.k.l.m.n.o.p.q.r.s.t.u.v.w.x.y.B.z.A.7.8.9.0.a.b.c.d.e.f.g.h.i.j.k.l.m.n.o.p.q.r.s.t.u.v.w.x.y.B.z.A.7.8.9.0.a.b.c.d.e.f.g.h.i.j.k.l.m.n.o.p.q.r.s.t.u.v.w.x.y.B.z.A.7.8.9.0.a.b.c.d.e.f.g.h.i.j.k.l.m.n.o.p.q.r.s.t.u.v.w.x.y.B.z.A.7.8.9.0.a.b.c.d.e.f.g.h.i.j.k.l.m.n.o.p.q.r.s.t.u.v.w.x.y.z.A.7.8.9.0.a.b.c.d.e.f.g.h.i.j.k.l.m.n.o.p.q.r.s.t.u.v.w.x.",
"C.D.E.F.G.H.I.J.K.L.M.N.O.P.Q.R.S.T.U.V.W.X.Y.Z.`. +.+++@+#+$+C.D.E.F.G.H.I.J.K.L.M.N.O.P.Q.R.S.T.U.V.W.X.Y.Z.`. +.+++@+#+$+C.D.E.F.G.H.I.J.K.L.M.N.O.P.Q.R.S.T.U.V.W.X.Y.Z.`. +.+++@+%+#+$+C.D.E.F.G.H.I.J.K.L.M.N.O.P.Q.R.S.T.U.V.W.X.Y.Z.`. +.+++@+#+$+C.D.E.F.G.H.I.J.K.L.M.N.O.P.Q.R.S.T.U.V.W.X.Y.Z.`. +.+++@+#+$+C.D.E.F.G.H.I.J.K.L.M.N.O.P.Q.R.S.T.U.V.W.X.Y.Z.`. +.+++@+#+$+C.D.E.F.G.H.I.J.K.L.M.N.O.P.Q.R.S.T.U.V.W.X.Y.Z.`. +.+++@+%+#+$+C.D.E.F.G.H.I.J.K.L.M.N.O.P.Q.R.S.T.U.V.W.X.Y.Z.`. +.+++@+#+$+C.D.E.F.G.H.I.J.K.L.M.N.O.P.Q.R.S.T.U.V.W.X.Y.Z.`. +.+++@+%+#+$+C.D.E.F.G.H.I.J.K.L.M.N.O.P.Q.R.S.T.U.V.W.X.Y.Z.`. +.+++@+#+$+C.D.E.F.G.H.I.J.K.L.M.N.O.P.Q.R.S.T.U.V.W.X.Y.Z.`. +.+++@+%+#+$+C.D.E.F.G.H.I.J.K.L.M.N.O.P.Q.R.S.T.U.V.W.X.Y.Z.`. +.+++@+%+#+$+C.D.E.F.G.H.I.J.K.L.M.N.O.P.Q.R.S.T.U.V.W.X.Y.Z.`. +.+++@+%+#+$+C.D.E.F.G.H.I.J.K.L.M.N.O.P.Q.R.S.T.U.V.W.X.Y.Z.`. +.+++@+%+#+$+C.D.E.F.G.H.I.J.K.L.M.N.O.P.Q.R.S.T.U.V.W.X.Y.Z.`. +.+++@+#+$+C.D.E.F.G.H.I.J.K.L.M.N.O.P.Q.R.S.T.U.V.W.X.Y.Z.`. +.+++",
"&+*+=+-+;+>+,+'+)+!+~+{+]+^+/+(+_+:+<+[+}+|+1+2+3+4+5+6+7+8+9+&+*+=+-+;+>+,+'+)+!+~+{+]+^+/+(+_+:+<+[+}+|+1+2+3+4+5+6+7+8+9+&+*+=+-+;+>+,+'+)+!+~+{+]+^+/+(+_+:+<+[+}+|+1+2+3+4+5+6+7+0+8+9+&+*+=+-+;+>+,+'+)+!+~+{+]+^+/+(+_+:+<+[+}+|+1+2+3+4+5+6+7+8+9+&+*+=+-+;+>+,+'+)+!+~+{+]+^+/+(+_+:+<+[+}+|+1+2+3+4+5+6+7+8+9+&+*+=+-+;+>+,+'+)+!+~+{+]+^+/+(+_+:+<+[+}+|+1+2+3+4+5+6+7+8+9+&+*+=+-+;+>+,+'+)+!+~+{+]+^+/+(+_+:+<+[+}+|+1+2+3+4+5+6+7+0+8+9+&+*+=+-+;+>+,+'+)+!+~+{+]+^+/+(+_+:+<+[+}+|+1+2+3+4+5+6+7+8+9+&+*+=+-+;+>+,+'+)+!+~+{+]+^+/+(+_+:+<+[+}+|+1+2+3+4+5+6+7+0+8+9+&+*+=+-+;+>+,+'+)+!+~+{+]+^+/+(+_+:+<+[+}+|+1+2+3+4+5+6+7+8+9+&+*+=+-+;+>+,+'+)+!+~+{+]+^+/+(+_+:+<+[+}+|+1+2+3+4+5+6+7+0+8+9+&+*+=+-+;+>+,+'+)+!+~+{+]+^+/+(+_+:+<+[+}+|+1+2+3+4+5+6+7+0+8+9+&+*+=+-+;+>+,+'+)+!+~+{+]+^+/+(+_+:+<+[+}+|+1+2+3+4+5+6+7+0+8+9+&+*+=+-+;+>+,+'+)+!+~+{+]+^+/+(+_+:+<+[+}+|+1+2+3+4+5+6+7+0+8+9+&+*+=+-+;+>+,+'+)+!+~+{+]+^+/+(+_+:+<+[+}+|+1+2+3+4+5+6+7+8+9+&+*+=+-+;+>+,+'+)+!+~+{+]+^+/+(+_+:+<+[+}+|+1+2+3+4+5+6+",
"a+b+c+d+e+f+g+h+i+j+k+l+m+n+o+p+q+r+s+t+u+v+w+x+y+z+A+B+C+D+E+a+b+c+d+e+f+g+h+i+j+k+l+m+n+o+p+q+r+s+t+u+v+w+x+y+z+A+B+C+D+E+a+b+c+d+e+f+g+h+i+j+k+l+m+n+o+p+q+r+s+t+u+v+w+x+y+z+A+B+C+F+D+E+a+b+c+d+e+f+g+h+i+j+k+l+m+n+o+p+q+r+s+t+u+v+w+x+y+z+A+B+C+D+E+a+b+c+d+e+f+g+h+i+j+k+l+m+n+o+p+q+r+s+t+u+v+w+x+y+z+A+B+C+D+E+a+b+c+d+e+f+g+h+i+j+k+l+m+n+o+p+q+r+s+t+u+v+w+x+y+z+A+B+C+D+E+a+b+c+d+e+f+g+h+i+j+k+l+m+n+o+p+q+r+s+t+u+v+w+x+y+z+A+B+C+F+D+E+a+b+c+d+e+f+g+h+i+j+k+l+m+n+o+p+q+r+s+t+u+v+w+x+y+z+A+B+C+D+E+a+b+c+d+e+f+g+h+i+j+k+l+m+n+o+p+q+r+s+t+u+v+w+x+y+z+A+B+C+F+D+E+a+b+c+d+e+f+g+h+i+j+k+l+m+n+o+p+q+r+s+t+u+v+w+x+y+z+A+B+C+D+E+a+b+c+d+e+f+g+h+i+j+k+l+m+n+o+p+q+r+s+t+u+v+w+x+y+z+A+B+C+F+D+E+a+b+c+d+e+f+g+h+i+j+k+l+m+n+o+p+q+r+s+t+u+v+w+x+y+z+A+B+C+F+D+E+a+b+c+d+e+f+g+h+i+j+k+l+m+n+o+p+q+r+s+t+u+v+w+x+y+z+A+B+C+F+D+E+a+b+c+d+e+f+g+h+i+j+k+l+m+n+o+p+q+r+s+t+u+v+w+x+y+z+A+B+C+F+D+E+a+b+c+d+e+f+g+h+i+j+k+l+m+n+o+p+q+r+s+t+u+v+w+x+y+z+A+B+C+D+E+a+b+c+d+e+f+g+h+i+j+k+l+m+n+o+p+q+r+s+t+u+v+w+x+y+z+A+B+",
"G+H+I+J+K+L+M+N+O+P+..Q+R+S+T+U+V+W+X+Y+Z+`+ @.@+@@@#@$@%@&@*@G+H+I+J+K+L+M+N+O+P+..Q+R+S+T+U+V+W+X+Y+Z+`+ @.@+@@@#@$@%@&@*@G+H+I+J+K+L+M+N+O+P+..Q+R+S+T+U+V+W+X+Y+Z+`+ @.@+@@@#@$@%@=@&@*@G+H+I+J+K+L+M+N+O+P+..Q+R+S+T+U+V+W+X+Y+Z+`+ @.@+@@@#@$@%@&@*@G+H+I+J+K+L+M+N+O+P+..Q+R+S+T+U+V+W+X+Y+Z+`+ @.@+@@@#@$@%@&@*@G+H+I+J+K+L+M+N+O+P+..Q+R+S+T+U+V+W+X+Y+Z+`+ @.@+@@@#@$@%@&@*@G+H+I+J+K+L+M+N+O+P+..Q+R+S+T+U+V+W+X+Y+Z+`+ @.@+@@@#@$@%@=@&@*@G+H+I+J+K+L+M+N+O+P+..Q+R+S+T+U+V+W+X+Y+Z+`+ @.@+@@@#@$@%@&@*@G+H+I+J+K+L+M+N+O+P+..Q+R+S+T+U+V+W+X+Y+Z+`+ @.@+@@@#@$@%@=@&@*@G+H+I+J+K+L+M+N+O+P+..Q+R+S+T+U+V+W+X+Y+Z+`+ @.@+@@@#@$@%@&@*@G+H+I+J+K+L+M+N+O+P+..Q+R+S+T+U+V+W+X+Y+Z+`+ @.@+@@@#@$@%@=@&@*@G+H+I+J+K+L+M+N+O+P+..Q+R+S+T+U+V+W+X+Y+Z+`+ @.@+@@@#@$@%@=@&@*@G+H+I+J+K+L+M+N+O+P+..Q+R+S+T+U+V+W+X+Y+Z+`+ @.@+@@@#@$@%@=@&@*@G+H+I+J+K+L+M+N+O+P+..Q+R+S+T+U+V+W+X+Y+Z+`+ @.@+@@@#@$@%@=@&@*@G+H+I+J+K+L+M+N+O+P+..Q+R+S+T+U+V+W+X+Y+Z+`+ @.@+@@@#@$@%@&@*@G+H+I+J+K+L+M+N+O+P+..Q+R+S+T+U+V+W+X+Y+Z+`+ @.@+@@@#@$@",
"-@;@>@,@'@)@!@~@{@]@^@/@(@_@t.:@<@[@}@|@1@2@3@4@5@6@7@8@9@0@a@-@;@>@,@'@)@!@~@{@]@^@/@(@_@t.:@<@[@}@|@1@2@3@4@5@6@7@8@9@0@a@-@;@>@,@'@)@!@~@{@]@^@/@(@_@t.:@<@[@}@|@1@2@3@4@5@6@7@8@9@b@0@a@-@;@>@,@'@)@!@~@{@]@^@/@(@_@t.:@<@[@}@|@1@2@3@4@5@6@7@8@9@0@a@-@;@>@,@'@)@!@~@{@]@^@/@(@_@t.:@<@[@}@|@1@2@3@4@5@6@7@8@9@0@a@-@;@>@,@'@)@!@~@{@]@^@/@(@_@t.:@<@[@}@|@1@2@3@4@5@6@7@8@9@0@a@-@;@>@,@'@)@!@~@{@]@^@/@(@_@t.:@<@[@}@|@1@2@3@4@5@6@7@8@9@b@0@a@-@;@>@,@'@)@!@~@{@]@^@/@(@_@t.:@<@[@}@|@1@2@3@4@5@6@7@8@9@0@a@-@;@>@,@'@)@!@~@{@]@^@/@(@_@t.:@<@[@}@|@1@2@3@4@5@6@7@8@9@b@0@a@-@;@>@,@'@)@!@~@{@]@^@/@(@_@t.:@<@[@}@|@1@2@3@4@5@6@7@8@9@0@a@-@;@>@,@'@)@!@~@{@]@^@/@(@_@t.:@<@[@}@|@1@2@3@4@5@6@7@8@9@b@0@a@-@;@>@,@'@)@!@~@{@]@^@/@(@_@t.:@<@[@}@|@1@2@3@4@5@6@7@8@9@b@0@a@-@;@>@,@'@)@!@~@{@]@^@/@(@_@t.:@<@[@}@|@1@2@3@4@5@6@7@8@9@b@0@a@-@;@>@,@'@)@!@~@{@]@^@/@(@_@t.:@<@[@}@|@1@2@3@4@5@6@7@8@9@b@0@a@-@;@>@,@'@)@!@~@{@]@^@/@(@_@t.:@<@[@}@|@1@2@3@4@5@6@7@8@9@0@a@-@;@>@,@'@)@!@~@{@]@^@/@(@_@t.:@<@[@}@|@1@2@3@4@5@6@7@8@",
"c@d@e@f@g@h@i@j@k@l@m@n@o@p@q@r@s@t@u@v@w@x@y@z@A@B@Q+C@D@E@F@c@d@e@f@g@h@i@j@k@l@m@n@o@p@q@r@s@t@u@v@w@x@y@z@A@B@Q+C@D@E@F@c@d@e@f@g@h@i@j@k@l@m@n@o@p@q@r@s@t@u@v@w@x@y@z@A@B@Q+C@D@G@E@F@c@d@e@f@g@h@i@j@k@l@m@n@o@p@q@r@s@t@u@v@w@x@y@z@A@B@Q+C@D@E@F@c@d@e@f@g@h@i@j@k@l@m@n@o@p@q@r@s@t@u@v@w@x@y@z@A@B@Q+C@D@E@F@c@d@e@f@g@h@i@j@k@l@m@n@o@p@q@r@s@t@u@v@w@x@y@z@A@B@Q+C@D@E@F@c@d@e@f@g@h@i@j@k@l@m@n@o@p@q@r@s@t@u@v@w@x@y@z@A@B@Q+C@D@G@E@F@c@d@e@f@g@h@i@j@k@l@m@n@o@p@q@r@s@t@u@v@w@x@y@z@A@B@Q+C@D@E@F@c@d@e@f@g@h@i@j@k@l@m@n@o@p@q@r@s@t@u@v@w@x@y@z@A@B@Q+C@D@G@E@F@c@d@e@f@g@h@i@j@k@l@m@n@o@p@q@r@s@t@u@v@w@x@y@z@A@B@Q+C@D@E@F@c@d@e@f@g@h@i@j@k@l@m@n@o@p@q@r@s@t@u@v@w@x@y@z@A@B@Q+C@D@G@E@F@c@d@e@f@g@h@i@j@k@l@m@n@o@p@q@r@s@t@u@v@w@x@y@z@A@B@Q+C@D@G@E@F@c@d@e@f@g@h@i@j@k@l@m@n@o@p@q@r@s@t@u@v@w@x@y@z@A@B@Q+C@D@G@E@F@c@d@e@f@g@h@i@j@k@l@m@n@o@p@q@r@s@t@u@v@w@x@y@z@A@B@Q+C@D@G@E@F@c@d@e@f@g@h@i@j@k@l@m@n@o@p@q@r@s@t@u@v@w@x@y@z@A@B@Q+C@D@E@F@c@d@e@f@g@h@i@j@k@l@m@n@o@p@q@r@s@t@u@v@w@x@y@z@A@B@Q+C@",
"H@I@J@K@L@M@N@O@P@Q@R@S@T@U@V@W@X@Y@Z@`@ #.#+#@###$#%#&#*#=#-#H@I@J@K@L@M@N@O@P@Q@R@S@T@U@V@W@X@Y@Z@`@ #.#+#@###$#%#&#*#=#-#H@I@J@K@L@M@N@O@P@Q@R@S@T@U@V@W@X@Y@Z@`@ #.#+#@###$#%#&#*#;#=#-#H@I@J@K@L@M@N@O@P@Q@R@S@T@U@V@W@X@Y@Z@`@ #.#+#@###$#%#&#*#=#-#H@I@J@K@L@M@N@O@P@Q@R@S@T@U@V@W@X@Y@Z@`@ #.#+#@###$#%#&#*#=#-#H@I@J@K@L@M@N@O@P@Q@R@S@T@U@V@W@X@Y@Z@`@ #.#+#@###$#%#&#*#=#-#H@I@J@K@L@M@N@O@P@Q@R@S@T@U@V@W@X@Y@Z@`@ #.#+#@###$#%#&#*#;#=#-#H@I@J@K@L@M@N@O@P@Q@R@S@T@U@V@W@X@Y@Z@`@ #.#+#@###$#%#&#*#=#-#H@I@J@K@L@M@N@O@P@Q@R@S@T@U@V@W@X@Y@Z@`@ #.#+#@###$#%#&#*#;#=#-#H@I@J@K@L@M@N@O@P@Q@R@S@T@U@V@W@X@Y@Z@`@ #.#+#@###$#%#&#*#=#-#H@I@J@K@L@M@N@O@P@Q@R@S@T@U@V@W@X@Y@Z@`@ #.#+#@###$#%#&#*#;#=#-#H@I@J@K@L@M@N@O@P@Q@R@S@T@U@V@W@X@Y@Z@`@ #.#+#@###$#%#&#*#;#=#-#H@I@J@K@L@M@N@O@P@Q@R@S@T@U@V@W@X@Y@Z@`@ #.#+#@###$#%#&#*#;#=#-#H@I@J@K@L@M@N@O@P@Q@R@S@T@U@V@W@X@Y@Z@`@ #.#+#@###$#%#&#*#;#=#-#H@I@J@K@L@M@N@O@P@Q@R@S@T@U@V@W@X@Y@Z@`@ #.#+#@###$#%#&#*#=#-#H@I@J@K@L@M@N@O@P@Q@R@S@T@U@V@W@X@Y@Z@`@ #.#+#@###$#%#&#"};
