/* XPM */
static char * Pinkwtitle01_xpm[] = {
"21 12 10 1",
" 	c #FC5FFB",
".	c #FC49FB",
"+	c #FC33FB",
"@	c #F715F2",
"#	c #EF08E2",
"$	c #EB06D6",
"%	c #E306C9",
"&	c #F71EF2",
"*	c #FC42FB",
"=	c #FC74FB",
"                     ",
".....................",
"+++++++++++++++++++++",
"@@@@@@@@@@@@@@@@@@@@@",
"#####################",
"$$$$$$$$$$$$$$$$$$$$$",
"%%%%%%%%%%%%%%%%%%%%%",
"#####################",
"&&&&&&&&&&&&&&&&&&&&&",
"*********************",
"                     ",
"====================="};
