/* XPM */
static char * pinksunshade_xpm[] = {
"12 12 63 1",
" 	c None",
".	c #C901C6",
"+	c #C701C4",
"@	c #C201BF",
"#	c #D401D0",
"$	c #D201CE",
"%	c #C601BC",
"&	c #94026F",
"*	c #7F0250",
"=	c #D501D1",
"-	c #D201CC",
";	c #B801A4",
">	c #850256",
",	c #AB0191",
"'	c #CF01C8",
")	c #DB01D8",
"!	c #DA01D7",
"~	c #DA01D6",
"{	c #CA01BE",
"]	c #8C0260",
"^	c #8B0260",
"/	c #CA01BF",
"(	c #DC01D9",
"_	c #DC01D8",
":	c #D501CE",
"<	c #AF0196",
"[	c #8A025D",
"}	c #C901BD",
"|	c #E001DD",
"1	c #DF01DC",
"2	c #DC01D7",
"3	c #CF01C4",
"4	c #BF01AB",
"5	c #8D0263",
"6	c #DE01D9",
"7	c #D301C9",
"8	c #DA01D4",
"9	c #C601B6",
"0	c #9C0277",
"a	c #8F0264",
"b	c #C301B2",
"c	c #DD01D9",
"d	c #E101DE",
"e	c #E801E4",
"f	c #D601CA",
"g	c #9D0278",
"h	c #B901A1",
"i	c #A70287",
"j	c #C801B7",
"k	c #D301C6",
"l	c #E301DD",
"m	c #E701E3",
"n	c #D301C5",
"o	c #830251",
"p	c #860256",
"q	c #BA01A2",
"r	c #E101DA",
"s	c #900265",
"t	c #9E0279",
"u	c #DA01CF",
"v	c #E401DF",
"w	c #D701CA",
"x	c #D701CB",
".....+@@@+..",
"#$$$$%&*&%$#",
"#====-;>,'=#",
")!!!!~{]^/!)",
")((((_:<[}()",
"|111234[531|",
"|67890aabcd|",
"efghijkflmme",
"enopqreeeeee",
"efsotueeeeee",
"evwnxveeeeee",
"eeeeeeeeeeee"};
