/* XPM */
static char * pinkchain_xpm[] = {
"12 12 9 1",
" 	c None",
".	c #C901C6",
"+	c #D401D0",
"@	c #8C018A",
"#	c #DB01D8",
"$	c #69022C",
"%	c #E001DD",
"&	c #BA01B7",
"*	c #E801E4",
"............",
"+++++++++.++",
"+++++++.@@.+",
"######.$#@.#",
"#####.@#$..#",
"%%%%.&$$..%%",
"%%%.@$&.%%%%",
"**.$*$.*****",
"*.@*$.******",
"*.@$..******",
"*....*******",
"************"};
