/* XPM */
static char * PinkSM_xpm[] = {
"21 17 96 2",
"  	c None",
". 	c #F77EF7",
"+ 	c #F799F7",
"@ 	c #FAA7FA",
"# 	c #FAA6FA",
"$ 	c #F597F0",
"% 	c #F090E6",
"& 	c #F395EB",
"* 	c #F496ED",
"= 	c #F090E5",
"- 	c #F99DF7",
"; 	c #FAA0FA",
"> 	c #FA9FFA",
", 	c #F091E5",
"' 	c #F496EC",
") 	c #F599F0",
"! 	c #FAA8FB",
"~ 	c #FAA8FA",
"{ 	c #FA9CF9",
"] 	c #FA9CFA",
"^ 	c #F18DE6",
"/ 	c #E57CCD",
"( 	c #E77FD2",
"_ 	c #EB84D9",
": 	c #E47BCC",
"< 	c #E982D5",
"[ 	c #F493EE",
"} 	c #FA9BF9",
"| 	c #EB85D9",
"1 	c #E780D2",
"2 	c #F18EE6",
"3 	c #FA9EFA",
"4 	c #F99EF9",
"5 	c #F992F9",
"6 	c #F386ED",
"7 	c #E875D4",
"8 	c #E370CB",
"9 	c #EA79D8",
"0 	c #E673D1",
"a 	c #E471CC",
"b 	c #F082E5",
"c 	c #F88EF6",
"d 	c #F990F9",
"e 	c #E674D1",
"f 	c #E876D4",
"g 	c #F387ED",
"h 	c #F993F9",
"i 	c #F994F9",
"j 	c #F77BF5",
"k 	c #F274EC",
"l 	c #EF6FE4",
"m 	c #F274EB",
"n 	c #F273EA",
"o 	c #F476EE",
"p 	c #F87CF7",
"q 	c #F87DF8",
"r 	c #EF70E4",
"s 	c #F274EA",
"t 	c #F275EC",
"u 	c #F768F7",
"v 	c #F867F8",
"w 	c #F766F6",
"x 	c #F665F5",
"y 	c #F766F7",
"z 	c #F74DF7",
"A 	c #F751F7",
"B 	c #F739F7",
"C 	c #F746F7",
"D 	c #F650F6",
"E 	c #F64FF4",
"F 	c #F765F5",
"G 	c #F260EB",
"H 	c #EE5CE4",
"I 	c #F261EC",
"J 	c #F665F4",
"K 	c #E766D3",
"L 	c #E261C9",
"M 	c #E969D8",
"N 	c #ED6EE1",
"O 	c #F376EE",
"P 	c #E471CB",
"Q 	c #E26FC8",
"R 	c #E26EC7",
"S 	c #E472CB",
"T 	c #F083E5",
"U 	c #F594F0",
"V 	c #EF8CE3",
"W 	c #E47ACB",
"X 	c #EB86D9",
"Y 	c #EF8DE3",
"Z 	c #F596F0",
"` 	c #F89CF5",
" .	c #F497EE",
"..	c #F99EF7",
"+.	c #F89DF5",
"@.	c #FA9FF9",
". . . . . . . . . . . . . . . . . . . . . ",
"+ + + + + + + + + + + + + + + + + + + + + ",
"@ # $ % & * = * - ; ; > - * , ' & , ) ! ~ ",
"{ ] ^ / ( _ : < [ } ] } [ < : | 1 / 2 3 4 ",
"5 5 6 7 8 9 0 a b c d c b a e 9 8 f g h i ",
". . j k l m n l o p q p o r s m r t j . . ",
"u u v w x w w x y v v v y x w w x w v u u ",
"z z A A A A A A A A A A A A A A A A A z z ",
"B B C C C C C C C C C C C C C C C C C B B ",
"z z A D E D A A A A A A A A A D E D A z z ",
"u u F G H I J y v v v v v y J I H G F u u ",
". . t K L M N O p q q q p O N M L K t . . ",
"5 5 b P Q R 8 b c d d d c b 8 R Q S T h i ",
"{ ] U V | W < [ } ] ] ] } [ < W X Y Z 3 4 ",
"@ # 4 `  .= * ..; ; ; ; > - * ,  .+.@.! ~ ",
"+ + + + + + + + + + + + + + + + + + + + + ",
". . . . . . . . . . . . . . . . . . . . . "};
