/* XPM */
static char * pinkminpressbat_xpm[] = {
"12 12 16 1",
" 	c None",
".	c #C901C6",
"+	c #D401D0",
"@	c #C701C3",
"#	c #A601A4",
"$	c #91018F",
"%	c #DB01D8",
"&	c #CC01C9",
"*	c #61022A",
"=	c #9E019C",
"-	c #5E0228",
";	c #E001DD",
">	c #C401C1",
",	c #8C018A",
"'	c #E801E4",
")	c #940192",
"............",
"++++@++@++++",
"+++@#$$#@+++",
"%%%%&**&%%%%",
"%%%&=--=&%%%",
";;&=->>-=&;;",
";&=,&;;&,=&;",
"'&)&''''&)&'",
"'&&''''''&&'",
"''''''''''''",
"''''''''''''",
"''''''''''''"};
