/* XPM */
static char * PinkBubbleBottomFcs_xpm[] = {
"10 4 5 1",
" 	c None",
".	c #D301CC",
"+	c #A801A2",
"@	c #6F016B",
"#	c #51014F",
"..........",
"++++++++++",
"@@@@@@@@@@",
"##########"};
