/* XPM */
static char * PinkBubbleBottomGrp_xpm[] = {
"19 4 31 1",
" 	c None",
".	c #D301CC",
"+	c #D101CA",
"@	c #D001CA",
"#	c #C801C2",
"$	c #D001C9",
"%	c #C801C1",
"&	c #A801A2",
"*	c #A601A0",
"=	c #9D0198",
"-	c #7A0278",
";	c #980194",
">	c #A3019E",
",	c #A501A0",
"'	c #950191",
")	c #720270",
"!	c #6F016B",
"~	c #6C0168",
"{	c #61015E",
"]	c #5A0358",
"^	c #5D035A",
"/	c #650262",
"(	c #4E024C",
"_	c #3E033D",
":	c #51014F",
"<	c #520150",
"[	c #50014D",
"}	c #4C014B",
"|	c #4E014D",
"1	c #460144",
"2	c #3A0239",
"..+@#@..$%$..@#@+..",
"&&*=-;>,')',>;-=*&&",
"!!!~{]^/(_(/^]{~!!!",
"::<:[}}|121|}}[:<::"};
