/* XPM */
static char * pinkdraco02_xpm[] = {
"360 12 379 2",
"  	c None",
". 	c #C000BA",
"+ 	c #E802E9",
"@ 	c #B901B7",
"# 	c #990894",
"$ 	c #B100AE",
"% 	c #B301AC",
"& 	c #8C0196",
"* 	c #F604E7",
"= 	c #BE01BB",
"- 	c #C506B9",
"; 	c #DC02D4",
"> 	c #C709C7",
", 	c #AD00A2",
"' 	c #BB01A3",
") 	c #B706B4",
"! 	c #B001AB",
"~ 	c #B401B4",
"{ 	c #BD06BA",
"] 	c #E206DB",
"^ 	c #A500A7",
"/ 	c #D302D5",
"( 	c #B605AE",
"_ 	c #CB01BE",
": 	c #B202AA",
"< 	c #A00192",
"[ 	c #A7039B",
"} 	c #A00199",
"| 	c #BD05B9",
"1 	c #9A009D",
"2 	c #A20199",
"3 	c #B000A6",
"4 	c #97039A",
"5 	c #D300CF",
"6 	c #F007EF",
"7 	c #AC00A0",
"8 	c #A8079D",
"9 	c #A900A1",
"0 	c #A4039B",
"a 	c #E001CF",
"b 	c #BE08D4",
"c 	c #F101E2",
"d 	c #DB00D4",
"e 	c #E001D0",
"f 	c #B904B6",
"g 	c #A800A4",
"h 	c #A7019A",
"i 	c #A501A9",
"j 	c #C402C5",
"k 	c #AA049C",
"l 	c #B3019E",
"m 	c #AE06A8",
"n 	c #AF04A6",
"o 	c #D400D8",
"p 	c #DF02E0",
"q 	c #CD08C8",
"r 	c #AA009F",
"s 	c #A7009F",
"t 	c #A9009B",
"u 	c #BC00A9",
"v 	c #BE02B5",
"w 	c #9E0198",
"x 	c #A00293",
"y 	c #A402A0",
"z 	c #B104AD",
"A 	c #ED06E8",
"B 	c #D101C9",
"C 	c #A7049E",
"D 	c #AA00A3",
"E 	c #AD00AB",
"F 	c #AA02A8",
"G 	c #D603DA",
"H 	c #920197",
"I 	c #D409D3",
"J 	c #FF01FB",
"K 	c #98019A",
"L 	c #D709CE",
"M 	c #AA00A9",
"N 	c #B301A9",
"O 	c #C508BA",
"P 	c #D000D7",
"Q 	c #A70395",
"R 	c #A508A1",
"S 	c #A602A0",
"T 	c #CB02BA",
"U 	c #AD01A8",
"V 	c #F305F5",
"W 	c #B100B3",
"X 	c #B908B4",
"Y 	c #B400B6",
"Z 	c #AE04A0",
"` 	c #CD03BF",
" .	c #A500A1",
"..	c #980594",
"+.	c #AB00A4",
"@.	c #9F0299",
"#.	c #BE05AF",
"$.	c #C210CE",
"%.	c #C200BA",
"&.	c #AF01A4",
"*.	c #A805A1",
"=.	c #AA049F",
"-.	c #CF00D6",
";.	c #BA01B7",
">.	c #9C059B",
",.	c #B603B8",
"'.	c #BD00BA",
").	c #9E02A0",
"!.	c #E300DF",
"~.	c #BE06C7",
"{.	c #C100AF",
"].	c #DB05D7",
"^.	c #C801B8",
"/.	c #A408A4",
"(.	c #B2009E",
"_.	c #B802AE",
":.	c #C100BC",
"<.	c #A00196",
"[.	c #B504AF",
"}.	c #9A0195",
"|.	c #D503C7",
"1.	c #C600C5",
"2.	c #C401BE",
"3.	c #C402BE",
"4.	c #A003A3",
"5.	c #9A038F",
"6.	c #B200A2",
"7.	c #AB019F",
"8.	c #BD01C0",
"9.	c #AF00AC",
"0.	c #D904BD",
"a.	c #C002B3",
"b.	c #BF00AE",
"c.	c #CC02CE",
"d.	c #E509D3",
"e.	c #AD00A9",
"f.	c #A804A8",
"g.	c #AA01AA",
"h.	c #A5029E",
"i.	c #DD08D9",
"j.	c #D709D0",
"k.	c #E902E3",
"l.	c #DA00D6",
"m.	c #CA02C8",
"n.	c #AE01AF",
"o.	c #B1029E",
"p.	c #AE02AB",
"q.	c #C707C0",
"r.	c #BB02B7",
"s.	c #A00698",
"t.	c #A2019F",
"u.	c #BA00B3",
"v.	c #BC04BA",
"w.	c #D904DE",
"x.	c #D701CF",
"y.	c #A604A2",
"z.	c #A601A1",
"A.	c #AC039C",
"B.	c #AF04A7",
"C.	c #BD00B5",
"D.	c #BB04BE",
"E.	c #C804C5",
"F.	c #C904C6",
"G.	c #D105C8",
"H.	c #CD02C9",
"I.	c #F402E3",
"J.	c #B602AF",
"K.	c #AF03A9",
"L.	c #B100AC",
"M.	c #A6009D",
"N.	c #AD05A2",
"O.	c #F001DF",
"P.	c #9C03A8",
"Q.	c #D705D4",
"R.	c #FA00ED",
"S.	c #B200B3",
"T.	c #C70BD0",
"U.	c #BF00AB",
"V.	c #BD04C3",
"W.	c #C201BD",
"X.	c #AD01A6",
"Y.	c #AB05A8",
"Z.	c #C305BB",
"`.	c #9D069F",
" +	c #BD04BC",
".+	c #B802B0",
"++	c #960092",
"@+	c #BA05B4",
"#+	c #B800AA",
"$+	c #B102AD",
"%+	c #C702BF",
"&+	c #AD01AE",
"*+	c #E103D5",
"=+	c #97009C",
"-+	c #D801D1",
";+	c #F808F3",
">+	c #BB02B9",
",+	c #B507AB",
"'+	c #BC03B5",
")+	c #B500A9",
"!+	c #B103A1",
"~+	c #CD01C2",
"{+	c #B907B6",
"]+	c #AD00A5",
"^+	c #B005A4",
"/+	c #C700CC",
"(+	c #AB00AD",
"_+	c #F70FFE",
":+	c #C702C3",
"<+	c #D403D4",
"[+	c #BA00B1",
"}+	c #A5059A",
"|+	c #AC00A6",
"1+	c #B903B5",
"2+	c #C501C3",
"3+	c #A103A2",
"4+	c #A20198",
"5+	c #9E04A1",
"6+	c #A5009E",
"7+	c #C403C8",
"8+	c #C501BF",
"9+	c #C807BF",
"0+	c #BC02B7",
"a+	c #9F009F",
"b+	c #CD02CC",
"c+	c #900789",
"d+	c #D400D7",
"e+	c #98038A",
"f+	c #DA03DF",
"g+	c #BC00AC",
"h+	c #C004BD",
"i+	c #C800B5",
"j+	c #E701DD",
"k+	c #AE00A6",
"l+	c #A0089F",
"m+	c #AD02AB",
"n+	c #D80AE0",
"o+	c #DA05E1",
"p+	c #FF01FC",
"q+	c #AE01BE",
"r+	c #C30CBF",
"s+	c #B600AD",
"t+	c #B203A4",
"u+	c #E000DA",
"v+	c #B304AD",
"w+	c #9E019A",
"x+	c #A1039A",
"y+	c #9B009B",
"z+	c #B204AB",
"A+	c #C205B7",
"B+	c #F200ED",
"C+	c #C809BB",
"D+	c #B403B4",
"E+	c #A3029C",
"F+	c #A102A6",
"G+	c #B300A8",
"H+	c #A001A0",
"I+	c #A9019D",
"J+	c #C600D1",
"K+	c #D601D0",
"L+	c #EE03E1",
"M+	c #FB02E7",
"N+	c #BE03B9",
"O+	c #A5009C",
"P+	c #AD03A2",
"Q+	c #A602A7",
"R+	c #BD00B4",
"S+	c #BC05B6",
"T+	c #920792",
"U+	c #E800EB",
"V+	c #850982",
"W+	c #D007D3",
"X+	c #C500C2",
"Y+	c #C800C4",
"Z+	c #D708D8",
"`+	c #A5019B",
" @	c #A1049B",
".@	c #A7009B",
"+@	c #A600A1",
"@@	c #B507B2",
"#@	c #A20299",
"$@	c #C603C1",
"%@	c #AD01A4",
"&@	c #AB03A6",
"*@	c #C202C9",
"=@	c #B102B3",
"-@	c #AA04AA",
";@	c #A7029D",
">@	c #D908EA",
",@	c #A00091",
"'@	c #D60ACF",
")@	c #F301E5",
"!@	c #CB01E2",
"~@	c #A80997",
"{@	c #AD00A6",
"]@	c #BD04B3",
"^@	c #BE00B9",
"/@	c #D105CC",
"(@	c #B103A7",
"_@	c #A803A4",
":@	c #A900A6",
"<@	c #B206AE",
"[@	c #D201D0",
"}@	c #E904E2",
"|@	c #E708E1",
"1@	c #BB00B7",
"2@	c #AA01A2",
"3@	c #AE07A9",
"4@	c #B200A6",
"5@	c #BF08B7",
"6@	c #A301A1",
"7@	c #95048C",
"8@	c #A703A0",
"9@	c #A704A6",
"0@	c #AA01AB",
"a@	c #DB06E4",
"b@	c #B205AA",
"c@	c #B200A5",
"d@	c #B2049E",
"e@	c #C900D0",
"f@	c #D205D9",
"g@	c #930294",
"h@	c #B508AF",
"i@	c #F000E1",
"j@	c #99079F",
"k@	c #DE04DC",
"l@	c #C201BE",
"m@	c #C102C6",
"n@	c #F000D8",
"o@	c #C903D0",
"p@	c #9B0294",
"q@	c #B501A8",
"r@	c #A30799",
"s@	c #C801C6",
"t@	c #A701A5",
"u@	c #F208EF",
"v@	c #C702C2",
"w@	c #A90AAA",
"x@	c #B300B3",
"y@	c #B601B7",
"z@	c #C703BD",
"A@	c #C403BC",
"B@	c #8F0188",
"C@	c #9B0194",
"D@	c #A902A5",
"E@	c #AA01A9",
"F@	c #B501C3",
"G@	c #E311E3",
"H@	c #C100C7",
"I@	c #B200AB",
"J@	c #B900B1",
"K@	c #F303F2",
"L@	c #AC00A9",
"M@	c #B900AB",
"N@	c #AC02A5",
"O@	c #A203A0",
"P@	c #B307B5",
"Q@	c #FC0BFF",
"R@	c #E102DC",
"S@	c #CF02DA",
"T@	c #F607EF",
"U@	c #AE01B8",
"V@	c #B403A8",
"W@	c #B800B5",
"X@	c #C705BE",
"Y@	c #A802A5",
"Z@	c #B004B0",
"`@	c #9D0499",
" #	c #B506B0",
".#	c #D200CF",
"+#	c #C301C1",
"@#	c #DA04DE",
"##	c #A1029F",
"$#	c #A303A2",
"%#	c #9E008D",
"&#	c #A404A2",
"*#	c #B803B0",
"=#	c #B903B3",
"-#	c #DB0DE0",
". + @ # $ % & * = - ; > , ' ) ! ~ { ] ^ / ( _ : < [ } | 1 2 3 . + @ # $ % & * = - ; > , ' ) ! ~ { ] ^ / ( _ : < [ } | 1 2 3 . + @ # $ % & * = - ; > , ' ) ! ~ { ] ^ / ( _ : < [ } | 1 2 3 . + @ # $ % & * = - ; . + @ # $ % & * = - ; > , ' ) ! ~ { ] ^ / ( _ : < [ } | 1 2 3 . + @ # $ % & * = - ; > , ' ) ! ~ { ] ^ / ( _ : < [ } | 1 2 3 . + @ # $ % & * = - ; > , ' ) ! ~ { ] ^ / ( _ : < [ } | 1 2 3 . + @ # $ % & * = - ; > , ' ) ! ~ { ] ^ / ( _ : < [ } . + @ # $ % & * = - ; > , ' ) ! ~ { ] ^ / ( _ : < [ } | 1 2 3 4 . + @ # $ % & * = - ; > , ' ) ! ~ { ] ^ / ( _ : < [ } | . + @ # $ % & * = - ; > , ' ) ! ~ { ] ^ = - ; > , ' ) ! ~ { ] ^ / ( _ : < [ } . + @ # $ % & * = - ; > , ' ) ! ~ { ] ^ / ( _ : < [ } | 1 2 3 4 . + @ # $ ",
"5 6 7 8 9 0 a b c d e f g h i j k l m n o p q r s t u v w x y 5 6 7 8 9 0 a b c d e f g h i j k l m n o p q r s t u v w x y 5 6 7 8 9 0 a b c d e f g h i j k l m n o p q r s t u v w x y 5 6 7 8 9 0 a b c d e 5 6 7 8 9 0 a b c d e f g h i j k l m n o p q r s t u v w x y 5 6 7 8 9 0 a b c d e f g h i j k l m n o p q r s t u v w x y 5 6 7 8 9 0 a b c d e f g h i j k l m n o p q r s t u v w x y 5 6 7 8 9 0 a b c d e f g h i j k l m n o p q r s t u 5 6 7 8 9 0 a b c d e f g h i j k l m n o p q r s t u v w x y z 5 6 7 8 9 0 a b c d e f g h i j k l m n o p q r s t u v 5 6 7 8 9 0 a b c d e f g h i j k l m n c d e f g h i j k l m n o p q r s t u 5 6 7 8 9 0 a b c d e f g h i j k l m n o p q r s t u v w x y z 5 6 7 8 9 ",
"A B C D E F G H I J K L M N O P Q R S T U V W X Y Z `  ...+.@.A B C D E F G H I J K L M N O P Q R S T U V W X Y Z `  ...+.@.A B C D E F G H I J K L M N O P Q R S T U V W X Y Z `  ...+.@.A B C D E F G H I J K A B C D E F G H I J K L M N O P Q R S T U V W X Y Z `  ...+.@.A B C D E F G H I J K L M N O P Q R S T U V W X Y Z `  ...+.@.A B C D E F G H I J K L M N O P Q R S T U V W X Y Z `  ...+.@.A B C D E F G H I J K L M N O P Q R S T U V W X Y Z ` A B C D E F G H I J K L M N O P Q R S T U V W X Y Z `  ...+.@.#.A B C D E F G H I J K L M N O P Q R S T U V W X Y Z `  .A B C D E F G H I J K L M N O P Q R S T I J K L M N O P Q R S T U V W X Y Z ` A B C D E F G H I J K L M N O P Q R S T U V W X Y Z `  ...+.@.#.A B C D E ",
"$.%.&.*.=.-.;.>.,.'.).!.~.{.].^./.(._.:.<.[.}.|.1.2.3.4.5.6.7.$.%.&.*.=.-.;.>.,.'.).!.~.{.].^./.(._.:.<.[.}.|.1.2.3.4.5.6.7.$.%.&.*.=.-.;.>.,.'.).!.~.{.].^./.(._.:.<.[.}.|.1.2.3.4.5.6.7.$.%.&.*.=.-.;.>.,.'.).$.%.&.*.=.-.;.>.,.'.).!.~.{.].^./.(._.:.<.[.}.|.1.2.3.4.5.6.7.$.%.&.*.=.-.;.>.,.'.).!.~.{.].^./.(._.:.<.[.}.|.1.2.3.4.5.6.7.$.%.&.*.=.-.;.>.,.'.).!.~.{.].^./.(._.:.<.[.}.|.1.2.3.4.5.6.7.$.%.&.*.=.-.;.>.,.'.).!.~.{.].^./.(._.:.<.[.}.|.1.2.3.$.%.&.*.=.-.;.>.,.'.).!.~.{.].^./.(._.:.<.[.}.|.1.2.3.4.5.6.7.8.$.%.&.*.=.-.;.>.,.'.).!.~.{.].^./.(._.:.<.[.}.|.1.2.3.4.$.%.&.*.=.-.;.>.,.'.).!.~.{.].^./.(._.:.,.'.).!.~.{.].^./.(._.:.<.[.}.|.1.2.3.$.%.&.*.=.-.;.>.,.'.).!.~.{.].^./.(._.:.<.[.}.|.1.2.3.4.5.6.7.8.$.%.&.*.=.",
"9.0.a.b.c.d.e.f.g.h.i.j.k.l.m.n.o.p.q.r.s.t.u.v.w.x.y.z.A.B.C.9.0.a.b.c.d.e.f.g.h.i.j.k.l.m.n.o.p.q.r.s.t.u.v.w.x.y.z.A.B.C.9.0.a.b.c.d.e.f.g.h.i.j.k.l.m.n.o.p.q.r.s.t.u.v.w.x.y.z.A.B.C.9.0.a.b.c.d.e.f.g.h.i.9.0.a.b.c.d.e.f.g.h.i.j.k.l.m.n.o.p.q.r.s.t.u.v.w.x.y.z.A.B.C.9.0.a.b.c.d.e.f.g.h.i.j.k.l.m.n.o.p.q.r.s.t.u.v.w.x.y.z.A.B.C.9.0.a.b.c.d.e.f.g.h.i.j.k.l.m.n.o.p.q.r.s.t.u.v.w.x.y.z.A.B.C.9.0.a.b.c.d.e.f.g.h.i.j.k.l.m.n.o.p.q.r.s.t.u.v.w.x.y.9.0.a.b.c.d.e.f.g.h.i.j.k.l.m.n.o.p.q.r.s.t.u.v.w.x.y.z.A.B.C.D.9.0.a.b.c.d.e.f.g.h.i.j.k.l.m.n.o.p.q.r.s.t.u.v.w.x.y.z.9.0.a.b.c.d.e.f.g.h.i.j.k.l.m.n.o.p.q.r.g.h.i.j.k.l.m.n.o.p.q.r.s.t.u.v.w.x.y.9.0.a.b.c.d.e.f.g.h.i.j.k.l.m.n.o.p.q.r.s.t.u.v.w.x.y.z.A.B.C.D.9.0.a.b.c.",
"E.F.G.H.I.J.K.L.M.N.O.P.Q.R.S.T.U.V.W.X.} Y.Z.`. +.+++@+#+$+%+E.F.G.H.I.J.K.L.M.N.O.P.Q.R.S.T.U.V.W.X.} Y.Z.`. +.+++@+#+$+%+E.F.G.H.I.J.K.L.M.N.O.P.Q.R.S.T.U.V.W.X.} Y.Z.`. +.+++@+#+$+%+E.F.G.H.I.J.K.L.M.N.O.E.F.G.H.I.J.K.L.M.N.O.P.Q.R.S.T.U.V.W.X.} Y.Z.`. +.+++@+#+$+%+E.F.G.H.I.J.K.L.M.N.O.P.Q.R.S.T.U.V.W.X.} Y.Z.`. +.+++@+#+$+%+E.F.G.H.I.J.K.L.M.N.O.P.Q.R.S.T.U.V.W.X.} Y.Z.`. +.+++@+#+$+%+E.F.G.H.I.J.K.L.M.N.O.P.Q.R.S.T.U.V.W.X.} Y.Z.`. +.+++E.F.G.H.I.J.K.L.M.N.O.P.Q.R.S.T.U.V.W.X.} Y.Z.`. +.+++@+#+$+%+&+E.F.G.H.I.J.K.L.M.N.O.P.Q.R.S.T.U.V.W.X.} Y.Z.`. +.+++@+E.F.G.H.I.J.K.L.M.N.O.P.Q.R.S.T.U.V.W.X.M.N.O.P.Q.R.S.T.U.V.W.X.} Y.Z.`. +.+++E.F.G.H.I.J.K.L.M.N.O.P.Q.R.S.T.U.V.W.X.} Y.Z.`. +.+++@+#+$+%+&+E.F.G.H.I.",
"*+=+-+;+>+,+'+)+!+~+{+]+^+/+(+_+:+<+[+}+|+1+2+3+4+5+6+7+8+9+0+*+=+-+;+>+,+'+)+!+~+{+]+^+/+(+_+:+<+[+}+|+1+2+3+4+5+6+7+8+9+0+*+=+-+;+>+,+'+)+!+~+{+]+^+/+(+_+:+<+[+}+|+1+2+3+4+5+6+7+8+9+0+*+=+-+;+>+,+'+)+!+~+{+*+=+-+;+>+,+'+)+!+~+{+]+^+/+(+_+:+<+[+}+|+1+2+3+4+5+6+7+8+9+0+*+=+-+;+>+,+'+)+!+~+{+]+^+/+(+_+:+<+[+}+|+1+2+3+4+5+6+7+8+9+0+*+=+-+;+>+,+'+)+!+~+{+]+^+/+(+_+:+<+[+}+|+1+2+3+4+5+6+7+8+9+0+*+=+-+;+>+,+'+)+!+~+{+]+^+/+(+_+:+<+[+}+|+1+2+3+4+5+6+*+=+-+;+>+,+'+)+!+~+{+]+^+/+(+_+:+<+[+}+|+1+2+3+4+5+6+7+8+9+0+a+*+=+-+;+>+,+'+)+!+~+{+]+^+/+(+_+:+<+[+}+|+1+2+3+4+5+6+7+*+=+-+;+>+,+'+)+!+~+{+]+^+/+(+_+:+<+[+}+!+~+{+]+^+/+(+_+:+<+[+}+|+1+2+3+4+5+6+*+=+-+;+>+,+'+)+!+~+{+]+^+/+(+_+:+<+[+}+|+1+2+3+4+5+6+7+8+9+0+a+*+=+-+;+>+",
"b+c+G.d+e+f+g+h+i+j+k+l+9 m+n+o+p+q+r+s+t+u+v+w+x+y+z+A+B+C+D+b+c+G.d+e+f+g+h+i+j+k+l+9 m+n+o+p+q+r+s+t+u+v+w+x+y+z+A+B+C+D+b+c+G.d+e+f+g+h+i+j+k+l+9 m+n+o+p+q+r+s+t+u+v+w+x+y+z+A+B+C+D+b+c+G.d+e+f+g+h+i+j+k+b+c+G.d+e+f+g+h+i+j+k+l+9 m+n+o+p+q+r+s+t+u+v+w+x+y+z+A+B+C+D+b+c+G.d+e+f+g+h+i+j+k+l+9 m+n+o+p+q+r+s+t+u+v+w+x+y+z+A+B+C+D+b+c+G.d+e+f+g+h+i+j+k+l+9 m+n+o+p+q+r+s+t+u+v+w+x+y+z+A+B+C+D+b+c+G.d+e+f+g+h+i+j+k+l+9 m+n+o+p+q+r+s+t+u+v+w+x+y+z+b+c+G.d+e+f+g+h+i+j+k+l+9 m+n+o+p+q+r+s+t+u+v+w+x+y+z+A+B+C+D+E+b+c+G.d+e+f+g+h+i+j+k+l+9 m+n+o+p+q+r+s+t+u+v+w+x+y+z+A+b+c+G.d+e+f+g+h+i+j+k+l+9 m+n+o+p+q+r+s+i+j+k+l+9 m+n+o+p+q+r+s+t+u+v+w+x+y+z+b+c+G.d+e+f+g+h+i+j+k+l+9 m+n+o+p+q+r+s+t+u+v+w+x+y+z+A+B+C+D+E+b+c+G.d+e+",
"F+G+H+I+J+K+L+v+M+N+O+P+Q+R+S+T+U+V+W+X+Y+Z+`+ @.@+@@@#@$@%@&@F+G+H+I+J+K+L+v+M+N+O+P+Q+R+S+T+U+V+W+X+Y+Z+`+ @.@+@@@#@$@%@&@F+G+H+I+J+K+L+v+M+N+O+P+Q+R+S+T+U+V+W+X+Y+Z+`+ @.@+@@@#@$@%@&@F+G+H+I+J+K+L+v+M+N+O+F+G+H+I+J+K+L+v+M+N+O+P+Q+R+S+T+U+V+W+X+Y+Z+`+ @.@+@@@#@$@%@&@F+G+H+I+J+K+L+v+M+N+O+P+Q+R+S+T+U+V+W+X+Y+Z+`+ @.@+@@@#@$@%@&@F+G+H+I+J+K+L+v+M+N+O+P+Q+R+S+T+U+V+W+X+Y+Z+`+ @.@+@@@#@$@%@&@F+G+H+I+J+K+L+v+M+N+O+P+Q+R+S+T+U+V+W+X+Y+Z+`+ @.@+@@@F+G+H+I+J+K+L+v+M+N+O+P+Q+R+S+T+U+V+W+X+Y+Z+`+ @.@+@@@#@$@%@&@*@F+G+H+I+J+K+L+v+M+N+O+P+Q+R+S+T+U+V+W+X+Y+Z+`+ @.@+@@@#@F+G+H+I+J+K+L+v+M+N+O+P+Q+R+S+T+U+V+W+X+M+N+O+P+Q+R+S+T+U+V+W+X+Y+Z+`+ @.@+@@@F+G+H+I+J+K+L+v+M+N+O+P+Q+R+S+T+U+V+W+X+Y+Z+`+ @.@+@@@#@$@%@&@*@F+G+H+I+J+",
".@=@-@;@>@,@'@)@!@~@{@]@^@/@(@_@:@<@[@}@|@1@2@3@4@5@6@7@8@9@0@.@=@-@;@>@,@'@)@!@~@{@]@^@/@(@_@:@<@[@}@|@1@2@3@4@5@6@7@8@9@0@.@=@-@;@>@,@'@)@!@~@{@]@^@/@(@_@:@<@[@}@|@1@2@3@4@5@6@7@8@9@0@.@=@-@;@>@,@'@)@!@~@{@.@=@-@;@>@,@'@)@!@~@{@]@^@/@(@_@:@<@[@}@|@1@2@3@4@5@6@7@8@9@0@.@=@-@;@>@,@'@)@!@~@{@]@^@/@(@_@:@<@[@}@|@1@2@3@4@5@6@7@8@9@0@.@=@-@;@>@,@'@)@!@~@{@]@^@/@(@_@:@<@[@}@|@1@2@3@4@5@6@7@8@9@0@.@=@-@;@>@,@'@)@!@~@{@]@^@/@(@_@:@<@[@}@|@1@2@3@4@5@6@.@=@-@;@>@,@'@)@!@~@{@]@^@/@(@_@:@<@[@}@|@1@2@3@4@5@6@7@8@9@0@a@.@=@-@;@>@,@'@)@!@~@{@]@^@/@(@_@:@<@[@}@|@1@2@3@4@5@6@7@.@=@-@;@>@,@'@)@!@~@{@]@^@/@(@_@:@<@[@}@!@~@{@]@^@/@(@_@:@<@[@}@|@1@2@3@4@5@6@.@=@-@;@>@,@'@)@!@~@{@]@^@/@(@_@:@<@[@}@|@1@2@3@4@5@6@7@8@9@0@a@.@=@-@;@>@",
"b@c@d@e@f@g@h@i@j@k@l@m@n@o@p@q@r@s@t@u@v@w@x@y@z@A@B@C@D@E@F@b@c@d@e@f@g@h@i@j@k@l@m@n@o@p@q@r@s@t@u@v@w@x@y@z@A@B@C@D@E@F@b@c@d@e@f@g@h@i@j@k@l@m@n@o@p@q@r@s@t@u@v@w@x@y@z@A@B@C@D@E@F@b@c@d@e@f@g@h@i@j@k@l@b@c@d@e@f@g@h@i@j@k@l@m@n@o@p@q@r@s@t@u@v@w@x@y@z@A@B@C@D@E@F@b@c@d@e@f@g@h@i@j@k@l@m@n@o@p@q@r@s@t@u@v@w@x@y@z@A@B@C@D@E@F@b@c@d@e@f@g@h@i@j@k@l@m@n@o@p@q@r@s@t@u@v@w@x@y@z@A@B@C@D@E@F@b@c@d@e@f@g@h@i@j@k@l@m@n@o@p@q@r@s@t@u@v@w@x@y@z@A@B@b@c@d@e@f@g@h@i@j@k@l@m@n@o@p@q@r@s@t@u@v@w@x@y@z@A@B@C@D@E@F@G@b@c@d@e@f@g@h@i@j@k@l@m@n@o@p@q@r@s@t@u@v@w@x@y@z@A@B@C@b@c@d@e@f@g@h@i@j@k@l@m@n@o@p@q@r@s@t@u@j@k@l@m@n@o@p@q@r@s@t@u@v@w@x@y@z@A@B@b@c@d@e@f@g@h@i@j@k@l@m@n@o@p@q@r@s@t@u@v@w@x@y@z@A@B@C@D@E@F@G@b@c@d@e@f@",
"H@I@J@K@L@M@N@O@P@Q@R@S@T@U@D V@W@X@Y@Z@`@ #.#+#@###$#%#&#*#=#H@I@J@K@L@M@N@O@P@Q@R@S@T@U@D V@W@X@Y@Z@`@ #.#+#@###$#%#&#*#=#H@I@J@K@L@M@N@O@P@Q@R@S@T@U@D V@W@X@Y@Z@`@ #.#+#@###$#%#&#*#=#H@I@J@K@L@M@N@O@P@Q@R@H@I@J@K@L@M@N@O@P@Q@R@S@T@U@D V@W@X@Y@Z@`@ #.#+#@###$#%#&#*#=#H@I@J@K@L@M@N@O@P@Q@R@S@T@U@D V@W@X@Y@Z@`@ #.#+#@###$#%#&#*#=#H@I@J@K@L@M@N@O@P@Q@R@S@T@U@D V@W@X@Y@Z@`@ #.#+#@###$#%#&#*#=#H@I@J@K@L@M@N@O@P@Q@R@S@T@U@D V@W@X@Y@Z@`@ #.#+#@###$#H@I@J@K@L@M@N@O@P@Q@R@S@T@U@D V@W@X@Y@Z@`@ #.#+#@###$#%#&#*#=#-#H@I@J@K@L@M@N@O@P@Q@R@S@T@U@D V@W@X@Y@Z@`@ #.#+#@###$#%#H@I@J@K@L@M@N@O@P@Q@R@S@T@U@D V@W@X@Y@Z@P@Q@R@S@T@U@D V@W@X@Y@Z@`@ #.#+#@###$#H@I@J@K@L@M@N@O@P@Q@R@S@T@U@D V@W@X@Y@Z@`@ #.#+#@###$#%#&#*#=#-#H@I@J@K@L@"};
