/* XPM */
static char * pinkmin_xpm[] = {
"12 12 15 1",
" 	c None",
".	c #C901C6",
"+	c #D401D0",
"@	c #DB01D8",
"#	c #CF01CB",
"$	c #E001DD",
"%	c #8C018A",
"&	c #540224",
"*	c #E801E4",
"=	c #C701C3",
"-	c #BA01B7",
";	c #DB01D7",
">	c #9E019C",
",	c #5E0228",
"'	c #C401C1",
"............",
"++++++++++++",
"++++++++++++",
"@@@@@@@@@@@@",
"@+#@@@@@@#+@",
"$+%.$$$$.%+$",
"$$%&.$$.&%$$",
"**=%&--&%=**",
"**;>&,,&>;**",
"**;%%%%%%;**",
"**;;#''#;;**",
"************"};
