/* XPM */
static char * PinkWorktb01_xpm[] = {
"21 17 131 2",
"  	c None",
". 	c #F77EF7",
"+ 	c #F799F7",
"@ 	c #FAA7FA",
"# 	c #FAA6FA",
"$ 	c #F99EF9",
"% 	c #F780F6",
"& 	c #F34FF1",
"* 	c #F88FF7",
"= 	c #F9A3F9",
"- 	c #F9A4FA",
"; 	c #F9A4F9",
"> 	c #F9A3FA",
", 	c #FAA3FA",
"' 	c #F890F7",
") 	c #F350F1",
"! 	c #F781F6",
"~ 	c #F99FF9",
"{ 	c #FAA8FB",
"] 	c #FAA8FA",
"^ 	c #FA9CF9",
"/ 	c #FA9CFA",
"( 	c #F77CF7",
"_ 	c #F239EF",
": 	c #F131EF",
"< 	c #F886F8",
"[ 	c #F99CFA",
"} 	c #FA9DFA",
"| 	c #FA9DF9",
"1 	c #F99EFA",
"2 	c #F887F7",
"3 	c #F23AEF",
"4 	c #F77DF7",
"5 	c #FA9EFA",
"6 	c #F992F9",
"7 	c #F347F1",
"8 	c #F02BEE",
"9 	c #F135F0",
"0 	c #F773F6",
"a 	c #F98DF9",
"b 	c #F990F9",
"c 	c #F98EF9",
"d 	c #F885F8",
"e 	c #F991F9",
"f 	c #F774F6",
"g 	c #F993F9",
"h 	c #F994F9",
"i 	c #F66DF5",
"j 	c #F669F5",
"k 	c #F561F4",
"l 	c #F34AF2",
"m 	c #F670F6",
"n 	c #F346F1",
"o 	c #F768F7",
"p 	c #F767F7",
"q 	c #F764F7",
"r 	c #F653F5",
"s 	c #F440F2",
"t 	c #F65EF6",
"u 	c #F765F7",
"v 	c #F553F4",
"w 	c #F12DEF",
"x 	c #F74DF7",
"y 	c #F649F5",
"z 	c #F648F5",
"A 	c #F646F5",
"B 	c #F53FF4",
"C 	c #F542F4",
"D 	c #F127EF",
"E 	c #EF1AED",
"F 	c #F739F7",
"G 	c #F63CF6",
"H 	c #F32CF1",
"I 	c #F228F0",
"J 	c #F226F0",
"K 	c #F020EE",
"L 	c #F01FEE",
"M 	c #F01DEE",
"N 	c #EF17EC",
"O 	c #EF15EC",
"P 	c #F129EF",
"Q 	c #F023EE",
"R 	c #F021EE",
"S 	c #F65DF5",
"T 	c #F552F3",
"U 	c #EF1BED",
"V 	c #F77AF7",
"W 	c #F664F5",
"X 	c #F34CF2",
"Y 	c #F66CF5",
"Z 	c #F455F2",
"` 	c #F12DEE",
" .	c #F98CF9",
"..	c #F77AF6",
"+.	c #F670F5",
"@.	c #F452F2",
"#.	c #F777F6",
"$.	c #F77BF7",
"%.	c #F239F0",
"&.	c #F12BEE",
"*.	c #F677F6",
"=.	c #F77FF7",
"-.	c #F88DF8",
";.	c #F34DF1",
">.	c #F12EEE",
",.	c #F23AF0",
"'.	c #FA99FA",
").	c #F98BF8",
"!.	c #F44FF2",
"~.	c #F66BF5",
"{.	c #F88BF8",
"].	c #F999F9",
"^.	c #F12FEF",
"/.	c #F34EF2",
"(.	c #F98FF8",
"_.	c #F138EF",
":.	c #F78CF7",
"<.	c #F9A0F9",
"[.	c #F894F8",
"}.	c #F99CF9",
"|.	c #F78BF7",
"1.	c #F897F8",
"2.	c #F792F7",
"3.	c #F574F4",
"4.	c #F248F1",
"5.	c #F685F6",
"6.	c #F797F7",
"7.	c #F796F8",
"8.	c #F897F7",
"9.	c #F785F6",
"0.	c #F793F7",
". . . . . . . . . . . . . . . . . . . . . ",
"+ + + + + + + + + + + + + + + + + + + + + ",
"@ # $ % & * = - = ; ; > = , = ' ) ! ~ { ] ",
"^ / ( _ : < [ } } | } | | 1 } 2 : 3 4 5 $ ",
"6 6 7 8 9 0 a b b c d c b e c f 9 8 7 g h ",
". . i j k l j ( . m n m . ( j l k j i . . ",
"o o p p q r s t u v w v u t s r q p p o o ",
"x x x y z A B A C D E D C A B A z y x x x ",
"F F G H I J K L M N O N M L K J I H G F F ",
"x x x y z C P Q R N O N R Q P C z y x x x ",
"o o p p p u S v T w U w T v S u p p p o o ",
". . . 4 4 V W X Y Z ` Z Y X W V 4 4 . . . ",
"6 6  .. ..+.@.#.$.%.&.%.( *.@.+...=.a g h ",
"^ / -.;.>.,.( '.).!.~.!.{.].( ,.^./.(.5 $ ",
"@ # ~ % _.: :.> <.[.}.[.~ , |.: _.% <.{ ] ",
"+ + 1.2.3.4.5.1.1.6.1.7.8.1.9.4.3.0.1.+ + ",
". . . . . . . . . . . . . . . . . . . . . "};
