/* XPM */
static char * PinkPushOrbg_xpm[] = {
"12 12 34 1",
" 	c #FC5FFB",
".	c #FC49FB",
"+	c #FC33FB",
"@	c #F715F2",
"#	c #EF08E2",
"$	c #E90FD4",
"%	c #E30FC9",
"&	c #E10FC5",
"*	c #EE0FDE",
"=	c #EB06D6",
"-	c #DF08C0",
";	c #D408AA",
">	c #D007A0",
",	c #E809D2",
"'	c #E306C9",
")	c #DC09BA",
"!	c #CF089E",
"~	c #C90892",
"{	c #E60ACF",
"]	c #E212C6",
"^	c #D711AF",
"/	c #D211A6",
"(	c #EB13D9",
"_	c #F71EF2",
":	c #EE25DE",
"<	c #E825D2",
"[	c #E625CD",
"}	c #F326E8",
"|	c #FC42FB",
"1	c #F740F1",
"2	c #F53FED",
"3	c #F43FEC",
"4	c #F840F4",
"5	c #FC74FB",
"            ",
"............",
"++++++++++++",
"@@@@@@@@@@@@",
"###$%&%$*###",
"===-;>;-,===",
"''')!~!){'''",
"###]^/^](###",
"___:<[<:}___",
"|||123214|||",
"            ",
"555555555555"};
