/* XPM */
static char * PinkFBar_xpm[] = {
"21 17 21 1",
" 	c None",
".	c #FF8FFF",
"+	c #FA9CF9",
"@	c #FA9CFA",
"#	c #F99CFA",
"$	c #F99DFA",
"%	c #FA9DFA",
"&	c #FA9DF9",
"*	c #F99EFA",
"=	c #FA9EFA",
"-	c #F99EF9",
";	c #F992F9",
">	c #F993F9",
",	c #F993FA",
"'	c #F994F9",
")	c #F77EF7",
"!	c #F768F7",
"~	c #F74DF7",
"{	c #F739F7",
"]	c #F71BF7",
"^	c #FF00FF",
".....................",
"+@###@$%%&%&&*%&%&==-",
";;;;;;;;;>;>;>>>>,>>'",
")))))))))))))))))))))",
"!!!!!!!!!!!!!!!!!!!!!",
"~~~~~~~~~~~~~~~~~~~~~",
"{{{{{{{{{{{{{{{{{{{{{",
"]]]]]]]]]]]]]]]]]]]]]",
"^^^^^^^^^^^^^^^^^^^^^",
"]]]]]]]]]]]]]]]]]]]]]",
"{{{{{{{{{{{{{{{{{{{{{",
"~~~~~~~~~~~~~~~~~~~~~",
"!!!!!!!!!!!!!!!!!!!!!",
")))))))))))))))))))))",
";;;;;;;;;>;>;>>>>,>>'",
"+@###@$%%&%&&*%&%&==-",
"....................."};
