/* XPM */
static char * pinkstohade_xpm[] = {
"12 12 65 1",
" 	c None",
".	c #C901C6",
"+	c #D401D0",
"@	c #D201CE",
"#	c #CF01C9",
"$	c #C301B8",
"%	c #C001B3",
"&	c #C401B8",
"*	c #D501D1",
"=	c #C601BA",
"-	c #8A025E",
";	c #7F024D",
">	c #970272",
",	c #C901BF",
"'	c #DB01D8",
")	c #DA01D7",
"!	c #DA01D6",
"~	c #C701BB",
"{	c #80024E",
"]	c #830253",
"^	c #B2019A",
"/	c #D401CD",
"(	c #D901D3",
"_	c #CB01C1",
":	c #D801D3",
"<	c #CC01C1",
"[	c #990275",
"}	c #B3019B",
"|	c #A30282",
"1	c #C201B2",
"2	c #D901D4",
"3	c #E001DD",
"4	c #C501B5",
"5	c #9A0275",
"6	c #D901D2",
"7	c #D201C9",
"8	c #D801D2",
"9	c #C201B0",
"0	c #CF01C4",
"a	c #A9028B",
"b	c #C401B2",
"c	c #A60286",
"d	c #C601B6",
"e	c #DD01D8",
"f	c #BF01AC",
"g	c #8E0263",
"h	c #CD01C1",
"i	c #E801E4",
"j	c #DA01D0",
"k	c #E301DD",
"l	c #CB01BB",
"m	c #A80287",
"n	c #C701B5",
"o	c #C401B0",
"p	c #8C025F",
"q	c #900265",
"r	c #D501CA",
"s	c #E401DF",
"t	c #CC01BB",
"u	c #9E0279",
"v	c #900264",
"w	c #C901B6",
"x	c #D701CB",
"y	c #D301C6",
"z	c #D701CA",
"............",
"+@@@@#$%&#@+",
"+****=-;>,*+",
"')!!!~{]^/)'",
"'(__:<[}|12'",
"345546789503",
"3abbcdeefgh3",
"ijkklmnopqri",
"iiiistuqvwsi",
"iiiiisxyzsii",
"iiiiiiiiiiii",
"iiiiiiiiiiii"};
