/* XPM */
static char * PinkBar01_xpm[] = {
"21 17 27 1",
" 	c None",
".	c #F77EF7",
"+	c #F799F7",
"@	c #FAA7FA",
"#	c #FAA6FA",
"$	c #FBA7FA",
"%	c #FAA8FB",
"&	c #FAA8FA",
"*	c #FAA7FB",
"=	c #FBA7FB",
"-	c #FBA8FA",
";	c #FA9CF9",
">	c #FA9CFA",
",	c #F99CFA",
"'	c #F99DFA",
")	c #FA9DFA",
"!	c #FA9DF9",
"~	c #F99EFA",
"{	c #FA9EFA",
"]	c #F99EF9",
"^	c #F992F9",
"/	c #F993F9",
"(	c #F993FA",
"_	c #F994F9",
":	c #F768F7",
"<	c #F74DF7",
"[	c #F739F7",
".....................",
"+++++++++++++++++++++",
"@#$@@$@%@&&*@=@-&&&%&",
";>,,,>'))!)!!~)!)!{{]",
"^^^^^^^^^/^/^////(//_",
".....................",
":::::::::::::::::::::",
"<<<<<<<<<<<<<<<<<<<<<",
"[[[[[[[[[[[[[[[[[[[[[",
"<<<<<<<<<<<<<<<<<<<<<",
":::::::::::::::::::::",
".....................",
"^^^^^^^^^/^/^////(//_",
";>,,,>'))!)!!~)!)!{{]",
"@#$@@$@%@&&*@=@-&&&%&",
"+++++++++++++++++++++",
"....................."};
