/* XPM */
static char * pinkdraco03_xpm[] = {
"500 12 379 2",
"  	c None",
". 	c #F303F2",
"+ 	c #AC00A9",
"@ 	c #B900AB",
"# 	c #AC02A5",
"$ 	c #A203A0",
"% 	c #B307B5",
"& 	c #FC0BFF",
"* 	c #E102DC",
"= 	c #CF02DA",
"- 	c #F607EF",
"; 	c #AE01B8",
"> 	c #AA00A3",
", 	c #B403A8",
"' 	c #B800B5",
") 	c #C705BE",
"! 	c #A802A5",
"~ 	c #B004B0",
"{ 	c #9D0499",
"] 	c #B506B0",
"^ 	c #D200CF",
"/ 	c #C301C1",
"( 	c #DA04DE",
"_ 	c #A1029F",
": 	c #A303A2",
"< 	c #9E008D",
"[ 	c #A404A2",
"} 	c #B803B0",
"| 	c #B903B3",
"1 	c #C100C7",
"2 	c #B200AB",
"3 	c #B900B1",
"4 	c #DB0DE0",
"5 	c #C900D0",
"6 	c #D205D9",
"7 	c #930294",
"8 	c #B508AF",
"9 	c #F000E1",
"0 	c #99079F",
"a 	c #DE04DC",
"b 	c #C201BE",
"c 	c #C102C6",
"d 	c #F000D8",
"e 	c #C903D0",
"f 	c #9B0294",
"g 	c #B501A8",
"h 	c #A30799",
"i 	c #C801C6",
"j 	c #A701A5",
"k 	c #F208EF",
"l 	c #C702C2",
"m 	c #A90AAA",
"n 	c #B300B3",
"o 	c #B601B7",
"p 	c #C703BD",
"q 	c #C403BC",
"r 	c #8F0188",
"s 	c #9B0194",
"t 	c #A902A5",
"u 	c #AA01A9",
"v 	c #B501C3",
"w 	c #B205AA",
"x 	c #B200A5",
"y 	c #B2049E",
"z 	c #E311E3",
"A 	c #A7029D",
"B 	c #D908EA",
"C 	c #A00091",
"D 	c #D60ACF",
"E 	c #F301E5",
"F 	c #CB01E2",
"G 	c #A80997",
"H 	c #AD00A6",
"I 	c #BD04B3",
"J 	c #BE00B9",
"K 	c #D105CC",
"L 	c #B103A7",
"M 	c #A803A4",
"N 	c #A900A6",
"O 	c #B206AE",
"P 	c #D201D0",
"Q 	c #E904E2",
"R 	c #E708E1",
"S 	c #BB00B7",
"T 	c #AA01A2",
"U 	c #AE07A9",
"V 	c #B200A6",
"W 	c #BF08B7",
"X 	c #A301A1",
"Y 	c #95048C",
"Z 	c #A703A0",
"` 	c #A704A6",
" .	c #AA01AB",
"..	c #A7009B",
"+.	c #B102B3",
"@.	c #AA04AA",
"#.	c #DB06E4",
"$.	c #A9019D",
"%.	c #C600D1",
"&.	c #D601D0",
"*.	c #EE03E1",
"=.	c #B304AD",
"-.	c #FB02E7",
";.	c #BE03B9",
">.	c #A5009C",
",.	c #AD03A2",
"'.	c #A602A7",
").	c #BD00B4",
"!.	c #BC05B6",
"~.	c #920792",
"{.	c #E800EB",
"].	c #850982",
"^.	c #D007D3",
"/.	c #C500C2",
"(.	c #C800C4",
"_.	c #D708D8",
":.	c #A5019B",
"<.	c #A1049B",
"[.	c #A600A1",
"}.	c #B507B2",
"|.	c #A20299",
"1.	c #C603C1",
"2.	c #AD01A4",
"3.	c #AB03A6",
"4.	c #A102A6",
"5.	c #B300A8",
"6.	c #A001A0",
"7.	c #C202C9",
"8.	c #D400D7",
"9.	c #98038A",
"0.	c #DA03DF",
"a.	c #BC00AC",
"b.	c #C004BD",
"c.	c #C800B5",
"d.	c #E701DD",
"e.	c #AE00A6",
"f.	c #A0089F",
"g.	c #A900A1",
"h.	c #AD02AB",
"i.	c #D80AE0",
"j.	c #DA05E1",
"k.	c #FF01FC",
"l.	c #AE01BE",
"m.	c #C30CBF",
"n.	c #B600AD",
"o.	c #B203A4",
"p.	c #E000DA",
"q.	c #9E019A",
"r.	c #A1039A",
"s.	c #9B009B",
"t.	c #B204AB",
"u.	c #C205B7",
"v.	c #F200ED",
"w.	c #C809BB",
"x.	c #B403B4",
"y.	c #CD02CC",
"z.	c #900789",
"A.	c #D105C8",
"B.	c #A3029C",
"C.	c #F808F3",
"D.	c #BB02B9",
"E.	c #B507AB",
"F.	c #BC03B5",
"G.	c #B500A9",
"H.	c #B103A1",
"I.	c #CD01C2",
"J.	c #B907B6",
"K.	c #AD00A5",
"L.	c #B005A4",
"M.	c #C700CC",
"N.	c #AB00AD",
"O.	c #F70FFE",
"P.	c #C702C3",
"Q.	c #D403D4",
"R.	c #BA00B1",
"S.	c #A5059A",
"T.	c #AC00A6",
"U.	c #B903B5",
"V.	c #C501C3",
"W.	c #A103A2",
"X.	c #A20198",
"Y.	c #9E04A1",
"Z.	c #A5009E",
"`.	c #C403C8",
" +	c #C501BF",
".+	c #C807BF",
"++	c #BC02B7",
"@+	c #E103D5",
"#+	c #97009C",
"$+	c #D801D1",
"%+	c #9F009F",
"&+	c #CD02C9",
"*+	c #F402E3",
"=+	c #B602AF",
"-+	c #AF03A9",
";+	c #B100AC",
">+	c #A6009D",
",+	c #AD05A2",
"'+	c #F001DF",
")+	c #9C03A8",
"!+	c #D705D4",
"~+	c #FA00ED",
"{+	c #B200B3",
"]+	c #C70BD0",
"^+	c #BF00AB",
"/+	c #BD04C3",
"(+	c #C201BD",
"_+	c #AD01A6",
":+	c #A00199",
"<+	c #AB05A8",
"[+	c #C305BB",
"}+	c #9D069F",
"|+	c #BD04BC",
"1+	c #B802B0",
"2+	c #960092",
"3+	c #BA05B4",
"4+	c #B800AA",
"5+	c #B102AD",
"6+	c #C702BF",
"7+	c #C804C5",
"8+	c #C904C6",
"9+	c #AD01AE",
"0+	c #BF00AE",
"a+	c #CC02CE",
"b+	c #E509D3",
"c+	c #AD00A9",
"d+	c #A804A8",
"e+	c #AA01AA",
"f+	c #A5029E",
"g+	c #DD08D9",
"h+	c #D709D0",
"i+	c #E902E3",
"j+	c #DA00D6",
"k+	c #CA02C8",
"l+	c #AE01AF",
"m+	c #B1029E",
"n+	c #AE02AB",
"o+	c #C707C0",
"p+	c #BB02B7",
"q+	c #A00698",
"r+	c #A2019F",
"s+	c #BA00B3",
"t+	c #BC04BA",
"u+	c #D904DE",
"v+	c #D701CF",
"w+	c #A604A2",
"x+	c #A601A1",
"y+	c #AC039C",
"z+	c #AF04A7",
"A+	c #BD00B5",
"B+	c #AF00AC",
"C+	c #D904BD",
"D+	c #C002B3",
"E+	c #BB04BE",
"F+	c #A805A1",
"G+	c #AA049F",
"H+	c #CF00D6",
"I+	c #BA01B7",
"J+	c #9C059B",
"K+	c #B603B8",
"L+	c #BD00BA",
"M+	c #9E02A0",
"N+	c #E300DF",
"O+	c #BE06C7",
"P+	c #C100AF",
"Q+	c #DB05D7",
"R+	c #C801B8",
"S+	c #A408A4",
"T+	c #B2009E",
"U+	c #B802AE",
"V+	c #C100BC",
"W+	c #A00196",
"X+	c #B504AF",
"Y+	c #9A0195",
"Z+	c #D503C7",
"`+	c #C600C5",
" @	c #C401BE",
".@	c #C402BE",
"+@	c #A003A3",
"@@	c #9A038F",
"#@	c #B200A2",
"$@	c #AB019F",
"%@	c #C210CE",
"&@	c #C200BA",
"*@	c #AF01A4",
"=@	c #BD01C0",
"-@	c #AD00AB",
";@	c #AA02A8",
">@	c #D603DA",
",@	c #920197",
"'@	c #D409D3",
")@	c #FF01FB",
"!@	c #98019A",
"~@	c #D709CE",
"{@	c #AA00A9",
"]@	c #B301A9",
"^@	c #C508BA",
"/@	c #D000D7",
"(@	c #A70395",
"_@	c #A508A1",
":@	c #A602A0",
"<@	c #CB02BA",
"[@	c #AD01A8",
"}@	c #F305F5",
"|@	c #B100B3",
"1@	c #B908B4",
"2@	c #B400B6",
"3@	c #AE04A0",
"4@	c #CD03BF",
"5@	c #A500A1",
"6@	c #980594",
"7@	c #AB00A4",
"8@	c #9F0299",
"9@	c #ED06E8",
"0@	c #D101C9",
"a@	c #A7049E",
"b@	c #BE05AF",
"c@	c #A8079D",
"d@	c #A4039B",
"e@	c #E001CF",
"f@	c #BE08D4",
"g@	c #F101E2",
"h@	c #DB00D4",
"i@	c #E001D0",
"j@	c #B904B6",
"k@	c #A800A4",
"l@	c #A7019A",
"m@	c #A501A9",
"n@	c #C402C5",
"o@	c #AA049C",
"p@	c #B3019E",
"q@	c #AE06A8",
"r@	c #AF04A6",
"s@	c #D400D8",
"t@	c #DF02E0",
"u@	c #CD08C8",
"v@	c #AA009F",
"w@	c #A7009F",
"x@	c #A9009B",
"y@	c #BC00A9",
"z@	c #BE02B5",
"A@	c #9E0198",
"B@	c #A00293",
"C@	c #A402A0",
"D@	c #D300CF",
"E@	c #F007EF",
"F@	c #AC00A0",
"G@	c #B104AD",
"H@	c #990894",
"I@	c #B100AE",
"J@	c #B301AC",
"K@	c #8C0196",
"L@	c #F604E7",
"M@	c #BE01BB",
"N@	c #C506B9",
"O@	c #DC02D4",
"P@	c #C709C7",
"Q@	c #AD00A2",
"R@	c #BB01A3",
"S@	c #B706B4",
"T@	c #B001AB",
"U@	c #B401B4",
"V@	c #BD06BA",
"W@	c #E206DB",
"X@	c #A500A7",
"Y@	c #D302D5",
"Z@	c #B605AE",
"`@	c #CB01BE",
" #	c #B202AA",
".#	c #A00192",
"+#	c #A7039B",
"@#	c #BD05B9",
"##	c #9A009D",
"$#	c #A20199",
"%#	c #B000A6",
"&#	c #C000BA",
"*#	c #E802E9",
"=#	c #B901B7",
"-#	c #97039A",
". + @ # $ % & * = - ; > , ' ) ! ~ { ] ^ / ( _ : < [ } | 1 2 3 . + @ # $ % & * = - ; > , ' ) ! ~ { ] ^ / ( _ : < [ } | 1 2 3 . + @ # $ % & * = - ; > , ' ) ! ~ { ] ^ / ( _ : 1 1 2 3 . + @ # $ % & * = - ; > , ' ) ! ~ { ] ^ / ( _ : < [ } | 1 2 3 . + @ # $ % & * = - ; > , ' ) ! ~ { ] ^ / ( _ : < [ } | 1 2 3 . + @ # $ % & * = - ; > , ' ) ! ~ { ] ^ / ( _ : < [ } | 1 2 3 . + @ # $ % & * 1 2 3 . + @ # $ % & * = - ; > , ' ) ! ~ { ] ^ / ( _ : < [ } | 1 2 3 . + @ # $ % & * = - ; > , ' ) ! ~ { ] ^ / ( _ : < [ } | 1 2 3 . + @ # $ % & * = - ; > , ' ) ! ~ { ] ^ / ( _ : < [ } | 1 2 3 . + @ # $ % & * = - ; > , ' ) ! ~ { ] ^ / ( _ : 1 2 3 . + @ # $ % & * = - ; > , ' ) ! ~ { ] ^ / ( _ : < [ } | 4 1 2 3 . + @ # $ % & * = - ; > , ' ) ! ~ { ] ^ / ( _ : < 1 2 3 . + @ # $ % & * = - ; > , ' ) ! ~ % & * = - ; > , ' ) ! ~ { ] ^ / ( _ : 1 2 3 . + @ # $ % & * = - ; > , ' ) ! ~ { ] ^ / ( _ : < [ } | 4 1 2 3 . + @ # $ % & * = - ; > , ' ) ! ~ { ] ^ / ( _ : < 1 2 3 . + @ # 1 2 3 . + @ # $ % & * = - ; > , ' ) ! ~ { ] ^ ",
"5 6 7 8 9 0 a b c d e f g h i j k l m n o p q r s t u v w x y 5 6 7 8 9 0 a b c d e f g h i j k l m n o p q r s t u v w x y 5 6 7 8 9 0 a b c d e f g h i j k l m n o p q r w w x y 5 6 7 8 9 0 a b c d e f g h i j k l m n o p q r s t u v w x y 5 6 7 8 9 0 a b c d e f g h i j k l m n o p q r s t u v w x y 5 6 7 8 9 0 a b c d e f g h i j k l m n o p q r s t u v w x y 5 6 7 8 9 0 a b w x y 5 6 7 8 9 0 a b c d e f g h i j k l m n o p q r s t u v w x y 5 6 7 8 9 0 a b c d e f g h i j k l m n o p q r s t u v w x y 5 6 7 8 9 0 a b c d e f g h i j k l m n o p q r s t u v w x y 5 6 7 8 9 0 a b c d e f g h i j k l m n o p q r w x y 5 6 7 8 9 0 a b c d e f g h i j k l m n o p q r s t u v z w x y 5 6 7 8 9 0 a b c d e f g h i j k l m n o p q r s w x y 5 6 7 8 9 0 a b c d e f g h i j k 0 a b c d e f g h i j k l m n o p q r w x y 5 6 7 8 9 0 a b c d e f g h i j k l m n o p q r s t u v z w x y 5 6 7 8 9 0 a b c d e f g h i j k l m n o p q r s w x y 5 6 7 8 w x y 5 6 7 8 9 0 a b c d e f g h i j k l m n ",
"A B C D E F G H I J K L M N O P Q R S T U V W X Y Z `  ...+.@.A B C D E F G H I J K L M N O P Q R S T U V W X Y Z `  ...+.@.A B C D E F G H I J K L M N O P Q R S T U V W X ....+.@.A B C D E F G H I J K L M N O P Q R S T U V W X Y Z `  ...+.@.A B C D E F G H I J K L M N O P Q R S T U V W X Y Z `  ...+.@.A B C D E F G H I J K L M N O P Q R S T U V W X Y Z `  ...+.@.A B C D E F G H ..+.@.A B C D E F G H I J K L M N O P Q R S T U V W X Y Z `  ...+.@.A B C D E F G H I J K L M N O P Q R S T U V W X Y Z `  ...+.@.A B C D E F G H I J K L M N O P Q R S T U V W X Y Z `  ...+.@.A B C D E F G H I J K L M N O P Q R S T U V W X ..+.@.A B C D E F G H I J K L M N O P Q R S T U V W X Y Z `  .#...+.@.A B C D E F G H I J K L M N O P Q R S T U V W X Y ..+.@.A B C D E F G H I J K L M N O P Q F G H I J K L M N O P Q R S T U V W X ..+.@.A B C D E F G H I J K L M N O P Q R S T U V W X Y Z `  .#...+.@.A B C D E F G H I J K L M N O P Q R S T U V W X Y ..+.@.A B C D ..+.@.A B C D E F G H I J K L M N O P Q R S T ",
"$.%.&.*.=.-.;.>.,.'.).!.~.{.].^./.(._.:.<...[.}.|.1.2.3.4.5.6.$.%.&.*.=.-.;.>.,.'.).!.~.{.].^./.(._.:.<...[.}.|.1.2.3.4.5.6.$.%.&.*.=.-.;.>.,.'.).!.~.{.].^./.(._.:.<...[.}.4.4.5.6.$.%.&.*.=.-.;.>.,.'.).!.~.{.].^./.(._.:.<...[.}.|.1.2.3.4.5.6.$.%.&.*.=.-.;.>.,.'.).!.~.{.].^./.(._.:.<...[.}.|.1.2.3.4.5.6.$.%.&.*.=.-.;.>.,.'.).!.~.{.].^./.(._.:.<...[.}.|.1.2.3.4.5.6.$.%.&.*.=.-.;.>.4.5.6.$.%.&.*.=.-.;.>.,.'.).!.~.{.].^./.(._.:.<...[.}.|.1.2.3.4.5.6.$.%.&.*.=.-.;.>.,.'.).!.~.{.].^./.(._.:.<...[.}.|.1.2.3.4.5.6.$.%.&.*.=.-.;.>.,.'.).!.~.{.].^./.(._.:.<...[.}.|.1.2.3.4.5.6.$.%.&.*.=.-.;.>.,.'.).!.~.{.].^./.(._.:.<...[.}.4.5.6.$.%.&.*.=.-.;.>.,.'.).!.~.{.].^./.(._.:.<...[.}.|.1.2.3.7.4.5.6.$.%.&.*.=.-.;.>.,.'.).!.~.{.].^./.(._.:.<...[.}.|.4.5.6.$.%.&.*.=.-.;.>.,.'.).!.~.{.].^./.-.;.>.,.'.).!.~.{.].^./.(._.:.<...[.}.4.5.6.$.%.&.*.=.-.;.>.,.'.).!.~.{.].^./.(._.:.<...[.}.|.1.2.3.7.4.5.6.$.%.&.*.=.-.;.>.,.'.).!.~.{.].^./.(._.:.<...[.}.|.4.5.6.$.%.&.*.4.5.6.$.%.&.*.=.-.;.>.,.'.).!.~.{.].^./.(._.:.",
"8.9.0.a.b.c.d.e.f.g.h.i.j.k.l.m.n.o.p.=.q.r.s.t.u.v.w.x.y.z.A.8.9.0.a.b.c.d.e.f.g.h.i.j.k.l.m.n.o.p.=.q.r.s.t.u.v.w.x.y.z.A.8.9.0.a.b.c.d.e.f.g.h.i.j.k.l.m.n.o.p.=.q.r.s.t.y.y.z.A.8.9.0.a.b.c.d.e.f.g.h.i.j.k.l.m.n.o.p.=.q.r.s.t.u.v.w.x.y.z.A.8.9.0.a.b.c.d.e.f.g.h.i.j.k.l.m.n.o.p.=.q.r.s.t.u.v.w.x.y.z.A.8.9.0.a.b.c.d.e.f.g.h.i.j.k.l.m.n.o.p.=.q.r.s.t.u.v.w.x.y.z.A.8.9.0.a.b.c.d.e.y.z.A.8.9.0.a.b.c.d.e.f.g.h.i.j.k.l.m.n.o.p.=.q.r.s.t.u.v.w.x.y.z.A.8.9.0.a.b.c.d.e.f.g.h.i.j.k.l.m.n.o.p.=.q.r.s.t.u.v.w.x.y.z.A.8.9.0.a.b.c.d.e.f.g.h.i.j.k.l.m.n.o.p.=.q.r.s.t.u.v.w.x.y.z.A.8.9.0.a.b.c.d.e.f.g.h.i.j.k.l.m.n.o.p.=.q.r.s.t.y.z.A.8.9.0.a.b.c.d.e.f.g.h.i.j.k.l.m.n.o.p.=.q.r.s.t.u.v.w.x.B.y.z.A.8.9.0.a.b.c.d.e.f.g.h.i.j.k.l.m.n.o.p.=.q.r.s.t.u.y.z.A.8.9.0.a.b.c.d.e.f.g.h.i.j.k.l.m.n.c.d.e.f.g.h.i.j.k.l.m.n.o.p.=.q.r.s.t.y.z.A.8.9.0.a.b.c.d.e.f.g.h.i.j.k.l.m.n.o.p.=.q.r.s.t.u.v.w.x.B.y.z.A.8.9.0.a.b.c.d.e.f.g.h.i.j.k.l.m.n.o.p.=.q.r.s.t.u.y.z.A.8.9.0.a.y.z.A.8.9.0.a.b.c.d.e.f.g.h.i.j.k.l.m.n.o.p.=.",
"C.D.E.F.G.H.I.J.K.L.M.N.O.P.Q.R.S.T.U.V.W.X.Y.Z.`. +.+++@+#+$+C.D.E.F.G.H.I.J.K.L.M.N.O.P.Q.R.S.T.U.V.W.X.Y.Z.`. +.+++@+#+$+C.D.E.F.G.H.I.J.K.L.M.N.O.P.Q.R.S.T.U.V.W.X.Y.Z.@+@+#+$+C.D.E.F.G.H.I.J.K.L.M.N.O.P.Q.R.S.T.U.V.W.X.Y.Z.`. +.+++@+#+$+C.D.E.F.G.H.I.J.K.L.M.N.O.P.Q.R.S.T.U.V.W.X.Y.Z.`. +.+++@+#+$+C.D.E.F.G.H.I.J.K.L.M.N.O.P.Q.R.S.T.U.V.W.X.Y.Z.`. +.+++@+#+$+C.D.E.F.G.H.I.J.@+#+$+C.D.E.F.G.H.I.J.K.L.M.N.O.P.Q.R.S.T.U.V.W.X.Y.Z.`. +.+++@+#+$+C.D.E.F.G.H.I.J.K.L.M.N.O.P.Q.R.S.T.U.V.W.X.Y.Z.`. +.+++@+#+$+C.D.E.F.G.H.I.J.K.L.M.N.O.P.Q.R.S.T.U.V.W.X.Y.Z.`. +.+++@+#+$+C.D.E.F.G.H.I.J.K.L.M.N.O.P.Q.R.S.T.U.V.W.X.Y.Z.@+#+$+C.D.E.F.G.H.I.J.K.L.M.N.O.P.Q.R.S.T.U.V.W.X.Y.Z.`. +.+++%+@+#+$+C.D.E.F.G.H.I.J.K.L.M.N.O.P.Q.R.S.T.U.V.W.X.Y.Z.`.@+#+$+C.D.E.F.G.H.I.J.K.L.M.N.O.P.Q.R.S.H.I.J.K.L.M.N.O.P.Q.R.S.T.U.V.W.X.Y.Z.@+#+$+C.D.E.F.G.H.I.J.K.L.M.N.O.P.Q.R.S.T.U.V.W.X.Y.Z.`. +.+++%+@+#+$+C.D.E.F.G.H.I.J.K.L.M.N.O.P.Q.R.S.T.U.V.W.X.Y.Z.`.@+#+$+C.D.E.F.@+#+$+C.D.E.F.G.H.I.J.K.L.M.N.O.P.Q.R.S.T.U.V.",
"&+*+=+-+;+>+,+'+)+!+~+{+]+^+/+(+_+:+<+[+}+|+1+2+3+4+5+6+7+8+A.&+*+=+-+;+>+,+'+)+!+~+{+]+^+/+(+_+:+<+[+}+|+1+2+3+4+5+6+7+8+A.&+*+=+-+;+>+,+'+)+!+~+{+]+^+/+(+_+:+<+[+}+|+1+2+7+7+8+A.&+*+=+-+;+>+,+'+)+!+~+{+]+^+/+(+_+:+<+[+}+|+1+2+3+4+5+6+7+8+A.&+*+=+-+;+>+,+'+)+!+~+{+]+^+/+(+_+:+<+[+}+|+1+2+3+4+5+6+7+8+A.&+*+=+-+;+>+,+'+)+!+~+{+]+^+/+(+_+:+<+[+}+|+1+2+3+4+5+6+7+8+A.&+*+=+-+;+>+,+'+7+8+A.&+*+=+-+;+>+,+'+)+!+~+{+]+^+/+(+_+:+<+[+}+|+1+2+3+4+5+6+7+8+A.&+*+=+-+;+>+,+'+)+!+~+{+]+^+/+(+_+:+<+[+}+|+1+2+3+4+5+6+7+8+A.&+*+=+-+;+>+,+'+)+!+~+{+]+^+/+(+_+:+<+[+}+|+1+2+3+4+5+6+7+8+A.&+*+=+-+;+>+,+'+)+!+~+{+]+^+/+(+_+:+<+[+}+|+1+2+7+8+A.&+*+=+-+;+>+,+'+)+!+~+{+]+^+/+(+_+:+<+[+}+|+1+2+3+4+5+6+9+7+8+A.&+*+=+-+;+>+,+'+)+!+~+{+]+^+/+(+_+:+<+[+}+|+1+2+3+7+8+A.&+*+=+-+;+>+,+'+)+!+~+{+]+^+/+(+_+>+,+'+)+!+~+{+]+^+/+(+_+:+<+[+}+|+1+2+7+8+A.&+*+=+-+;+>+,+'+)+!+~+{+]+^+/+(+_+:+<+[+}+|+1+2+3+4+5+6+9+7+8+A.&+*+=+-+;+>+,+'+)+!+~+{+]+^+/+(+_+:+<+[+}+|+1+2+3+7+8+A.&+*+=+-+7+8+A.&+*+=+-+;+>+,+'+)+!+~+{+]+^+/+(+_+:+<+[+",
"0+a+b+c+d+e+f+g+h+i+j+k+l+m+n+o+p+q+r+s+t+u+v+w+x+y+z+A+B+C+D+0+a+b+c+d+e+f+g+h+i+j+k+l+m+n+o+p+q+r+s+t+u+v+w+x+y+z+A+B+C+D+0+a+b+c+d+e+f+g+h+i+j+k+l+m+n+o+p+q+r+s+t+u+v+w+B+B+C+D+0+a+b+c+d+e+f+g+h+i+j+k+l+m+n+o+p+q+r+s+t+u+v+w+x+y+z+A+B+C+D+0+a+b+c+d+e+f+g+h+i+j+k+l+m+n+o+p+q+r+s+t+u+v+w+x+y+z+A+B+C+D+0+a+b+c+d+e+f+g+h+i+j+k+l+m+n+o+p+q+r+s+t+u+v+w+x+y+z+A+B+C+D+0+a+b+c+d+e+f+g+B+C+D+0+a+b+c+d+e+f+g+h+i+j+k+l+m+n+o+p+q+r+s+t+u+v+w+x+y+z+A+B+C+D+0+a+b+c+d+e+f+g+h+i+j+k+l+m+n+o+p+q+r+s+t+u+v+w+x+y+z+A+B+C+D+0+a+b+c+d+e+f+g+h+i+j+k+l+m+n+o+p+q+r+s+t+u+v+w+x+y+z+A+B+C+D+0+a+b+c+d+e+f+g+h+i+j+k+l+m+n+o+p+q+r+s+t+u+v+w+B+C+D+0+a+b+c+d+e+f+g+h+i+j+k+l+m+n+o+p+q+r+s+t+u+v+w+x+y+z+A+E+B+C+D+0+a+b+c+d+e+f+g+h+i+j+k+l+m+n+o+p+q+r+s+t+u+v+w+x+B+C+D+0+a+b+c+d+e+f+g+h+i+j+k+l+m+n+o+p+e+f+g+h+i+j+k+l+m+n+o+p+q+r+s+t+u+v+w+B+C+D+0+a+b+c+d+e+f+g+h+i+j+k+l+m+n+o+p+q+r+s+t+u+v+w+x+y+z+A+E+B+C+D+0+a+b+c+d+e+f+g+h+i+j+k+l+m+n+o+p+q+r+s+t+u+v+w+x+B+C+D+0+a+b+c+B+C+D+0+a+b+c+d+e+f+g+h+i+j+k+l+m+n+o+p+q+r+s+",
"F+G+H+I+J+K+L+M+N+O+P+Q+R+S+T+U+V+W+X+Y+Z+`+ @.@+@@@#@$@%@&@*@F+G+H+I+J+K+L+M+N+O+P+Q+R+S+T+U+V+W+X+Y+Z+`+ @.@+@@@#@$@%@&@*@F+G+H+I+J+K+L+M+N+O+P+Q+R+S+T+U+V+W+X+Y+Z+`+ @.@%@%@&@*@F+G+H+I+J+K+L+M+N+O+P+Q+R+S+T+U+V+W+X+Y+Z+`+ @.@+@@@#@$@%@&@*@F+G+H+I+J+K+L+M+N+O+P+Q+R+S+T+U+V+W+X+Y+Z+`+ @.@+@@@#@$@%@&@*@F+G+H+I+J+K+L+M+N+O+P+Q+R+S+T+U+V+W+X+Y+Z+`+ @.@+@@@#@$@%@&@*@F+G+H+I+J+K+L+M+%@&@*@F+G+H+I+J+K+L+M+N+O+P+Q+R+S+T+U+V+W+X+Y+Z+`+ @.@+@@@#@$@%@&@*@F+G+H+I+J+K+L+M+N+O+P+Q+R+S+T+U+V+W+X+Y+Z+`+ @.@+@@@#@$@%@&@*@F+G+H+I+J+K+L+M+N+O+P+Q+R+S+T+U+V+W+X+Y+Z+`+ @.@+@@@#@$@%@&@*@F+G+H+I+J+K+L+M+N+O+P+Q+R+S+T+U+V+W+X+Y+Z+`+ @.@%@&@*@F+G+H+I+J+K+L+M+N+O+P+Q+R+S+T+U+V+W+X+Y+Z+`+ @.@+@@@#@$@=@%@&@*@F+G+H+I+J+K+L+M+N+O+P+Q+R+S+T+U+V+W+X+Y+Z+`+ @.@+@%@&@*@F+G+H+I+J+K+L+M+N+O+P+Q+R+S+T+U+V+K+L+M+N+O+P+Q+R+S+T+U+V+W+X+Y+Z+`+ @.@%@&@*@F+G+H+I+J+K+L+M+N+O+P+Q+R+S+T+U+V+W+X+Y+Z+`+ @.@+@@@#@$@=@%@&@*@F+G+H+I+J+K+L+M+N+O+P+Q+R+S+T+U+V+W+X+Y+Z+`+ @.@+@%@&@*@F+G+H+I+%@&@*@F+G+H+I+J+K+L+M+N+O+P+Q+R+S+T+U+V+W+X+Y+",
"> -@;@>@,@'@)@!@~@{@]@^@/@(@_@:@<@[@}@|@1@2@3@4@5@6@7@8@9@0@a@> -@;@>@,@'@)@!@~@{@]@^@/@(@_@:@<@[@}@|@1@2@3@4@5@6@7@8@9@0@a@> -@;@>@,@'@)@!@~@{@]@^@/@(@_@:@<@[@}@|@1@2@3@4@9@9@0@a@> -@;@>@,@'@)@!@~@{@]@^@/@(@_@:@<@[@}@|@1@2@3@4@5@6@7@8@9@0@a@> -@;@>@,@'@)@!@~@{@]@^@/@(@_@:@<@[@}@|@1@2@3@4@5@6@7@8@9@0@a@> -@;@>@,@'@)@!@~@{@]@^@/@(@_@:@<@[@}@|@1@2@3@4@5@6@7@8@9@0@a@> -@;@>@,@'@)@!@9@0@a@> -@;@>@,@'@)@!@~@{@]@^@/@(@_@:@<@[@}@|@1@2@3@4@5@6@7@8@9@0@a@> -@;@>@,@'@)@!@~@{@]@^@/@(@_@:@<@[@}@|@1@2@3@4@5@6@7@8@9@0@a@> -@;@>@,@'@)@!@~@{@]@^@/@(@_@:@<@[@}@|@1@2@3@4@5@6@7@8@9@0@a@> -@;@>@,@'@)@!@~@{@]@^@/@(@_@:@<@[@}@|@1@2@3@4@9@0@a@> -@;@>@,@'@)@!@~@{@]@^@/@(@_@:@<@[@}@|@1@2@3@4@5@6@7@8@b@9@0@a@> -@;@>@,@'@)@!@~@{@]@^@/@(@_@:@<@[@}@|@1@2@3@4@5@9@0@a@> -@;@>@,@'@)@!@~@{@]@^@/@(@_@:@<@'@)@!@~@{@]@^@/@(@_@:@<@[@}@|@1@2@3@4@9@0@a@> -@;@>@,@'@)@!@~@{@]@^@/@(@_@:@<@[@}@|@1@2@3@4@5@6@7@8@b@9@0@a@> -@;@>@,@'@)@!@~@{@]@^@/@(@_@:@<@[@}@|@1@2@3@4@5@9@0@a@> -@;@>@9@0@a@> -@;@>@,@'@)@!@~@{@]@^@/@(@_@:@<@[@}@|@",
"c@g.d@e@f@g@h@i@j@k@l@m@n@o@p@q@r@s@t@u@v@w@x@y@z@A@B@C@D@E@F@c@g.d@e@f@g@h@i@j@k@l@m@n@o@p@q@r@s@t@u@v@w@x@y@z@A@B@C@D@E@F@c@g.d@e@f@g@h@i@j@k@l@m@n@o@p@q@r@s@t@u@v@w@x@y@D@D@E@F@c@g.d@e@f@g@h@i@j@k@l@m@n@o@p@q@r@s@t@u@v@w@x@y@z@A@B@C@D@E@F@c@g.d@e@f@g@h@i@j@k@l@m@n@o@p@q@r@s@t@u@v@w@x@y@z@A@B@C@D@E@F@c@g.d@e@f@g@h@i@j@k@l@m@n@o@p@q@r@s@t@u@v@w@x@y@z@A@B@C@D@E@F@c@g.d@e@f@g@h@i@D@E@F@c@g.d@e@f@g@h@i@j@k@l@m@n@o@p@q@r@s@t@u@v@w@x@y@z@A@B@C@D@E@F@c@g.d@e@f@g@h@i@j@k@l@m@n@o@p@q@r@s@t@u@v@w@x@y@z@A@B@C@D@E@F@c@g.d@e@f@g@h@i@j@k@l@m@n@o@p@q@r@s@t@u@v@w@x@y@z@A@B@C@D@E@F@c@g.d@e@f@g@h@i@j@k@l@m@n@o@p@q@r@s@t@u@v@w@x@y@D@E@F@c@g.d@e@f@g@h@i@j@k@l@m@n@o@p@q@r@s@t@u@v@w@x@y@z@A@B@C@G@D@E@F@c@g.d@e@f@g@h@i@j@k@l@m@n@o@p@q@r@s@t@u@v@w@x@y@z@D@E@F@c@g.d@e@f@g@h@i@j@k@l@m@n@o@p@q@r@g@h@i@j@k@l@m@n@o@p@q@r@s@t@u@v@w@x@y@D@E@F@c@g.d@e@f@g@h@i@j@k@l@m@n@o@p@q@r@s@t@u@v@w@x@y@z@A@B@C@G@D@E@F@c@g.d@e@f@g@h@i@j@k@l@m@n@o@p@q@r@s@t@u@v@w@x@y@z@D@E@F@c@g.d@e@D@E@F@c@g.d@e@f@g@h@i@j@k@l@m@n@o@p@q@r@s@t@u@",
"H@I@J@K@L@M@N@O@P@Q@R@S@T@U@V@W@X@Y@Z@`@ #.#+#:+@###$#%#&#*#=#H@I@J@K@L@M@N@O@P@Q@R@S@T@U@V@W@X@Y@Z@`@ #.#+#:+@###$#%#&#*#=#H@I@J@K@L@M@N@O@P@Q@R@S@T@U@V@W@X@Y@Z@`@ #.#+#:+&#&#*#=#H@I@J@K@L@M@N@O@P@Q@R@S@T@U@V@W@X@Y@Z@`@ #.#+#:+@###$#%#&#*#=#H@I@J@K@L@M@N@O@P@Q@R@S@T@U@V@W@X@Y@Z@`@ #.#+#:+@###$#%#&#*#=#H@I@J@K@L@M@N@O@P@Q@R@S@T@U@V@W@X@Y@Z@`@ #.#+#:+@###$#%#&#*#=#H@I@J@K@L@M@N@O@&#*#=#H@I@J@K@L@M@N@O@P@Q@R@S@T@U@V@W@X@Y@Z@`@ #.#+#:+@###$#%#&#*#=#H@I@J@K@L@M@N@O@P@Q@R@S@T@U@V@W@X@Y@Z@`@ #.#+#:+@###$#%#&#*#=#H@I@J@K@L@M@N@O@P@Q@R@S@T@U@V@W@X@Y@Z@`@ #.#+#:+@###$#%#&#*#=#H@I@J@K@L@M@N@O@P@Q@R@S@T@U@V@W@X@Y@Z@`@ #.#+#:+&#*#=#H@I@J@K@L@M@N@O@P@Q@R@S@T@U@V@W@X@Y@Z@`@ #.#+#:+@###$#%#-#&#*#=#H@I@J@K@L@M@N@O@P@Q@R@S@T@U@V@W@X@Y@Z@`@ #.#+#:+@#&#*#=#H@I@J@K@L@M@N@O@P@Q@R@S@T@U@V@W@X@M@N@O@P@Q@R@S@T@U@V@W@X@Y@Z@`@ #.#+#:+&#*#=#H@I@J@K@L@M@N@O@P@Q@R@S@T@U@V@W@X@Y@Z@`@ #.#+#:+@###$#%#-#&#*#=#H@I@J@K@L@M@N@O@P@Q@R@S@T@U@V@W@X@Y@Z@`@ #.#+#:+@#&#*#=#H@I@J@K@&#*#=#H@I@J@K@L@M@N@O@P@Q@R@S@T@U@V@W@X@Y@Z@`@"};
