/* XPM */
static char * pinkbuttonempty_xpm[] = {
"12 12 6 1",
" 	c None",
".	c #C901C6",
"+	c #D401D0",
"@	c #DB01D8",
"#	c #E001DD",
"$	c #E801E4",
"............",
"++++++++++++",
"++++++++++++",
"@@@@@@@@@@@@",
"@@@@@@@@@@@@",
"############",
"############",
"$$$$$$$$$$$$",
"$$$$$$$$$$$$",
"$$$$$$$$$$$$",
"$$$$$$$$$$$$",
"$$$$$$$$$$$$"};
