/* XPM */
static char * pinkdraco06_xpm[] = {
"700 12 174 2",
"  	c None",
". 	c #C901C6",
"+ 	c #D401D0",
"@ 	c #AC05A4",
"# 	c #C301B7",
"$ 	c #D904D5",
"% 	c #BF00BF",
"& 	c #F301E9",
"* 	c #DF04D7",
"= 	c #AE03B5",
"- 	c #AE00AA",
"; 	c #AC01A1",
"> 	c #AB00A7",
", 	c #BE04B5",
"' 	c #CE02C9",
") 	c #AB05B4",
"! 	c #DF0AE1",
"~ 	c #A206B2",
"{ 	c #C905BE",
"] 	c #B006B0",
"^ 	c #A30599",
"/ 	c #AC08AC",
"( 	c #D403D5",
"_ 	c #E106D1",
": 	c #C106BF",
"< 	c #E802E4",
"[ 	c #E008DB",
"} 	c #B201A7",
"| 	c #AC02A0",
"1 	c #AC01AF",
"2 	c #AF00B2",
"3 	c #E202DB",
"4 	c #E102E0",
"5 	c #F001F6",
"6 	c #EB01E8",
"7 	c #B20AAF",
"8 	c #B901AC",
"9 	c #DB01D8",
"0 	c #AB01A2",
"a 	c #C805D1",
"b 	c #B205AE",
"c 	c #B805BA",
"d 	c #B300B2",
"e 	c #B800A9",
"f 	c #DF00D9",
"g 	c #B705B3",
"h 	c #AE03A7",
"i 	c #AE03B2",
"j 	c #B501B2",
"k 	c #B701B7",
"l 	c #E403DE",
"m 	c #CD00CE",
"n 	c #E103E6",
"o 	c #CC04C5",
"p 	c #B202A3",
"q 	c #B900B4",
"r 	c #F405EC",
"s 	c #CB07D0",
"t 	c #A400A9",
"u 	c #A805A2",
"v 	c #AA02A3",
"w 	c #AD00A6",
"x 	c #E206E1",
"y 	c #A0019D",
"z 	c #D802D7",
"A 	c #EC10ED",
"B 	c #AE02A6",
"C 	c #BC05B4",
"D 	c #BE01B8",
"E 	c #BF00C0",
"F 	c #E200D7",
"G 	c #A20399",
"H 	c #E001DD",
"I 	c #BE00C2",
"J 	c #CE03CA",
"K 	c #E306DB",
"L 	c #CB02BC",
"M 	c #9F019C",
"N 	c #A30097",
"O 	c #D405CD",
"P 	c #C402CF",
"Q 	c #E004DA",
"R 	c #DE03DD",
"S 	c #DA01CB",
"T 	c #B900B2",
"U 	c #AF02AE",
"V 	c #AF03B3",
"W 	c #CA04BF",
"X 	c #C502C0",
"Y 	c #C502C3",
"Z 	c #B901AA",
"` 	c #C302BF",
" .	c #CB05C6",
"..	c #9D0398",
"+.	c #BF01AF",
"@.	c #A800A0",
"#.	c #D702E2",
"$.	c #C902C3",
"%.	c #BD00BD",
"&.	c #D603D1",
"*.	c #C805C1",
"=.	c #AB00A1",
"-.	c #B204B1",
";.	c #9E029D",
">.	c #E805E6",
",.	c #E801E4",
"'.	c #B203AD",
").	c #B004A9",
"!.	c #AF02A8",
"~.	c #C104BB",
"{.	c #BC02B8",
"].	c #A6069D",
"^.	c #E801E3",
"/.	c #C201B7",
"(.	c #AF02AF",
"_.	c #B403B3",
":.	c #B304B4",
"<.	c #BD05B6",
"[.	c #CD03CA",
"}.	c #A401A2",
"|.	c #B806B6",
"1.	c #B604BD",
"2.	c #B702BA",
"3.	c #B200AB",
"4.	c #AF05A7",
"5.	c #A801A1",
"6.	c #B301A9",
"7.	c #D003D0",
"8.	c #CB02C4",
"9.	c #D403D6",
"0.	c #EC02D7",
"a.	c #BE06CB",
"b.	c #AA01A1",
"c.	c #B003AC",
"d.	c #B302A9",
"e.	c #C801CA",
"f.	c #C005C3",
"g.	c #DA0CD9",
"h.	c #F30AF2",
"i.	c #A800AB",
"j.	c #D705D0",
"k.	c #A5019E",
"l.	c #B902B7",
"m.	c #B203B1",
"n.	c #B305AE",
"o.	c #C601C8",
"p.	c #B601B3",
"q.	c #C400B9",
"r.	c #EE05EF",
"s.	c #A600A0",
"t.	c #B800AB",
"u.	c #A701A1",
"v.	c #A904AB",
"w.	c #DE0AE2",
"x.	c #EF07EC",
"y.	c #DC04E2",
"z.	c #E806E4",
"A.	c #DC05D5",
"B.	c #9F019A",
"C.	c #D404CF",
"D.	c #EC05EC",
"E.	c #B702B1",
"F.	c #B204AC",
"G.	c #B200A6",
"H.	c #B2039E",
"I.	c #D200D9",
"J.	c #C704CC",
"K.	c #980396",
"L.	c #C605BC",
"M.	c #C403BE",
"N.	c #C107C4",
"O.	c #D502D1",
"P.	c #BF02C6",
"Q.	c #F201DD",
". . . . . . . . . . . . . . . . . . . . . . . . . . . . . . . . . . . . . . . . . . . . . . . . . . . . . . . . . . . . . . . . . . . . . . . . . . . . . . . . . . . . . . . . . . . . . . . . . . . . . . . . . . . . . . . . . . . . . . . . . . . . . . . . . . . . . . . . . . . . . . . . . . . . . . . . . . . . . . . . . . . . . . . . . . . . . . . . . . . . . . . . . . . . . . . . . . . . . . . . . . . . . . . . . . . . . . . . . . . . . . . . . . . . . . . . . . . . . . . . . . . . . . . . . . . . . . . . . . . . . . . . . . . . . . . . . . . . . . . . . . . . . . . . . . . . . . . . . . . . . . . . . . . . . . . . . . . . . . . . . . . . . . . . . . . . . . . . . . . . . . . . . . . . . . . . . . . . . . . . . . . . . . . . . . . . . . . . . . . . . . . . . . . . . . . . . . . . . . . . . . . . . . . . . . . . . . . . . . . . . . . . . . . . . . . . . . . . . . . . . . . . . . . . . . . . . . . . . . . . . . . . . . . . . . . . . . . . . . . . . . . . . . . . . . . . . . . . . . . . . . . . . . . . . . . . . . . . . . . . . . . . . . . . . . . . . . . . . . . . . . . . . . . . . . . . . . . . . . . . . . . . . . . . . . . . . . . . . . . . . . . . . . . . . . . . . . . . . . . . . . . . . . . . . . . . . . . . . . . . . . . . . . . . . . . . . . . . . . . . . . . . . . . . . . . . . . . . . . . . . . . . . . . . . . . . . . . . . . . . . . . . . . . . . . . . . . . . . . . . ",
"+ @ # $ % & * = - ; > , ' ) ! ~ { ] @ # $ % & * = - ; > , ' ) @ # $ % & * = - ; > , ' ) ! ~ @ # $ % & * = - ; > , ' ) ! ~ { @ # $ % & * = - ; > , ' ) ! ~ { @ # $ % & * = - ; > , ' ) ! ~ { ] @ # $ % & * = - ; > , ' ) ! ~ { ] @ # $ % & * = - ; > , ' ) ! ~ { ] @ # $ % & * = - ; > , ' ) ! ~ { ] @ # $ % & * = - ; > , ' ) ! ~ { ] @ # $ % & * = - ; > , ' ) @ # $ % & * = - ; > , ' ) ! ~ @ # $ % & * = - ; > , ' ) ! ~ { @ # $ % & * = - ; > , ' ) ! ~ { @ # $ % & * = - ; > , ' ) ! ~ { ] @ # $ % & * = - ; > , ' ) ! ~ { ] @ # $ % & * = - ; > , ' ) ! ~ { ] @ # $ % & * = - ; > , ' ) ! ~ { ] @ # $ % & * = - ; > , ' ) ! ~ { ] @ # $ % & * = - ; > , ' ) @ # $ % & * = - ; > , ' ) ! ~ @ # $ % & * = - ; > , ' ) ! ~ { @ # $ % & * = - ; > , ' ) ! ~ { @ # $ % & * = - ; > , ' ) ! ~ { ] @ # $ % & * = - ; > , ' ) ! ~ { ] @ # $ % & * = - ; > , ' ) ! ~ { ] @ # $ % & * = - ; > , ' ) ! ~ { ] @ # $ % & * = - ; > , ' ) ! ~ { ] @ # $ % & * = - ; > , ' ) @ # $ % & * = - ; > , ' ) ! ~ @ # $ % & * = - ; > , ' ) ! ~ { @ # $ % & * = - ; > , ' ) ! ~ { @ # $ % & * = - ; > , ' ) ! ~ { ] @ # $ % & * = - ; > , ' ) ! ~ { ] @ # $ % & * = - ; > , ' ) ! ~ { ] @ # $ % & * = - ; > , ' ) ! ~ { ] @ # $ % & * = - ; > , ' ) ! ~ { ] @ # $ % & * = - ; > , ' ) @ # $ % & * = - ; > , ' ) ! ~ @ # $ % & * = - ; > , ' ) ! ~ { @ # $ % & * = - ; > , ' ) ! ~ { @ # $ % & * = - ; > , ' ) ! ~ { ] @ # $ % & * = - ; > , ' ) ! ~ { ] @ # $ % & * = + ",
"+ ^ / ( _ : < [ } | 1 2 3 4 5 6 7 8 ^ / ( _ : < [ } | 1 2 3 4 ^ / ( _ : < [ } | 1 2 3 4 5 6 ^ / ( _ : < [ } | 1 2 3 4 5 6 7 ^ / ( _ : < [ } | 1 2 3 4 5 6 7 ^ / ( _ : < [ } | 1 2 3 4 5 6 7 8 ^ / ( _ : < [ } | 1 2 3 4 5 6 7 8 ^ / ( _ : < [ } | 1 2 3 4 5 6 7 8 ^ / ( _ : < [ } | 1 2 3 4 5 6 7 8 ^ / ( _ : < [ } | 1 2 3 4 5 6 7 8 ^ / ( _ : < [ } | 1 2 3 4 ^ / ( _ : < [ } | 1 2 3 4 5 6 ^ / ( _ : < [ } | 1 2 3 4 5 6 7 ^ / ( _ : < [ } | 1 2 3 4 5 6 7 ^ / ( _ : < [ } | 1 2 3 4 5 6 7 8 ^ / ( _ : < [ } | 1 2 3 4 5 6 7 8 ^ / ( _ : < [ } | 1 2 3 4 5 6 7 8 ^ / ( _ : < [ } | 1 2 3 4 5 6 7 8 ^ / ( _ : < [ } | 1 2 3 4 5 6 7 8 ^ / ( _ : < [ } | 1 2 3 4 ^ / ( _ : < [ } | 1 2 3 4 5 6 ^ / ( _ : < [ } | 1 2 3 4 5 6 7 ^ / ( _ : < [ } | 1 2 3 4 5 6 7 ^ / ( _ : < [ } | 1 2 3 4 5 6 7 8 ^ / ( _ : < [ } | 1 2 3 4 5 6 7 8 ^ / ( _ : < [ } | 1 2 3 4 5 6 7 8 ^ / ( _ : < [ } | 1 2 3 4 5 6 7 8 ^ / ( _ : < [ } | 1 2 3 4 5 6 7 8 ^ / ( _ : < [ } | 1 2 3 4 ^ / ( _ : < [ } | 1 2 3 4 5 6 ^ / ( _ : < [ } | 1 2 3 4 5 6 7 ^ / ( _ : < [ } | 1 2 3 4 5 6 7 ^ / ( _ : < [ } | 1 2 3 4 5 6 7 8 ^ / ( _ : < [ } | 1 2 3 4 5 6 7 8 ^ / ( _ : < [ } | 1 2 3 4 5 6 7 8 ^ / ( _ : < [ } | 1 2 3 4 5 6 7 8 ^ / ( _ : < [ } | 1 2 3 4 5 6 7 8 ^ / ( _ : < [ } | 1 2 3 4 ^ / ( _ : < [ } | 1 2 3 4 5 6 ^ / ( _ : < [ } | 1 2 3 4 5 6 7 ^ / ( _ : < [ } | 1 2 3 4 5 6 7 ^ / ( _ : < [ } | 1 2 3 4 5 6 7 8 ^ / ( _ : < [ } | 1 2 3 4 5 6 7 8 ^ / ( _ : < [ + ",
"9 0 a b c d e f g h i j k l m n o p 0 a b c d e f g h i j k l 0 a b c d e f g h i j k l m n 0 a b c d e f g h i j k l m n o 0 a b c d e f g h i j k l m n o 0 a b c d e f g h i j k l m n o p 0 a b c d e f g h i j k l m n o p 0 a b c d e f g h i j k l m n o p 0 a b c d e f g h i j k l m n o p 0 a b c d e f g h i j k l m n o p 0 a b c d e f g h i j k l 0 a b c d e f g h i j k l m n 0 a b c d e f g h i j k l m n o 0 a b c d e f g h i j k l m n o 0 a b c d e f g h i j k l m n o p 0 a b c d e f g h i j k l m n o p 0 a b c d e f g h i j k l m n o p 0 a b c d e f g h i j k l m n o p 0 a b c d e f g h i j k l m n o p 0 a b c d e f g h i j k l 0 a b c d e f g h i j k l m n 0 a b c d e f g h i j k l m n o 0 a b c d e f g h i j k l m n o 0 a b c d e f g h i j k l m n o p 0 a b c d e f g h i j k l m n o p 0 a b c d e f g h i j k l m n o p 0 a b c d e f g h i j k l m n o p 0 a b c d e f g h i j k l m n o p 0 a b c d e f g h i j k l 0 a b c d e f g h i j k l m n 0 a b c d e f g h i j k l m n o 0 a b c d e f g h i j k l m n o 0 a b c d e f g h i j k l m n o p 0 a b c d e f g h i j k l m n o p 0 a b c d e f g h i j k l m n o p 0 a b c d e f g h i j k l m n o p 0 a b c d e f g h i j k l m n o p 0 a b c d e f g h i j k l 0 a b c d e f g h i j k l m n 0 a b c d e f g h i j k l m n o 0 a b c d e f g h i j k l m n o 0 a b c d e f g h i j k l m n o p 0 a b c d e f g h i j k l m n o p 0 a b c d e f 9 ",
"9 q r s t u v w x y z A B C D E F G q r s t u v w x y z A B C q r s t u v w x y z A B C D E q r s t u v w x y z A B C D E F q r s t u v w x y z A B C D E F q r s t u v w x y z A B C D E F G q r s t u v w x y z A B C D E F G q r s t u v w x y z A B C D E F G q r s t u v w x y z A B C D E F G q r s t u v w x y z A B C D E F G q r s t u v w x y z A B C q r s t u v w x y z A B C D E q r s t u v w x y z A B C D E F q r s t u v w x y z A B C D E F q r s t u v w x y z A B C D E F G q r s t u v w x y z A B C D E F G q r s t u v w x y z A B C D E F G q r s t u v w x y z A B C D E F G q r s t u v w x y z A B C D E F G q r s t u v w x y z A B C q r s t u v w x y z A B C D E q r s t u v w x y z A B C D E F q r s t u v w x y z A B C D E F q r s t u v w x y z A B C D E F G q r s t u v w x y z A B C D E F G q r s t u v w x y z A B C D E F G q r s t u v w x y z A B C D E F G q r s t u v w x y z A B C D E F G q r s t u v w x y z A B C q r s t u v w x y z A B C D E q r s t u v w x y z A B C D E F q r s t u v w x y z A B C D E F q r s t u v w x y z A B C D E F G q r s t u v w x y z A B C D E F G q r s t u v w x y z A B C D E F G q r s t u v w x y z A B C D E F G q r s t u v w x y z A B C D E F G q r s t u v w x y z A B C q r s t u v w x y z A B C D E q r s t u v w x y z A B C D E F q r s t u v w x y z A B C D E F q r s t u v w x y z A B C D E F G q r s t u v w x y z A B C D E F G q r s t u v w 9 ",
"H I J K L G M N O P Q R S T U V W X I J K L G M N O P Q R S T I J K L G M N O P Q R S T U V I J K L G M N O P Q R S T U V W I J K L G M N O P Q R S T U V W I J K L G M N O P Q R S T U V W X I J K L G M N O P Q R S T U V W X I J K L G M N O P Q R S T U V W X I J K L G M N O P Q R S T U V W X I J K L G M N O P Q R S T U V W X I J K L G M N O P Q R S T I J K L G M N O P Q R S T U V I J K L G M N O P Q R S T U V W I J K L G M N O P Q R S T U V W I J K L G M N O P Q R S T U V W X I J K L G M N O P Q R S T U V W X I J K L G M N O P Q R S T U V W X I J K L G M N O P Q R S T U V W X I J K L G M N O P Q R S T U V W X I J K L G M N O P Q R S T I J K L G M N O P Q R S T U V I J K L G M N O P Q R S T U V W I J K L G M N O P Q R S T U V W I J K L G M N O P Q R S T U V W X I J K L G M N O P Q R S T U V W X I J K L G M N O P Q R S T U V W X I J K L G M N O P Q R S T U V W X I J K L G M N O P Q R S T U V W X I J K L G M N O P Q R S T I J K L G M N O P Q R S T U V I J K L G M N O P Q R S T U V W I J K L G M N O P Q R S T U V W I J K L G M N O P Q R S T U V W X I J K L G M N O P Q R S T U V W X I J K L G M N O P Q R S T U V W X I J K L G M N O P Q R S T U V W X I J K L G M N O P Q R S T U V W X I J K L G M N O P Q R S T I J K L G M N O P Q R S T U V I J K L G M N O P Q R S T U V W I J K L G M N O P Q R S T U V W I J K L G M N O P Q R S T U V W X I J K L G M N O P Q R S T U V W X I J K L G M N H ",
"H Y Z `  .0 ..+.@.#.$.%.&.*.=.-.;.>.Y Z `  .0 ..+.@.#.$.%.&.*.Y Z `  .0 ..+.@.#.$.%.&.*.=.-.Y Z `  .0 ..+.@.#.$.%.&.*.=.-.;.Y Z `  .0 ..+.@.#.$.%.&.*.=.-.;.Y Z `  .0 ..+.@.#.$.%.&.*.=.-.;.>.Y Z `  .0 ..+.@.#.$.%.&.*.=.-.;.>.Y Z `  .0 ..+.@.#.$.%.&.*.=.-.;.>.Y Z `  .0 ..+.@.#.$.%.&.*.=.-.;.>.Y Z `  .0 ..+.@.#.$.%.&.*.=.-.;.>.Y Z `  .0 ..+.@.#.$.%.&.*.Y Z `  .0 ..+.@.#.$.%.&.*.=.-.Y Z `  .0 ..+.@.#.$.%.&.*.=.-.;.Y Z `  .0 ..+.@.#.$.%.&.*.=.-.;.Y Z `  .0 ..+.@.#.$.%.&.*.=.-.;.>.Y Z `  .0 ..+.@.#.$.%.&.*.=.-.;.>.Y Z `  .0 ..+.@.#.$.%.&.*.=.-.;.>.Y Z `  .0 ..+.@.#.$.%.&.*.=.-.;.>.Y Z `  .0 ..+.@.#.$.%.&.*.=.-.;.>.Y Z `  .0 ..+.@.#.$.%.&.*.Y Z `  .0 ..+.@.#.$.%.&.*.=.-.Y Z `  .0 ..+.@.#.$.%.&.*.=.-.;.Y Z `  .0 ..+.@.#.$.%.&.*.=.-.;.Y Z `  .0 ..+.@.#.$.%.&.*.=.-.;.>.Y Z `  .0 ..+.@.#.$.%.&.*.=.-.;.>.Y Z `  .0 ..+.@.#.$.%.&.*.=.-.;.>.Y Z `  .0 ..+.@.#.$.%.&.*.=.-.;.>.Y Z `  .0 ..+.@.#.$.%.&.*.=.-.;.>.Y Z `  .0 ..+.@.#.$.%.&.*.Y Z `  .0 ..+.@.#.$.%.&.*.=.-.Y Z `  .0 ..+.@.#.$.%.&.*.=.-.;.Y Z `  .0 ..+.@.#.$.%.&.*.=.-.;.Y Z `  .0 ..+.@.#.$.%.&.*.=.-.;.>.Y Z `  .0 ..+.@.#.$.%.&.*.=.-.;.>.Y Z `  .0 ..+.@.#.$.%.&.*.=.-.;.>.Y Z `  .0 ..+.@.#.$.%.&.*.=.-.;.>.Y Z `  .0 ..+.@.#.$.%.&.*.=.-.;.>.Y Z `  .0 ..+.@.#.$.%.&.*.Y Z `  .0 ..+.@.#.$.%.&.*.=.-.Y Z `  .0 ..+.@.#.$.%.&.*.=.-.;.Y Z `  .0 ..+.@.#.$.%.&.*.=.-.;.Y Z `  .0 ..+.@.#.$.%.&.*.=.-.;.>.Y Z `  .0 ..+.@.#.$.%.&.*.=.-.;.>.Y Z `  .0 ..+.H ",
",.'.).!.~.{.].^./.(._.:.<.[.}.|.1.2.'.).!.~.{.].^./.(._.:.<.[.'.).!.~.{.].^./.(._.:.<.[.}.|.'.).!.~.{.].^./.(._.:.<.[.}.|.1.'.).!.~.{.].^./.(._.:.<.[.}.|.1.'.).!.~.{.].^./.(._.:.<.[.}.|.1.2.'.).!.~.{.].^./.(._.:.<.[.}.|.1.2.'.).!.~.{.].^./.(._.:.<.[.}.|.1.2.'.).!.~.{.].^./.(._.:.<.[.}.|.1.2.'.).!.~.{.].^./.(._.:.<.[.}.|.1.2.'.).!.~.{.].^./.(._.:.<.[.'.).!.~.{.].^./.(._.:.<.[.}.|.'.).!.~.{.].^./.(._.:.<.[.}.|.1.'.).!.~.{.].^./.(._.:.<.[.}.|.1.'.).!.~.{.].^./.(._.:.<.[.}.|.1.2.'.).!.~.{.].^./.(._.:.<.[.}.|.1.2.'.).!.~.{.].^./.(._.:.<.[.}.|.1.2.'.).!.~.{.].^./.(._.:.<.[.}.|.1.2.'.).!.~.{.].^./.(._.:.<.[.}.|.1.2.'.).!.~.{.].^./.(._.:.<.[.'.).!.~.{.].^./.(._.:.<.[.}.|.'.).!.~.{.].^./.(._.:.<.[.}.|.1.'.).!.~.{.].^./.(._.:.<.[.}.|.1.'.).!.~.{.].^./.(._.:.<.[.}.|.1.2.'.).!.~.{.].^./.(._.:.<.[.}.|.1.2.'.).!.~.{.].^./.(._.:.<.[.}.|.1.2.'.).!.~.{.].^./.(._.:.<.[.}.|.1.2.'.).!.~.{.].^./.(._.:.<.[.}.|.1.2.'.).!.~.{.].^./.(._.:.<.[.'.).!.~.{.].^./.(._.:.<.[.}.|.'.).!.~.{.].^./.(._.:.<.[.}.|.1.'.).!.~.{.].^./.(._.:.<.[.}.|.1.'.).!.~.{.].^./.(._.:.<.[.}.|.1.2.'.).!.~.{.].^./.(._.:.<.[.}.|.1.2.'.).!.~.{.].^./.(._.:.<.[.}.|.1.2.'.).!.~.{.].^./.(._.:.<.[.}.|.1.2.'.).!.~.{.].^./.(._.:.<.[.}.|.1.2.'.).!.~.{.].^./.(._.:.<.[.'.).!.~.{.].^./.(._.:.<.[.}.|.'.).!.~.{.].^./.(._.:.<.[.}.|.1.'.).!.~.{.].^./.(._.:.<.[.}.|.1.'.).!.~.{.].^./.(._.:.<.[.}.|.1.2.'.).!.~.{.].^./.(._.:.<.[.}.|.1.2.'.).!.~.{.].^.,.",
",.3.4.5.6.7.8.9.0.a.b.c.d.e.f.g.h.i.3.4.5.6.7.8.9.0.a.b.c.d.e.3.4.5.6.7.8.9.0.a.b.c.d.e.f.g.3.4.5.6.7.8.9.0.a.b.c.d.e.f.g.h.3.4.5.6.7.8.9.0.a.b.c.d.e.f.g.h.3.4.5.6.7.8.9.0.a.b.c.d.e.f.g.h.i.3.4.5.6.7.8.9.0.a.b.c.d.e.f.g.h.i.3.4.5.6.7.8.9.0.a.b.c.d.e.f.g.h.i.3.4.5.6.7.8.9.0.a.b.c.d.e.f.g.h.i.3.4.5.6.7.8.9.0.a.b.c.d.e.f.g.h.i.3.4.5.6.7.8.9.0.a.b.c.d.e.3.4.5.6.7.8.9.0.a.b.c.d.e.f.g.3.4.5.6.7.8.9.0.a.b.c.d.e.f.g.h.3.4.5.6.7.8.9.0.a.b.c.d.e.f.g.h.3.4.5.6.7.8.9.0.a.b.c.d.e.f.g.h.i.3.4.5.6.7.8.9.0.a.b.c.d.e.f.g.h.i.3.4.5.6.7.8.9.0.a.b.c.d.e.f.g.h.i.3.4.5.6.7.8.9.0.a.b.c.d.e.f.g.h.i.3.4.5.6.7.8.9.0.a.b.c.d.e.f.g.h.i.3.4.5.6.7.8.9.0.a.b.c.d.e.3.4.5.6.7.8.9.0.a.b.c.d.e.f.g.3.4.5.6.7.8.9.0.a.b.c.d.e.f.g.h.3.4.5.6.7.8.9.0.a.b.c.d.e.f.g.h.3.4.5.6.7.8.9.0.a.b.c.d.e.f.g.h.i.3.4.5.6.7.8.9.0.a.b.c.d.e.f.g.h.i.3.4.5.6.7.8.9.0.a.b.c.d.e.f.g.h.i.3.4.5.6.7.8.9.0.a.b.c.d.e.f.g.h.i.3.4.5.6.7.8.9.0.a.b.c.d.e.f.g.h.i.3.4.5.6.7.8.9.0.a.b.c.d.e.3.4.5.6.7.8.9.0.a.b.c.d.e.f.g.3.4.5.6.7.8.9.0.a.b.c.d.e.f.g.h.3.4.5.6.7.8.9.0.a.b.c.d.e.f.g.h.3.4.5.6.7.8.9.0.a.b.c.d.e.f.g.h.i.3.4.5.6.7.8.9.0.a.b.c.d.e.f.g.h.i.3.4.5.6.7.8.9.0.a.b.c.d.e.f.g.h.i.3.4.5.6.7.8.9.0.a.b.c.d.e.f.g.h.i.3.4.5.6.7.8.9.0.a.b.c.d.e.f.g.h.i.3.4.5.6.7.8.9.0.a.b.c.d.e.3.4.5.6.7.8.9.0.a.b.c.d.e.f.g.3.4.5.6.7.8.9.0.a.b.c.d.e.f.g.h.3.4.5.6.7.8.9.0.a.b.c.d.e.f.g.h.3.4.5.6.7.8.9.0.a.b.c.d.e.f.g.h.i.3.4.5.6.7.8.9.0.a.b.c.d.e.f.g.h.i.3.4.5.6.7.8.9.,.",
",.j.k.l.m.n.o.p.q.r.s.t.u.v.w.x.y.z.j.k.l.m.n.o.p.q.r.s.t.u.v.j.k.l.m.n.o.p.q.r.s.t.u.v.w.x.j.k.l.m.n.o.p.q.r.s.t.u.v.w.x.y.j.k.l.m.n.o.p.q.r.s.t.u.v.w.x.y.j.k.l.m.n.o.p.q.r.s.t.u.v.w.x.y.z.j.k.l.m.n.o.p.q.r.s.t.u.v.w.x.y.z.j.k.l.m.n.o.p.q.r.s.t.u.v.w.x.y.z.j.k.l.m.n.o.p.q.r.s.t.u.v.w.x.y.z.j.k.l.m.n.o.p.q.r.s.t.u.v.w.x.y.z.j.k.l.m.n.o.p.q.r.s.t.u.v.j.k.l.m.n.o.p.q.r.s.t.u.v.w.x.j.k.l.m.n.o.p.q.r.s.t.u.v.w.x.y.j.k.l.m.n.o.p.q.r.s.t.u.v.w.x.y.j.k.l.m.n.o.p.q.r.s.t.u.v.w.x.y.z.j.k.l.m.n.o.p.q.r.s.t.u.v.w.x.y.z.j.k.l.m.n.o.p.q.r.s.t.u.v.w.x.y.z.j.k.l.m.n.o.p.q.r.s.t.u.v.w.x.y.z.j.k.l.m.n.o.p.q.r.s.t.u.v.w.x.y.z.j.k.l.m.n.o.p.q.r.s.t.u.v.j.k.l.m.n.o.p.q.r.s.t.u.v.w.x.j.k.l.m.n.o.p.q.r.s.t.u.v.w.x.y.j.k.l.m.n.o.p.q.r.s.t.u.v.w.x.y.j.k.l.m.n.o.p.q.r.s.t.u.v.w.x.y.z.j.k.l.m.n.o.p.q.r.s.t.u.v.w.x.y.z.j.k.l.m.n.o.p.q.r.s.t.u.v.w.x.y.z.j.k.l.m.n.o.p.q.r.s.t.u.v.w.x.y.z.j.k.l.m.n.o.p.q.r.s.t.u.v.w.x.y.z.j.k.l.m.n.o.p.q.r.s.t.u.v.j.k.l.m.n.o.p.q.r.s.t.u.v.w.x.j.k.l.m.n.o.p.q.r.s.t.u.v.w.x.y.j.k.l.m.n.o.p.q.r.s.t.u.v.w.x.y.j.k.l.m.n.o.p.q.r.s.t.u.v.w.x.y.z.j.k.l.m.n.o.p.q.r.s.t.u.v.w.x.y.z.j.k.l.m.n.o.p.q.r.s.t.u.v.w.x.y.z.j.k.l.m.n.o.p.q.r.s.t.u.v.w.x.y.z.j.k.l.m.n.o.p.q.r.s.t.u.v.w.x.y.z.j.k.l.m.n.o.p.q.r.s.t.u.v.j.k.l.m.n.o.p.q.r.s.t.u.v.w.x.j.k.l.m.n.o.p.q.r.s.t.u.v.w.x.y.j.k.l.m.n.o.p.q.r.s.t.u.v.w.x.y.j.k.l.m.n.o.p.q.r.s.t.u.v.w.x.y.z.j.k.l.m.n.o.p.q.r.s.t.u.v.w.x.y.z.j.k.l.m.n.o.p.,.",
",.A.B.C.D.E.F.G.H.I.J.K.L.M.N.O.P.Q.A.B.C.D.E.F.G.H.I.J.K.L.M.A.B.C.D.E.F.G.H.I.J.K.L.M.N.O.A.B.C.D.E.F.G.H.I.J.K.L.M.N.O.P.A.B.C.D.E.F.G.H.I.J.K.L.M.N.O.P.A.B.C.D.E.F.G.H.I.J.K.L.M.N.O.P.Q.A.B.C.D.E.F.G.H.I.J.K.L.M.N.O.P.Q.A.B.C.D.E.F.G.H.I.J.K.L.M.N.O.P.Q.A.B.C.D.E.F.G.H.I.J.K.L.M.N.O.P.Q.A.B.C.D.E.F.G.H.I.J.K.L.M.N.O.P.Q.A.B.C.D.E.F.G.H.I.J.K.L.M.A.B.C.D.E.F.G.H.I.J.K.L.M.N.O.A.B.C.D.E.F.G.H.I.J.K.L.M.N.O.P.A.B.C.D.E.F.G.H.I.J.K.L.M.N.O.P.A.B.C.D.E.F.G.H.I.J.K.L.M.N.O.P.Q.A.B.C.D.E.F.G.H.I.J.K.L.M.N.O.P.Q.A.B.C.D.E.F.G.H.I.J.K.L.M.N.O.P.Q.A.B.C.D.E.F.G.H.I.J.K.L.M.N.O.P.Q.A.B.C.D.E.F.G.H.I.J.K.L.M.N.O.P.Q.A.B.C.D.E.F.G.H.I.J.K.L.M.A.B.C.D.E.F.G.H.I.J.K.L.M.N.O.A.B.C.D.E.F.G.H.I.J.K.L.M.N.O.P.A.B.C.D.E.F.G.H.I.J.K.L.M.N.O.P.A.B.C.D.E.F.G.H.I.J.K.L.M.N.O.P.Q.A.B.C.D.E.F.G.H.I.J.K.L.M.N.O.P.Q.A.B.C.D.E.F.G.H.I.J.K.L.M.N.O.P.Q.A.B.C.D.E.F.G.H.I.J.K.L.M.N.O.P.Q.A.B.C.D.E.F.G.H.I.J.K.L.M.N.O.P.Q.A.B.C.D.E.F.G.H.I.J.K.L.M.A.B.C.D.E.F.G.H.I.J.K.L.M.N.O.A.B.C.D.E.F.G.H.I.J.K.L.M.N.O.P.A.B.C.D.E.F.G.H.I.J.K.L.M.N.O.P.A.B.C.D.E.F.G.H.I.J.K.L.M.N.O.P.Q.A.B.C.D.E.F.G.H.I.J.K.L.M.N.O.P.Q.A.B.C.D.E.F.G.H.I.J.K.L.M.N.O.P.Q.A.B.C.D.E.F.G.H.I.J.K.L.M.N.O.P.Q.A.B.C.D.E.F.G.H.I.J.K.L.M.N.O.P.Q.A.B.C.D.E.F.G.H.I.J.K.L.M.A.B.C.D.E.F.G.H.I.J.K.L.M.N.O.A.B.C.D.E.F.G.H.I.J.K.L.M.N.O.P.A.B.C.D.E.F.G.H.I.J.K.L.M.N.O.P.A.B.C.D.E.F.G.H.I.J.K.L.M.N.O.P.Q.A.B.C.D.E.F.G.H.I.J.K.L.M.N.O.P.Q.A.B.C.D.E.F.G.,.",
",.,.,.,.,.,.,.,.,.,.,.,.,.,.,.,.,.,.,.,.,.,.,.,.,.,.,.,.,.,.,.,.,.,.,.,.,.,.,.,.,.,.,.,.,.,.,.,.,.,.,.,.,.,.,.,.,.,.,.,.,.,.,.,.,.,.,.,.,.,.,.,.,.,.,.,.,.,.,.,.,.,.,.,.,.,.,.,.,.,.,.,.,.,.,.,.,.,.,.,.,.,.,.,.,.,.,.,.,.,.,.,.,.,.,.,.,.,.,.,.,.,.,.,.,.,.,.,.,.,.,.,.,.,.,.,.,.,.,.,.,.,.,.,.,.,.,.,.,.,.,.,.,.,.,.,.,.,.,.,.,.,.,.,.,.,.,.,.,.,.,.,.,.,.,.,.,.,.,.,.,.,.,.,.,.,.,.,.,.,.,.,.,.,.,.,.,.,.,.,.,.,.,.,.,.,.,.,.,.,.,.,.,.,.,.,.,.,.,.,.,.,.,.,.,.,.,.,.,.,.,.,.,.,.,.,.,.,.,.,.,.,.,.,.,.,.,.,.,.,.,.,.,.,.,.,.,.,.,.,.,.,.,.,.,.,.,.,.,.,.,.,.,.,.,.,.,.,.,.,.,.,.,.,.,.,.,.,.,.,.,.,.,.,.,.,.,.,.,.,.,.,.,.,.,.,.,.,.,.,.,.,.,.,.,.,.,.,.,.,.,.,.,.,.,.,.,.,.,.,.,.,.,.,.,.,.,.,.,.,.,.,.,.,.,.,.,.,.,.,.,.,.,.,.,.,.,.,.,.,.,.,.,.,.,.,.,.,.,.,.,.,.,.,.,.,.,.,.,.,.,.,.,.,.,.,.,.,.,.,.,.,.,.,.,.,.,.,.,.,.,.,.,.,.,.,.,.,.,.,.,.,.,.,.,.,.,.,.,.,.,.,.,.,.,.,.,.,.,.,.,.,.,.,.,.,.,.,.,.,.,.,.,.,.,.,.,.,.,.,.,.,.,.,.,.,.,.,.,.,.,.,.,.,.,.,.,.,.,.,.,.,.,.,.,.,.,.,.,.,.,.,.,.,.,.,.,.,.,.,.,.,.,.,.,.,.,.,.,.,.,.,.,.,.,.,.,.,.,.,.,.,.,.,.,.,.,.,.,.,.,.,.,.,.,.,.,.,.,.,.,.,.,.,.,.,.,.,.,.,.,.,.,.,.,.,.,.,.,.,.,.,.,.,.,.,.,.,.,.,.,.,.,.,.,.,.,.,.,.,.,.,.,.,.,.,.,.,.,.,.,.,.,.,.,.,.,.,.,.,.,.,.,.,.,.,.,.,.,.,.,.,.,.,.,.,.,.,.,.,.,.,.,.,.,.,.,.,.,.,.,.,.,.,.,.,.,.,.,.,.,.,.,.,.,.,.,.,.,.,.,.,.,.,.,.,.,.,.,.,.,.,.,.,.,.,.,.,.,.,.,.,.,.,.,.,.,.,.,.,.,.,.,.,.,.,.,.,.,.,.,.,.,.,.,.,.,.,.,.,.,.,.,.,.,.,.,.,.,.,."};
