/* XPM */
static char * pinkclosingmoon_xpm[] = {
"12 12 32 1",
" 	c None",
".	c #C901C6",
"+	c #D401D0",
"@	c #C201BF",
"#	c #D101CE",
"$	c #940192",
"%	c #76013F",
"&	c #A6018A",
"*	c #DB01D8",
"=	c #8C018A",
"-	c #800146",
";	c #88015B",
">	c #B5019F",
",	c #730230",
"'	c #69022C",
")	c #E001DD",
"!	c #B501B2",
"~	c #840154",
"{	c #9E019C",
"]	c #7A0233",
"^	c #750135",
"/	c #C401C1",
"(	c #E801E4",
"_	c #6E022E",
":	c #850155",
"<	c #BF01A4",
"[	c #9C0186",
"}	c #990167",
"|	c #D901D6",
"1	c #990197",
"2	c #8B015E",
"3	c #CF01CB",
"............",
"++.@.#++++++",
"++.$%&.+++++",
"***.=-;.****",
"****>,'=#***",
"))))>'!~.)))",
")))){]'^/)))",
"(((.=]_:.(((",
"((((<[_}|(((",
"(((.1]2.((((",
"((.=-{.(((((",
"((..3((((((("};
