/* XPM */
static char * PinkSub_xpm[] = {
"10 9 4 1",
" 	c None",
".	c #E683E5",
"+	c #FF5EFF",
"@	c #E668E5",
"          ",
"          ",
"          ",
"          ",
"          ",
"    .+.   ",
"   .+ . +.",
" @.   .+. ",
"          "};
