/* XPM */
static char * PinkButtontb_xpm[] = {
"21 17 136 2",
"  	c None",
". 	c #F77EF7",
"+ 	c #F799F7",
"@ 	c #FAA7FA",
"# 	c #FAA6FA",
"$ 	c #FA9FFA",
"% 	c #F89DF7",
"& 	c #F496ED",
"* 	c #F08FE4",
"= 	c #F091E5",
"- 	c #F091E6",
"; 	c #F598F0",
"> 	c #F99FF8",
", 	c #F99EF8",
"' 	c #F698F0",
") 	c #F191E6",
"! 	c #F090E4",
"~ 	c #F99DF7",
"{ 	c #FAA0FA",
"] 	c #FAA8FB",
"^ 	c #FAA8FA",
"/ 	c #FA9CF9",
"( 	c #FA9CFA",
"_ 	c #F999F7",
": 	c #F391EB",
"< 	c #E880D3",
"[ 	c #E379C9",
"} 	c #E77ED1",
"| 	c #F18EE7",
"1 	c #F899F6",
"2 	c #F99AF7",
"3 	c #E881D3",
"4 	c #F392EA",
"5 	c #F99BF7",
"6 	c #FA9EFA",
"7 	c #F99EF9",
"8 	c #F992F9",
"9 	c #F388ED",
"0 	c #E777D3",
"a 	c #DF6AC1",
"b 	c #E26EC7",
"c 	c #E675D0",
"d 	c #EB7BDB",
"e 	c #F387EC",
"f 	c #F489EE",
"g 	c #F185E7",
"h 	c #DF6BC1",
"i 	c #E778D3",
"j 	c #F389ED",
"k 	c #F993F9",
"l 	c #F994F9",
"m 	c #EF72E4",
"n 	c #E363CC",
"o 	c #E564CF",
"p 	c #E868D6",
"q 	c #E566D0",
"r 	c #ED70E0",
"s 	c #F478EE",
"t 	c #EE72E2",
"u 	c #E76AD3",
"v 	c #E567D0",
"w 	c #E869D6",
"x 	c #F768F7",
"y 	c #F362EE",
"z 	c #EE5CE4",
"A 	c #F15FE9",
"B 	c #EA5ADB",
"C 	c #EA5CDA",
"D 	c #ED60E1",
"E 	c #E95BD8",
"F 	c #E657D1",
"G 	c #F74DF7",
"H 	c #F750F6",
"I 	c #F64FF5",
"J 	c #F54FF3",
"K 	c #ED4AE2",
"L 	c #E545CF",
"M 	c #E445CF",
"N 	c #E344CB",
"O 	c #E344CC",
"P 	c #F739F7",
"Q 	c #F746F7",
"R 	c #F646F5",
"S 	c #F243EC",
"T 	c #E93ED9",
"U 	c #E53BD0",
"V 	c #E43BCE",
"W 	c #F751F7",
"X 	c #F54FF2",
"Y 	c #EC49DF",
"Z 	c #E344CD",
"` 	c #E343CC",
" .	c #E243CA",
"..	c #EF5CE4",
"+.	c #F260EB",
"@.	c #F664F3",
"#.	c #F261EC",
"$.	c #EA59DA",
"%.	c #E556D0",
"&.	c #E455CE",
"*.	c #E456CE",
"=.	c #E665D2",
"-.	c #F071E6",
";.	c #ED6FE1",
">.	c #E566CE",
",.	c #E566CF",
"'.	c #E466CD",
").	c #ED70E1",
"!.	c #E06BC3",
"~.	c #E673CF",
"{.	c #EA79D8",
"].	c #E775D1",
"^.	c #EB7DDB",
"/.	c #EE81E0",
"(.	c #EF82E2",
"_.	c #EE81E1",
":.	c #E776D1",
"<.	c #EA7AD8",
"[.	c #E47ACA",
"}.	c #E77FD2",
"|.	c #E77FD1",
"1.	c #EF8CE3",
"2.	c #F391EA",
"3.	c #F08CE4",
"4.	c #F390EA",
"5.	c #EF8BE3",
"6.	c #F090E5",
"7.	c #E984D7",
"8.	c #F190E6",
"9.	c #F895F8",
"0.	c #F894F7",
"a.	c #F793F6",
"b.	c #F793F5",
"c.	c #F48DEE",
"d.	c #F087E6",
"e.	c #F896F9",
". . . . . . . . . . . . . . . . . . . . . ",
"+ + + + + + + + + + + + + + + + + + + + + ",
"@ # $ % & * = - ; > $ , ' ) = ! & ~ { ] ^ ",
"/ ( _ : < [ } < | 1 2 1 | < } [ 3 4 5 6 7 ",
"8 8 9 0 a b c d e f g f e d c b h i j k l ",
". . m n o p q r s t u t s r v w o n m . . ",
"x x y z A A B C D E F E D C B A A z y x x ",
"G G H I H J K L M N O N M L K J H I H G G ",
"P P Q Q Q R S T U V V V U T S R Q Q Q P P ",
"G G H I H W X Y Z `  .` Z Y X W H I H G G ",
"x x y ..+.@.#.$.%.&.*.&.%.$.#.@.+...y x x ",
". . m n =.-.;.>.,.'.v '.,.>.).-.=.n m . . ",
"8 8 9 0 !.~.{.].^./.(._.^.:.<.~.!.i j k l ",
"/ ( _ : 3 [.}.|.1.2.3.4.5.|.}.[.3 4 5 6 7 ",
"@ # $ % & * - - & 6.7.6.& 8.) ! & ~ { ] ^ ",
"+ + 9.9.0.a.a.b.b.c.d.c.b.b.a.a.0.9.e.+ + ",
". . . . . . . . . . . . . . . . . . . . . "};
