/* XPM */
static char * PinkWorktb_xpm[] = {
"21 17 101 2",
"  	c None",
". 	c #F77EF7",
"+ 	c #F799F7",
"@ 	c #F48DEE",
"# 	c #EF86E4",
"$ 	c #F28CEC",
"% 	c #F793F5",
"& 	c #F894F7",
"* 	c #F793F6",
"= 	c #F895F8",
"- 	c #EF86E5",
"; 	c #F48EEF",
"> 	c #FAA7FA",
", 	c #F18FE6",
"' 	c #E47CCD",
") 	c #E883D4",
"! 	c #F394EC",
"~ 	c #F496EE",
"{ 	c #F090E6",
"] 	c #F496ED",
"^ 	c #F99DF7",
"/ 	c #FA9FF8",
"( 	c #F99EF7",
"_ 	c #FA9EF8",
": 	c #F091E5",
"< 	c #F497EE",
"[ 	c #F395EB",
"} 	c #E884D4",
"| 	c #E47DCD",
"1 	c #FAA8FA",
"2 	c #FA9CF9",
"3 	c #F491EE",
"4 	c #E87FD5",
"5 	c #E57ACD",
"6 	c #EF8BE3",
"7 	c #E57CCD",
"8 	c #E982D5",
"9 	c #F492EC",
"0 	c #F594EF",
"a 	c #F190E8",
"b 	c #E57BCD",
"c 	c #E980D5",
"d 	c #F493EE",
"e 	c #F99EF9",
"f 	c #F992F9",
"g 	c #F88DF6",
"h 	c #F386ED",
"i 	c #F081E5",
"j 	c #F487ED",
"k 	c #F385EB",
"l 	c #E875D4",
"m 	c #E471CC",
"n 	c #EE80E2",
"o 	c #EF81E4",
"p 	c #E978D6",
"q 	c #E876D4",
"r 	c #F386EB",
"s 	c #F387ED",
"t 	c #F88EF6",
"u 	c #F994F9",
"v 	c #F87DF8",
"w 	c #F87CF7",
"x 	c #F77BF5",
"y 	c #F67AF3",
"z 	c #F274EA",
"A 	c #EF6FE4",
"B 	c #F275EB",
"C 	c #F175EA",
"D 	c #EE70E3",
"E 	c #EF70E4",
"F 	c #F67BF3",
"G 	c #F77CF5",
"H 	c #F77BF6",
"I 	c #F768F7",
"J 	c #F867F8",
"K 	c #F767F7",
"L 	c #F666F4",
"M 	c #F364ED",
"N 	c #EF62E5",
"O 	c #F263EC",
"P 	c #F565F2",
"Q 	c #EE60E2",
"R 	c #ED60E1",
"S 	c #F74DF7",
"T 	c #F751F6",
"U 	c #F34FED",
"V 	c #EE4DE2",
"W 	c #EA4ADA",
"X 	c #E547D1",
"Y 	c #EE4CE3",
"Z 	c #F54FF1",
"` 	c #E546CF",
" .	c #E546D0",
"..	c #F739F7",
"+.	c #F646F5",
"@.	c #EF43E5",
"#.	c #E640D2",
"$.	c #E63ED1",
"%.	c #E53BD0",
"&.	c #EE41E4",
"*.	c #F544F1",
". . . . . . . . . . . . . . . . . . . . . ",
"+ @ # $ % & * & = = = = = & * & % $ - ; + ",
"> , ' ) ! ~ { ] ^ / ( _ ^ ] : < [ } | { 1 ",
"2 3 4 5 6 6 7 8 9 0 a 0 9 8 7 6 6 b c d e ",
"f g h i j k l m n o p o n m q r j i s t u ",
". v w x x y z A B C D C B E z F G H w v . ",
"I J K L M N O P O Q R Q O P O N M L K J I ",
"S T U V W X Y Z Y `  .` Y Z Y X W V U T S ",
"..+.@.#.$.%.&.*.&.%.%.%.&.*.&.%.$.#.@.+...",
"S T U V W X Y Z Y `  .` Y Z Y X W V U T S ",
"I J K L M N O P O Q R Q O P O N M L K J I ",
". v w x x y z A B C D C B E z F G H w v . ",
"f g h i j k l m n o p o n m q r j i s t u ",
"2 3 4 5 6 6 7 8 9 0 a 0 9 8 7 6 6 b c d e ",
"> , ' ) ! ~ { ] ^ / ( _ ^ ] : < [ } | { 1 ",
"+ @ # $ % & * & = = = = = & * & % $ - ; + ",
". . . . . . . . . . . . . . . . . . . . . "};
