/* XPM */
static char * pinkstickbutton_xpm[] = {
"12 12 18 1",
" 	c None",
".	c #C901C6",
"+	c #D401D0",
"@	c #DB01D8",
"#	c #C001BD",
"$	c #A301A1",
"%	c #9C0199",
"&	c #E001DD",
"*	c #C301C1",
"=	c #940192",
"-	c #824B5B",
";	c #82535B",
">	c #8C018A",
",	c #825D5B",
"'	c #84A45F",
")	c #827E5B",
"!	c #E801E4",
"~	c #C801C5",
"............",
"++++++++++++",
"++++++++++++",
"@@@@@@@@@@@@",
"@@@@#$%#@@@@",
"&&&*=-;=*&&&",
"&&&$>,')$&&&",
"!!!%)',>%!!!",
"!!!~=;-=~!!!",
"!!!!~$%~!!!!",
"!!!!!!!!!!!!",
"!!!!!!!!!!!!"};
