/* XPM */
static char * PinkSubsAct_xpm[] = {
"10 9 3 1",
" 	c None",
".	c #72217A",
"+	c #37103B",
"          ",
"          ",
"          ",
"       .  ",
"      .+. ",
"     +  + ",
"       +. ",
" ..+++..  ",
".         "};
