/* XPM */
static char * PinkBubbleBottom_xpm[] = {
"10 4 7 1",
" 	c None",
".	c #540151",
"+	c #7B0177",
"@	c #82017E",
"#	c #AD01A9",
"$	c #B301AE",
"%	c #A3019F",
"..........",
"+@+@+@+@+@",
"##$#$#$#$#",
"%%%%%%%%%%"};
