/* XPM */
static char * pressWt01_xpm[] = {
"12 12 31 1",
" 	c None",
".	c #C901C6",
"+	c #D401D0",
"@	c #DB01D8",
"#	c #DB01D7",
"$	c #DA01D5",
"%	c #D901D5",
"&	c #D801D1",
"*	c #D301C7",
"=	c #D501CB",
"-	c #E001DD",
";	c #DF01DB",
">	c #D601CA",
",	c #C902B0",
"'	c #C602AB",
")	c #E101DE",
"!	c #DB01D1",
"~	c #C902AD",
"{	c #B60387",
"]	c #E801E4",
"^	c #E501E1",
"/	c #DE01D3",
"(	c #CC02AF",
"_	c #B80389",
":	c #E701E3",
"<	c #DE01D1",
"[	c #D002B6",
"}	c #CD02B0",
"|	c #E301DC",
"1	c #E101D5",
"2	c #E801E3",
"............",
"++++++++++++",
"++++++++++++",
"@@@#$%%$#@@@",
"@@@&*==*&@@@",
"--;>,'',>;--",
"--)!~{{~!)--",
"]]^/(__(/^]]",
"]]:<[}}[<:]]",
"]]]|<11<|]]]",
"]]]]:22:]]]]",
"]]]]]]]]]]]]"};
