/* XPM */
static char * snake01_xpm[] = {
"29 12 344 2",
"  	c #B400A3",
". 	c #AC03AE",
"+ 	c #BD02C1",
"@ 	c #D203CF",
"# 	c #B900BD",
"$ 	c #CF02CF",
"% 	c #DF07DD",
"& 	c #E804D4",
"* 	c #A3009C",
"= 	c #A5069C",
"- 	c #A0009D",
"; 	c #A6019B",
"> 	c #E007DB",
", 	c #B602BB",
"' 	c #E004DB",
") 	c #E606E9",
"! 	c #DE01CA",
"~ 	c #BF00BA",
"{ 	c #B100A8",
"] 	c #B005BB",
"^ 	c #B300B2",
"/ 	c #DA05CE",
"( 	c #B001AB",
"_ 	c #A1009D",
": 	c #C703C4",
"< 	c #A5009E",
"[ 	c #B303B2",
"} 	c #CC04C4",
"| 	c #C302CA",
"1 	c #AB00A8",
"2 	c #D206CA",
"3 	c #BB00BD",
"4 	c #AE01B0",
"5 	c #C700CA",
"6 	c #C201AE",
"7 	c #C000C0",
"8 	c #DC08D2",
"9 	c #BB00B5",
"0 	c #9F0393",
"a 	c #A1009E",
"b 	c #B200A0",
"c 	c #B400AB",
"d 	c #E101F7",
"e 	c #D501CB",
"f 	c #C000C3",
"g 	c #E100D2",
"h 	c #C806D7",
"i 	c #BC0095",
"j 	c #A901B5",
"k 	c #BB07B3",
"l 	c #AA01A4",
"m 	c #ED05EC",
"n 	c #A406AF",
"o 	c #FD03F8",
"p 	c #B708B0",
"q 	c #B100BA",
"r 	c #B303B9",
"s 	c #B400A6",
"t 	c #A400A0",
"u 	c #FC12FB",
"v 	c #E70EE5",
"w 	c #A4019F",
"x 	c #BD05BA",
"y 	c #AF03A7",
"z 	c #B800B0",
"A 	c #B704B1",
"B 	c #C904C9",
"C 	c #A4009A",
"D 	c #A2079E",
"E 	c #DE01D0",
"F 	c #A402A0",
"G 	c #BB03B3",
"H 	c #BB04BC",
"I 	c #B600B6",
"J 	c #BD00B4",
"K 	c #DC0ADC",
"L 	c #B400AC",
"M 	c #9F04A1",
"N 	c #B200AF",
"O 	c #9A04A4",
"P 	c #DC04D9",
"Q 	c #E00AF8",
"R 	c #DC01D9",
"S 	c #E301DD",
"T 	c #C200C0",
"U 	c #9C0692",
"V 	c #9D0095",
"W 	c #BC02BF",
"X 	c #E104E1",
"Y 	c #F70FF7",
"Z 	c #D900E1",
"` 	c #AE00A9",
" .	c #B005A9",
"..	c #B204AB",
"+.	c #A3029C",
"@.	c #D804CD",
"#.	c #B802BA",
"$.	c #B805AA",
"%.	c #F300F6",
"&.	c #DE01CB",
"*.	c #AD01B8",
"=.	c #AF02A9",
"-.	c #B306B5",
";.	c #AF08A9",
">.	c #C200BA",
",.	c #CA02CF",
"'.	c #970290",
").	c #E00FE2",
"!.	c #CE03D3",
"~.	c #9D00A5",
"{.	c #D402DE",
"].	c #BC00B8",
"^.	c #D105C7",
"/.	c #CA05C4",
"(.	c #B200A2",
"_.	c #A9079E",
":.	c #E801E4",
"<.	c #C100CA",
"[.	c #D103D0",
"}.	c #FB06E6",
"|.	c #C100BA",
"1.	c #AF05A6",
"2.	c #AC00A6",
"3.	c #A900A3",
"4.	c #B802AD",
"5.	c #DC03E1",
"6.	c #D000CA",
"7.	c #C405C4",
"8.	c #EA03D6",
"9.	c #CE09D9",
"0.	c #A900A1",
"a.	c #AE01A8",
"b.	c #B600A5",
"c.	c #AD02B3",
"d.	c #E203E0",
"e.	c #C00ACA",
"f.	c #F70AF1",
"g.	c #F30AF3",
"h.	c #B400B2",
"i.	c #D303D1",
"j.	c #B206AB",
"k.	c #B600AA",
"l.	c #C503BE",
"m.	c #C302B5",
"n.	c #AD05A5",
"o.	c #C408C8",
"p.	c #BE00B3",
"q.	c #C401BB",
"r.	c #C807C8",
"s.	c #E708E1",
"t.	c #A4009C",
"u.	c #B402B2",
"v.	c #CB04CA",
"w.	c #A604AA",
"x.	c #B105A7",
"y.	c #C100C7",
"z.	c #B200AB",
"A.	c #B900B1",
"B.	c #F303F2",
"C.	c #AC00A9",
"D.	c #B900AB",
"E.	c #AC02A5",
"F.	c #A203A0",
"G.	c #B307B5",
"H.	c #FC0BFF",
"I.	c #E102DC",
"J.	c #CF02DA",
"K.	c #F607EF",
"L.	c #AE01B8",
"M.	c #AA00A3",
"N.	c #B403A8",
"O.	c #B800B5",
"P.	c #C705BE",
"Q.	c #A802A5",
"R.	c #B405B2",
"S.	c #C502C1",
"T.	c #AB08AE",
"U.	c #DF05D8",
"V.	c #A2019F",
"W.	c #B804AF",
"X.	c #FF02FF",
"Y.	c #D906D6",
"Z.	c #AF00A7",
"`.	c #B205AA",
" +	c #B200A5",
".+	c #B2049E",
"++	c #C900D0",
"@+	c #D205D9",
"#+	c #930294",
"$+	c #B508AF",
"%+	c #F000E1",
"&+	c #99079F",
"*+	c #DE04DC",
"=+	c #C201BE",
"-+	c #C102C6",
";+	c #F000D8",
">+	c #C903D0",
",+	c #9B0294",
"'+	c #B501A8",
")+	c #A30799",
"!+	c #C801C6",
"~+	c #A701A5",
"{+	c #B700BE",
"]+	c #AE00A2",
"^+	c #A807A5",
"/+	c #AD00A3",
"(+	c #B300B3",
"_+	c #C70BC7",
":+	c #CA00C3",
"<+	c #D900D2",
"[+	c #E700DD",
"}+	c #CF04D5",
"|+	c #A7009B",
"1+	c #B102B3",
"2+	c #AA04AA",
"3+	c #A7029D",
"4+	c #D908EA",
"5+	c #A00091",
"6+	c #D60ACF",
"7+	c #F301E5",
"8+	c #CB01E2",
"9+	c #A80997",
"0+	c #AD00A6",
"a+	c #BD04B3",
"b+	c #BE00B9",
"c+	c #D105CC",
"d+	c #B103A7",
"e+	c #A803A4",
"f+	c #A900A6",
"g+	c #B206AE",
"h+	c #D201D0",
"i+	c #CF0ADA",
"j+	c #A2009C",
"k+	c #A20099",
"l+	c #DF11DA",
"m+	c #B403BD",
"n+	c #C302C6",
"o+	c #CF04CE",
"p+	c #C402B7",
"q+	c #C500C9",
"r+	c #F208F1",
"s+	c #A102A6",
"t+	c #B300A8",
"u+	c #A001A0",
"v+	c #A9019D",
"w+	c #C600D1",
"x+	c #D601D0",
"y+	c #EE03E1",
"z+	c #B304AD",
"A+	c #FB02E7",
"B+	c #BE03B9",
"C+	c #A5009C",
"D+	c #AD03A2",
"E+	c #A602A7",
"F+	c #BC05B6",
"G+	c #920792",
"H+	c #E800EB",
"I+	c #850982",
"J+	c #D007D3",
"K+	c #F314F4",
"L+	c #8E019B",
"M+	c #B900A9",
"N+	c #FA14FF",
"O+	c #DB0CEA",
"P+	c #B200B4",
"Q+	c #BE02C0",
"R+	c #B900B0",
"S+	c #B902B2",
"T+	c #D104D8",
"U+	c #CD02CC",
"V+	c #900789",
"W+	c #D105C8",
"X+	c #D400D7",
"Y+	c #98038A",
"Z+	c #DA03DF",
"`+	c #BC00AC",
" @	c #C004BD",
".@	c #C800B5",
"+@	c #E701DD",
"@@	c #AE00A6",
"#@	c #A0089F",
"$@	c #AD02AB",
"%@	c #D80AE0",
"&@	c #DA05E1",
"*@	c #FF01FC",
"=@	c #AE01BE",
"-@	c #C30CBF",
";@	c #DA00E1",
">@	c #C209D4",
",@	c #F60BEA",
"'@	c #DC03E2",
")@	c #D301E2",
"!@	c #DB02D8",
"~@	c #A204A8",
"{@	c #A901A2",
"]@	c #B200A8",
"^@	c #B803C3",
"/@	c #E103D5",
"(@	c #97009C",
"_@	c #D801D1",
":@	c #F808F3",
"<@	c #BB02B9",
"[@	c #B507AB",
"}@	c #BC03B5",
"|@	c #B500A9",
"1@	c #B103A1",
"2@	c #CD01C2",
"3@	c #B907B6",
"4@	c #AD00A5",
"5@	c #B005A4",
"6@	c #C700CC",
"7@	c #AB00AD",
"8@	c #F70FFE",
"9@	c #C702C3",
"0@	c #D403D4",
"a@	c #BA00B1",
"b@	c #F015F4",
"c@	c #E203EE",
"d@	c #F104F7",
"e@	c #D203E2",
"f@	c #D203D4",
"g@	c #E301E2",
"h@	c #C000BE",
"i@	c #A50598",
"j@	c #AE019C",
"k@	c #A800AE",
"l@	c #C804C5",
"m@	c #C904C6",
"n@	c #CD02C9",
"o@	c #F402E3",
"p@	c #B602AF",
"q@	c #AF03A9",
"r@	c #B100AC",
"s@	c #A6009D",
"t@	c #AD05A2",
"u@	c #F001DF",
"v@	c #9C03A8",
"w@	c #D705D4",
"x@	c #FA00ED",
"y@	c #B200B3",
"z@	c #C70BD0",
"A@	c #BF00AB",
"B@	c #BD04C3",
"C@	c #C201BD",
"  . + @ # $ % & * = - ; > , ' ) ! ~ { ] ^ / ( _ : < [ } | ",
"1 2 3 4 5 6 7 8 9 0 a b c d e f g h i j k l m n o p q r s ",
"t u v w x y z A B C D E F G H I J K L M N O P Q R S T U V ",
"W X Y Z `  ...+.@.#.$.%.&.*.=.-.;.>.,.'.).!.~.{.].^./.(._.",
":.<.[.}.|.1.2.3.4.5.6.7.8.9.0.a.b.c.d.e.f.g.h.i.j.k.l.m.n.",
"o.p.q.r.s.t.u.v.w.x.y.z.A.B.C.D.E.F.G.H.I.J.K.L.M.N.O.P.Q.",
"h.R.S.T.U.V.W.X.Y.Z.`. +.+++@+#+$+%+&+*+=+-+;+>+,+'+)+!+~+",
"{+]+^+/+(+_+:+<+[+}+|+1+2+3+4+5+6+7+8+9+0+a+b+c+d+e+f+g+h+",
"i+j+k+l+m+n+o+p+q+r+s+t+u+v+w+x+y+z+A+B+C+D+E+J F+G+H+I+J+",
"K+L+M+N+O+P+Q+R+S+T+U+V+W+X+Y+Z+`+ @.@+@@@#@0.$@%@&@*@=@-@",
";@>@,@'@)@!@~@{@]@^@/@(@_@:@<@[@}@|@1@2@3@4@5@6@7@8@9@0@a@",
"b@c@d@e@f@g@h@i@j@k@l@m@W+n@o@p@q@r@s@t@u@v@w@x@y@z@A@B@C@"};
