/* XPM */
static char * snake02_xpm[] = {
"200 12 378 2",
"  	c #C100C7",
". 	c #B200AB",
"+ 	c #B900B1",
"@ 	c #F303F2",
"# 	c #AC00A9",
"$ 	c #B900AB",
"% 	c #AC02A5",
"& 	c #A203A0",
"* 	c #B307B5",
"= 	c #FC0BFF",
"- 	c #E102DC",
"; 	c #CF02DA",
"> 	c #F607EF",
", 	c #AE01B8",
"' 	c #AA00A3",
") 	c #B403A8",
"! 	c #B800B5",
"~ 	c #C705BE",
"{ 	c #A802A5",
"] 	c #B004B0",
"^ 	c #9D0499",
"/ 	c #B506B0",
"( 	c #D200CF",
"_ 	c #C301C1",
": 	c #DA04DE",
"< 	c #A1029F",
"[ 	c #A303A2",
"} 	c #9E008D",
"| 	c #A404A2",
"1 	c #B803B0",
"2 	c #B903B3",
"3 	c #DB0DE0",
"4 	c #B205AA",
"5 	c #B200A5",
"6 	c #B2049E",
"7 	c #C900D0",
"8 	c #D205D9",
"9 	c #930294",
"0 	c #B508AF",
"a 	c #F000E1",
"b 	c #99079F",
"c 	c #DE04DC",
"d 	c #C201BE",
"e 	c #C102C6",
"f 	c #F000D8",
"g 	c #C903D0",
"h 	c #9B0294",
"i 	c #B501A8",
"j 	c #A30799",
"k 	c #C801C6",
"l 	c #A701A5",
"m 	c #F208EF",
"n 	c #C702C2",
"o 	c #A90AAA",
"p 	c #B300B3",
"q 	c #B601B7",
"r 	c #C703BD",
"s 	c #C403BC",
"t 	c #8F0188",
"u 	c #9B0194",
"v 	c #A902A5",
"w 	c #AA01A9",
"x 	c #B501C3",
"y 	c #E311E3",
"z 	c #A7009B",
"A 	c #B102B3",
"B 	c #AA04AA",
"C 	c #A7029D",
"D 	c #D908EA",
"E 	c #A00091",
"F 	c #D60ACF",
"G 	c #F301E5",
"H 	c #CB01E2",
"I 	c #A80997",
"J 	c #AD00A6",
"K 	c #BD04B3",
"L 	c #BE00B9",
"M 	c #D105CC",
"N 	c #B103A7",
"O 	c #A803A4",
"P 	c #A900A6",
"Q 	c #B206AE",
"R 	c #D201D0",
"S 	c #E904E2",
"T 	c #E708E1",
"U 	c #BB00B7",
"V 	c #AA01A2",
"W 	c #AE07A9",
"X 	c #B200A6",
"Y 	c #BF08B7",
"Z 	c #A301A1",
"` 	c #95048C",
" .	c #A703A0",
"..	c #A704A6",
"+.	c #AA01AB",
"@.	c #DB06E4",
"#.	c #A102A6",
"$.	c #B300A8",
"%.	c #A001A0",
"&.	c #A9019D",
"*.	c #C600D1",
"=.	c #D601D0",
"-.	c #EE03E1",
";.	c #B304AD",
">.	c #FB02E7",
",.	c #BE03B9",
"'.	c #A5009C",
").	c #AD03A2",
"!.	c #A602A7",
"~.	c #BD00B4",
"{.	c #BC05B6",
"].	c #920792",
"^.	c #E800EB",
"/.	c #850982",
"(.	c #D007D3",
"_.	c #C500C2",
":.	c #C800C4",
"<.	c #D708D8",
"[.	c #A5019B",
"}.	c #A1049B",
"|.	c #A600A1",
"1.	c #B507B2",
"2.	c #A20299",
"3.	c #C603C1",
"4.	c #AD01A4",
"5.	c #AB03A6",
"6.	c #C202C9",
"7.	c #CD02CC",
"8.	c #900789",
"9.	c #D105C8",
"0.	c #D400D7",
"a.	c #98038A",
"b.	c #DA03DF",
"c.	c #BC00AC",
"d.	c #C004BD",
"e.	c #C800B5",
"f.	c #E701DD",
"g.	c #AE00A6",
"h.	c #A0089F",
"i.	c #A900A1",
"j.	c #AD02AB",
"k.	c #D80AE0",
"l.	c #DA05E1",
"m.	c #FF01FC",
"n.	c #AE01BE",
"o.	c #C30CBF",
"p.	c #B600AD",
"q.	c #B203A4",
"r.	c #E000DA",
"s.	c #9E019A",
"t.	c #A1039A",
"u.	c #9B009B",
"v.	c #B204AB",
"w.	c #C205B7",
"x.	c #F200ED",
"y.	c #C809BB",
"z.	c #B403B4",
"A.	c #A3029C",
"B.	c #E103D5",
"C.	c #97009C",
"D.	c #D801D1",
"E.	c #F808F3",
"F.	c #BB02B9",
"G.	c #B507AB",
"H.	c #BC03B5",
"I.	c #B500A9",
"J.	c #B103A1",
"K.	c #CD01C2",
"L.	c #B907B6",
"M.	c #AD00A5",
"N.	c #B005A4",
"O.	c #C700CC",
"P.	c #AB00AD",
"Q.	c #F70FFE",
"R.	c #C702C3",
"S.	c #D403D4",
"T.	c #BA00B1",
"U.	c #A5059A",
"V.	c #AC00A6",
"W.	c #B903B5",
"X.	c #C501C3",
"Y.	c #A103A2",
"Z.	c #A20198",
"`.	c #9E04A1",
" +	c #A5009E",
".+	c #C403C8",
"++	c #C501BF",
"@+	c #C807BF",
"#+	c #BC02B7",
"$+	c #9F009F",
"%+	c #C804C5",
"&+	c #C904C6",
"*+	c #CD02C9",
"=+	c #F402E3",
"-+	c #B602AF",
";+	c #AF03A9",
">+	c #B100AC",
",+	c #A6009D",
"'+	c #AD05A2",
")+	c #F001DF",
"!+	c #9C03A8",
"~+	c #D705D4",
"{+	c #FA00ED",
"]+	c #B200B3",
"^+	c #C70BD0",
"/+	c #BF00AB",
"(+	c #BD04C3",
"_+	c #C201BD",
":+	c #AD01A6",
"<+	c #A00199",
"[+	c #AB05A8",
"}+	c #C305BB",
"|+	c #9D069F",
"1+	c #BD04BC",
"2+	c #B802B0",
"3+	c #960092",
"4+	c #BA05B4",
"5+	c #B800AA",
"6+	c #B102AD",
"7+	c #C702BF",
"8+	c #AD01AE",
"9+	c #AF00AC",
"0+	c #D904BD",
"a+	c #C002B3",
"b+	c #BF00AE",
"c+	c #CC02CE",
"d+	c #E509D3",
"e+	c #AD00A9",
"f+	c #A804A8",
"g+	c #AA01AA",
"h+	c #A5029E",
"i+	c #DD08D9",
"j+	c #D709D0",
"k+	c #E902E3",
"l+	c #DA00D6",
"m+	c #CA02C8",
"n+	c #AE01AF",
"o+	c #B1029E",
"p+	c #AE02AB",
"q+	c #C707C0",
"r+	c #BB02B7",
"s+	c #A00698",
"t+	c #A2019F",
"u+	c #BA00B3",
"v+	c #BC04BA",
"w+	c #D904DE",
"x+	c #D701CF",
"y+	c #A604A2",
"z+	c #A601A1",
"A+	c #AC039C",
"B+	c #AF04A7",
"C+	c #BD00B5",
"D+	c #BB04BE",
"E+	c #C210CE",
"F+	c #C200BA",
"G+	c #AF01A4",
"H+	c #A805A1",
"I+	c #AA049F",
"J+	c #CF00D6",
"K+	c #BA01B7",
"L+	c #9C059B",
"M+	c #B603B8",
"N+	c #BD00BA",
"O+	c #9E02A0",
"P+	c #E300DF",
"Q+	c #BE06C7",
"R+	c #C100AF",
"S+	c #DB05D7",
"T+	c #C801B8",
"U+	c #A408A4",
"V+	c #B2009E",
"W+	c #B802AE",
"X+	c #C100BC",
"Y+	c #A00196",
"Z+	c #B504AF",
"`+	c #9A0195",
" @	c #D503C7",
".@	c #C600C5",
"+@	c #C401BE",
"@@	c #C402BE",
"#@	c #A003A3",
"$@	c #9A038F",
"%@	c #B200A2",
"&@	c #AB019F",
"*@	c #BD01C0",
"=@	c #ED06E8",
"-@	c #D101C9",
";@	c #A7049E",
">@	c #AD00AB",
",@	c #AA02A8",
"'@	c #D603DA",
")@	c #920197",
"!@	c #D409D3",
"~@	c #FF01FB",
"{@	c #98019A",
"]@	c #D709CE",
"^@	c #AA00A9",
"/@	c #B301A9",
"(@	c #C508BA",
"_@	c #D000D7",
":@	c #A70395",
"<@	c #A508A1",
"[@	c #A602A0",
"}@	c #CB02BA",
"|@	c #AD01A8",
"1@	c #F305F5",
"2@	c #B100B3",
"3@	c #B908B4",
"4@	c #B400B6",
"5@	c #AE04A0",
"6@	c #CD03BF",
"7@	c #A500A1",
"8@	c #980594",
"9@	c #AB00A4",
"0@	c #9F0299",
"a@	c #BE05AF",
"b@	c #D300CF",
"c@	c #F007EF",
"d@	c #AC00A0",
"e@	c #A8079D",
"f@	c #A4039B",
"g@	c #E001CF",
"h@	c #BE08D4",
"i@	c #F101E2",
"j@	c #DB00D4",
"k@	c #E001D0",
"l@	c #B904B6",
"m@	c #A800A4",
"n@	c #A7019A",
"o@	c #A501A9",
"p@	c #C402C5",
"q@	c #AA049C",
"r@	c #B3019E",
"s@	c #AE06A8",
"t@	c #AF04A6",
"u@	c #D400D8",
"v@	c #DF02E0",
"w@	c #CD08C8",
"x@	c #AA009F",
"y@	c #A7009F",
"z@	c #A9009B",
"A@	c #BC00A9",
"B@	c #BE02B5",
"C@	c #9E0198",
"D@	c #A00293",
"E@	c #A402A0",
"F@	c #B104AD",
"G@	c #C000BA",
"H@	c #E802E9",
"I@	c #B901B7",
"J@	c #990894",
"K@	c #B100AE",
"L@	c #B301AC",
"M@	c #8C0196",
"N@	c #F604E7",
"O@	c #BE01BB",
"P@	c #C506B9",
"Q@	c #DC02D4",
"R@	c #C709C7",
"S@	c #AD00A2",
"T@	c #BB01A3",
"U@	c #B706B4",
"V@	c #B001AB",
"W@	c #B401B4",
"X@	c #BD06BA",
"Y@	c #E206DB",
"Z@	c #A500A7",
"`@	c #D302D5",
" #	c #B605AE",
".#	c #CB01BE",
"+#	c #B202AA",
"@#	c #A00192",
"##	c #A7039B",
"$#	c #BD05B9",
"%#	c #9A009D",
"&#	c #A20199",
"*#	c #B000A6",
"=#	c #97039A",
"  . + @ # $ % & * = - ; > , ' ) ! ~ { ] ^ / ( _ : < [ } | 1 2   . + @ # $ % & * = - ; > , ' ) ! ~ { ] ^ / ( _ : < [ } | 1 2   . + @ # $ % & * = - ; > , ' ) ! ~ { ] ^ / ( _ : < [ } | 1 2   . + @ # $ % & * = - ; > , ' ) ! ~ { ] ^ / ( _ : < [   . + @ # $ % & * = - ; > , ' ) ! ~ { ] ^ / ( _ : < [ } | 1 2 3   . + @ # $ % & * = - ; > , ' ) ! ~ { ] ^ / ( _ : < [ }   . + @ # $ % & * = - ; > , ' ) ! ~ { ] ",
"4 5 6 7 8 9 0 a b c d e f g h i j k l m n o p q r s t u v w x 4 5 6 7 8 9 0 a b c d e f g h i j k l m n o p q r s t u v w x 4 5 6 7 8 9 0 a b c d e f g h i j k l m n o p q r s t u v w x 4 5 6 7 8 9 0 a b c d e f g h i j k l m n o p q r s t 4 5 6 7 8 9 0 a b c d e f g h i j k l m n o p q r s t u v w x y 4 5 6 7 8 9 0 a b c d e f g h i j k l m n o p q r s t u 4 5 6 7 8 9 0 a b c d e f g h i j k l m ",
"z A B C D E F G H I J K L M N O P Q R S T U V W X Y Z `  ...+.z A B C D E F G H I J K L M N O P Q R S T U V W X Y Z `  ...+.z A B C D E F G H I J K L M N O P Q R S T U V W X Y Z `  ...+.z A B C D E F G H I J K L M N O P Q R S T U V W X Y Z z A B C D E F G H I J K L M N O P Q R S T U V W X Y Z `  ...+.@.z A B C D E F G H I J K L M N O P Q R S T U V W X Y Z ` z A B C D E F G H I J K L M N O P Q R S ",
"#.$.%.&.*.=.-.;.>.,.'.).!.~.{.].^./.(._.:.<.[.}.z |.1.2.3.4.5.#.$.%.&.*.=.-.;.>.,.'.).!.~.{.].^./.(._.:.<.[.}.z |.1.2.3.4.5.#.$.%.&.*.=.-.;.>.,.'.).!.~.{.].^./.(._.:.<.[.}.z |.1.2.3.4.5.#.$.%.&.*.=.-.;.>.,.'.).!.~.{.].^./.(._.:.<.[.}.z |.1.#.$.%.&.*.=.-.;.>.,.'.).!.~.{.].^./.(._.:.<.[.}.z |.1.2.3.4.5.6.#.$.%.&.*.=.-.;.>.,.'.).!.~.{.].^./.(._.:.<.[.}.z |.1.2.#.$.%.&.*.=.-.;.>.,.'.).!.~.{.].^./.(._.",
"7.8.9.0.a.b.c.d.e.f.g.h.i.j.k.l.m.n.o.p.q.r.;.s.t.u.v.w.x.y.z.7.8.9.0.a.b.c.d.e.f.g.h.i.j.k.l.m.n.o.p.q.r.;.s.t.u.v.w.x.y.z.7.8.9.0.a.b.c.d.e.f.g.h.i.j.k.l.m.n.o.p.q.r.;.s.t.u.v.w.x.y.z.7.8.9.0.a.b.c.d.e.f.g.h.i.j.k.l.m.n.o.p.q.r.;.s.t.u.v.7.8.9.0.a.b.c.d.e.f.g.h.i.j.k.l.m.n.o.p.q.r.;.s.t.u.v.w.x.y.z.A.7.8.9.0.a.b.c.d.e.f.g.h.i.j.k.l.m.n.o.p.q.r.;.s.t.u.v.w.7.8.9.0.a.b.c.d.e.f.g.h.i.j.k.l.m.n.o.p.",
"B.C.D.E.F.G.H.I.J.K.L.M.N.O.P.Q.R.S.T.U.V.W.X.Y.Z.`. +.+++@+#+B.C.D.E.F.G.H.I.J.K.L.M.N.O.P.Q.R.S.T.U.V.W.X.Y.Z.`. +.+++@+#+B.C.D.E.F.G.H.I.J.K.L.M.N.O.P.Q.R.S.T.U.V.W.X.Y.Z.`. +.+++@+#+B.C.D.E.F.G.H.I.J.K.L.M.N.O.P.Q.R.S.T.U.V.W.X.Y.Z.`. +B.C.D.E.F.G.H.I.J.K.L.M.N.O.P.Q.R.S.T.U.V.W.X.Y.Z.`. +.+++@+#+$+B.C.D.E.F.G.H.I.J.K.L.M.N.O.P.Q.R.S.T.U.V.W.X.Y.Z.`. +.+B.C.D.E.F.G.H.I.J.K.L.M.N.O.P.Q.R.S.T.U.",
"%+&+9.*+=+-+;+>+,+'+)+!+~+{+]+^+/+(+_+:+<+[+}+|+1+2+3+4+5+6+7+%+&+9.*+=+-+;+>+,+'+)+!+~+{+]+^+/+(+_+:+<+[+}+|+1+2+3+4+5+6+7+%+&+9.*+=+-+;+>+,+'+)+!+~+{+]+^+/+(+_+:+<+[+}+|+1+2+3+4+5+6+7+%+&+9.*+=+-+;+>+,+'+)+!+~+{+]+^+/+(+_+:+<+[+}+|+1+2+3+%+&+9.*+=+-+;+>+,+'+)+!+~+{+]+^+/+(+_+:+<+[+}+|+1+2+3+4+5+6+7+8+%+&+9.*+=+-+;+>+,+'+)+!+~+{+]+^+/+(+_+:+<+[+}+|+1+2+3+4+%+&+9.*+=+-+;+>+,+'+)+!+~+{+]+^+/+(+_+:+",
"9+0+a+b+c+d+e+f+g+h+i+j+k+l+m+n+o+p+q+r+s+t+u+v+w+x+y+z+A+B+C+9+0+a+b+c+d+e+f+g+h+i+j+k+l+m+n+o+p+q+r+s+t+u+v+w+x+y+z+A+B+C+9+0+a+b+c+d+e+f+g+h+i+j+k+l+m+n+o+p+q+r+s+t+u+v+w+x+y+z+A+B+C+9+0+a+b+c+d+e+f+g+h+i+j+k+l+m+n+o+p+q+r+s+t+u+v+w+x+y+9+0+a+b+c+d+e+f+g+h+i+j+k+l+m+n+o+p+q+r+s+t+u+v+w+x+y+z+A+B+C+D+9+0+a+b+c+d+e+f+g+h+i+j+k+l+m+n+o+p+q+r+s+t+u+v+w+x+y+z+9+0+a+b+c+d+e+f+g+h+i+j+k+l+m+n+o+p+q+r+",
"E+F+G+H+I+J+K+L+M+N+O+P+Q+R+S+T+U+V+W+X+Y+Z+`+ @.@+@@@#@$@%@&@E+F+G+H+I+J+K+L+M+N+O+P+Q+R+S+T+U+V+W+X+Y+Z+`+ @.@+@@@#@$@%@&@E+F+G+H+I+J+K+L+M+N+O+P+Q+R+S+T+U+V+W+X+Y+Z+`+ @.@+@@@#@$@%@&@E+F+G+H+I+J+K+L+M+N+O+P+Q+R+S+T+U+V+W+X+Y+Z+`+ @.@+@@@E+F+G+H+I+J+K+L+M+N+O+P+Q+R+S+T+U+V+W+X+Y+Z+`+ @.@+@@@#@$@%@&@*@E+F+G+H+I+J+K+L+M+N+O+P+Q+R+S+T+U+V+W+X+Y+Z+`+ @.@+@@@#@E+F+G+H+I+J+K+L+M+N+O+P+Q+R+S+T+U+V+W+X+",
"=@-@;@' >@,@'@)@!@~@{@]@^@/@(@_@:@<@[@}@|@1@2@3@4@5@6@7@8@9@0@=@-@;@' >@,@'@)@!@~@{@]@^@/@(@_@:@<@[@}@|@1@2@3@4@5@6@7@8@9@0@=@-@;@' >@,@'@)@!@~@{@]@^@/@(@_@:@<@[@}@|@1@2@3@4@5@6@7@8@9@0@=@-@;@' >@,@'@)@!@~@{@]@^@/@(@_@:@<@[@}@|@1@2@3@4@5@6@=@-@;@' >@,@'@)@!@~@{@]@^@/@(@_@:@<@[@}@|@1@2@3@4@5@6@7@8@9@0@a@=@-@;@' >@,@'@)@!@~@{@]@^@/@(@_@:@<@[@}@|@1@2@3@4@5@6@7@=@-@;@' >@,@'@)@!@~@{@]@^@/@(@_@:@<@[@}@",
"b@c@d@e@i.f@g@h@i@j@k@l@m@n@o@p@q@r@s@t@u@v@w@x@y@z@A@B@C@D@E@b@c@d@e@i.f@g@h@i@j@k@l@m@n@o@p@q@r@s@t@u@v@w@x@y@z@A@B@C@D@E@b@c@d@e@i.f@g@h@i@j@k@l@m@n@o@p@q@r@s@t@u@v@w@x@y@z@A@B@C@D@E@b@c@d@e@i.f@g@h@i@j@k@l@m@n@o@p@q@r@s@t@u@v@w@x@y@z@A@b@c@d@e@i.f@g@h@i@j@k@l@m@n@o@p@q@r@s@t@u@v@w@x@y@z@A@B@C@D@E@F@b@c@d@e@i.f@g@h@i@j@k@l@m@n@o@p@q@r@s@t@u@v@w@x@y@z@A@B@b@c@d@e@i.f@g@h@i@j@k@l@m@n@o@p@q@r@s@t@",
"G@H@I@J@K@L@M@N@O@P@Q@R@S@T@U@V@W@X@Y@Z@`@ #.#+#@###<+$#%#&#*#G@H@I@J@K@L@M@N@O@P@Q@R@S@T@U@V@W@X@Y@Z@`@ #.#+#@###<+$#%#&#*#G@H@I@J@K@L@M@N@O@P@Q@R@S@T@U@V@W@X@Y@Z@`@ #.#+#@###<+$#%#&#*#G@H@I@J@K@L@M@N@O@P@Q@R@S@T@U@V@W@X@Y@Z@`@ #.#+#@###<+G@H@I@J@K@L@M@N@O@P@Q@R@S@T@U@V@W@X@Y@Z@`@ #.#+#@###<+$#%#&#*#=#G@H@I@J@K@L@M@N@O@P@Q@R@S@T@U@V@W@X@Y@Z@`@ #.#+#@###<+$#G@H@I@J@K@L@M@N@O@P@Q@R@S@T@U@V@W@X@Y@Z@"};
